<?xml version="1.0" encoding="UTF-8"?>
<svg id="_Слой_2" data-name="Слой 2" xmlns="http://www.w3.org/2000/svg" viewBox="0 0 125.76 125.9">
  <defs>
    <style>
      .cls-1 {
        fill: #fff;
      }

      .cls-2 {
        opacity: .9;
      }
    </style>
  </defs>
  <g id="Graphic_Elements" data-name="Graphic Elements">
    <g class="cls-2">
      <g>
        <path class="cls-1" d="m75.66,2.32c.29.03.58.07.87.1-.29-.04-.58-.07-.87-.1Z"/>
        <path class="cls-1" d="m93.86,8.2l-1.59-.86s0,0,0,0c-.05-.02-.09-.05-.14-.07-.17-.09-.33-.17-.5-.25.11.05.22.1.33.16-.25-.13-.5-.26-.76-.4l-1.12-.51c.1.05.2.1.29.14-1.36-.63-2.76-1.2-4.19-1.71-6.11-1.44-12.42-2.04-23.27-2.22,20.11.99,27.02,3.86,29.34,4.85.54.28,1.07.56,1.6.86Z"/>
        <path class="cls-1" d="m77.85,1.83c-.78-.19-1.58-.38-2.25-.53l-.42-.09c-2.32-.36-6.92.36-12.25,1.27.46-.06.92-.12,1.37-.17,8.83-1.01,11.38-.84,13.55-.49Z"/>
        <path class="cls-1" d="m71.34.58c-.7-.09-1.56-.19-2.23-.27-.01,0-.02,0-.03,0-.13.03-.15.04-6.14,2.18,6.97-1.85,7.66-1.87,8.59-1.89-.06,0-.12-.02-.18-.02Z"/>
        <path class="cls-1" d="m41.59,122.2c.15.05.31.11.47.16,1.12.38,2.5.81,3.57,1.14,1.1.32,2.59.67,3.7.93-14.52-3.55-26.9-11.5-36.81-23.64l2.79,3.44c.35.39.66.74.94,1.06,1.03,1.07,2.25,2.32,3.5,3.51.77.7,1.73,1.55,3.05,2.72.68.55,1.48,1.16,2.3,1.76,7.04,5.19,11.85,7.1,16.49,8.92Z"/>
        <path class="cls-1" d="m66.08.17c-.09-.03-.21-.08-.31-.11,0,0-.01,0-.02,0-.65-.03-1.05-.04-1.09-.04-.37,0-.83-.02-1.22-.02.74.03.76.05,1.09.49q-.21.76-1.6,2c2.96-1.64,3.05-1.96,3.16-2.32Z"/>
        <path class="cls-1" d="m4.23,86c11.54,27.24,40.43,37.67,50.64,39.39.05,0,.1.01.15.02.54.07,1.22.14,1.73.19l1.07.09s.04,0,.06,0c-6.02-.56-47.44-12.77-56.75-50.37.1.56.2,1.1.3,1.61.69,2.62,1.75,6.05,2.65,8.66.05.14.1.26.15.4Z"/>
        <path class="cls-1" d="m61.17.49c1.43.54,1.5.85,1.76,2,1.05-2.34-1.12-2.39-3.04-2.43-.67.04-1.56.1-2.23.14l-.64.06c.98-.07,3.02-.2,4.15.22Z"/>
        <path class="cls-1" d="m61.51,125.88c.24,0,.48.01.72.01h.1s.08,0,.12,0c.27,0,.54,0,.81,0,.23,0,.46,0,.66,0,.01,0,.02,0,.04,0-4.77-.08-73.16-26-62.11-78.65,0,0,0,0,0,.01-.38,1.48-.75,3.48-1.07,4.98-.31,1.91-.56,4.49-.77,6.42-1.13,47.23,55.24,66.63,61.5,67.24Z"/>
        <path class="cls-1" d="m51.2,1.1c-.13.03-.26.05-.39.08,7.69-1.32,10.91.58,12.12,1.31-2.18-2.4-5.97-2.35-11.73-1.39Z"/>
        <path class="cls-1" d="m7.99,32.02c-27.78,53.55,50.03,91.37,59.34,93.72.06,0,.13,0,.19-.01l.41-.03c.06,0,.13-.01.2-.02.48-.04,1.04-.1,1.52-.15.06,0,.12-.01.18-.02-11.02-8.38-24.43-12.94-35.06-21.95-5.2-4.41-17.38-14.74-24.5-28.55-14.24-27.63-1.56-45.25,4.65-52.84-.22.25-.43.5-.64.75l-1.05,1.25c-1.65,2.27-3.72,5.36-5.2,7.76-.02.03-.03.06-.05.09Z"/>
        <path class="cls-1" d="m48.36,1.7s.08-.02.11-.03c-.1.02-.21.04-.3.07-.69.15-1.6.4-2.29.59-1.41.39-3.28.97-4.64,1.48-.84.32-1.95.74-2.78,1.09-.99.42-2.29,1.03-3.26,1.48-1,.47-2.3,1.15-3.24,1.71-1.12.65-2.49,1.5-3.72,2.29C15.67,19.03,5.74,32.91,7.11,48.57c3.24,36.92,45.06,62.25,60.8,71.79q5.45,3.3,5.77,4.59s.07-.01.1-.02c.86-.16,1.95-.39,2.81-.57.03,0,.06-.01.09-.02.31-.1.53-.55.74-.79-.71-1.38-2.12-2.37-9.69-7.33-19.48-12.76-39.08-27.43-50.51-48.23C-8.59,21.05,41.48-3.23,62.93,2.49c-4.16-1.61-9.22-1.79-14.57-.79Z"/>
        <path class="cls-1" d="m70.13,110.97c11.85,8.37,14.68,10.37,10.93,12.22.04-.01.08-.02.12-.04.57-.18,1.23-.4,1.88-.61.44-.15.87-.3,1.31-.46,5.31-2.47.68-5.87-10.37-14.01-12.22-9-27.44-20.2-40.35-36.58C-4.46,23.13,36.21-.8,62.93,2.49c-30.36-6.58-95.68,35.78,7.2,108.48Z"/>
        <path class="cls-1" d="m77.1,101.55c13.82,10.6,19,14.57,12.14,18.52.05-.03.11-.05.16-.07,1.15-.55,2.58-1.3,3.68-1.87,5.35-3.13,3.21-6.76.11-10.21-13-14.46-30.27-24.03-43.58-38.13C6.75,24.42,35.5,1.86,62.93,2.49,34.98-.06-14.94,30.97,77.1,101.55Z"/>
        <path class="cls-1" d="m87.78,92.79c13.17,10.55,17.86,16.22,10.83,21.92,1.2-.85,2.73-2.04,3.92-2.96.61-.5,1.23-1.04,1.84-1.56,5.47-5,2.4-7.71-34.36-40.08C16.73,23.18,40.74,6.61,58.11,3.15c-15.75,2.94-59.66,18.06,29.67,89.64Z"/>
        <path class="cls-1" d="m62.23,2.55c-1.3.12-2.69.32-4.12.6,1.85-.34,3.31-.52,4.12-.6Z"/>
        <path class="cls-1" d="m62.93,2.49s-.29.02-.7.06c.24-.02.47-.04.7-.06Z"/>
        <path class="cls-1" d="m85.32,72.13c21.84,17.58,30.04,25.62,22.93,34.35.05-.05.09-.1.14-.15,1.12-1.2,2.46-2.79,3.51-4,.02-.03.04-.05.07-.08,6.22-8.15.28-16.73-25.37-36.65C19.7,13.61,55.15,3.91,62.93,2.49c-5.67.72-53.24,8.77,22.39,69.64Z"/>
        <path class="cls-1" d="m89.84,58.06c24.72,18.46,31.52,27.9,26.89,37.34.19-.31.37-.62.55-.93l.17-.3c.13-.22.24-.42.36-.63l1.41-2.72c.17-.35.34-.7.5-1.03,5.52-12.65-15.39-27.87-29.27-37.97C45.25,18.95,50.54,6.85,62.93,2.49c-10.58,2.76-29.14,13.7,26.91,55.57Z"/>
        <path class="cls-1" d="m91.05,43.73c21.58,15.2,34.51,25.37,31.82,38.06.13-.43.26-.86.38-1.28.43-1.58.86-3.36,1.21-4.78,1.85-12.64-11.2-22.28-32.64-36.95-14.17-9.69-40.54-27.74-28.89-36.28-18.27,8.56,16.65,33.16,28.12,41.24Z"/>
        <path class="cls-1" d="m92.63,32.55c24.32,15.77,32.58,22.93,33.02,33.8.01-.21.03-.43.04-.64l.08-2.65-.06-2.57c-.01-.3-.03-.58-.04-.88-.93-11.4-16.13-20.8-35.34-32.67-13.51-8.35-28.83-17.82-27.39-24.44-6.33,6.69,15.35,20.75,29.7,30.06Z"/>
        <path class="cls-1" d="m91.06,22.48c22.4,12.72,30.83,18.89,33.51,28.21-.34-1.61-.88-3.65-1.34-5.38-.1-.36-.21-.71-.31-1.07-3.64-9.47-15.85-16.27-37.03-27.41-14.98-7.88-19.91-10.96-22.96-14.33,1.74,5.01,12.81,11.29,28.13,19.99Z"/>
        <path class="cls-1" d="m119.71,36.03c-.09-.19-.18-.38-.27-.57l-1.27-2.52-.86-1.5c-.16-.27-.32-.55-.48-.82-2.89-4.48-8.11-7.82-15.58-11.74-12.34-6.46-25.59-10.81-38.31-16.39,3.97,2.52,11.26,5.88,20.49,10.12,24.49,11.25,32.05,16.12,36.29,23.42Z"/>
        <path class="cls-1" d="m112.08,23.78c-.12-.14-.22-.28-.35-.43-.08-.09-.15-.18-.23-.28-.09-.11-.19-.23-.29-.34-.93-1.08-1.97-2.24-2.8-3.18-5.48-5.61-20.78-11.35-45.48-17.07,37.47,11.23,44.72,16.5,49.15,21.29Z"/>
        <path class="cls-1" d="m101.8,13.56c-.92-.7-1.92-1.44-2.77-2.08-.18-.12-.35-.24-.53-.36-5.94-3.75-17.9-6.66-35.56-8.63,10.99,1.63,30.64,5.31,39.65,11.71-.27-.22-.52-.43-.78-.64Z"/>
        <path class="cls-1" d="m76.87,2.48c1.47.2,2.91.46,4.33.79,2.52.42,2.83.52,4.75,1.14-.05-.02-.12-.05-.17-.07-.96-.38-2.26-.82-3.24-1.17,0,0-.02,0-.02,0-2.3-.74-5.01-.85-8.15-.97.14.01.29.03.43.04-1.6-.15-3.23-.23-4.88-.23-2.54.12-2.88.15-6.98.48,6.52-.27,9.48-.22,13.94-.01Zm-1.21-.15c.29.03.58.07.87.1-.29-.04-.58-.07-.87-.1Z"/>
      </g>
    </g>
  </g>
</svg>