<?xml version="1.0" encoding="UTF-8"?>
<svg xmlns="http://www.w3.org/2000/svg" viewBox="0 0 444.9 405.1">
  <defs>
    <style>
      .cls-1 {
        opacity: .7;
      }

      .cls-2 {
        fill: #fff;
      }

      .cls-3 {
        fill: #fafafa;
      }

      .cls-4 {
        opacity: .5;
      }

      .cls-5 {
        fill: #455a64;
      }

      .cls-6 {
        opacity: .2;
      }

      .cls-7 {
        fill: #e8505b;
      }

      .cls-8 {
        opacity: .4;
      }

      .cls-9 {
        fill: #eb996e;
      }

      .cls-10 {
        opacity: .3;
      }

      .cls-11 {
        fill: #ffbe9d;
      }

      .cls-12 {
        fill: #263238;
      }
    </style>
  </defs>
  <g id="Desk">
    <path class="cls-12" d="m444.4,404.8c0,.1-99.5.3-222.2.3s-222.2-.1-222.2-.3,99.5-.3,222.2-.3,222.2.1,222.2.3Z"/>
  </g>
  <g id="Plants">
    <g>
      <path class="cls-7" d="m59.5,374.1c1.1-4.4-1.7-8.8-5-11.9-3.2-3.2-7.1-6-8.7-10.2-2.7-6.8.9-15.6-3.7-21.3-2.7-3.3-7.6-4.5-10-8-1.3-1.9-1.7-4.2-2.2-6.4-2.5-11.2-8.2-21.8-16.1-30.1-.6,10,1.7,20.1,6.3,29,1.9,3.6,4.2,7,4.8,11,1,6.5-2.6,13.1-1,19.5,1.8,7.3,10,12.1,10.4,19.6.3,6.3-5.2,11.9-4.8,18.2.2,2.7,1.4,5.2,2.8,7.5,4.9,8.1,12.1,13.7,22.9,13.5l13.3.5-9.1-30.8Z"/>
      <g class="cls-10">
        <path d="m59.5,374.1c1.1-4.4-1.7-8.8-5-11.9-3.2-3.2-7.1-6-8.7-10.2-2.7-6.8.9-15.6-3.7-21.3-2.7-3.3-7.6-4.5-10-8-1.3-1.9-1.7-4.2-2.2-6.4-2.5-11.2-8.2-21.8-16.1-30.1-.6,10,1.7,20.1,6.3,29,1.9,3.6,4.2,7,4.8,11,1,6.5-2.6,13.1-1,19.5,1.8,7.3,10,12.1,10.4,19.6.3,6.3-5.2,11.9-4.8,18.2.2,2.7,1.4,5.2,2.8,7.5,4.9,8.1,12.1,13.7,22.9,13.5l13.3.5-9.1-30.8Z"/>
      </g>
      <g>
        <g>
          <path class="cls-12" d="m71.2,404.9s1.3.3,3.7,0c1.2-.2,2.7-.5,4.3-1.1,1.7-.6,3.5-1.5,5.3-2.9.9-.8,1.7-1.7,2.2-2.9.5-1.2.5-2.6.6-4,0-1.4,0-2.8.3-4.3.2-1.5.8-2.9,1.6-4.3,1.6-2.8,4.2-5.4,5-9.1.9-3.7.3-7.7-.4-11.7-.6-4-1.2-8.3.3-12.5,1.4-4.2,4.3-7.9,5.8-12.6,1.5-4.7.8-9.8,1.1-14.9.1-2.5.6-5.1,1.7-7.4,1.1-2.4,2.6-4.6,3.7-7.1,2.4-5,2.8-10.7,3.4-16.3.3-2.8.6-5.6,1-8.5.3-2.9.6-5.7,1.5-8.5.8-2.8,2-5.5,3.2-8.2.6-1.4,1.2-2.8,1.5-4.3.3-1.6.3-3,.4-4.6.1-3.1,0-6.1-.4-9.2-.4-3.1-.9-6.1-1.2-9.2,0-.2,0-.4,0-.5v-.6c0,0-.6.3-.6.3-2.9,1.4-5.3,3.6-7.2,6.1-1.9,2.5-3.3,5.3-4.4,8.1-2.2,5.7-3,11.7-4.1,17.4-1.1,5.7-2.5,11.4-5.5,16.1-1.5,2.4-3.2,4.5-4.8,6.9-1.5,2.3-2.9,4.8-3.3,7.6-.8,5.6,2.3,10.6,1.7,15.6-.2,2.5-1.2,4.8-2.4,6.9-1.2,2.1-2.6,4.1-4,6.1-1.3,2-2.6,4-3.6,6.1-1,2.1-1.5,4.4-1.6,6.7-.3,4.5.3,8.8,0,12.8-.3,4-1.7,7.7-3.3,10.9-1.6,3.3-3.4,6.2-4.9,9.1-.8,1.4-1.5,2.8-2,4.2-.6,1.4-.9,2.8-1.2,4.2-.4,2.8-.4,5.3,0,7.6.6,4.6,2.3,7.8,3.8,9.7.4.5.8.8,1.1,1.2.3.3.6.6.9.7.5.4.8.5.8.5,0,0-1.1-.7-2.6-2.6-1.5-1.9-3.1-5.1-3.6-9.6-.3-2.2-.3-4.8.2-7.5.3-1.3.6-2.7,1.2-4.1.6-1.4,1.3-2.8,2-4.2,1.5-2.8,3.3-5.8,5-9.1,1.6-3.3,3.1-7,3.4-11.1.3-4.1-.3-8.4,0-12.8.2-2.2.7-4.4,1.6-6.5.9-2.1,2.2-4.1,3.5-6,1.3-2,2.8-4,4-6.1,1.2-2.2,2.3-4.6,2.5-7.2.6-5.3-2.4-10.3-1.6-15.5.4-2.6,1.7-5,3.2-7.3,1.5-2.3,3.3-4.4,4.8-6.9,3-4.9,4.5-10.6,5.6-16.4,1.1-5.8,1.9-11.7,4.1-17.3,1.1-2.8,2.4-5.5,4.3-7.9,1.8-2.4,4.2-4.4,6.9-5.8l-.6-.3c0,.2,0,.4,0,.5.3,3.1.9,6.2,1.2,9.2.4,3,.5,6.1.4,9.1,0,1.5-.2,3-.4,4.4-.3,1.4-.9,2.8-1.5,4.2-1.2,2.7-2.4,5.5-3.2,8.3-.9,2.8-1.2,5.8-1.5,8.7-.3,2.9-.6,5.7-.9,8.5-.6,5.6-1.1,11.2-3.3,16-1.1,2.4-2.6,4.6-3.7,7.1-1.1,2.4-1.7,5.1-1.8,7.7-.3,5.1.4,10.2-1,14.7-1.4,4.5-4.3,8.3-5.8,12.6-1.6,4.3-.9,8.8-.3,12.8.6,4,1.3,7.9.4,11.5-.8,3.6-3.3,6.2-4.9,9-.8,1.4-1.4,2.9-1.7,4.5-.2,1.5-.2,3-.3,4.4,0,1.4-.1,2.7-.6,3.9-.4,1.2-1.2,2.1-2.1,2.8-1.7,1.4-3.6,2.3-5.2,2.9-1.6.6-3.1,1-4.3,1.2-1.2.2-2.1.2-2.7.3-.6,0-.9,0-.9,0Z"/>
          <path class="cls-12" d="m113.3,248s0,.1-.1.4c0,.3-.2.7-.3,1.2-.3,1-.6,2.6-1.1,4.6-.5,2-1.7,4.2-2.8,7-1.1,2.7-2.2,5.9-3.2,9.4-1,3.6-1.9,7.5-2.9,11.7-1,4.2-1.9,8.7-4.3,13-1.1,2.2-2.3,4.4-3.3,6.7-1,2.4-1.5,5-1.9,7.6-.6,5.3-1.6,10.6-2.9,16.1-2.7,10.9-5.2,21.3-7.5,30.8-2.4,9.4-4.5,17.9-6.3,25.1-1.8,7.1-3.2,12.9-4.2,16.9-.5,2-.8,3.5-1.1,4.6-.1.5-.2.9-.3,1.2,0,.3,0,.4,0,.4,0,0,0-.1.1-.4,0-.3.2-.7.3-1.2.3-1.1.7-2.6,1.3-4.6,1.1-4.1,2.6-9.8,4.4-16.9,1.9-7.2,4.1-15.6,6.5-25.1,2.3-9.5,4.9-19.9,7.6-30.8,1.3-5.5,2.2-10.9,2.9-16.2.4-2.6.9-5.1,1.8-7.5.9-2.3,2.2-4.5,3.2-6.7,2.3-4.3,3.3-9,4.3-13.2.9-4.2,1.8-8.2,2.7-11.7,1-3.5,2-6.7,3-9.4,1-2.7,2.1-5,2.6-7,.5-2,.7-3.6.9-4.7,0-.5.2-.9.2-1.2,0-.3,0-.4,0-.4Z"/>
        </g>
        <g>
          <path class="cls-7" d="m73.6,405c8.7-5.2,11.2-20.5,7.6-29.9-3.6-9.4-10-18.1-11-28.2-.8-7.7,1.8-15.7,0-23.3-2.4-10.2-12.4-18.1-12.3-28.6,0-5.9,3.4-11.4,3.1-17.3-.3-7.2-5.9-12.9-9.3-19.3-5.3-9.7-5.6-21.2-7.4-32.2-1.8-10.9-6-22.6-15.6-28-1.4,9.3-3.9,15.6-3.1,28.2.3,4.5,5.5,13.1,6.2,23,.4,5.9.7,11.8,1.1,17.7.4,5.8.7,11.6,2.8,17,1.6,4.1,4.1,7.9,5.3,12.1,2.2,8-.7,16.7,1.1,24.8,1.5,6.9,6.3,12.8,7.2,19.8,1.4,9.8-5,20-1.7,29.3,1.6,4.6,5.4,8.4,6.5,13.1.8,3.7,0,7.6.7,11.4,1.2,6,12.7,10.7,18.8,10.3"/>
          <path class="cls-12" d="m31.1,207.5s0,.2,0,.5c0,.4.1.9.2,1.5.2,1.3.4,3.3.9,5.8.5,2.6,1.8,5.4,2.9,8.9,1.1,3.5,2.2,7.4,3.2,11.9,1,4.5,1.8,9.4,2.7,14.7.9,5.3,1.8,11.1,4.5,16.6,1.2,2.8,2.6,5.6,3.6,8.5,1.1,3,1.5,6.1,1.8,9.4.4,6.6,1.3,13.4,2.6,20.3,2.7,13.7,5.2,26.8,7.5,38.7,2.4,11.9,4.6,22.5,6.5,31.5,1.9,8.9,3.4,16.2,4.4,21.2.5,2.5,1,4.4,1.2,5.8.1.6.3,1.1.3,1.5,0,.3.1.5.1.5,0,0,0-.2,0-.5,0-.4-.2-.9-.3-1.5-.3-1.4-.6-3.3-1.1-5.8-1-5.1-2.4-12.3-4.2-21.3-1.8-9-3.9-19.7-6.3-31.6-2.3-11.9-4.8-25-7.4-38.7-1.2-6.9-2.1-13.6-2.6-20.2-.3-3.3-.8-6.6-1.9-9.6-1.1-3-2.4-5.8-3.7-8.6-2.6-5.5-3.5-11.1-4.5-16.4-.9-5.3-1.8-10.3-2.8-14.7-1-4.5-2.2-8.5-3.3-11.9-1.1-3.5-2.5-6.3-3-8.8-.5-2.5-.8-4.5-1-5.8-.1-.6-.2-1.1-.3-1.5,0-.3-.1-.5-.1-.5Z"/>
        </g>
      </g>
    </g>
    <g>
      <path class="cls-7" d="m410.2,345.4c2.7,1.2,4.8,3.7,5.8,6.5,1,2.8,1.1,5.9.8,8.9-.7,5.7-3.9,11.5-7.4,16.1-4.8-4.2-5.9-11.6-6.3-15.4-.5-6,2.2-17.1,7.2-16.2"/>
      <path class="cls-7" d="m414.9,386.4c-.8-3.2.6-6.8,3.1-9,2.5-2.2,6-3.2,9.3-2.9,1.5.1,3.2.6,4.1,1.8.8,1.2.7,2.8,0,4.1-.7,1.3-1.8,2.2-3,3-4.2,2.6-8.7,4.4-13.5,3"/>
      <path class="cls-12" d="m408.7,404s0-.4.2-1.2c.2-.8.3-1.9.6-3.2.5-2.7,1.2-6.5,3.3-10.2,2-3.7,4.9-6.4,7.3-7.8,1.2-.7,2.2-1.1,3-1.3.4-.1.7-.2.9-.2.2,0,.3,0,.3,0,0,0-1.7.4-4,1.8-2.3,1.4-5.1,4.1-7.1,7.7-2,3.6-2.8,7.4-3.4,10-.3,1.3-.5,2.4-.7,3.2-.2.7-.3,1.2-.3,1.1Z"/>
      <path class="cls-12" d="m408.9,354s0,.2,0,.5c0,.4,0,.9,0,1.5,0,1.3.1,3.1.2,5.4.1,4.6.3,11,.2,18,0,7-.2,13.4-.4,18,0,2.3-.2,4.2-.3,5.4,0,.6,0,1.1-.1,1.5,0,.3,0,.5,0,.5,0,0,0-.2,0-.5,0-.4,0-.9,0-1.5,0-1.3,0-3.2.1-5.4.1-4.6.2-11,.3-18,0-7,0-13.4-.1-18,0-2.3,0-4.1,0-5.5,0-.6,0-1.1,0-1.5,0-.3,0-.5,0-.5Z"/>
      <path class="cls-7" d="m406.5,389.9c-1.1-7-5.8-13.2-12.1-16.3-1.6-.8-3.7-1.3-5.1,0-1.3,1.2-1,3.4-.4,5,2.7,7,10,11.9,17.5,11.8"/>
      <path class="cls-12" d="m395.2,379s.4.1,1,.4c.3.2.7.3,1.2.6.4.3,1,.5,1.5.9.5.4,1.1.8,1.7,1.3.6.5,1.2,1,1.8,1.6,1.2,1.2,2.4,2.7,3.4,4.4,1,1.7,1.7,3.5,2.3,5.1.2.8.5,1.6.6,2.4.2.7.2,1.5.3,2.1,0,.6,0,1.2,0,1.7,0,.5,0,1,0,1.3,0,.7,0,1.1-.1,1.1,0,0,0-1.6-.2-4.1,0-.6-.2-1.3-.3-2.1-.1-.7-.4-1.5-.6-2.3-.5-1.6-1.3-3.3-2.2-5-1-1.7-2.2-3.1-3.3-4.3-.6-.6-1.2-1.2-1.7-1.6-.6-.5-1.1-.9-1.6-1.3-2.1-1.5-3.5-2.2-3.5-2.2Z"/>
    </g>
  </g>
  <g id="Character">
    <g>
      <g>
        <g>
          <path class="cls-12" d="m339.4,185.6s-46.7-33.1-52.6-36.3c-5.6-3.1-23.5-5.4-25.1-5.7l-32-7-48.9,1.5-14,8.4-35.5,16.3c-9.7,4.5-17.3,12.4-21.3,22.3l-22.4,54.7,55.6,16.4,1.7,57.7-13.1,90.9h162.7l-8.2-174.3,16.9,3.7,36.1-48.7Z"/>
          <path class="cls-2" d="m144.2,233s-.6.4-1.7,1.1c-1.1.6-2.8,1.6-5.2,1.9-2.4.3-5.2-.2-8.1-1.2-3-.9-6.1-2.4-9.2-4-3.2-1.7-6.1-3.3-8.9-4.7-2.8-1.4-5.4-2.4-7.6-3-2.2-.7-4.1-1-5.4-1.1-.7,0-1.2-.1-1.5-.1-.3,0-.5,0-.5,0,0,0,.7,0,2,0,1.3.1,3.2.4,5.4,1,2.3.6,4.9,1.7,7.7,3,2.8,1.3,5.8,3,8.9,4.7,3.2,1.6,6.3,3.1,9.2,4,2.9.9,5.7,1.5,8,1.2,2.3-.3,4-1.2,5.2-1.8.6-.3,1-.6,1.3-.8.3-.2.5-.3.5-.3Z"/>
          <path class="cls-2" d="m141.8,206s-.1,0-.4,0c-.3,0-.7,0-1.1,0-.9,0-2.2-.1-3.9-.3-3.3-.3-7.8-1-12.7-2.1-4.9-1.1-9.2-2.5-12.3-3.7-1.5-.6-2.8-1.1-3.6-1.4-.4-.2-.7-.3-1-.4-.2,0-.3-.2-.3-.2,0,0,.1,0,.4.1.3.1.6.2,1,.4.9.3,2.1.8,3.7,1.4,3.1,1.1,7.4,2.5,12.3,3.6,4.9,1.1,9.4,1.8,12.7,2.1,1.6.2,3,.3,3.9.4.4,0,.8,0,1.1,0,.2,0,.4,0,.4,0Z"/>
          <path class="cls-2" d="m176.8,149.3s-.4.7-1.3,1.8c-.9,1.1-2.3,2.7-4.3,4.3-2,1.6-4.7,3.2-7.8,4.6-3.1,1.4-6.6,2.7-10.4,3.8-3.8,1.1-7.4,2.1-10.6,3.2-3.2,1.1-6.1,2.2-8.4,3.3-2.3,1.1-4.1,2.3-5.2,3.1-.6.4-1,.8-1.3,1-.3.2-.5.3-.5.3,0,0,.6-.5,1.7-1.4,1.1-.9,2.9-2,5.2-3.2,2.3-1.2,5.2-2.3,8.4-3.4,3.2-1.1,6.8-2.1,10.6-3.2,3.8-1.1,7.3-2.4,10.4-3.8,3.1-1.4,5.7-3,7.7-4.6,2-1.6,3.5-3.1,4.4-4.2.5-.5.8-1,1-1.3.2-.3.4-.5.4-.5Z"/>
          <path class="cls-2" d="m276.8,156.7s-.1,0-.4-.2c-.3-.2-.7-.4-1.2-.7-1.1-.6-2.6-1.3-4.6-2-2-.7-4.5-1.3-7.3-1.9-2.8-.5-5.9-.9-9.1-1.4-6.4-.9-12.3-1.7-16.6-2.3-2.1-.3-3.8-.5-5-.7-.5,0-1-.2-1.4-.2-.3,0-.5,0-.5,0,0,0,.2,0,.5,0,.4,0,.8.1,1.4.2,1.3.2,3,.4,5,.7,4.3.6,10.2,1.4,16.6,2.3,3.2.5,6.3.9,9.1,1.4,2.8.5,5.3,1.2,7.3,1.9,2,.7,3.6,1.5,4.6,2.1,1,.6,1.6,1,1.6,1Z"/>
          <path class="cls-2" d="m254.2,167.8s-.4.2-1.1.5c-.7.3-1.8.8-3.1,1.3-2.7,1.1-6.8,2.6-11.8,4.1-5.1,1.5-11.2,3-18.1,4-6.9,1.1-14.7,1.1-22.7.8-8.1-.3-15.8-.6-22.7-.2-7,.4-13.2,1.6-18.2,3.3-5,1.7-8.8,3.8-11.2,5.5-1.2.9-2.1,1.5-2.7,2.1-.6.5-.9.7-.9.7,0,0,.3-.3.9-.8.6-.5,1.5-1.2,2.7-2.1,2.4-1.7,6.2-3.9,11.2-5.6,5-1.7,11.2-3,18.2-3.4,7-.5,14.7-.1,22.7.2,8.1.3,15.8.3,22.7-.8,6.9-1,13-2.5,18.1-4,5.1-1.5,9.1-2.9,11.9-4,1.4-.5,2.4-1,3.2-1.3.7-.3,1.1-.4,1.1-.4Z"/>
          <path class="cls-2" d="m269.5,177.5s0,0-.2,0c-.2,0-.3.1-.5.2-.5.2-1.1.4-2,.6-1.7.5-4.1,1-6.7,1-2.7,0-5.1-.5-6.7-1-.8-.3-1.5-.5-2-.7-.2,0-.4-.1-.5-.2-.1,0-.2,0-.2,0,0,0,0,0,.2,0,.2,0,.3.1.5.2.5.2,1.1.4,2,.6,1.7.5,4,.9,6.7.9,2.6,0,5-.5,6.7-1,.8-.2,1.5-.4,2-.6.2,0,.4-.1.5-.2.1,0,.2,0,.2,0Z"/>
          <path class="cls-2" d="m238,205.8s-4.8,1-12.6,2.2c-3.9.6-8.6,1.2-13.8,1.7-5.2.5-11,.9-17,1.1-6,.2-11.8.2-17,0-5.2-.1-9.9-.4-13.9-.7-7.9-.6-12.8-1.3-12.8-1.3,0,0,.3,0,.9,0,.6,0,1.5.1,2.5.3,2.2.2,5.4.5,9.3.8,3.9.3,8.7.5,13.9.6,5.2.1,11,0,17-.1,6-.2,11.8-.6,17-1.1,5.2-.5,9.9-1.1,13.8-1.6,3.9-.6,7.1-1.1,9.3-1.5,1.1-.2,1.9-.3,2.5-.4.6,0,.9-.1.9-.1Z"/>
          <path class="cls-2" d="m277.1,203s-.1,0-.4,0c-.3,0-.6,0-1,0-.9,0-2.2,0-3.8,0-3.2,0-7.7-.1-12.6-.5-4.9-.4-9.4-1.1-12.5-1.7-1.6-.3-2.9-.5-3.8-.7-.4,0-.7-.2-1-.2-.2,0-.4,0-.4,0,0,0,.1,0,.4,0,.3,0,.6.1,1,.2,1,.2,2.3.4,3.8.7,3.2.5,7.6,1.2,12.5,1.6,4.9.4,9.4.6,12.6.6,1.5,0,2.8,0,3.8,0,.4,0,.7,0,1,0,.2,0,.4,0,.4,0Z"/>
          <path class="cls-2" d="m227.2,244.2s-.3,0-.8.1c-.6,0-1.4.2-2.4.3-1,.1-2.3.3-3.7.4-1.5,0-3.1.3-5,.3-1.8,0-3.9.2-6,.1-1.1,0-2.2,0-3.4,0-1.2,0-2.3,0-3.6-.1-4.9-.2-10.2-.6-15.9-1.1-5.6-.5-11-1-15.8-1.3-4.9-.3-9.3-.5-13-.5-.9,0-1.8,0-2.6,0-.8,0-1.6,0-2.3.1-1.5,0-2.7.1-3.8.3-1,0-1.8.2-2.4.2-.5,0-.8,0-.8,0,0,0,.3,0,.8-.1.6,0,1.4-.2,2.4-.3,1-.1,2.3-.2,3.8-.3.7,0,1.5,0,2.3-.1.8,0,1.7,0,2.6,0,3.7,0,8.1.1,13,.4,4.9.3,10.2.8,15.9,1.3,5.6.5,11,.9,15.9,1.1,1.2,0,2.4,0,3.6.1,1.2,0,2.3,0,3.4,0,2.2,0,4.2,0,6-.1,1.8,0,3.5-.2,5-.3,1.5,0,2.7-.2,3.7-.4,1-.1,1.8-.2,2.4-.3.5,0,.8,0,.8,0Z"/>
          <path class="cls-2" d="m286,232.5s-.2,0-.4,0c-.4,0-.8,0-1.3.1-1.1.1-2.7.3-4.7.4-4,.3-9.5.5-15.5.3-6.1-.2-11.6-.6-15.5-1.1-2-.2-3.6-.5-4.7-.6-.5,0-.9-.1-1.3-.2-.3,0-.4,0-.4,0,0,0,.2,0,.4,0,.4,0,.8,0,1.3.2,1.1.2,2.7.3,4.7.6,4,.4,9.4.9,15.5,1.1,6.1.2,11.6,0,15.5-.2,2-.1,3.6-.2,4.7-.3.5,0,.9,0,1.3,0,.3,0,.4,0,.4,0Z"/>
          <path class="cls-2" d="m286.8,268.8s-.5,0-1.5,0c-1,0-2.4-.2-4.2-.2-3.6-.2-8.9-.2-15.4,0-6.5.3-14.2,1.1-22.8,2.2-8.5,1.1-17.9,2.6-27.8,3.8-9.9,1.3-19.3,2.1-27.9,2.1-8.6,0-16.4-.5-22.8-1.7-6.4-1.1-11.5-2.5-15-3.8-.9-.3-1.6-.6-2.3-.8-.6-.3-1.2-.5-1.7-.7-.9-.4-1.4-.5-1.4-.5,0,0,.5.2,1.4.5.5.2,1,.4,1.7.6.7.3,1.4.5,2.3.8,3.4,1.2,8.5,2.6,14.9,3.7,6.4,1.1,14.2,1.7,22.8,1.6,8.6,0,18.1-.9,27.9-2.1,9.9-1.3,19.2-2.7,27.8-3.8,8.5-1.1,16.3-1.9,22.8-2.2,6.5-.3,11.8-.2,15.4,0,3.6.2,5.6.4,5.6.4Z"/>
          <path class="cls-2" d="m231.8,306.2s-4.8.8-12.6,1.7c-3.9.4-8.6.8-13.8,1.1-5.2.3-10.9.4-16.9.4-6,0-11.7-.3-16.9-.6-5.2-.4-9.9-.8-13.8-1.3-7.8-.9-12.6-1.8-12.6-1.8,0,0,.3,0,.9.1.6,0,1.5.2,2.5.4,1.1.2,2.4.4,4,.6,1.6.2,3.3.5,5.3.7,3.9.5,8.6.9,13.8,1.3,5.2.3,10.9.6,16.9.6,6,0,11.7-.1,16.9-.4,5.2-.3,9.9-.7,13.8-1.1,2-.2,3.7-.4,5.3-.6,1.6-.2,2.9-.3,4-.5,1.1-.1,1.9-.2,2.5-.3.6,0,.9-.1.9-.1Z"/>
          <path class="cls-2" d="m286.2,299s-.2,0-.5.2c-.4.1-.9.3-1.5.5-1.3.4-3.3,1-5.7,1.6-4.8,1.3-11.5,2.9-19,4.3-7.5,1.4-14.3,2.3-19.3,2.8-2.5.3-4.5.4-5.9.5-.6,0-1.2,0-1.6.1-.4,0-.6,0-.6,0,0,0,.2,0,.6,0,.4,0,1,0,1.6-.1,1.4-.1,3.4-.3,5.9-.6,5-.5,11.8-1.4,19.3-2.8,7.5-1.4,14.2-3,19-4.2,2.4-.6,4.4-1.2,5.7-1.5.6-.2,1.1-.3,1.5-.4.4,0,.5-.1.5-.1Z"/>
          <path class="cls-2" d="m193.6,347.9s-3,.5-7.8.8c-2.4.1-5.3.1-8.5,0-3.2-.2-6.7-.5-10.3-1.1-3.6-.6-7.1-1.4-10.1-2.3-3.1-.9-5.8-1.9-8-2.8-4.5-1.8-7.1-3.3-7.1-3.3,0,0,.2,0,.5.2.4.2.8.4,1.4.7.6.3,1.4.6,2.2,1,.9.4,1.9.8,3,1.2,2.2.9,5,1.8,8,2.7,3.1.9,6.5,1.7,10.1,2.3,3.6.6,7.1.9,10.3,1.1,3.2.1,6.1.2,8.5,0,1.2,0,2.3-.1,3.3-.2,1,0,1.8-.1,2.4-.2.6,0,1.1-.1,1.5-.2.4,0,.5,0,.5,0Z"/>
          <path class="cls-2" d="m289.8,345.3s-.3,0-1,.2c-.7.1-1.6.3-2.9.5-2.5.4-6.1.9-10.5,1.6-8.9,1.3-21.2,2.8-34.9,4.2-13.7,1.4-26.1,2.2-35,2.7-4.5.3-8.1.4-10.6.5-1.2,0-2.2,0-2.9.1-.7,0-1,0-1,0,0,0,.3,0,1,0,.7,0,1.7,0,2.9-.2,2.6-.1,6.2-.3,10.6-.6,9-.5,21.4-1.4,35-2.8,13.6-1.4,26-2.9,34.9-4.1,4.4-.6,8-1.1,10.5-1.5,1.2-.2,2.2-.3,2.9-.4.7,0,1-.1,1-.1Z"/>
          <path class="cls-2" d="m295.1,382.1s-2.2.5-6.2,1.1c-4,.6-9.8,1.5-17,2.1-7.2.6-15.8.9-25.3.6-9.5-.3-20-1.4-30.9-2.7-10.9-1.3-21.3-2.7-30.9-3.4-9.5-.8-18.1-.9-25.3-.6-7.2.4-13,1.2-17,1.9-2,.4-3.5.7-4.5,1-1,.2-1.6.4-1.6.4,0,0,.5-.1,1.6-.4,1-.3,2.6-.6,4.5-1,4-.8,9.8-1.6,17-2,7.2-.4,15.8-.2,25.3.5,9.5.7,19.9,2.1,30.9,3.4,10.9,1.3,21.4,2.4,30.9,2.7,9.5.3,18.1,0,25.3-.6,7.2-.6,13-1.4,17-2,2-.3,3.5-.6,4.6-.8,1-.2,1.6-.3,1.6-.3Z"/>
          <path class="cls-2" d="m324.4,176.7s-.3.8-.9,2.2c-.6,1.4-1.7,3.3-3.3,5.6-1.5,2.3-3.6,4.8-6,7.5-2.4,2.7-5.2,5.5-8,8.6-2.8,3.1-5.3,6.1-7.3,9.1-2,3-3.4,5.9-4.3,8.5-.9,2.6-1.3,4.8-1.4,6.3-.1.8,0,1.3-.1,1.7,0,.4,0,.6,0,.6,0,0,0-.8,0-2.4,0-1.5.5-3.7,1.3-6.3.9-2.6,2.3-5.5,4.3-8.6,2-3,4.5-6.1,7.3-9.2,2.8-3.1,5.6-5.9,8-8.5,2.4-2.7,4.5-5.2,6-7.4,1.6-2.2,2.7-4.2,3.3-5.5.4-.7.6-1.2.7-1.6.2-.4.3-.6.3-.6Z"/>
          <path class="cls-2" d="m278.3,193.9s.1,0,.3-.2c.3-.2.6-.4,1-.7.9-.6,2.1-1.5,3.6-2.6,1.5-1.1,3.2-2.6,5-4.2,1.8-1.7,3.7-3.6,5.6-5.8,1.8-2.2,3.5-4.4,4.8-6.4,1.4-2.1,2.5-4,3.4-5.6.9-1.6,1.6-3,2-3.9.2-.4.4-.8.5-1.1.1-.2.2-.4.2-.4,0,0-.8,2.2-2.6,5.5-.9,1.7-2,3.6-3.4,5.6-1.4,2.1-3,4.2-4.8,6.4-1.9,2.2-3.8,4.1-5.6,5.8-1.8,1.7-3.5,3.1-5,4.2-3,2.2-5,3.4-5,3.4Z"/>
          <g>
            <g>
              <path class="cls-5" d="m206.9,240.7s0,0,.2-.1c.2,0,.4-.2.7-.3.6-.2,1.6-.6,2.7-1.2,2.3-1.1,5.5-3.1,8.8-6.3,3.4-3.2,6.8-7.5,10.1-12.6,3.3-5.1,6.7-10.9,9.9-17.2,6.4-12.6,10.9-24.5,14-33.2,1.6-4.3,2.8-7.9,3.7-10.3.4-1.2.7-2.1,1-2.8.1-.3.2-.5.3-.7,0-.2,0-.2.1-.2,0,0,0,0,0,.3,0,.2-.1.4-.2.7-.2.7-.5,1.6-.9,2.8-.8,2.5-2,6-3.5,10.4-3.1,8.7-7.5,20.7-13.9,33.3-3.2,6.3-6.6,12.1-9.9,17.2-3.4,5.1-6.9,9.4-10.3,12.6-3.4,3.2-6.7,5.1-9,6.2-1.2.5-2.1.9-2.8,1.1-.3,0-.5.2-.7.2-.2,0-.3,0-.3,0Z"/>
              <path class="cls-5" d="m205.2,261.8s.2-.2.5-.4c.4-.3.9-.7,1.6-1.1,1.4-1,3.4-2.4,5.8-4.3,4.9-3.7,11.2-9.2,18.1-15.5,3.4-3.1,6.7-6.1,9.6-9,2.9-2.8,5.2-5.6,7.1-8,1.8-2.4,3.1-4.6,3.9-6.1.4-.7.7-1.3.9-1.7.2-.4.3-.6.3-.6,0,0,0,.2-.2.6-.2.4-.4,1-.8,1.8-.7,1.5-1.9,3.7-3.7,6.2-1.8,2.5-4.2,5.3-7,8.1-2.8,2.9-6.1,5.9-9.6,9-6.9,6.3-13.3,11.8-18.2,15.4-2.4,1.8-4.5,3.2-5.9,4.1-.7.5-1.3.8-1.7,1-.4.2-.6.3-.6.3Z"/>
              <path class="cls-5" d="m178.2,368.7s0,0,.1-.2c.1-.2.2-.4.4-.6.4-.6.9-1.4,1.6-2.4,1.4-2,3.7-4.9,6.6-8.2,5.9-6.7,14.2-15.7,23.4-25.8,9.2-10,17.5-19.1,23.5-25.7,3-3.2,5.4-5.9,7.2-7.7.8-.9,1.5-1.6,2-2.1.2-.2.4-.4.5-.5.1-.1.2-.2.2-.2,0,0,0,0-.2.2-.1.2-.3.3-.5.6-.5.5-1.1,1.2-1.9,2.1-1.7,1.9-4.1,4.6-7,7.8-6,6.6-14.3,15.7-23.4,25.8-9.2,10-17.4,19.1-23.5,25.7-3,3.3-5.2,6.1-6.7,8.1-.7,1-1.3,1.8-1.7,2.3-.2.2-.3.4-.4.6-.1.1-.2.2-.2.2Z"/>
            </g>
            <path class="cls-5" d="m271.6,189s-.2-.5-.4-1.5c-.1-.5-.2-1.1-.3-1.8,0-.7-.2-1.5-.3-2.4,0-.9-.1-1.9-.1-3,0-1.1,0-2.2,0-3.4.2-2.4.5-5,1.2-7.7.7-2.7,1.6-5.2,2.5-7.3.5-1.1,1-2.1,1.5-3,.5-.9,1-1.8,1.5-2.5.5-.8,1-1.4,1.4-2,.4-.6.8-1.1,1.1-1.5.6-.8,1-1.2,1-1.2,0,0-.3.5-.9,1.3-.3.4-.7.9-1.1,1.5-.4.6-.9,1.3-1.3,2-.5.8-1,1.6-1.4,2.5-.5.9-1,2-1.5,3-.9,2.2-1.8,4.6-2.5,7.3-.6,2.7-1,5.2-1.2,7.6,0,1.2-.2,2.3-.1,3.4,0,1.1,0,2,0,2.9,0,.9.1,1.7.2,2.4,0,.7.2,1.3.2,1.8.2,1,.2,1.5.2,1.6Z"/>
            <path class="cls-5" d="m286.1,224.9c-.1,0-1.9-3.9-4-8.9-2.1-5-3.7-9-3.6-9.1.1,0,1.9,3.9,4,8.9,2.1,5,3.7,9,3.6,9.1Z"/>
            <path class="cls-5" d="m143.2,193.2c0,0-.9-1.4-2.3-3.6-1.5-2.2-3.7-5-6.6-7.8-2.9-2.8-5.8-4.9-8-6.3-2.2-1.4-3.7-2.1-3.6-2.2,0,0,.4.1,1.1.4.7.3,1.6.8,2.8,1.5,2.3,1.3,5.3,3.5,8.2,6.3,2.9,2.8,5.1,5.8,6.5,8,.7,1.1,1.2,2,1.6,2.7.3.7.5,1,.5,1Z"/>
          </g>
        </g>
        <g>
          <path class="cls-5" d="m182.4,169.5s0-.4,0-1c0-.6.2-1.5.6-2.4.5-1.2,1.3-2.1,1.7-2.5h0c0,0,0,0,0,0,.1.3.2.4.2.4,0,0-.1-.1-.2-.4h0c-.4.5-1.1,1.4-1.6,2.6-.8,1.8-.7,3.4-.8,3.4Z"/>
          <path class="cls-5" d="m195.7,176.4s-.1-.4-.2-1c0-.6,0-1.5,0-2.5.1-1,.4-1.8.7-2.4.3-.6.5-.9.5-.9,0,0-.7,1.4-1,3.3-.3,1.9,0,3.4,0,3.4Z"/>
          <path class="cls-5" d="m210.1,175.2c0,0,0-1.3-.4-2.8-.4-1.5-1.1-2.6-1.1-2.6,0,0,.2.2.5.7.3.4.6,1.1.8,1.9.2.8.3,1.5.3,2,0,.5,0,.8,0,.8Z"/>
          <path class="cls-5" d="m222.7,169.7c0,0-.5-1.3-1.5-2.5-1-1.3-2.1-2-2.1-2.1,0,0,.3.1.8.5.4.3,1,.8,1.5,1.5.5.7.9,1.3,1.1,1.8.2.5.3.8.3.8Z"/>
          <path class="cls-5" d="m231.4,161.1c0,0-.3-1.5-1.7-2.7-1.4-1.2-3-1.2-2.9-1.3,0,0,0,0,.3,0,.2,0,.4,0,.7,0,.6.1,1.4.5,2.1,1.1.7.6,1.2,1.4,1.4,1.9.1.3.2.5.2.7,0,.2,0,.3,0,.3Z"/>
          <path class="cls-5" d="m236.1,145.3c0,0-1-1-2.6-1.3-1.6-.3-2.9.3-2.9.2,0,0,1.2-.8,2.9-.4,1.7.3,2.7,1.5,2.6,1.5Z"/>
          <path class="cls-5" d="m173.8,158.9s0-.3.2-.9c.2-.5.6-1.2,1.1-1.8.6-.6,1.2-1,1.7-1.3.5-.2.8-.3.8-.3,0,0-1.3.5-2.4,1.7-1.1,1.2-1.4,2.6-1.5,2.5Z"/>
          <path class="cls-5" d="m170.6,148.3s.1-.3.5-.8c.4-.5.9-1.1,1.7-1.6.7-.5,1.5-.8,2.1-1,.6-.2.9-.2.9-.2,0,0-1.4.3-2.9,1.3-1.5,1-2.2,2.2-2.3,2.2Z"/>
        </g>
        <path class="cls-12" d="m145.7,209.8s0,0,0,0c0,0,0,.2,0,.3,0,.3-.1.8-.2,1.3-.1,1.2-.2,2.9-.4,5-.3,4.2-.6,10-.9,16.5-.3,6.4-.5,12.3-.7,16.5,0,2-.1,3.7-.2,5,0,.5,0,1,0,1.4,0,.3,0,.5,0,.5s0-.2,0-.5c0-.4,0-.8,0-1.4,0-1.2,0-2.9,0-5,0-4.2.2-10.1.5-16.5.3-6.4.7-12.3,1.1-16.5.2-2.1.4-3.8.6-5,0-.6.2-1,.3-1.3,0-.2,0-.3.1-.3,0,0,.1,0,.1,0Z"/>
      </g>
      <g>
        <g>
          <path class="cls-12" d="m255.9,7.8c-8.3-2.6-17,4.9-25.6,3.2-5.2-1-9.1-5.2-13.7-7.8-6.9-3.9-16.7-4.5-23.8-.9-7.1,3.6-11.6,7.4-12.6,15.3-6.4-3.7-17.2,4.4-20.8,12.2-3.7,7.8-2.7,15.9-.7,24.2,3.6,14.4,10,28.1,18.8,40,.8,1.1,2,2.2,3.2,1.7.8-.4,1.1-1.4,1.2-2.3,1.2-7.7.3-15.5-.4-23.2-.7-7.7-1-15.7,1.5-23,2.4-7.4,8.2-14.1,15.8-15.6,5.6-1.1,11.4.7,16.4,3.5,5,2.8,9.4,6.6,14.1,9.7,4.8,3.2,10.1,5.9,15.8,6.1,5.7.2,11.9-2.4,14.3-7.6,2.4-5.2-.3-12.5-5.9-13.7,5.1-.5,9.6-4.9,10.2-10.1.5-5.1-3-10.4-7.9-11.9Z"/>
          <g>
            <g>
              <path class="cls-11" d="m230.2,141.9l-.8-16.6s21.8-4.2,21.3-26.1c-.2-10.6-2.5-32.4-4.8-52.1-2.5-21.2-20.8-36.9-42.1-36.2h-2.1c-22.8,2.2-33.7,22.7-30.9,45.5l5.3,88.4c.9,14.9,13.6,26.3,28.5,25.5h0c14.9-.8,26.4-13.5,25.6-28.4Z"/>
              <path class="cls-9" d="m229.4,125.4s-13.8,1.6-28.9-7.1c0,0,7.3,15.6,29.1,12.8l-.3-5.7Z"/>
            </g>
            <g>
              <g>
                <g>
                  <path class="cls-12" d="m238.5,62.1c.1,1.7-1.2,3.1-2.9,3.3-1.7.2-3.2-1.1-3.3-2.7-.1-1.7,1.2-3.1,2.9-3.3,1.7-.2,3.2,1.1,3.3,2.7Z"/>
                  <path class="cls-12" d="m241.6,58.1c-.4.4-2.8-1.3-6.2-1.1-3.4,0-5.8,1.9-6.2,1.5-.2-.2.2-.9,1.2-1.8,1-.8,2.8-1.6,4.9-1.7,2.1,0,3.9.6,4.9,1.4,1.1.8,1.4,1.5,1.3,1.7Z"/>
                </g>
                <g>
                  <path class="cls-12" d="m205.4,64.4c.1,1.7-1.2,3.1-2.9,3.3-1.7.2-3.2-1.1-3.3-2.7-.1-1.7,1.2-3.1,2.9-3.3,1.7-.2,3.2,1.1,3.3,2.7Z"/>
                  <path class="cls-12" d="m208.5,59.9c-.4.4-2.8-1.3-6.2-1.1-3.4,0-5.8,1.9-6.2,1.5-.2-.2.2-.9,1.2-1.7,1-.8,2.8-1.6,4.9-1.7,2.1,0,3.9.6,4.9,1.4,1.1.8,1.4,1.5,1.3,1.7Z"/>
                </g>
                <path class="cls-12" d="m221.6,84.4c0-.2,2.1-.6,5.4-1.2.9-.1,1.7-.3,1.8-.9.2-.6-.2-1.5-.7-2.5-.9-2.1-1.8-4.2-2.8-6.5-3.9-9.2-6.7-16.8-6.3-16.9.4-.2,3.8,7.2,7.7,16.4.9,2.3,1.8,4.4,2.7,6.5.4,1,1,2.1.6,3.4-.2.7-.8,1.1-1.4,1.3-.5.2-1,.2-1.5.3-3.4.3-5.5.4-5.5.2Z"/>
                <path class="cls-12" d="m211.7,87.1c.5,0,.7,3.6,3.9,6.1,3.2,2.5,7.1,1.9,7.2,2.5,0,.2-.8.7-2.5.8-1.6.1-4-.3-6-1.8-2-1.5-2.9-3.6-3-5.1-.2-1.5.2-2.4.4-2.4Z"/>
              </g>
              <path class="cls-12" d="m208.2,42.6c-.3.9-3.7.6-7.6,1.2-4,.5-7.1,1.8-7.7,1-.2-.4.3-1.3,1.5-2.2,1.2-.9,3.3-1.8,5.6-2.2,2.4-.3,4.6,0,6,.5,1.5.5,2.2,1.2,2.1,1.7Z"/>
              <path class="cls-12" d="m240,48.4c-.6.8-2.9,0-5.7.1-2.8,0-5.1.7-5.7,0-.3-.4,0-1.2,1.1-1.9,1-.8,2.7-1.4,4.6-1.4,1.9,0,3.6.6,4.6,1.4,1,.8,1.4,1.5,1.1,1.9Z"/>
            </g>
          </g>
          <g>
            <path class="cls-11" d="m173.2,72.6c-.4-.1-15.2-3.9-14.2,11.1,1,15,15.8,10.9,15.8,10.5,0-.4-1.6-21.5-1.6-21.5Z"/>
            <path class="cls-9" d="m169.8,88.8c0,0-.2.2-.7.4-.4.2-1.1.4-1.9.2-1.6-.5-3.1-2.9-3.4-5.6-.1-1.4,0-2.7.5-3.8.4-1.1,1-1.9,1.8-2.1.8-.2,1.4.2,1.6.6.2.4.2.7.2.7,0,0,.3-.3.1-.9,0-.3-.3-.6-.7-.9-.4-.3-.9-.4-1.5-.3-1.1.2-2.1,1.3-2.6,2.5-.5,1.2-.8,2.7-.6,4.2.3,3,2,5.7,4.2,6.2,1.1.2,1.9-.2,2.4-.6.4-.4.5-.7.4-.8Z"/>
          </g>
          <path class="cls-12" d="m250.4,42.4c-9.6,2.9-20.5.8-28.4-5.4-5.5-4.3-9.8-10.7-16.6-12.5-4.6-1.2-9.5,0-13.6,2.3-4,2.4-7.3,6-10,9.9,4.6,11,2.2,23.5-.3,35.2-.3,1.3-.6,2.7-1.6,3.5-1.7,1.4-4.4.5-6-1.1-2.6-2.5-3.7-6.1-4.4-9.6-1.7-8-2.2-16.3-.7-24.3,1.5-8,5.1-15.8,10.8-21.6,7.1-7.3,17.3-11.3,27.5-11.5,10.2-.2,20.3,3.3,28.7,9.1,3.9,2.7,7.5,6,9.6,10.3"/>
        </g>
        <path class="cls-5" d="m262.4,12.9s.1.5,0,1.3c-.2.8-.7,2.1-2,3.2-1.2,1.1-3.2,1.9-5.5,2.1-1.2,0-2.4.1-3.7,0-1.3-.2-2.7-.7-3.9-1.6-1.1-1-2.1-2.4-2-4.2,0-1.8,1.4-3.3,3.1-3.9.8-.3,1.8-.5,2.7-.4.9,0,1.9.5,2.6,1.1,1.5,1.2,2.3,3.2,2.4,5.2,0,2-.8,4.1-2.2,5.6-1.4,1.5-3.3,2.6-5.3,3.3-4.1,1.3-8.7.7-12.9-.9-4.2-1.6-7.9-4-11.3-6.3-3.5-2.3-6.8-4.5-10.3-6.1-3.4-1.6-7-2.3-10.4-2.1-3.4.2-6.4,1.3-8.9,2.6-5,2.8-7.9,6.7-9.6,9.4-.9,1.4-1.4,2.5-1.8,3.3-.4.8-.6,1.2-.6,1.2,0,0,0-.1,0-.3,0-.2.2-.5.4-.9.3-.8.9-1.9,1.7-3.3,1.6-2.8,4.5-6.8,9.6-9.7,2.5-1.4,5.6-2.5,9.1-2.8,3.5-.2,7.2.6,10.7,2.1,3.5,1.6,6.9,3.8,10.4,6.1,3.5,2.3,7.1,4.6,11.2,6.2,4.1,1.6,8.5,2.2,12.4.9,1.9-.6,3.7-1.6,5-3.1,1.3-1.4,2.1-3.3,2-5.1,0-1.8-.8-3.6-2.1-4.7-1.3-1.1-3.2-1.2-4.7-.6-1.5.6-2.7,1.9-2.7,3.4,0,1.5.7,2.9,1.8,3.7,1.1.9,2.4,1.4,3.6,1.6,1.3.2,2.5.2,3.6.2,2.3-.1,4.2-.9,5.4-1.9,1.2-1,1.8-2.2,2-3,.2-.8.2-1.3.2-1.3Z"/>
        <path class="cls-5" d="m157.2,42.9c0-.2,1.7.8,4.6,1,1.4,0,3.2,0,5-.7,1.8-.6,3.7-1.6,5.5-2.9,3.6-2.6,5.6-6.4,6.4-9.2.8-2.8.7-4.7.8-4.7,0,0,.1.5.1,1.3,0,.8,0,2.1-.4,3.5-.7,2.9-2.6,6.9-6.4,9.6-1.9,1.3-3.8,2.4-5.8,3-1.9.6-3.8.7-5.3.6-1.5-.2-2.7-.6-3.4-.9-.8-.3-1.2-.6-1.1-.6Z"/>
        <path class="cls-5" d="m158.3,53.7c0-.1,1.8.2,4.6,0,2.8-.2,6.7-1.2,10.2-3.7,3.5-2.5,5.7-5.9,6.9-8.4,1.2-2.6,1.4-4.4,1.6-4.3,0,0,0,.5-.1,1.3-.1.8-.4,1.9-1,3.3-1,2.7-3.3,6.2-6.9,8.8-3.7,2.6-7.7,3.6-10.6,3.7-1.5,0-2.6,0-3.4-.2-.8-.1-1.2-.3-1.2-.3Z"/>
        <path class="cls-9" d="m197.8,74.6c-.2,0-.4,0-.5-.3,0-.2,0-.4.3-.5.2,0,.4,0,.5.3,0,.2,0,.4-.3.5Z"/>
        <path class="cls-9" d="m204.1,72.9c-.2,0-.4-.1-.5-.4,0-.3,0-.5.3-.5.2,0,.4.1.5.4,0,.3,0,.5-.3.5Z"/>
        <path class="cls-9" d="m208.5,72.6c-.2,0-.4-.2-.5-.5,0-.3,0-.6.3-.7.2,0,.4.2.5.5,0,.3,0,.6-.3.7Z"/>
        <path class="cls-9" d="m201.1,78.5c-.2,0-.4,0-.4-.2,0-.1.2-.2.4-.3.2,0,.4,0,.4.2,0,.1-.2.2-.4.3Z"/>
        <path class="cls-9" d="m206.9,76.9c-.2,0-.4-.1-.4-.4,0-.2.1-.4.3-.5.2,0,.4.1.4.4,0,.2-.1.4-.3.5Z"/>
        <path class="cls-9" d="m237.5,72.2c-.2,0-.4,0-.5-.3,0-.2,0-.4.3-.5.2,0,.4,0,.5.3,0,.2,0,.4-.3.5Z"/>
        <path class="cls-9" d="m241.9,71.6c-.2,0-.4-.2-.4-.4,0-.3.1-.5.3-.5.2,0,.4.2.4.4,0,.3-.1.5-.3.5Z"/>
        <path class="cls-9" d="m233.7,72.4c-.2,0-.4,0-.4-.2,0-.2,0-.4.3-.4.2,0,.4,0,.4.2,0,.2,0,.4-.3.4Z"/>
        <path class="cls-9" d="m237.1,76.7c-.2,0-.4,0-.5-.2-.1-.2,0-.5.1-.5.2,0,.4,0,.5.2.1.2,0,.5-.1.5Z"/>
        <path class="cls-9" d="m240.8,75.8c-.2,0-.3-.2-.3-.4,0-.2.2-.3.4-.2.2,0,.3.2.3.4,0,.2-.2.3-.4.2Z"/>
      </g>
      <g>
        <g>
          <path class="cls-7" d="m233.4,325l-.2-22.2s-14.8-20.5-9-42.8c0,0,9.7-6.8,35.6-2.8,0,0,32.6-31.7,76.2-23.6,43.6,8.1,47.7,46.1,48.1,56.4.4,10.3.3,30.4-14.7,50.1l-1,19.5s-3.6,7.3-13.9,6.8c-10.4-.5-9.8-2-9.8-2,0,0-13,10.5-13.6,13.2-.6,2.7-2.6,13.1-2.6,13.1,0,0-4.5,6.1-14.2,6.9-4.6.3-8.4-.9-11.1-2.3-2.6-1.3-4.6-3.7-5.5-6.5-1.2-3.9-4.4-10.5-12.2-14.1l-6.7-1.8s-2.7,2.5-12.1,3.5c-9.4,1-9.5-2.3-9.5-2.3,0,0-14.7,3.4-25.7-11-8.7-11.4-13.4-31.8,2-38.1Z"/>
          <path class="cls-12" d="m323.8,326.3s.2-.2.5-.7c.3-.4.8-1.1,1.4-1.9,1.2-1.7,3-4.1,4.9-7.3,1.9-3.2,3.9-7.1,5.7-11.7.9-2.3,1.8-4.7,2.5-7.3.7-2.5,1.4-5.3.7-8-.7-2.7-2.7-4.8-4.8-6.3-2.2-1.5-4.5-2.6-6.8-3.5-4.5-1.8-8.9-2.7-12.6-3-3.7-.4-6.7-.2-8.8,0-1,0-1.8.2-2.4.3-.5,0-.8.1-.8,0,0,0,.3,0,.8-.2.5-.1,1.3-.2,2.4-.4,2.1-.3,5.1-.5,8.8-.2,3.7.3,8.1,1.1,12.7,3,2.3.9,4.7,2,6.9,3.6,2.2,1.5,4.3,3.7,5,6.6.7,2.9,0,5.7-.7,8.3-.8,2.6-1.6,5-2.6,7.3-1.8,4.6-3.9,8.5-5.9,11.7-1.9,3.2-3.7,5.6-5,7.3-.6.8-1.2,1.4-1.5,1.9-.4.4-.5.6-.6.6Z"/>
          <path class="cls-12" d="m262.8,258.1s0,.2.2.5c0,.3.1.9,0,1.5-.1,1.3-.8,3.3-2.5,5-1.6,1.8-4.1,3.3-6.5,5.2-2.4,2-5,4.3-7.3,7.1-4.7,5.5-7.8,11.4-9.6,15.7-.9,2.2-1.5,4-1.9,5.3-.2.6-.3,1.1-.4,1.5-.1.3-.2.5-.2.5,0,0,0-.2,0-.5,0-.4.2-.9.3-1.5.3-1.3.9-3.1,1.7-5.4,1.7-4.5,4.8-10.4,9.6-15.9,2.4-2.8,4.9-5.2,7.4-7.1,2.5-2,4.9-3.4,6.6-5.1,1.7-1.7,2.4-3.5,2.6-4.8.2-1.3,0-2,0-2Z"/>
          <g class="cls-4">
            <path d="m280.3,260.8l13.3,3.4s19.4-21.8,40.8-27.4l-8-1.9s-25.8,4.5-46.1,25.9Z"/>
          </g>
          <path class="cls-7" d="m330,235.8c-17.3,3.9-33.4,13.1-45.6,26l-4.1-1s18.8-20.7,46.1-25.9l3.7.8Z"/>
          <g class="cls-1">
            <path d="m330,235.8c-17.3,3.9-33.4,13.1-45.6,26l-4.1-1s18.8-20.7,46.1-25.9l3.7.8Z"/>
          </g>
          <path class="cls-7" d="m227,329.6c7.4-10.5,25.8-7.3,34.2,2.2,8.3,9.3,12.1,22.5,6.7,33.7-2.3,4.8-6.8,9-12.1,8.9,5.5-5.9,7.4-14.4,5.7-22.2-1.7-7.9-6.7-14.8-12.9-19.8-3.2-2.6-6.7-5.4-10.8-5.8-4.1-.4-7.3-.5-10.7,3.1"/>
          <g class="cls-10">
            <path d="m227,329.6c7.4-10.5,25.8-7.3,34.2,2.2,8.3,9.3,12.1,22.5,6.7,33.7-2.3,4.8-6.8,9-12.1,8.9,5.5-5.9,7.4-14.4,5.7-22.2-1.7-7.9-6.7-14.8-12.9-19.8-3.2-2.6-6.7-5.4-10.8-5.8-4.1-.4-7.3-.5-10.7,3.1"/>
          </g>
          <g class="cls-10">
            <path d="m324.6,325.7c-.1,2.2,1.9,4.2,4.1,4.5,2.2.3,4.4-.9,5.9-2.6,1.5-1.7,2.3-3.8,3-5.9,2.3-7.2,3.5-18,2.3-25.4-3.2,9.7-8.9,21.7-15.5,29.5"/>
          </g>
          <g class="cls-10">
            <path d="m331.5,292.5c-1.4-4.2-5.8-6.7-10-8.2-4.3-1.5-8.8-2.4-13.3-2.6-1.4,0-2.9,0-4.2.4-1.3.5-2.5,1.6-2.8,3-.2,1.1.4,2.4,1.4,2.9,7.2,8.4,12.7,18.2,15.9,28.8.6,2.1,3.2,2.6,4.6,1,3.4-3.9,5.4-9.1,7.1-14.1,1.3-3.6,2.6-7.6,1.4-11.3Z"/>
          </g>
          <g class="cls-10">
            <path d="m235.9,294.4c-4.5-7-6.9-15.4-6.7-23.7,0-1.8.3-3.7,1.5-4.9,1.5-1.5,3.9-1.6,6-1.4,5.9.4,11.7,1.2,17.5,2.5.4,0,1,.3,1.1.7.3.6.2,1.6-.4,2-9,5.5-15.3,15.6-18.7,25.5"/>
          </g>
          <path class="cls-3" d="m224.8,260.8s0,.5,0,1.5c0,1-.2,2.4-.2,4.1-.1,3.5,0,8.3.9,13.5.5,2.6,1.1,5,1.7,7.2.7,2.2,1.4,4.1,2.1,5.7.7,1.6,1.3,2.9,1.7,3.7.4.9.7,1.4.6,1.4,0,0-.3-.4-.8-1.3-.5-.8-1.1-2.1-1.9-3.7-.7-1.6-1.5-3.5-2.2-5.7-.7-2.2-1.3-4.7-1.8-7.3-.9-5.3-1-10.1-.7-13.6.1-1.7.3-3.1.4-4.1.1-1,.2-1.5.3-1.5Z"/>
          <path class="cls-3" d="m325.5,234.3s-.2,0-.5.2c-.4.1-.9.3-1.5.4-.7.2-1.5.4-2.4.7-.9.3-2,.6-3.1,1-2.3.8-5,1.8-8,3.1-2.9,1.3-6.1,2.8-9.3,4.6-3.2,1.8-6.2,3.7-8.8,5.6-2.6,1.9-4.9,3.6-6.8,5.2-.9.8-1.8,1.5-2.5,2.1-.7.6-1.3,1.2-1.8,1.7-.5.4-.8.8-1.2,1.1-.3.2-.4.4-.4.3,0,0,.1-.2.4-.4.3-.3.7-.7,1.1-1.1.5-.5,1.1-1.1,1.8-1.7.7-.7,1.5-1.4,2.4-2.2,1.8-1.6,4.1-3.4,6.7-5.3,2.6-1.9,5.6-3.8,8.8-5.6,3.3-1.8,6.5-3.3,9.4-4.6,3-1.2,5.7-2.2,8-3,1.2-.4,2.2-.7,3.2-.9.9-.3,1.7-.5,2.4-.6.6-.1,1.1-.3,1.5-.3.4,0,.5-.1.5,0Z"/>
          <path class="cls-3" d="m337.2,287.1c0,0-1.6-1.4-4.5-3.3-1.4-.9-3.3-1.9-5.3-2.8-2.1-.9-4.5-1.6-7-2.2-5.1-1.2-9.9-1.1-13.3-.8-3.4.3-5.5.9-5.5.8,0,0,.5-.2,1.4-.4.9-.3,2.3-.5,4-.7,3.4-.4,8.3-.5,13.5.7,2.6.6,5,1.4,7.1,2.3,2.1.9,3.9,1.9,5.3,2.9.4.2.7.5,1,.7.3.2.6.5.9.7.5.4,1,.8,1.3,1.1.7.7,1.1,1,1.1,1.1Z"/>
          <path class="cls-3" d="m247.7,372.7s-.2,0-.5-.1c-.3-.1-.8-.2-1.3-.5-1.1-.4-2.8-1.2-4.7-2.3-3.8-2.2-8.6-6.3-12-12.1-3.4-5.9-4.6-12-4.7-16.4,0-2.2,0-4,.3-5.2,0-.6.2-1.1.2-1.4,0-.3.1-.5.1-.5,0,0,0,.7-.2,1.9-.1,1.2-.2,3-.1,5.2.2,4.3,1.4,10.4,4.8,16.2,3.4,5.8,8.1,9.8,11.8,12.1,1.8,1.2,3.4,2,4.6,2.4,1.1.5,1.7.8,1.7.8Z"/>
          <g>
            <g class="cls-6">
              <path d="m250.4,349.6c-1.5-.6-3.4,0-4.5,1.2s-1.5,3-1.3,4.6c.3,1.6.7,3,1.9,4.2.8.8,2.2,1.5,3.3,1.6,1.5,0,3-1,3.7-2.4.9-1.6,1-3.6.4-5.3-.6-1.7-1.9-3.2-3.6-3.9"/>
            </g>
            <path class="cls-7" d="m248.8,349.4c-1.4,1.7-1.9,4.2-1.2,6.3s2.6,3.8,4.8,4.4c-.7.7-2.2,1.2-3.4.9-3-.9-4.9-4-4.7-7.1,0-1.2.6-2.5,1.4-3.4.9-.9,2.6-1.2,3.1-1.1"/>
            <g class="cls-8">
              <path d="m248.8,349.4c-1.4,1.7-1.9,4.2-1.2,6.3s2.6,3.8,4.8,4.4c-.7.7-2.2,1.2-3.4.9-3-.9-4.9-4-4.7-7.1,0-1.2.6-2.5,1.4-3.4.9-.9,2.6-1.2,3.1-1.1"/>
            </g>
          </g>
          <g>
            <g class="cls-6">
              <path d="m235.6,343.9c-1.5-.6-3.2,0-4.3,1.1-1.1,1.2-1.5,2.9-1.2,4.4.3,1.6.7,2.9,1.8,4,.8.8,2.1,1.5,3.2,1.6,1.5,0,2.9-1,3.6-2.3.9-1.5,1-3.4.4-5.1-.6-1.6-1.8-3.1-3.5-3.7"/>
            </g>
            <path class="cls-7" d="m234.1,343.7c-1.4,1.7-1.8,4.1-1.2,6.1.7,2.1,2.5,3.7,4.6,4.2-.7.7-2.2,1.2-3.2.9-2.9-.8-4.8-3.9-4.5-6.9,0-1.2.5-2.4,1.4-3.3.9-.8,2.5-1.2,3-1.1"/>
            <g class="cls-8">
              <path d="m234.1,343.7c-1.4,1.7-1.8,4.1-1.2,6.1.7,2.1,2.5,3.7,4.6,4.2-.7.7-2.2,1.2-3.2.9-2.9-.8-4.8-3.9-4.5-6.9,0-1.2.5-2.4,1.4-3.3.9-.8,2.5-1.2,3-1.1"/>
            </g>
          </g>
          <g>
            <path class="cls-12" d="m275.4,315.8c0,0,0,0,0,0h0Z"/>
            <g>
              <path class="cls-12" d="m273.6,316.4s0,0,.1,0c0,0,0,0,0,0h-.2Z"/>
              <path class="cls-12" d="m281.1,319.5c-.5-1.3-1.4-2.4-2.6-3-.8-.4-1.9-.8-3.1-.7h0c-.6,0-1.2.2-1.7.5-2.2,1.1-3.8,3.4-4,5.8-.2,3.1,1.7,6.3,4.6,7.6,1,.4,2,.7,3.1.5,1-.2,1.9-1,2.6-1.8,1.9-2.4,2.4-6,1.2-8.9Z"/>
            </g>
          </g>
          <g>
            <path class="cls-12" d="m244.2,306.2c0,0,0,0,0,0h0Z"/>
            <g>
              <path class="cls-12" d="m242.7,306.7s0,0,.1,0c0,0,0,0,0,0h-.2Z"/>
              <path class="cls-12" d="m249.2,309.4c-.4-1.1-1.2-2.1-2.2-2.6-.7-.3-1.7-.7-2.6-.6h0c-.5,0-1,.2-1.5.4-1.9.9-3.3,2.9-3.5,5.1-.2,2.7,1.5,5.4,4,6.6.8.4,1.8.6,2.7.4.9-.2,1.7-.8,2.2-1.6,1.7-2.1,2-5.2,1-7.7Z"/>
            </g>
          </g>
          <path class="cls-12" d="m251.2,326.1s.2,0,.6.1c.4,0,1,.3,1.7.5,1.5.5,3.6,1.5,5.9,3.2,2.3,1.7,4.7,4.1,6.7,7.3,2,3.2,3.5,7.1,4.2,11.4.7,4.3.6,8.5-.1,12.2-.7,3.7-2.2,6.9-4.1,9-1.9,2.1-4.1,3.2-5.6,3.6-1.5.4-2.4.3-2.4.3,0,0,.9,0,2.4-.5,1.5-.5,3.6-1.6,5.4-3.6,1.9-2.1,3.3-5.2,3.9-8.8.7-3.6.8-7.8,0-12-.7-4.2-2.1-8.1-4.1-11.2-1.9-3.2-4.3-5.6-6.5-7.3-2.2-1.7-4.3-2.7-5.7-3.3-1.5-.6-2.3-.8-2.3-.8Z"/>
          <path class="cls-3" d="m241.6,314.3c0,0-.3-.2-.6-.7-.3-.5-.5-1.2-.5-2,0-.8.2-1.6.5-2,.3-.5.5-.7.6-.7.1,0-.6,1.2-.6,2.7,0,1.5.7,2.6.6,2.7Z"/>
          <path class="cls-3" d="m271.8,325.3c0,0-.3-.2-.5-.8-.2-.5-.4-1.3-.2-2.2.1-.9.5-1.6.9-2,.4-.4.7-.6.7-.5.1.1-.9,1.1-1.2,2.7-.3,1.6.4,2.8.2,2.9Z"/>
          <path class="cls-12" d="m290.8,378.2c0,0-1.3-.8-3.4-1.8-2.1-1.1-5.2-2.3-8.6-3.4-3.4-1.1-6.6-2.1-8.8-2.9-1.1-.4-2-.7-2.6-1-.6-.3-.9-.4-.9-.5,0,0,1.4.4,3.7,1.1,2.3.7,5.4,1.6,8.9,2.7,3.5,1.1,6.5,2.4,8.6,3.6.5.3,1,.6,1.4.8.4.2.7.5,1,.7.5.4.8.6.8.7Z"/>
          <path class="cls-12" d="m361.7,346s-.3.5-.9,1.4c-.6.9-1.6,2.1-2.8,3.6-2.4,3-6.1,6.9-10.5,10.9-4.4,4-8.4,7.4-11.3,9.9-1.4,1.2-2.5,2.3-3.4,3-.8.7-1.3,1.1-1.3,1.1s.4-.5,1.1-1.2c.8-.8,1.9-1.8,3.3-3.2,2.8-2.6,6.9-6.1,11.2-10.1,4.3-3.9,8-7.8,10.5-10.7,1.2-1.5,2.2-2.7,2.9-3.5.7-.8,1-1.3,1.1-1.3Z"/>
          <g class="cls-6">
            <path d="m344.7,364.5c5.4.4,11.5-1.2,15.3-5,3.8-3.8,5.2-10.2,2.8-15.1-3.1,4.5-6.7,9.2-11,12.9-2.7,2.3-4.5,5.1-7.2,7.2"/>
          </g>
          <g class="cls-4">
            <path d="m325.6,238.7c7,10.3,21.4,13.6,28.3,23.9,2.7,4,4,8.7,5.3,13.4,5.3,19.2,10.7,38.5,16,57.7.7-12.5-2.4-24.9-5.3-37.1-3-12-5.9-24-8.9-36-.7-2.6-1.3-5.4-2.9-7.6-1.6-2.3-3.9-3.9-6.2-5.4-8.2-5.5-16.7-11.1-26.3-13.3"/>
          </g>
        </g>
        <g class="cls-10">
          <path class="cls-2" d="m276.5,269.9c.4,1.4-1.5,3.3-4.5,5.7-1.5,1.2-3.3,2.5-5.2,4-1.9,1.5-4,3.1-6.2,4.8-2.1,1.8-4.1,3.5-6,5.1-1.8,1.6-3.5,3.1-5,4.3-2.9,2.4-5.2,3.9-6.5,3.2-1.2-.7-1.2-3.6.5-7.5.8-2,2.2-4.2,3.9-6.5,1.7-2.2,3.9-4.5,6.4-6.6,2.6-2.1,5.2-3.7,7.8-5,2.6-1.2,5-2,7.1-2.5,4.3-.9,7.1-.3,7.5,1Z"/>
        </g>
        <path class="cls-3" d="m249.7,348.8c0,.2-1,.2-2.3.5-1.2.3-2.2.7-2.3.5,0-.1.8-.7,2.1-1,1.3-.3,2.4-.2,2.4,0Z"/>
        <path class="cls-3" d="m234.5,343.3c0,.1-1,0-2.1.4-1.1.3-2,.7-2.1.6,0-.1.7-.8,1.9-1.1,1.2-.3,2.3,0,2.2.1Z"/>
        <path class="cls-3" d="m301.9,389.8c-.1,0-1.5-2.2-3.3-4.8-1.8-2.6-3.5-4.6-3.4-4.7,0,0,2,1.8,3.8,4.4,1.9,2.7,3,5,2.9,5.1Z"/>
        <path class="cls-3" d="m242.3,284.9c.1,0-1.8,3-3.5,6.9-1.7,3.9-2.5,7.3-2.7,7.3,0,0,0-.9.4-2.3.3-1.4.9-3.2,1.8-5.2.9-2,1.8-3.7,2.6-4.9.8-1.2,1.3-1.9,1.4-1.8Z"/>
        <path class="cls-3" d="m290.8,265.5c0,.1-2.6-.3-5.6-1.4-3-1.1-5.3-2.3-5.2-2.4,0-.1,2.4.9,5.4,1.9,3,1,5.5,1.7,5.4,1.9Z"/>
      </g>
      <g>
        <g>
          <path class="cls-9" d="m368.8,249.3c.1,0-1.5,2.2-4.2,4-2.7,1.8-5.4,2.3-5.4,2.2,0-.1,2.5-.9,5.1-2.6,2.7-1.7,4.4-3.7,4.5-3.6Z"/>
          <g>
            <path class="cls-11" d="m398.1,242.6c-5.4-12.4-59.1-56.4-59.1-56.4l-30.3,39.3c.4-.6,49.4,29.3,49.4,29.3l14.5,65.9h0l2.5,11.7s-6.5,5.7-6.2,11.7c.2,4-9,12.6-9,12.6-2.2-1.8-3.6-2.3-4.7-2.1l-9.7,9.1,2.3,2.1c2.6,2.4,6,3.6,9.5,3.5l16.7-.5c2.4,0,4.6-1.1,6.3-2.8,5.1-5.3,15.9-17.1,16.2-22.7.1-3.2.1-6.2.1-8.6,0,0,7.1-79.6,1.7-92Z"/>
            <path class="cls-9" d="m382.1,347.9s-.3.3-.9.6c-.6.3-1.6.7-2.6,1.3-1.1.6-2.2,1.6-3.3,2.8-1.1,1.2-2.3,2.7-4,3.7-3.3,2.2-6.9,2.8-9.4,2.6-.6,0-1.2,0-1.7-.3-.5-.2-.8-.7-.8-1.1,0-.4.2-.7.3-.8.2-.1.3,0,.3,0,0,0,0,0-.2.2-.1.1-.2.4-.2.7,0,.3.3.7.7.8.4.2,1,.2,1.6.2,2.5,0,6-.5,9.1-2.7,1.6-1,2.8-2.4,3.9-3.6,1.1-1.2,2.3-2.3,3.4-2.8,1.1-.6,2.1-.9,2.7-1.2.6-.3,1-.5,1-.4Z"/>
            <path class="cls-9" d="m374.5,356.6c0,.1-1.3.9-2.8,2.2-1.5,1.3-2.5,2.5-2.6,2.4-.1,0,.8-1.5,2.3-2.8,1.5-1.3,3.1-1.9,3.1-1.8Z"/>
            <path class="cls-9" d="m381.2,329.3c0,.2-1.5.2-3.1,1-1.6.7-2.6,1.8-2.7,1.7-.1,0,.8-1.4,2.5-2.2,1.7-.8,3.3-.7,3.3-.6Z"/>
          </g>
        </g>
        <path class="cls-9" d="m370.8,361.8c0,0-1.1-.4-2.9-.9-1.8-.4-4.4-.7-7.1-.1-.7.1-1.3.3-2,.5-.3,0-.6.2-1,.3-.4,0-.8,0-1.1-.2-1-.7-1.9-1.3-2.6-1.9-1.5-1.1-2.4-1.8-2.4-1.9,0,0,1,.5,2.6,1.6.8.5,1.7,1.2,2.7,1.8.4.3,1,0,1.6-.1.6-.2,1.3-.4,2-.6,2.8-.6,5.5-.2,7.3.3.9.3,1.6.6,2.1.8.5.2.7.4.7.4Z"/>
      </g>
      <g>
        <path class="cls-11" d="m257.7,209c-6.4-1.8-9.3-2.6-9.3-2.6v-2.9s0,0,2.6,0c2.6,0,6.2-3.2,6.2-3.2l5.5-8.4.7-5.4c-.6-6.6-8.6-4-8.6-4-.4-2.3-10.6-4.6-18.3-6.1-5.2-1-10.6.4-14.6,3.9l-7.4,6.2-22.1,19.3-57,48.2-37.5-11.1s-11.9,36.5-13.9,49.5c-3.7,25.1,30.8,41.8,46,28.9,11.8-10,80.8-84.3,92.2-96.6,0,0,0,0,0,0,7-.9,18.9-8,18.9-8l6.1.7s16.2,3.1,18.1,0c1.5-2.5-1.3-6.6-7.7-8.4Z"/>
        <g>
          <g>
            <g>
              <path class="cls-9" d="m224.5,201.7s.2.2.4.7c.2.5.4,1.2.7,2,.4,1.8.7,4.3.3,7.1-.4,2.8-1.5,5.1-2.4,6.6-.5.8-.9,1.4-1.3,1.7-.3.4-.5.6-.6.6,0,0,.6-.9,1.5-2.5.9-1.6,1.8-3.9,2.2-6.5.4-2.7.2-5.2-.1-6.9-.3-1.8-.7-2.8-.7-2.8Z"/>
              <path class="cls-9" d="m228.7,181.3s.2,0,.6-.1c.4,0,1-.1,1.8-.2,1.6-.1,3.9-.3,6.7,0,1.4.2,2.9.6,4.5,1.3,1.5.7,3.1,1.8,4.3,3.3,1.2,1.5,2.1,3.4,2,5.5,0,1.1-.3,2.1-.8,3.1-.5,1-1.2,1.8-2,2.6-1.5,1.5-3.2,2.8-4.9,3.9-.9.5-1.7,1.1-2.6,1.4-.5.2-1,.3-1.5.3-.5,0-1.1-.3-1.4-.7-.3-.4-.4-1-.4-1.4,0-.5.1-.9.3-1.4.3-.8.7-1.6,1.2-2.3.9-1.4,2.2-2.4,3.4-3.1v.3c-2.8-.5-5.1-1-6.8-1.3-.8-.2-1.4-.3-1.8-.4-.4,0-.6-.1-.6-.2s.2,0,.7,0c.5,0,1.1.2,1.9.3,1.7.3,4,.7,6.9,1.1h.5c0,0-.5.3-.5.3-1.2.7-2.4,1.7-3.3,3-.4.7-.8,1.4-1.1,2.2-.3.8-.4,1.7.1,2.4.5.7,1.5.6,2.3.3.9-.3,1.7-.9,2.5-1.4,1.7-1.1,3.3-2.3,4.8-3.8,1.5-1.5,2.6-3.4,2.6-5.3,0-2-.8-3.8-1.9-5.2-1.1-1.4-2.6-2.5-4.1-3.2-1.5-.7-3-1.1-4.3-1.4-2.8-.4-5.1-.3-6.6-.2-.7,0-1.3,0-1.8.1-.4,0-.6,0-.6,0Z"/>
              <path class="cls-9" d="m255,182.8s.1.4.2,1.1c0,.7.1,1.7.1,3,0,2.5-.5,6.1-2.5,9.5-2,3.3-5.1,5.5-7.7,5.8-1.3.2-2.4-.4-2.8-1-.2-.3-.4-.5-.4-.7,0-.2,0-.3,0-.3,0,0,.1.4.6.9.5.5,1.4.9,2.6.7,2.4-.4,5.4-2.5,7.3-5.7,1.9-3.2,2.4-6.8,2.6-9.2.1-2.5,0-4,0-4Z"/>
              <path class="cls-9" d="m240.8,211.3c0,0,.5-.5,1.1-1.4.6-.9,1.3-2.3,1.4-3.9.2-1.6-.2-3.1-.7-4.1-.4-1-.9-1.5-.8-1.6,0,0,.6.4,1.1,1.4.5,1,1,2.6.9,4.3-.2,1.8-.9,3.2-1.7,4.1-.7.9-1.3,1.2-1.4,1.2Z"/>
              <path class="cls-9" d="m231.1,192.4c0,0,.5.8.3,2.2,0,.7-.2,1.5-.7,2.3-.4.8-1,1.7-1.7,2.4-1.5,1.6-3.3,2.3-4.5,2.9-1.3.5-2.1.8-2.1.7,0,0,.7-.4,1.9-1,1.2-.6,2.9-1.4,4.3-2.9.7-.7,1.2-1.5,1.7-2.3.4-.7.6-1.5.8-2.1.2-1.3,0-2.1,0-2.1Z"/>
            </g>
            <g>
              <path class="cls-5" d="m273.6,195.3l-28.1,15.3s15,3.8,28.7,18.2c12.4,13.1,17.1,27.2,17.1,27.2l28-18.6s-15-34.1-45.7-42.1Z"/>
              <path class="cls-2" d="m250.4,210.1c1.2-.7,8.9-5.1,22.7-13h0s0,0,0,0c3.7,1,7.6,2.5,11.5,4.7,3.9,2.2,7.8,5,11.5,8.4,3.7,3.4,7.3,7.3,10.6,11.6,3.3,4.3,6.4,9,9.1,14.2v.2c.1,0,0,.1,0,.1-.5.3-1,.6-1.5,1-7.6,5.1-14.9,10-21.6,14.4l-.3.2v-.3c-3.5-8.2-7.8-15.3-12.6-20.9-4.7-5.6-9.8-9.9-14.2-12.9-4.5-3.1-8.3-5-11-6.1-1.4-.6-2.4-1-3.1-1.2-.3-.1-.6-.2-.8-.3-.2,0-.3-.1-.3,0,0,0,.2,0,.3,0,.2,0,.5.1.8.2.7.2,1.8.6,3.2,1.2,2.7,1.1,6.6,3,11.2,6,4.5,3,9.6,7.3,14.4,12.9,4.8,5.7,9.2,12.8,12.6,21h-.4c6.7-4.6,14-9.5,21.6-14.6.5-.3,1-.7,1.5-1v.3c-2.7-5.1-5.9-9.8-9.2-14.1-3.3-4.3-6.8-8.2-10.5-11.5-3.7-3.4-7.5-6.2-11.4-8.4-3.9-2.2-7.7-3.8-11.4-4.8h.1c-13.9,7.7-21.6,11.9-22.9,12.6Z"/>
              <path class="cls-3" d="m296.5,219.3c-.7,4.3-6.2,6.9-12.3,5.9-6-1.1-10.3-5.5-9.6-9.8.7-4.3,6.2-6.9,12.3-5.9s10.3,5.5,9.6,9.8Z"/>
              <path class="cls-5" d="m283.4,220.7l-1,1.1-1.1-1.1.9-1c-.9-1-1.5-2.1-1.7-3l1.9-.8c.2,1,.8,2,1.6,2.8.8.7,1.3.8,1.6.5,1-1.1-3.5-3.9-1.2-6.4,1-1.1,2.5-1.2,4.2,0l1-1.1,1.1,1.1-.9,1c.6.7,1.1,1.6,1.4,2.4l-1.9.9c-.3-1-.8-1.7-1.3-2.3-.8-.8-1.3-.8-1.6-.4-.9,1,3.5,3.9,1.2,6.4-.9,1-2.4,1.2-4.1,0Z"/>
              <path class="cls-3" d="m256.9,206.5s4.8,2.4.2,6l-7-2.7,6.8-3.2Z"/>
              <path class="cls-3" d="m269.7,199.3s4.6,4.9,9-.2l-5.4-1.8-3.6,2Z"/>
              <path class="cls-3" d="m289.7,245.2s6.2-5,9.8,1.8l-6.9,4.6-2.9-6.4Z"/>
              <path class="cls-3" d="m312.6,230.6s-4.5,2.8-1.4,8.6l4.6-3.1-3.1-5.5Z"/>
              <path class="cls-5" d="m296,246.8c0,1.1-.8,1.9-1.9,1.9-1,0-1.9-.9-1.9-1.9,0-1.1.8-1.9,1.9-1.9,1,0,1.9.9,1.9,1.9Z"/>
              <path class="cls-5" d="m314.8,234.9c0,1.1-.8,1.9-1.9,1.9-1,0-1.9-.9-1.9-1.9,0-1.1.8-1.9,1.9-1.9s1.9.9,1.9,1.9Z"/>
              <path class="cls-5" d="m276.1,199.1c0,.7-1,1.2-2.1,1.2-1.2,0-2.1-.6-2.1-1.3,0-.7,1-1.2,2.1-1.2,1.2,0,2.1.6,2.1,1.3Z"/>
              <path class="cls-5" d="m257.8,209.5c0,.9-.9,1.7-2.1,1.7-1.1,0-2.1-.7-2.1-1.7,0-.9.9-1.7,2.1-1.7,1.1,0,2.1.7,2.1,1.7Z"/>
              <path class="cls-3" d="m275.1,208.4c0,1.1-1.3,1.9-3,1.9-1.6,0-3-.9-3-1.9,0-1.1,1.3-1.9,3-1.9,1.6,0,3,.9,3,1.9Z"/>
              <path class="cls-3" d="m298.8,234.1c-1.3.6-3-.2-3.7-1.9-.7-1.6-.2-3.5,1.2-4.1,1.3-.6,3,.2,3.7,1.9.7,1.6.2,3.5-1.2,4.1Z"/>
            </g>
            <g>
              <path class="cls-11" d="m257.3,200.2l11.5,12.1s4.6,5.3,7.7,2.8c3.1-2.5-1.3-7.2-2.2-8.5s-12.2-15.1-12.2-15.1l-4.9,8.7Z"/>
              <path class="cls-9" d="m263.2,189.3c0,0,0,.8-.4,2.1-.4,1.3-1,3-2,4.8-1,1.8-2.3,3.2-3.3,4.1-1,.9-1.8,1.3-1.8,1.2,0,0,.6-.6,1.5-1.5.9-.9,2.1-2.3,3.1-4.1,2-3.5,2.8-6.7,2.9-6.6Z"/>
            </g>
          </g>
          <path class="cls-9" d="m155.8,236.8s-.2.2-.5.5c-.4.4-.9.8-1.6,1.4-1.5,1.3-3.5,3-6,5.2-5.1,4.4-12.2,10.4-20,16.9-7.9,6.6-15.1,12.4-20.4,16.5-2.6,2.1-4.8,3.7-6.3,4.8-.7.5-1.3.9-1.8,1.3-.4.3-.6.4-.6.4s.2-.2.6-.5c.4-.3,1-.8,1.7-1.3,1.5-1.2,3.6-2.8,6.2-4.9,5.2-4.2,12.4-10.1,20.3-16.7,7.8-6.6,14.9-12.5,20.1-16.8,2.5-2.1,4.6-3.8,6.1-5.1.7-.6,1.3-1,1.7-1.4.4-.3.6-.5.6-.4Z"/>
        </g>
      </g>
    </g>
  </g>
</svg>