<?xml version="1.0" encoding="UTF-8"?>
<svg xmlns="http://www.w3.org/2000/svg" viewBox="0 0 708.7 447.6">
  <defs>
    <style>
      .cls-1 {
        fill: #fff;
      }

      .cls-2 {
        fill: #455a64;
      }

      .cls-3 {
        fill: #ae7461;
      }

      .cls-4 {
        opacity: .2;
      }

      .cls-5 {
        fill: #ffbf9d;
      }

      .cls-6 {
        fill: #e0e0e0;
      }

      .cls-7 {
        fill: #ff9a6c;
      }

      .cls-8 {
        fill: #ff725e;
      }

      .cls-9 {
        fill: #6f4439;
      }

      .cls-10 {
        opacity: .3;
      }

      .cls-11 {
        opacity: 0;
      }

      .cls-12 {
        fill: #ebebeb;
      }

      .cls-13 {
        fill: #263238;
      }
    </style>
  </defs>
  <g id="Containers">
    <g>
      <rect class="cls-8" x="37.5" y="361.5" width="276.6" height="85.6"/>
      <g class="cls-10">
        <rect x="215.1" y="361.5" width="99" height="85.6"/>
      </g>
      <path class="cls-13" d="m209.9,442.8s0-.5,0-1.4c0-.9,0-2.2,0-4,0-3.5,0-8.6,0-15.2,0-13.2,0-32.3-.1-55.9l.2.2c-43.4,0-102.5,0-167.6,0h0l.3-.3c0,26.9,0,52.7,0,76.4l-.2-.2c48.7,0,90.6,0,120.3.1,14.9,0,26.7,0,34.8,0,4,0,7.2,0,9.3,0,1.1,0,1.9,0,2.4,0,.5,0,.8,0,.8,0,0,0-.3,0-.8,0-.5,0-1.3,0-2.4,0-2.1,0-5.2,0-9.2,0-8.1,0-19.9,0-34.7,0-29.7,0-71.7,0-120.5.1h-.2s0-.2,0-.2c0-23.7,0-49.6,0-76.4v-.3s.3,0,.3,0h0c65.1,0,124.2,0,167.6,0h.2s0,.2,0,.2c0,23.6,0,42.8-.1,56,0,6.6,0,11.7,0,15.2,0,1.7,0,3,0,3.9,0,.9,0,1.3,0,1.3Z"/>
      <path class="cls-13" d="m308.3,442.8s0-.5,0-1.4c0-.9,0-2.3,0-4.1,0-3.6,0-8.8,0-15.5,0-13.4,0-32.4-.1-55.4l.2.2c-24.9,0-54.7,0-86.6,0h0l.3-.3c0,27.8,0,53.9,0,76.4l-.2-.2c25.8,0,47.4,0,62.6.1,7.6,0,13.6,0,17.7,0,2,0,3.6,0,4.7,0,.5,0,.9,0,1.2,0,.3,0,.4,0,.4,0,0,0-.1,0-.4,0-.3,0-.7,0-1.2,0-1.1,0-2.6,0-4.6,0-4.1,0-10.1,0-17.6,0-15.2,0-36.9,0-62.8.1h-.2s0-.2,0-.2c0-22.5,0-48.7,0-76.4v-.3s.3,0,.3,0h0c31.9,0,61.7,0,86.6,0h.2s0,.2,0,.2c0,23,0,42.2-.1,55.5,0,6.7,0,11.9,0,15.5,0,1.8,0,3.1,0,4.1,0,.9,0,1.4,0,1.4Z"/>
      <path class="cls-13" d="m52.1,442.8c-.1,0-.3-17-.3-38s.1-38.1.3-38.1.3,17,.3,38.1-.1,38-.3,38Z"/>
      <path class="cls-13" d="m64.5,442.8c-.1,0-.3-17-.3-38s.1-38.1.3-38.1.3,17,.3,38.1-.1,38-.3,38Z"/>
      <path class="cls-13" d="m76.9,442.8c-.1,0-.3-17-.3-38s.1-38.1.3-38.1.3,17,.3,38.1-.1,38-.3,38Z"/>
      <path class="cls-13" d="m89.3,442.8c-.1,0-.3-17-.3-38s.1-38.1.3-38.1.3,17,.3,38.1-.1,38-.3,38Z"/>
      <path class="cls-13" d="m101.8,442.8c-.1,0-.3-17-.3-38s.1-38.1.3-38.1.3,17,.3,38.1-.1,38-.3,38Z"/>
      <path class="cls-13" d="m114.2,442.8c-.1,0-.3-17-.3-38s.1-38.1.3-38.1.3,17,.3,38.1-.1,38-.3,38Z"/>
      <path class="cls-13" d="m126.6,442.8c-.1,0-.3-17-.3-38s.1-38.1.3-38.1.3,17,.3,38.1-.1,38-.3,38Z"/>
      <path class="cls-13" d="m139,442.8c-.1,0-.3-17-.3-38s.1-38.1.3-38.1.3,17,.3,38.1-.1,38-.3,38Z"/>
      <path class="cls-13" d="m151.4,442.8c-.1,0-.3-17-.3-38s.1-38.1.3-38.1.3,17,.3,38.1-.1,38-.3,38Z"/>
      <path class="cls-13" d="m163.9,442.8c-.1,0-.3-17-.3-38s.1-38.1.3-38.1.3,17,.3,38.1-.1,38-.3,38Z"/>
      <path class="cls-13" d="m176.3,442.8c-.1,0-.3-17-.3-38s.1-38.1.3-38.1.3,17,.3,38.1-.1,38-.3,38Z"/>
      <path class="cls-13" d="m188.7,442.8c-.1,0-.3-17-.3-38s.1-38.1.3-38.1.3,17,.3,38.1-.1,38-.3,38Z"/>
      <path class="cls-13" d="m201.1,442.8c-.1,0-.3-17-.3-38s.1-38.1.3-38.1.3,17,.3,38.1-.1,38-.3,38Z"/>
      <path class="cls-13" d="m233.3,442.8c-.1,0-.3-17-.3-38s.1-38.1.3-38.1.3,17,.3,38.1-.1,38-.3,38Z"/>
      <path class="cls-13" d="m259,442.8c-.1,0-.3-17-.3-38s.1-38.1.3-38.1.3,17,.3,38.1-.1,38-.3,38Z"/>
      <path class="cls-13" d="m272.6,442.8c-.1,0-.3-17-.3-38s.1-38.1.3-38.1.3,17,.3,38.1-.1,38-.3,38Z"/>
      <path class="cls-13" d="m286.2,442.8c-.1,0-.3-17-.3-38s.1-38.1.3-38.1.3,17,.3,38.1-.1,38-.3,38Z"/>
      <path class="cls-13" d="m299.8,442.8c-.1,0-.3-17-.3-38s.1-38.1.3-38.1.3,17,.3,38.1-.1,38-.3,38Z"/>
      <path class="cls-13" d="m246,442.8c-.1,0-.3-17-.3-38s.1-38.1.3-38.1.3,17,.3,38.1-.1,38-.3,38Z"/>
    </g>
    <g>
      <rect class="cls-2" x="30.9" y="309.5" width="168.2" height="52"/>
      <g class="cls-10">
        <rect x="138.9" y="309.5" width="60.2" height="52"/>
      </g>
      <path class="cls-13" d="m135.7,359s0-.3,0-.8c0-.6,0-1.4,0-2.4,0-2.1,0-5.3,0-9.3,0-8,0-19.6-.1-33.9l.2.2c-26.4,0-62.3,0-101.9,0h0l.3-.3c0,16.3,0,32.1,0,46.5l-.2-.2c29.6,0,55.1,0,73.1.1,9,0,16.2,0,21.2,0,2.5,0,4.4,0,5.7,0,.6,0,1.1,0,1.5,0,.3,0,.5,0,.5,0,0,0-.2,0-.5,0-.3,0-.8,0-1.4,0-1.3,0-3.2,0-5.6,0-4.9,0-12.1,0-21.1,0-18.1,0-43.6,0-73.3.1h-.2s0-.2,0-.2c0-14.4,0-30.1,0-46.5v-.3s.3,0,.3,0h0c39.6,0,75.5,0,101.9,0h.2s0,.2,0,.2c0,14.4,0,26-.1,34.1,0,4,0,7.1,0,9.2,0,1,0,1.8,0,2.4,0,.5,0,.8,0,.8Z"/>
      <path class="cls-13" d="m195.5,359s0-.3,0-.9c0-.6,0-1.4,0-2.5,0-2.2,0-5.4,0-9.4,0-8.1,0-19.7-.1-33.7l.2.2c-15.2,0-33.3,0-52.7,0,0,0,.5-.5.3-.3h0v3.1c0,1,0,2.1,0,3.1,0,2.1,0,4.1,0,6.2,0,4.1,0,8.1,0,12,0,7.8,0,15.2,0,22l-.2-.2c15.7,0,28.8,0,38.1.1,4.6,0,8.3,0,10.8,0,1.2,0,2.2,0,2.9,0,.3,0,.6,0,.7,0,.2,0,.3,0,.3,0,0,0,0,0-.2,0-.2,0-.4,0-.7,0-.7,0-1.6,0-2.8,0-2.5,0-6.1,0-10.7,0-9.3,0-22.5,0-38.2.1h-.2s0-.2,0-.2c0-6.8,0-14.2,0-22,0-3.9,0-7.9,0-12,0-2,0-4.1,0-6.2,0-1,0-2.1,0-3.1v-1.6s0-.8,0-.8v-.6h0v-.2h0c-.2.2.3-.3.3-.3,19.4,0,37.5,0,52.7,0h.2s0,.2,0,.2c0,14,0,25.6-.1,33.8,0,4,0,7.2,0,9.4,0,1.1,0,1.9,0,2.5,0,.6,0,.8,0,.8Z"/>
      <path class="cls-13" d="m39.8,358.9c-.1,0-.3-10.4-.3-23.1s.1-23.1.3-23.1.3,10.4.3,23.1-.1,23.1-.3,23.1Z"/>
      <path class="cls-13" d="m47.3,358.9c-.1,0-.3-10.4-.3-23.1s.1-23.1.3-23.1.3,10.4.3,23.1-.1,23.1-.3,23.1Z"/>
      <path class="cls-13" d="m54.9,358.9c-.1,0-.3-10.4-.3-23.1s.1-23.1.3-23.1.3,10.4.3,23.1-.1,23.1-.3,23.1Z"/>
      <path class="cls-13" d="m62.4,358.9c-.1,0-.3-10.4-.3-23.1s.1-23.1.3-23.1.3,10.4.3,23.1-.1,23.1-.3,23.1Z"/>
      <path class="cls-13" d="m70,358.9c-.1,0-.3-10.4-.3-23.1s.1-23.1.3-23.1.3,10.4.3,23.1-.1,23.1-.3,23.1Z"/>
      <path class="cls-13" d="m77.5,358.9c-.1,0-.3-10.4-.3-23.1s.1-23.1.3-23.1.3,10.4.3,23.1-.1,23.1-.3,23.1Z"/>
      <path class="cls-13" d="m85.1,358.9c-.1,0-.3-10.4-.3-23.1s.1-23.1.3-23.1.3,10.4.3,23.1-.1,23.1-.3,23.1Z"/>
      <path class="cls-13" d="m92.6,358.9c-.1,0-.3-10.4-.3-23.1s.1-23.1.3-23.1.3,10.4.3,23.1-.1,23.1-.3,23.1Z"/>
      <path class="cls-13" d="m100.2,358.9c-.1,0-.3-10.4-.3-23.1s.1-23.1.3-23.1.3,10.4.3,23.1-.1,23.1-.3,23.1Z"/>
      <path class="cls-13" d="m107.8,358.9c-.1,0-.3-10.4-.3-23.1s.1-23.1.3-23.1.3,10.4.3,23.1-.1,23.1-.3,23.1Z"/>
      <path class="cls-13" d="m115.3,358.9c-.1,0-.3-10.4-.3-23.1s.1-23.1.3-23.1.3,10.4.3,23.1-.1,23.1-.3,23.1Z"/>
      <path class="cls-13" d="m122.9,358.9c-.1,0-.3-10.4-.3-23.1s.1-23.1.3-23.1.3,10.4.3,23.1-.1,23.1-.3,23.1Z"/>
      <path class="cls-13" d="m130.4,358.9c-.1,0-.3-10.4-.3-23.1s.1-23.1.3-23.1.3,10.4.3,23.1-.1,23.1-.3,23.1Z"/>
      <path class="cls-13" d="m150,358.9c-.1,0-.3-10.4-.3-23.1s.1-23.1.3-23.1.3,10.4.3,23.1-.1,23.1-.3,23.1Z"/>
      <path class="cls-13" d="m165.6,358.9c-.1,0-.3-10.4-.3-23.1s.1-23.1.3-23.1.3,10.4.3,23.1-.1,23.1-.3,23.1Z"/>
      <path class="cls-13" d="m173.9,358.9c-.1,0-.3-10.4-.3-23.1s.1-23.1.3-23.1.3,10.4.3,23.1-.1,23.1-.3,23.1Z"/>
      <path class="cls-13" d="m182.1,358.9c-.1,0-.3-10.4-.3-23.1s.1-23.1.3-23.1.3,10.4.3,23.1-.1,23.1-.3,23.1Z"/>
      <path class="cls-13" d="m190.4,358.9c-.1,0-.3-10.4-.3-23.1s.1-23.1.3-23.1.3,10.4.3,23.1-.1,23.1-.3,23.1Z"/>
      <path class="cls-13" d="m157.7,358.9c-.1,0-.3-10.4-.3-23.1s.1-23.1.3-23.1.3,10.4.3,23.1-.1,23.1-.3,23.1Z"/>
    </g>
    <g>
      <rect class="cls-2" x="420.6" y="370.3" width="249.1" height="77.1"/>
      <g class="cls-10">
        <rect x="580.5" y="370.3" width="89.2" height="77.1"/>
      </g>
      <path class="cls-13" d="m575.8,443.5s0-.4,0-1.2c0-.8,0-2,0-3.6,0-3.1,0-7.8,0-13.7,0-11.9,0-29.1-.1-50.3l.2.2c-39.1,0-92.3,0-150.9,0h0l.3-.3c0,24.2,0,47.5,0,68.8l-.2-.2c43.9,0,81.6,0,108.3.1,13.4,0,24,0,31.3,0,3.6,0,6.5,0,8.4,0,.9,0,1.7,0,2.2,0,.5,0,.7,0,.7,0,0,0-.2,0-.7,0-.5,0-1.2,0-2.1,0-1.9,0-4.7,0-8.3,0-7.3,0-17.9,0-31.3,0-26.8,0-64.5,0-108.5.1h-.2s0-.2,0-.2c0-21.4,0-44.6,0-68.8v-.3s.3,0,.3,0h0c58.6,0,111.8,0,150.9,0h.2s0,.2,0,.2c0,21.3,0,38.5-.1,50.4,0,5.9,0,10.5,0,13.7,0,1.6,0,2.7,0,3.5,0,.8,0,1.2,0,1.2Z"/>
      <path class="cls-13" d="m664.4,443.5s0-.4,0-1.3c0-.9,0-2.1,0-3.7,0-3.2,0-8,0-14,0-12,0-29.2-.1-49.9l.2.2c-22.4,0-49.3,0-78,0h0l.3-.3c0,25,0,48.6,0,68.8l-.2-.2c23.2,0,42.7,0,56.4.1,6.8,0,12.2,0,15.9,0,1.8,0,3.2,0,4.2,0,.5,0,.8,0,1.1,0,.2,0,.4,0,.4,0,0,0-.1,0-.4,0-.3,0-.6,0-1.1,0-1,0-2.4,0-4.2,0-3.7,0-9.1,0-15.9,0-13.7,0-33.2,0-56.5.1h-.2s0-.2,0-.2c0-20.3,0-43.8,0-68.8v-.3s.3,0,.3,0h0c28.7,0,55.6,0,78,0h.2s0,.2,0,.2c0,20.7,0,38-.1,50,0,6,0,10.7,0,13.9,0,1.6,0,2.8,0,3.6,0,.8,0,1.2,0,1.2Z"/>
      <path class="cls-13" d="m433.7,443.5c-.1,0-.3-15.3-.3-34.3s.1-34.3.3-34.3.3,15.3.3,34.3-.1,34.3-.3,34.3Z"/>
      <path class="cls-13" d="m444.9,443.5c-.1,0-.3-15.3-.3-34.3s.1-34.3.3-34.3.3,15.3.3,34.3-.1,34.3-.3,34.3Z"/>
      <path class="cls-13" d="m456.1,443.5c-.1,0-.3-15.3-.3-34.3s.1-34.3.3-34.3.3,15.3.3,34.3-.1,34.3-.3,34.3Z"/>
      <path class="cls-13" d="m467.2,443.5c-.1,0-.3-15.3-.3-34.3s.1-34.3.3-34.3.3,15.3.3,34.3-.1,34.3-.3,34.3Z"/>
      <path class="cls-13" d="m478.4,443.5c-.1,0-.3-15.3-.3-34.3s.1-34.3.3-34.3.3,15.3.3,34.3-.1,34.3-.3,34.3Z"/>
      <path class="cls-13" d="m489.6,443.5c-.1,0-.3-15.3-.3-34.3s.1-34.3.3-34.3.3,15.3.3,34.3-.1,34.3-.3,34.3Z"/>
      <path class="cls-13" d="m500.8,443.5c-.1,0-.3-15.3-.3-34.3s.1-34.3.3-34.3.3,15.3.3,34.3-.1,34.3-.3,34.3Z"/>
      <path class="cls-13" d="m512,443.5c-.1,0-.3-15.3-.3-34.3s.1-34.3.3-34.3.3,15.3.3,34.3-.1,34.3-.3,34.3Z"/>
      <path class="cls-13" d="m523.2,443.5c-.1,0-.3-15.3-.3-34.3s.1-34.3.3-34.3.3,15.3.3,34.3-.1,34.3-.3,34.3Z"/>
      <path class="cls-13" d="m534.4,443.5c-.1,0-.3-15.3-.3-34.3s.1-34.3.3-34.3.3,15.3.3,34.3-.1,34.3-.3,34.3Z"/>
      <path class="cls-13" d="m545.5,443.5c-.1,0-.3-15.3-.3-34.3s.1-34.3.3-34.3.3,15.3.3,34.3-.1,34.3-.3,34.3Z"/>
      <path class="cls-13" d="m556.7,443.5c-.1,0-.3-15.3-.3-34.3s.1-34.3.3-34.3.3,15.3.3,34.3-.1,34.3-.3,34.3Z"/>
      <path class="cls-13" d="m567.9,443.5c-.1,0-.3-15.3-.3-34.3s.1-34.3.3-34.3.3,15.3.3,34.3-.1,34.3-.3,34.3Z"/>
      <path class="cls-13" d="m596.9,443.5c-.1,0-.3-15.3-.3-34.3s.1-34.3.3-34.3.3,15.3.3,34.3-.1,34.3-.3,34.3Z"/>
      <path class="cls-13" d="m620,443.5c-.1,0-.3-15.3-.3-34.3s.1-34.3.3-34.3.3,15.3.3,34.3-.1,34.3-.3,34.3Z"/>
      <path class="cls-13" d="m632.3,443.5c-.1,0-.3-15.3-.3-34.3s.1-34.3.3-34.3.3,15.3.3,34.3-.1,34.3-.3,34.3Z"/>
      <path class="cls-13" d="m644.5,443.5c-.1,0-.3-15.3-.3-34.3s.1-34.3.3-34.3.3,15.3.3,34.3-.1,34.3-.3,34.3Z"/>
      <path class="cls-13" d="m656.8,443.5c-.1,0-.3-15.3-.3-34.3s.1-34.3.3-34.3.3,15.3.3,34.3-.1,34.3-.3,34.3Z"/>
      <path class="cls-13" d="m608.4,443.5c-.1,0-.3-15.3-.3-34.3s.1-34.3.3-34.3.3,15.3.3,34.3-.1,34.3-.3,34.3Z"/>
    </g>
    <g>
      <rect class="cls-6" x="54.8" y="257.5" width="168.2" height="52"/>
      <g class="cls-10">
        <rect x="162.8" y="257.5" width="60.2" height="52"/>
      </g>
      <path class="cls-13" d="m159.6,306.9s0-.3,0-.8c0-.6,0-1.4,0-2.4,0-2.1,0-5.3,0-9.3,0-8,0-19.6-.1-33.9l.2.2c-26.4,0-62.3,0-101.9,0h0l.3-.3c0,16.3,0,32.1,0,46.5l-.2-.2c29.6,0,55.1,0,73.1.1,9,0,16.2,0,21.2,0,2.5,0,4.4,0,5.7,0,.6,0,1.1,0,1.5,0,.3,0,.5,0,.5,0,0,0-.2,0-.5,0-.3,0-.8,0-1.4,0-1.3,0-3.2,0-5.6,0-4.9,0-12.1,0-21.1,0-18.1,0-43.6,0-73.3.1h-.2s0-.2,0-.2c0-14.4,0-30.1,0-46.5v-.3s.3,0,.3,0h0c39.6,0,75.5,0,101.9,0h.2s0,.2,0,.2c0,14.4,0,26-.1,34.1,0,4,0,7.1,0,9.2,0,1,0,1.8,0,2.4,0,.5,0,.8,0,.8Z"/>
      <path class="cls-13" d="m219.4,306.9s0-.3,0-.9c0-.6,0-1.4,0-2.5,0-2.2,0-5.4,0-9.4,0-8.1,0-19.7-.1-33.7l.2.2c-15.2,0-33.3,0-52.7,0,0,0,.5-.5.3-.3h0v3.1c0,1,0,2.1,0,3.1,0,2.1,0,4.1,0,6.2,0,4.1,0,8.1,0,12,0,7.8,0,15.2,0,22l-.2-.2c15.7,0,28.8,0,38.1.1,4.6,0,8.3,0,10.8,0,1.2,0,2.2,0,2.9,0,.3,0,.6,0,.7,0,.2,0,.3,0,.3,0s0,0-.2,0c-.2,0-.4,0-.7,0-.7,0-1.6,0-2.8,0-2.5,0-6.1,0-10.7,0-9.3,0-22.5,0-38.2.1h-.2s0-.2,0-.2c0-6.8,0-14.2,0-22,0-3.9,0-7.9,0-12,0-2,0-4.1,0-6.2,0-1,0-2.1,0-3.1v-1.6s0-.8,0-.8v-.6h0v-.2h0c-.2.2.3-.3.3-.3,19.4,0,37.5,0,52.7,0h.2s0,.2,0,.2c0,14,0,25.6-.1,33.8,0,4,0,7.2,0,9.4,0,1.1,0,1.9,0,2.5,0,.6,0,.8,0,.8Z"/>
      <path class="cls-13" d="m63.7,306.9c-.1,0-.3-10.4-.3-23.1s.1-23.1.3-23.1.3,10.4.3,23.1-.1,23.1-.3,23.1Z"/>
      <path class="cls-13" d="m71.2,306.9c-.1,0-.3-10.4-.3-23.1s.1-23.1.3-23.1.3,10.4.3,23.1-.1,23.1-.3,23.1Z"/>
      <path class="cls-13" d="m78.8,306.9c-.1,0-.3-10.4-.3-23.1s.1-23.1.3-23.1.3,10.4.3,23.1-.1,23.1-.3,23.1Z"/>
      <path class="cls-13" d="m86.3,306.9c-.1,0-.3-10.4-.3-23.1s.1-23.1.3-23.1.3,10.4.3,23.1-.1,23.1-.3,23.1Z"/>
      <path class="cls-13" d="m93.9,306.9c-.1,0-.3-10.4-.3-23.1s.1-23.1.3-23.1.3,10.4.3,23.1-.1,23.1-.3,23.1Z"/>
      <path class="cls-13" d="m101.4,306.9c-.1,0-.3-10.4-.3-23.1s.1-23.1.3-23.1.3,10.4.3,23.1-.1,23.1-.3,23.1Z"/>
      <path class="cls-13" d="m109,306.9c-.1,0-.3-10.4-.3-23.1s.1-23.1.3-23.1.3,10.4.3,23.1-.1,23.1-.3,23.1Z"/>
      <path class="cls-13" d="m116.6,306.9c-.1,0-.3-10.4-.3-23.1s.1-23.1.3-23.1.3,10.4.3,23.1-.1,23.1-.3,23.1Z"/>
      <path class="cls-13" d="m124.1,306.9c-.1,0-.3-10.4-.3-23.1s.1-23.1.3-23.1.3,10.4.3,23.1-.1,23.1-.3,23.1Z"/>
      <path class="cls-13" d="m131.7,306.9c-.1,0-.3-10.4-.3-23.1s.1-23.1.3-23.1.3,10.4.3,23.1-.1,23.1-.3,23.1Z"/>
      <path class="cls-13" d="m139.2,306.9c-.1,0-.3-10.4-.3-23.1s.1-23.1.3-23.1.3,10.4.3,23.1-.1,23.1-.3,23.1Z"/>
      <path class="cls-13" d="m146.8,306.9c-.1,0-.3-10.4-.3-23.1s.1-23.1.3-23.1.3,10.4.3,23.1-.1,23.1-.3,23.1Z"/>
      <path class="cls-13" d="m154.3,306.9c-.1,0-.3-10.4-.3-23.1s.1-23.1.3-23.1.3,10.4.3,23.1-.1,23.1-.3,23.1Z"/>
      <path class="cls-13" d="m173.9,306.9c-.1,0-.3-10.4-.3-23.1s.1-23.1.3-23.1.3,10.4.3,23.1-.1,23.1-.3,23.1Z"/>
      <path class="cls-13" d="m189.5,306.9c-.1,0-.3-10.4-.3-23.1s.1-23.1.3-23.1.3,10.4.3,23.1-.1,23.1-.3,23.1Z"/>
      <path class="cls-13" d="m197.8,306.9c-.1,0-.3-10.4-.3-23.1s.1-23.1.3-23.1.3,10.4.3,23.1-.1,23.1-.3,23.1Z"/>
      <path class="cls-13" d="m206,306.9c-.1,0-.3-10.4-.3-23.1s.1-23.1.3-23.1.3,10.4.3,23.1-.1,23.1-.3,23.1Z"/>
      <path class="cls-13" d="m214.3,306.9c-.1,0-.3-10.4-.3-23.1s.1-23.1.3-23.1.3,10.4.3,23.1-.1,23.1-.3,23.1Z"/>
      <path class="cls-13" d="m181.6,306.9c-.1,0-.3-10.4-.3-23.1s.1-23.1.3-23.1.3,10.4.3,23.1-.1,23.1-.3,23.1Z"/>
    </g>
    <g>
      <rect class="cls-6" x="483.8" y="317.7" width="168.2" height="52"/>
      <g class="cls-10">
        <rect x="591.8" y="317.7" width="60.2" height="52"/>
      </g>
      <path class="cls-13" d="m588.6,367.1s0-.3,0-.8c0-.6,0-1.4,0-2.4,0-2.1,0-5.3,0-9.3,0-8,0-19.6-.1-33.9l.2.2c-26.4,0-62.3,0-101.9,0h0l.3-.3c0,16.3,0,32.1,0,46.5l-.2-.2c29.6,0,55.1,0,73.1.1,9,0,16.2,0,21.2,0,2.5,0,4.4,0,5.7,0,.6,0,1.1,0,1.5,0,.3,0,.5,0,.5,0,0,0-.2,0-.5,0-.3,0-.8,0-1.4,0-1.3,0-3.2,0-5.6,0-4.9,0-12.1,0-21.1,0-18.1,0-43.6,0-73.3.1h-.2s0-.2,0-.2c0-14.4,0-30.1,0-46.5v-.3s.3,0,.3,0h0c39.6,0,75.5,0,101.9,0h.2s0,.2,0,.2c0,14.4,0,26-.1,34.1,0,4,0,7.1,0,9.2,0,1,0,1.8,0,2.4,0,.5,0,.8,0,.8Z"/>
      <path class="cls-13" d="m648.4,367.1s0-.3,0-.9c0-.6,0-1.4,0-2.5,0-2.2,0-5.4,0-9.4,0-8.1,0-19.7-.1-33.7l.2.2c-15.2,0-33.3,0-52.7,0,0,0,.5-.5.3-.3h0v3.1c0,1,0,2.1,0,3.1,0,2.1,0,4.1,0,6.2,0,4.1,0,8.1,0,12,0,7.8,0,15.2,0,22l-.2-.2c15.7,0,28.8,0,38.1.1,4.6,0,8.3,0,10.8,0,1.2,0,2.2,0,2.9,0,.3,0,.6,0,.7,0,.2,0,.3,0,.3,0s0,0-.2,0c-.2,0-.4,0-.7,0-.7,0-1.6,0-2.8,0-2.5,0-6.1,0-10.7,0-9.3,0-22.5,0-38.2.1h-.2s0-.2,0-.2c0-6.8,0-14.2,0-22,0-3.9,0-7.9,0-12,0-2,0-4.1,0-6.2,0-1,0-2.1,0-3.1v-1.6s0-.8,0-.8v-.6h0v-.2h0c-.2.2.3-.3.3-.3,19.4,0,37.5,0,52.7,0h.2s0,.2,0,.2c0,14,0,25.6-.1,33.8,0,4,0,7.2,0,9.4,0,1.1,0,1.9,0,2.5,0,.6,0,.8,0,.8Z"/>
      <path class="cls-13" d="m492.7,367.1c-.1,0-.3-10.4-.3-23.1s.1-23.1.3-23.1.3,10.4.3,23.1-.1,23.1-.3,23.1Z"/>
      <path class="cls-13" d="m500.2,367.1c-.1,0-.3-10.4-.3-23.1s.1-23.1.3-23.1.3,10.4.3,23.1-.1,23.1-.3,23.1Z"/>
      <path class="cls-13" d="m507.8,367.1c-.1,0-.3-10.4-.3-23.1s.1-23.1.3-23.1.3,10.4.3,23.1-.1,23.1-.3,23.1Z"/>
      <path class="cls-13" d="m515.3,367.1c-.1,0-.3-10.4-.3-23.1s.1-23.1.3-23.1.3,10.4.3,23.1-.1,23.1-.3,23.1Z"/>
      <path class="cls-13" d="m522.9,367.1c-.1,0-.3-10.4-.3-23.1s.1-23.1.3-23.1.3,10.4.3,23.1-.1,23.1-.3,23.1Z"/>
      <path class="cls-13" d="m530.4,367.1c-.1,0-.3-10.4-.3-23.1s.1-23.1.3-23.1.3,10.4.3,23.1-.1,23.1-.3,23.1Z"/>
      <path class="cls-13" d="m538,367.1c-.1,0-.3-10.4-.3-23.1s.1-23.1.3-23.1.3,10.4.3,23.1-.1,23.1-.3,23.1Z"/>
      <path class="cls-13" d="m545.5,367.1c-.1,0-.3-10.4-.3-23.1s.1-23.1.3-23.1.3,10.4.3,23.1-.1,23.1-.3,23.1Z"/>
      <path class="cls-13" d="m553.1,367.1c-.1,0-.3-10.4-.3-23.1s.1-23.1.3-23.1.3,10.4.3,23.1-.1,23.1-.3,23.1Z"/>
      <path class="cls-13" d="m560.7,367.1c-.1,0-.3-10.4-.3-23.1s.1-23.1.3-23.1.3,10.4.3,23.1-.1,23.1-.3,23.1Z"/>
      <path class="cls-13" d="m568.2,367.1c-.1,0-.3-10.4-.3-23.1s.1-23.1.3-23.1.3,10.4.3,23.1-.1,23.1-.3,23.1Z"/>
      <path class="cls-13" d="m575.8,367.1c-.1,0-.3-10.4-.3-23.1s.1-23.1.3-23.1.3,10.4.3,23.1-.1,23.1-.3,23.1Z"/>
      <path class="cls-13" d="m583.3,367.1c-.1,0-.3-10.4-.3-23.1s.1-23.1.3-23.1.3,10.4.3,23.1-.1,23.1-.3,23.1Z"/>
      <path class="cls-13" d="m602.9,367.1c-.1,0-.3-10.4-.3-23.1s.1-23.1.3-23.1.3,10.4.3,23.1-.1,23.1-.3,23.1Z"/>
      <path class="cls-13" d="m618.5,367.1c-.1,0-.3-10.4-.3-23.1s.1-23.1.3-23.1.3,10.4.3,23.1-.1,23.1-.3,23.1Z"/>
      <path class="cls-13" d="m626.8,367.1c-.1,0-.3-10.4-.3-23.1s.1-23.1.3-23.1.3,10.4.3,23.1-.1,23.1-.3,23.1Z"/>
      <path class="cls-13" d="m635,367.1c-.1,0-.3-10.4-.3-23.1s.1-23.1.3-23.1.3,10.4.3,23.1-.1,23.1-.3,23.1Z"/>
      <path class="cls-13" d="m643.3,367.1c-.1,0-.3-10.4-.3-23.1s.1-23.1.3-23.1.3,10.4.3,23.1-.1,23.1-.3,23.1Z"/>
      <path class="cls-13" d="m610.6,367.1c-.1,0-.3-10.4-.3-23.1s.1-23.1.3-23.1.3,10.4.3,23.1-.1,23.1-.3,23.1Z"/>
    </g>
  </g>
  <g id="Earth">
    <g>
      <g>
        <circle class="cls-2" cx="350.5" cy="147.7" r="132" transform="translate(-1.8 291.1) rotate(-45)"/>
        <g class="cls-10">
          <g>
            <path d="m335.5,17.9s0,0-.2,0c-.3,0-.8,0-.9,0,0,0-1,.4-1,.4,0,0-.1,0,0,0,0,0,.3.3,1.6,0,.7-.2.7-.4.6-.4Z"/>
            <path d="m333.5,16.9c0,0,.6-.1.6-.2,0,0,0,0,0,0-.2,0-.7,0-.7,0,0,0-.2,0-.2.1,0,0,.2,0,.4,0Z"/>
            <path d="m337.6,16.4q.3,0,.7,0s.3,0,.9,0c0,0,.6,0,.7-.1t-.1,0s-2.1,0-4.1.3h1.1c.3,0,.6-.1.9,0Z"/>
            <path d="m335.3,16.8s0,0,0,0c0,0,0,0,.9,0,.3,0,.6,0,.8,0,0,0,0,0,.1,0,0,0-.1,0-.2,0-2.2,0-4.2.4-4.5.6.1,0,2.7-.2,2.8-.3,0,0,0,0,0,0Z"/>
            <path d="m337.4,17.3c0,0,.1,0,.2,0,0,0,.2,0,.3-.1.2,0,.3-.1.5-.2,0,0,0,0,.1,0,0,0,0,0,0,0-.5,0-1.4.3-1.4.3,0,0,0,0,0,0q0,0-.2.2c0,0,.7-.1.7-.1Z"/>
            <path d="m331,19.3s0,0-.1,0c-.2,0-.4,0-.4,0-.6,0-1.3.3-1.3.3,0,0,0,0,0,0,0,0,1.1,0,1.6-.2.2,0,.3-.1.3-.2Z"/>
            <path d="m331.2,21.7c0,0,0-.1-.4-.2,0,0-.1,0-.2,0-.5,0-.9-.1-1.4-.2-.6,0-2.6.1-3,.4,0,0,0,0,0,0,.1,0,.3,0,.4.2.2.2,0,.3,0,.3-.1,0-1.6.5-2,.6-.2,0-.2,0-.2,0,0-.4.5-.3.6-.6-.2,0-1.5.2-1.7.4,0,0,0,0,0,.1,0,.3,0,.5,0,.8,0,.1,0,.2,0,.3,0,.2-.2.3-.3.5,0,0,0,0,0,.1.2.5,3.7-.2,4.8-.8.2-.1,1.1-1,.8-1.1-.4-.1-.8,0-1.1,0,.8-.2,1.7-.3,2.6-.5,0,0,1.1-.4,1.2-.5Z"/>
            <path d="m322.8,18.6c1.5-.1,2.9-.6,4.3-.8q-1.5.4-1.6.4l5.1-.9c.1,0,.3,0,.4-.2,0,0-.1,0-.2,0-1.1,0-8.3,1.2-9.9,1.8.7.1,1.3-.2,1.9-.3,0,0,0,0,0,0Z"/>
            <path d="m319.7,27.6s0,0,0,0c0,0-.2,0-.3,0-.7.2-1.3.7-2.1.8-1.2.3-1.6.3-1.7.5,0,0,0,0,0,0,0,0,.2,0,.4,0,.4,0,.5,0,.5.1.1.1,0,.3.1.5,0,0,.3.1.6.2,1.9.3,2.8-.2,2.8-.2.3-.2.1-1.2.1-1.2,0-.4-.4-.8-.5-.8Z"/>
            <path d="m324.7,21.2s-.1,0-.3,0c-1,0-1.9.3-2,.3,0,0,0,0,0,0,0,0,.2,0,.3,0,0,0,0,0-.2.2,0,0-.3.3-.1.4.3,0,1.6-.5,1.7-.5.6-.2.8-.4.6-.5Z"/>
            <path d="m415.4,48.8c-.5-1.4-1.5-2.4-1.9-3.8-.3-.9,0-1.8,0-2.7,0-1,.2-1.2.8-1.5.9-.5.6-.9-.6-2.2-3.7-4.4-3.7-4.5-3.9-5.2,0,0,.1-.1.1-.2,0,0,.2,0,.3,0-.9-1.8-4-1.7-3.8-4.5-.1-.1-.3-.3-.4-.4,0-.1.2-.3.2-.4,0,0,.1,0,.2,0-.6-.3-2.3-1-2.3-1-1.2-.5-2.7-.7-3-.8-1.1-.2-1.7-1.1-2.7-1.5-1.4-.5-4.4-1.6-5.6-2q-2.3-.7-2.6-.6s0,0,0,0q-2.5-.7-3.7-.9h0s0,0,0,0c0,0,0,0,0,0,0,0,0,0,0,0q1.4.6,1.8.9t-1.7-.6c-.6-.2-.9-.3-1.7-.5-5.9-1.4-10.6-1-10.6-1q.2.2,1,.5c-.9.5-2.7.4-3.6.3,0,0-4.9-.3-5.2,0-1.8,1.2,1.1,2.8,1.1,2.8,7.8,2.1,7.9,2.2,8.2,2.9,0,0,2.2,5.2.3,6.9-.8.7-.8.7-.8.9,0,.5.5.7.5,1.2,0,.7-.4,1.3-.3,2,1.1.1,2.3-.6,3.3.3,1.7,1.6.2,2.9.2,2.9-1.2.7-2.7.1-3.8,1-.6.5-1.6,2-1.7,3.1,0,.5,2.4,12.6,4.9,14.6,6.6,3.9,6.8,3.7,7.5,3.4,1-.6,4.6-6.6,4.6-6.7.5-.9.4-2.1,1.2-2.8.5-.4.5-.4,2.5-.3q6.2.3,6.7-.7c.5-1,.8-1.6,2-1.8,2.9-.4,5.7.4,8.6,0,1.2-.2,2.4-.1,3.5-.4,0,0,.6-.2.3-1.1Z"/>
            <path d="m342.1,35.3c.6-.7.6-1.1,0-1.2,0,0-1.8-.1-2.3.5-.3.4,0,1.7.2,1.9.5.7,2.1-1.2,2.2-1.2Z"/>
            <path d="m361.7,16.4c-.4,0-.8,0-1.2,0,1.3.1,5.4.4,6,.5-2.8,0-5,0-7.3-.4-.5,0-.7,0-1,0,0,.1-.5.8-1,1-1-.7-4.5,0-4.7,0,.2.2.5.3.7.5,0,0,0,0,0,.1.4,0,.5.1,1.9,0-2.6.4-2.7,0-2.8-.2-1.6-.5-1.9,0-2.1.3-1.1.3-2.4,0-3.5.4,0,0,0,0,0,.1.3.1.4.2,2.2.4,1.3.2,2.8-.3,4,.5q-.2.2-.5.3c.8.5,4.3.1,4.3-.7,0,0-.2-.1-.3-.2.3-.2,2.7-.8,3.2-.7,2.8.3,4.1-.4,4.2-.6,0,0,0,0-.1,0,2.6.2,3.8.3,4.8,0q-.2,0-.6-.2s6.1.2,6.4.2c-1.5-.3-1.6-.3-2.1-.5,1.5.1,2.9.4,4.4.5-1.3-.5-3.6-1-3.6-1,0,0-5.6-1-6.9-.9,0,0,0,.2.2.2-.2,0-.5,0-1-.3-.4-.2-5.3-.7-5.9-.3.2.2.2.2,2.4.4Z"/>
            <path d="m337.3,18.1c-.2.1-.3.3-.4.4-.2.1-.3.1-1,.4.1-.1.2-.3.3-.4,0,0,.1-.1.1-.2,0,0-.5-.1-1.2.2,0,0,.1,0,.2,0,0,0,0,0,0,0-.7.3-1.5,0-2.2.2,0,0,.2,0,.3.1q-.1.1-.1.2t2,.1c-.7.1-2.4.4-2.6.7,0,0,0,0,0,0,0,0,2.2,0,2.5,0q.2,0,1.7-.6s0,0,0,.2c0,0,0,0,0,0q.7-.3,2.4-.9c.4-.1.4-.1.5-.2q0,0-.2,0s-1.9,0-2.1,0c0,0,0,0,0,0Z"/>
            <path d="m351.5,38.7c.8.2,1.8,3.1,1.8,3.1.2.7.5,1.4.9,1.5,1.2.2,4.4-3.5,4.4-3.5,0-.1.2-.3.2-.4l-7.5-4.7c.3-.1.6-.2,2.8-.4,1,0,1.5-.1,1.5-.4.1-.6-1.8-4.3-3.1-5.1-.6-.3-1.3-.4-1.8-.9-.5-.5,0-1.5-.9-1.9-.8-.3-2.7-.3-4.2-.3-1.4,0-1.5,0-1.7,0,0-.2,0-.5.6-2.4-.4-.4-2.2-.7-2.7-.8-2.7-.3-12.2,3.3-11.1,4.7,1,1.4,6.1,2.1,6.8,2,0-.4,0-.7,2.2-.2,1.8.4,2.2,0,2.5-.1.3.4,1.1,1.7,1.1,1.7.4.9.3,1.8.6,2.7.4,1.1,2.1,1.6,1.5,3.1,0,0-1.6,3.4-6.9,3.1-1.6,0-3.1-.7-4.8-.5-.7.1-1.1,1.1-1,1.3.2.3,1,.7,3.8.8q2.2,0,5.1,2.8-.4.2-2,.2c.5.9,6,4.2,7.4,4q0-.2-.2-.5t-1.9-3.5c2,.9,2.5,1.4,3.4,2.6.2.2.3.4.4.4.7,0,2.7-2.1,2.4-2.8-.7-1.6-2.9-2.2-2.9-4.3,0-1.7,2.9-1.6,2.9-1.6Z"/>
            <path d="m328.9,17.7c0,0,.6,0,1,0,0,0,.2,0,.3,0,0,0,0,0,0,0,0,0,0,0,0,0-.2,0-1.2.1-1.3.2Z"/>
            <path d="m371.5,40.2l1.3.2s.4,0,.5-.2c.1-.1,0-.2,0-.4,0-.2-.2-.4-.3-.6,0-.1,0-.2,0-.3,0,0,0,0,0,0,0,0-.1-.2-.6-.3-.6,0-2.5.3-1.8,1.1.1.2.4.4.8.5Z"/>
            <path d="m349.5,25.3s0,0,0,0c0-.2-1.6-1.4-3-1.6-1.2-.2-1.1.7-.9,1,.6,1,3.8.7,3.9.7Z"/>
            <path d="m342.8,16.4c-.4,0-1.1,0-1.2,0,0,0,.1,0,.2,0,.6,0,1.1.3,1.1.3-.1.2-.4,0-.5.3,0,.1,1.1,0,1.2,0,.4,0,1.8-.6,1.9-.8-.1,0-.3,0-.4,0,.2-.2.5,0,.7-.2t-.1,0c-1.1,0-2.6.1-2.8.2.2.1.4,0,.7.1,0,0-.1.1-.7.1Z"/>
            <path d="m336.2,19.9c-.3,0-.4.1-.1.5.2.3,1.1.4,2,0,.5-.2,1.6-.7,1.2-.9,0,0-.1,0-.2,0-.7,0-2.8.4-2.9.4Z"/>
            <path d="m349,17.8s0,0,0,0c0,0,0,0,0,0,0,0,0,0,0,0-.6,0-1.1,0-1.7,0-.6,0-1.3-.1-1.9-.1-.5,0-.7,0-.9,0,.1,0,1.9.4,2.9.5.5,0,.7,0,1.5-.2,0,0,.1,0,.2,0Z"/>
            <path d="m344.5,17.2s0,0,0,0c.2,0,2.2,0,2.8-.1.3,0,.3,0,.4-.1,0-.1-.1-.1-.1-.2,0,0,0,0,0-.2,0,0,0,0,0,0,0,0,0,0,0,0,0,0-.1,0-.2,0,0,0-.2,0-.3,0-.5.1-.9.5-1.4.5-.6,0-.9,0-1.1.2Z"/>
            <path d="m349.5,16c1.4-.2,1.5-.2,1.5-.2,0,0,0,0-.1,0,0,0-1.4,0-1.8,0-.5,0-.4.2-.4.2,0,0,.4,0,.8,0Z"/>
            <path d="m352.3,16.4c.6,0,.8,0,.9.2,0,0,0,0,0,0-.2,0-.4,0-1,0-1.6,0-2,0-2.1,0-.4,0-.6.5-.4.6t1,0c.4,0,.8.2,1.2.2,1,0,1.9-.3,2.9-.4.6,0,1.2,0,1.8,0,0,0,.1,0,.1,0t-.4-.3s0,0,0,0c.1,0,.2,0,.3,0,.8,0,.9-.1.9-.2,0,0-.2,0-.2-.1.2-.1.5,0,.5-.4.2-.1.5-.1.7-.3,0,0-.1,0-.2,0-1,0-4.6,0-5,0,.2,0,.3,0,.5,0-.3.1-1,0-1.3,0-1-.1-1.7.3-1.7.3,0,0,1.3.1,1.4.2Z"/>
            <path d="m339.3,21c0,0,9.3,2.2,12.5.7.9-.4-.7-1.1-.7-1.1-.8-.3-5.3-.3-6.2-.3-.8,0-1.2-.9-1-1,0,0,.2,0,.5,0,1.6,0,1-.6.9-.7-.4-.2-.8,0-1.1-.1-.4,0-.8-.4-1.2-.5-.1,0-.6-.1-.9-.1-.3,0-1.2.5-1.3.7.2,0,.2,0,.6,0,.4,0,1.1,0,1.1.1.2.2-.9.9-.9.9-.6.3-1.2.2-1.8.5-1.1.6-.8.7-.5.8Z"/>
            <path d="m324.4,18.5s0,0,0,0h0c-.3,0-3.1.6-3.2.7.1,0,.2,0,3.2-.7Z"/>
            <path d="m308.2,23.5s0,0,0,0c0,0,.1,0,.2,0,.9-.2,1.8-.6,2.7-.9,1.6-.5,3.3-.7,4.9-1.2q.4-.1,1-.7s0,0,0,0c-.5,0-.9.1-1.4.2q.4-.2.6-.4s0,0,0,0c0,0-.1,0-.2,0q-1.8.1-11,3.5c-.8.3-1.4.5-2.3,1.4,0,0,0,0,0,0,2-.2,3.7-1.2,5.5-1.9Z"/>
            <path d="m320.5,20.3c.2,0,.8,0,1.5-.2,2.6-.5,3.9-.6,3.9-.6.8,0,1.6,0,2.4,0,.6,0,3.2-.8,3.2-.8.5-.1.5-.2.6-.2-.3-.1-.7,0-.7,0-.7.1-1.5.4-2.2.6,1-.5,2.1-.8,3.2-1.3,0,0,0,0,0,0,0,0-3,.4-3.2.7-.1.2-.7.8-2.8.5,0,0,0,0,0,0,0,0,.1,0,.2-.1,0,0,0,0,0,0,.4-.2,1.3,0,1.1-.6,0,0-6.1.7-6.4,1.4t3-.5c-.4.3-.9.3-1.4.5,0,0,0,0,.8,0,.2,0,.6,0,1.3,0-.7.2-2.9.5-4.1.6-.4,0-.5.2-.3.3Z"/>
            <path d="m301.5,28.1c.3.2.8,0,1.1.1,0,0,0,0,0,0-.3.4-.8.5-1.2.8.4.2,4.5-.2,7-1.1.8-.3,1.2-.4,1.6-.4,0,0,0,0,0,0q-.3.3-.3.3c.1.2,1.3,1,1.3,1q1.4,0,3.1-.9c0,0,0,0,0,0q-.1,0-1.5.1c.3-.4,1.8-.9,2.6-.5.3.1.4.1.5,0,0,0,.8-.4.9-.9-.5-.6-.5-1.4,0-1.7.4-.3,4.3-2.6,4.3-2.9-.1-.1-.2-.2-.3-.3,0,0,0-.1,0-.1,0,0,0,0,0,0-1.6.6-3,1.8-4.7,2.1,0-.6.8-.6,1.1-1,0,0,0,0,0-.1-.6,0-1.3.3-1.9.2.3-.2.6-.3.9-.5,0,0,0,0,0,0-.9,0-1.7.4-2.6.4.7-.5,1.6-.5,2.4-.9-.5-.1-8.3,1.8-8.5,2.6,0,0,.1.1.2.2-.2.2-.2.2-1.1.4-1.5.3-1.6.5-1.7.6,0,0,.1.1.2.1.8.1,1.5-.2,2.3,0,.5,0,1,.5,1.5.5-1.1.4-2.5.3-3,.3-3.7-.2-4.5,1.2-4,1.6Z"/>
            <path d="m327.7,46.4c.2-.2,0-.3-.3-.4,0,0-1-.2-1.4,0-.5.3-.6.9-.5,1.1.3.4,1.9-.4,2.2-.8Z"/>
            <path d="m327.8,41.5s.2,0,.3-.1c.2-.2.1-.6,0-.8-.1-.3-.4-.5-.5-.8-.2-.5-.2-1.1-.5-1.5,0,0-.1-.2-.2-.2-.3-.4-.8-.5-1.1-.9-.2-.2,0-.6-.3-.9,0,0,0,0-.1,0-.4,0-2.3,1.4-2.4,1.4-.2.2-.6.4-.8.6l-2.1,1.7q.8.3.7.8t0,.6c.1,0,.4,0,1-.3.8-.3,2.2-.8,3.5-.5.9.2,1.5,1,2.5,1Z"/>
            <path d="m324.1,44.2s-1.9-.2-2.7,0c-.4.1-.8.9-.6,1.1.3.4,3-.1,3.6-.6.2-.2.3-.4-.3-.5Z"/>
            <path d="m276.9,143.7c-.8,0-.8,1.2-.4,1.5.2.2,1.9,1.2,2.1.4.1-.4-.8-1.8-1.7-2Z"/>
            <path d="m425,64.7s0-.1,0-.1c0-.3-.3-.9-.7-1.3,0,0-.2-.1-.2-.2-.7-.5-1.5-.6-2.2-1.1-.5-.4-.7-1.1-1.3-1.2-.8,0-1.6,0-2.3-.1-.8,0-1.5-.4-2.2-.4-.5,0-.4.6-.8.7-.4,0-.7-.5-1.1-.4,0,0-.2,0-.2,0-.4.6,0,1.5-.9,1.8-.2-.2-1.3-2-1.4-2.6-.2-1.3-2.5-2.9-3.4-2.6,0,.6.7.8.9,1.3-.5.8-1.4.3-2,.7.2.2,1,.4,1.5.5.8.1,3,1.8,1.2,2.5.3.9,1.3.6,1.9,1,.6.4.5.7.3,1.3.1.2.2.3,1.7.6.9.2,1.3.3,1.5.4.6.3,1.2.8,1.8,1.1,0,0,.2,0,.3.1.2,0,.6.2,2.5.4,1.8.2,5-.8,5-1.3,0-.4-.2-.7-.2-1.1q.1,0,.3,0Z"/>
            <path d="m280.2,141.5c.4,1.2,4.8,3.1,5.1,2.6.1-.3-3.3-9-3.4-9.1-.4-.6-1.8-2.5-5.4-3-2.1,0-3.8.8-3.9.8.2.3,1.7.6,3.1.3,2-.4,2.9.6,3,.9-.2.1-.5.3-.9-.2,0,0,0,0,0,0-.2.8,1,1.6,1.8,2.2,1.5,1,1.5,1.4,1.5,2.5,0,.6,0,.9.2,1.5.1.4.2.7.2.8-.2.6-.8.3-1.1.5Z"/>
            <path d="m285.5,149.6c.4.4-.3,1.2.3,1.5,1.1.5,1.5-1.1,2.6-.8.1,0,.2,0,.5.3,1.7.9,4.7,2.1,4.7,2.1.2,0,.3,0,.3-.1.2-.5,0-1.1.3-1.6,1-1.5-7.2-5.2-7.7-5.3-.1,0-.2,0-.2,0q0,.1,0,.3c.8,1.6,0,2.8-.1,2.8-.2,0-.8-.3-1.7-.7-1.6-.9-1.8-.9-1.9-.9,0,0,0,0,0,.1.8,1,2.1,1.4,2.9,2.4Z"/>
            <path d="m337.2,76.7c-.8,0,.6,1.4.8,1.7,1.8,1.8,3,.9,3,.9.5-.5-3-2.5-3.8-2.6Z"/>
            <path d="m262.9,48.5s0,0,0,0c0,0,0,0,0,0h0Z"/>
            <path d="m283.2,34.1-37.4,33.1c-10.8,13.1-18.1,32-18.1,32v3.7q.3.2,1.8,13.2c-.4-.1-.9-.3-1.3-.4.2,1.6,2.8,9.5,2.8,9.5.7-.5,1.3-1,.2-4.9-.5-1.8-1.1-3.8-.3-12.2,1.8,2.6,1.6,3.8,1.4,5.4-.1,1.1-.3,2.4,0,3.3.4,1.9,1.1,3.7,1.6,5.6.7,2.4,2.6,4.4,2.9,6.9.3,2.1-1,4.3.5,6.2.2.3.5.6.8.8.5.4,1,1,1.5,1.3,1.8,1.2,3.6,2.2,5.4,3.3,1.8,1.2,4.3.8,5.9,2.6q3.6,4.1,5.1,4.8c.2.1.5.3.7.4,6.7,3.4,6.5,13.1,14.3,15.6,5.4-4.5,5.1,3.1,4.8,6.5q-.1,1.1-3.5,4.6c0,0-4.6,7-4.3,8.7,0,.3.1.6.2.9,1.2,4.6,8,18.5,8,18.6,1.8,3.1,5,4.8,7,7.6,1.5,2.2,2,5.6,1.4,9.6,0,.2-2.3,19.4,1.2,31.5,4.4,15.4,13.4,17,13.5,17q-6.7-7.1-4.7-10.2-.7-1.6-.8-8.2.4,0,1.9.6t-.9-3.4q1.9-.8,2.1-1.8c.2,0,.2,0,.4-.1,2.3,1.7,3.9,0,3.6-1.3l-.4-1.3c5.8,1.9,13.1-11.2,13.2-11.3,1.5-1.5,4-1.8,5-1.8,2.3-.1,3.2-2.5,5.1-3.3.9-.4,1.4-.2,1.9,0,.8.4.9.4,1.3-.3.8-1.7,1.3-3.5,2-5.2.4-1,.2-2.2,1.2-2.9,1.1-.8,1.6-1.2,1.3-2.1,0-.2,0-.4,0-.6,5.4,0,9-4.7,9-4.7,0,0,0-.1,0-.2,0-.6-.2-1.2-.1-1.8.1-.9,1.7-1.7.8-2.6-.6-.7-1.6-.4-2.3-.8-2.3-1.4-3.2-4.2-5.3-5.8-3.2-2.4-6.7-4.3-10-6.5-1.8-1.5-1.2-4-2-5.9-1.7-2.2-2.5-5.1-4.4-7.3-2.4-2.8-6.4-3.5-8.7-6.4-1.9-2.3-2.6-5.3-4.7-7.4-.3-.3-.8-.7-1.2-.9-11.7-6.2-20.9-11.1-25.4-1.7-2.7-3.9-13.6-3.1-10.6-8.8,1.8-3.5,1.2-6.7,1.2-6.8-2.3-2.4-5.8-2-8.6-3.2q2.1-2.8,1.9-4.5,2.3-2.5,3.7-5c-.4-.7-3.8-6.2-8.6,4.3-1.6-.7-3.5,1.3-5-.5-3.5-4.1-3.9-7.9-3.8-9.7.1-2.3,2.5-3.3,3.1-5.3.4-1.3-1.1-2.5-.1-3.8,1.2-1.7,6-4,7-4.3,1.8-.6,7,2.6,7.1,2.7.2,0,.5-.2.7-.2-.3-.6-.8-1-1.2-1.6.1-.2.2-.4.3-.6,1.4-.3,10.6,2.1,10.6,2.1,3.1,3.4-1.1,8,1.8,11.4,5.9-3.1.4-9.6,2.8-13.9,2.5-4.5,7.6-3.9,11.4-6,0,0,0,0,0,0,0-.2-.2-.4-.2-.6,0-.2.2-.4.3-.6.2,0,.4,0,.6,0,0-.2.2-.5.3-.7-.1-.1-.3-.3-.5-.4l4-8.4c-.4,1.3-1.8,5.3-1.8,5.3q.5-.1,2.9-5.8c.1.7.5,1.4.4,2.2,1.3-1.1,1.6-2.9,3.2-3.7,0,0,6.2-1,6.5-.8q2.1-4.3,5.4-5.8.4.2,9.3-1.5c-.1.1-.3.3-.4.4.3.3.8.6,1.2.7,0,.2-.2.4-.2.6q-5.3,1.5-5.7,2.4c2.9,1.1,13.5-1,13.4-5.5-1.5.4-2.1,1.9-3.2,2.7-.9-.6-1.5-1.1-2.1-1.5.7,0,1.4-.4,1.4-.4,0,0,0,0,0,0,0,0,0,0,0,0,0,0,0,0-.2,0-1.2-.2-1.8-.7-2-.9-.5-.5-.4-.8-.2-1.3,0-.2,0-.2,0-.2,0,0,0,0,0,0,0,0-.8.8-.7,1.6-.9-.9-.9-1.5-.9-3-.9-.7-.9-.9-1.2-1.6,1.7.1,2.9.2,3.8-1.2q-.5-1.1-14,2,10.4-5.3,19.1-4.9c1.4,1.8,10.8.7,12.8-1.1q0-1.1,1-2.3c0-.3,0-.4,0-.6-.6-.4-1.2-.8-1.8-1.1-.5-.2-.6-.2-.6-.2-.4,0-1.6-.4-4.2.2,0-.2,0-.4,0-.6,1-.7,1.3-.7,4-.8h0c.1,0,.4,0,.5-.1.2-.2-1.1-2.5-3.6-2.7q-.6,0-.8-.2c0-.5.5-.9.4-1.4-.2-.7-1.2-.9-1.4-1.6,0-.3.1-.5.6-.8q.8-.5.3-2.9-1.1-6-3.4-3.9c-.4.3,0,1-.5,1.2-.6.3-1.2-.4-1.7,0q-1.3.9-1.6.9c-1.7,0-2.3-1.7-3.6-2.5,0-.5,1.4-3.1,2.4-3.4-.7-.5-1.6-.4-2.3-1-.2-.1-.2-.3-.3-.8,0-.2-.1-.6-1.8-1.9-.4-.3-.5-.3-.8-.4-1.9-.1-3.7-1.2-5.7-1.1-.3,1.7-2.8,2.5-2,4.7-.5.7-1.7.6-2.1,1.5-.4,1.1.4,2.1,0,3.2,0,0-1.4,4.3-4,4-.6,0-1.9-.1-2,.9-.2.1-.3.1-.9.3-1.5,2.2-1,5.8-4.4,6.8-.4-1.6-1.8-2.6-2.7-3.9,1.3-1.7,1.3-2.5,1.2-3.5.2,0,.6-.2.9-.3,0-.1.1-.3.1-.4-.2-.1-.5-.2-.7-.3-.8-1.5-2.5-1-3.6-1.8-1.1-.8-1.3-2.3-2.4-3.1-.2-.1-.4-.3-.6-.4-1-.6-2.1,0-3.1,0q-.2-.4.2-3,.2-.9-1.8-1.8c.5-2.8,8.7-5.4,12.2-6.5,0-1-1.1-.9-1.5-1.5q5.7.9,10-1.3c-2.2-.4-2.7-.4-4-2,2.3,0,4.4,2.2,6.8.3-.1-.2-.3-.3-.5-.4,0,0,1.4-.9,2.3.2q4,0,5.2-.5c.3-.1.6-.3.8-.5.6-.5.2-1.4.8-1.9.5-.5,1.2-.2,1.8-.5.3-.2.5-.6.8-.8,0,0-1.9-4.1-4.4-.2-2.2.4-5,4.2-6.5,1.5.7-1.2,3.6-1.2,2.8-2.9-1.6,0-2.7,1.3-4,1.8,0-.8,2.1-2.2,2.1-2.2q0,0-1.3-.5,3.4-2.7,3.6-3.2c0-.1-.2-.3-.2-.4q1.9-1.5,8.9-2.9-.4-.2-1.1-.3c-5-.5-14.4,6-14.5,6,0,.1,0,.3,0,.4.5.2,1,.2,1.5.4,0,0,0,.2,0,.3-1.2.1-1.4.2-2,.5v.2c0,0,0,0,0,0,0,0,.2.1.3.2-1.6,1.4-4,1.2-5.4,2.8q-.5-1.1,1.5-2.1-.7-.5-4.1.7c-.2,0-1.3.3-4.5-1-.1-.4,0-.8,0-1.2-2.9-.2-4.2,1-6.8,3.5,0-.9.9-1.3,1.1-2-1.5-.3-3.1.5-4.6-.3.9-.4,2-.3,2.6-1.2,0-.1,0-.2-.2-.3-.4,0-.5,0-1.5-.4,0-.2-.2-.5-.3-.7-.8-.1-1.4.4-2.1.6.2-.2.4-.4.6-.5q-.5.1-1.3.5.6-.6,2-1.5l-2.3.9s-12.5,7.9-17.6,12.4c-5.7,5.1-11.1,10-19.8,20.7Z"/>
            <path d="m296.4,154.2c-.8.2-.3,1.4.5,1.8.6.3,2.5.7,2.7.5,0,0,0-.4-1.2-1.3-1.4-1-1.6-1-2-1.1Z"/>
            <g>
              <path d="m438,100.2c.4,0,.8-.2,1.3-.3.5,0,1,.3,1.5,0,.3-.2.4-.8.4-1.9,0-.5-.1-.9-.2-1.3-.2-.7-.1-.9.3-1.3.2-.2.5-.5.5-1.1,0-.5-.2-1-.4-1.3-.1-.2-.3-.3-.4-.5-.4-.4-.8-.6-1.2-1-.3-.3-.3-.4-.4-.5,0,0,0,0,0,0-.1,0-3.2-.3-1.8,1.3,0,.1.1.2.4.3,0,0-.2,0-.3,0-1.4.2-1.8.4-2.1.5-.3.1-.6.4-.7.9,0,.2,0,.5.4.9.3.3.7.4,1.1.6,0,0,0,0,0,0-.8.8-1.8,2.4-1.8,2.4-.4.7-.4,1-.3,1.4.2.6,2.2,1.1,3.9.7Z"/>
              <path d="m453.8,143c.1,0,.2,0,.3,0,0,0,.7-.4.8-.4.1-.2-.2-.5-.8-.8-.7-.3-1.9-.6-1.6.1.1.4.9,1.1,1.3,1.2Z"/>
              <path d="m444.7,98c-.1,0-.1,0-.1.2l.8.4c-.4-.4-.5-.5-.7-.6Z"/>
              <path d="m476.8,117.9c1.5,1.9,3.3,7.2,3.9,9.3-.7-3.3-2.4-11.2-3.2-14.5-4-13.1-4.1-13.4-7-20.1l-3.3-6.9h0c-.1-.3-.3-.5-.4-.7.1.4.2.5,1.5,3.4-.3-.4-.5-.8-.8-1.1.2,1.3,1.1,2.3,1.6,3.4,0,0-.2,0-.2,0-2.5-4.1-4.3-8.6-6.9-12.7,1.4,1.7,2.2,3.9,3.8,5.4-.2-1-3.9-7.6-6.7-11-2-2.4-2.2-2.8-2.4-3.2.1,0,.3.2.4.4-.2-.3-.3-.5-.9-1.2,0,0-.2,0-.2,0-.2-.2-.6-.5-1.9-2.2.1.1.3.3.4.4,0-.8-2.7-3.3-2.9-3.5q0,.4.3,1.2c-1-.8-1.1-2.1-2-2.9,0,.6.5,1,.5,1.5q-.7.7-.8,1.3c-.2.8.8,6.1.8,6.2.9,3.6.4,4.5.4,4.6q-1.3,2.6-3.2,3.1c-.7.2-.7.4-.7,1.2,0,.1.7,10.7,4.9,10.3,1.4-.1,1.5-2.3,1.5-3.3.2.3,4.5,9.1,5,11.6.2,1.2.5,2.3,1.5,2.6.3-.3,1.3-2.8,1.1-4.2-.5-3.2,0-3.4.9-3.8.3-.6.3-.9-1.2-2.8q-1-1.3-1.8-4.8c-.3-1.3,1.3-2.3.7-3.7q-1.7-3.6-1.7-3.8c0-.1,0-.3,0-.4,0,0,.1-.1.2-.2.9.7,3.4,4,3.4,4.7,0,0-.2,0-.3,0q.5,6.5,2.1,9.6c1.4,2.7,4.7,3.5,6.1,6.1-.3-.2-.6-.5-.9-.7,0,0-.2,0-.2,0,0,.3.1.6.2.9-1.1-.8-2.1-1.7-3.3-2.3.7,2.4,2.2,4.5,2.5,7-1.3-.5-.7-2.5-2.2-2.9,0,0-.2.1-.2.2,0,0,.6,3.6.7,3.9.1.4.7,2.2.4,2.8q-.8-.4-1-.4c-.2.2-.3.5-.5.7,0,0,0,.2,0,.2h0q-3.7-1.6-3.9-1.3c-.2,0-.4,0-.6.1-.6-.7-1.5-1.4-2.5-2l1.7,1c-.2-.3-.8-1.3-2.4-1.7-.5-.2-.6-.2-1.5-2.3-.6-1.6-1.2-3.8-.7-5.2.2-.6.2-3.6-.4-3.9,0,0-2.1-.7-2.1.4,0,.5,1,5.8,2.1,8.6.4,1.1.4,1.2.4,1.3-.1,0-.2,0-.7,0-.4,0-.9-.2-1.3-.2-1-1.5-2.5-2.6-3.3-4.3-.4-.8-.6-1.8-1.2-2.6-1-1.3-2.2-1.9-2.8-2.2,0,0,0,0,0,0,1-.4,3.3-3.5,1.2-4.3-.4-.1-.8-.2-1.1-.3-1.4-.3-1.6-.3-1.5-.7.2-.7,1.9-1.6.9-2,0,0-2.6-.9-3.3,0,0,0,0,.2,0,.3-.2.9.2,1.7,0,2.6-.1.7-.9,1.2-.8,1.9.2.2.6.3,1.8-.1.4-.1.8-.3,1,0,.8.8-.7,1.5-.6,2.3.1,1.7.8,2.2,1.7,2.8,1.4.9,1.6,1.1,1.8,1.3,0,.3-.3.5-.2.7.2.9.7,1.6.8,2.5,0,.9-.9,0-1.5-.5q-.2-.2-1.1-.6c0,1.1.9,2,.8,3.1,0,.6-.7.7-1.6.8-.2,0-.6,0-.6.3,0,.1.2.7,2.1,1.3.8.3,2.4.8,2.3,1.3-.5-.1-.7-.1-1.4-.1,0,0,0,0,0,.2-.3,0-.5,0-.7.1-.5.2-.8.8-1.3,1-.6.3-1.3.4-1.9.7,0,0,0,.1,0,.2.2.1.2.1,2.1.5-.2.3-.4.6-.6.8-1.9-.8-2.2-1.1-2.8-2.1,0,.4.2,1,.4,1.5-.1.2-.3.4-.4.6-.5,0-1.1,0-1.5,0q-.7-.9-2.3-1.5c-.1.2-.3.3-.5.5.3.5.6,1.1.9,1.6-.2,0-.5.1-.7.2,8.3,5.8,3.6,14.5,3.5,14.5-4.2-1.8-7.8-4.5-11.9-6.5,0,.4.2,1,.4,1.4,0,.1-3.6,11.7-2.3,12.6q-1.6,3.4-1.8,3.7c3,.8,3.7,1,4.9,1.7q-.2,2.2-.2,2.2h7.8c2,.6,3.3-1.7,2.9-3.7,2.7-4.2,2.8-4.2,6-4.3q1.3-3.7,1.7-3.8c1.7-.6,2.1,1.5,3.4,1.9,1.8-1.6,3.2-2.6,4.5-.4,0,0,3.9,9.8,5.3,15.2-.2.5-.4,1.2-.3,1.5.1.3.7.4.6.8,0,.4-.4.8-.4,1.2,0,.3.2.5.3.5,0,0,0,0,.1,0-.3,1.3-1.2,1.1-4.6.4.3,1.6,2,4.7,2.1,4.7.7-1,.4-2.3,1-3.3.2,0,.4.2.6.3.8-.6,1.3-1.4,2.1-2,0,0,0,0,0-.1.4-.1.7-.4.9-.8,0-.1,0-.3.1-.4,0-.5,0-.9.2-1.4,0,0,0,0,0,0,.1.4.3.8.4,1.2,0-.6.1-.9-.2-1.9,0-.2.1-.5.2-.7.2-.8,0-1-.3-1.1-.1,0-.3,0-.5,0-.2-.7-.5-1.5-.9-2.5,0-.2.2-.3.3-.5,0,0,0,.2,0,.3,0,0,.6,1.6.7,1.6.3,0,.7-1.9.8-2.9,0,0,.1-1,0-1.5l1.6,4.2q0,0,0,9l.6,7.8c.2-.4.4-.9.5-1.3.6-1.6.5-3.3.7-5q.8-5.4,1.4-5.6c.8.5,2.3,2.3,2.2,3.9.3-.3.7-.7,1-1,.2,0,.5.1.7.2,2.2-4.4.3-9.5,2.5-13.8.4,0,.9.2,1.2.5-.1.1-.3.3-.5.5.3.9.5,1.1,1,1.8q0,.9-.7,2.1c.4.9.3,1.9.6,2.8,2.7-.5.2-3.9,1.5-5.5,1.1.1,1.1.5,1.1,1.4-.2.1-.4.3-.5.5q.2.7,0,2.8c-.2.1-.4.3-.6.4.2,4.5,2.7,8.8,1,13.4-.2,0-.5,0-.7.1-1.5-1.9.1-6.1-3.2-6.4-.2.4-.5.8-.9,1-.3-.3-.8-.6-1.1-.8,0,.4,0,.9.2,1.2-.9.4-1.7-.3-2.6-.2-.2.4-.4,1-.6,1.4.2.1.4.3.5.4-.5,2.4-1.5,7,.6,10.5.2,0,.4-.2.6-.3,0-.2.1-.4.2-.6.7,1.1.5,2.5,1.4,3.6.3-.3.6-.8.7-1.2.2.4.5.8.8,1.1-2.6,9-3,10.4-4.9,12.5-1.2-.6-1.4-.9-1.3-2.3-.4-.1-.9,0-1.2,0-4.1-1.8-1.6-7.8-6-9.5-1.3,1.2-1.3,3.1-2.4,4.4-.2,0-.5,0-.7,0-.7-1-7.3-13.3-7.6-14.7,0-.4.4-1,.8-1.3q.8-.7,2.3-6c-.8-1.1-1-1.3-1.5-1.8q-1.1.4-4.4-1.7c-.4.2-.9.5-1.2.8-4-3.4-9.5.3-13.5-2.9-.5-.2-.6-.3-.7-.3-1.4-.2-1.9-.3-2.7-2.4-.2-.3-.2-.3-.2-.3-.2,0-.5.2-.8.3-1.2.8-1.1,2.5-2.3,3.2-1.5,1-3.5.2-5,1.3-.4.3-.6,1.1-.8,1.6q-2.3,5.5-4,5.7c-1.6.2-4.5,1.2-5,1.5-1.3,1.1-11.2,9.6-11.2,9.6-1.3,2.8-.2,5.8-1.1,8.6-.8,2.4-4.5,2.3-4.4,5.4.2,4.6,1,9.2,1.5,13.7.2,1.9,4.1,9.7,5.3,10,5.8,1.4,11.9,1.2,17.4,3.8.2,0,.3.3.4.5.7,1.2-.6,2.5.1,3.7.7,1.2,2.1,1.2,3.1,2q0,2.5-1.7,4.3-4.6,5.1-4.8,6.9c-.3,2.9-.8,6.9-7,13.7-2.9,3.2-6.9,4.8-10.1,7.4-3,2.4-4.6,6.2-7.5,8.7-11.3,10-11.6,10.1-13.1,10.9-1,.5-1.6.8-3,2.3,3.2,2.4,8.4,1,10.1.5l6.9-2,9-3.1c2.2-1.1,3.9-2.9,6.1-3.9,2.6-1.1,5.4-1.1,8-2.2,6.1-2.8,13.4-9.9,14.2-10.8,3.3-3.7,11.6-8.2,14.1-9.4,3.9-2.1,10.6-9,12.6-11.9q-.6-.5-2-.7t2.2-5.4c.9-1.8,1.1-3.8,1.7-5.7,1.6-4.9,4.3-9.5,5.6-14.5l4.1-15.9q.1.6-.3,2.9c.4-.2.9-.6,1.1-1-.9,12.8-8.4,23.3-12.1,35.1q1.5-.1,2,.2,5.9-6.1,6.4-7c-.1.2-.2.5-.4.7.2-.4.5-.8.7-1.2l.2-.4,1.3-2.6c.6-1.2,1.3-2.7,3.1-6.8,0,.2-.2.4-.2.6,1.4-3.6,3.3-8,4.5-11.5,1-3.6,2.5-8.4,3.4-12.1.2-1.1.4-2.1.6-3.1.1-3.1.2-3.6,2-14.1,0,0,0,.1,0,.1q.7-14.9.8-15.6s0,0,0,0c0-4.7.5-6.4,0-11.2l-2-10.1c-.6-2-1.5-3.9-3.1-5.9Zm-25.1-16.5c0,0,0,0,.6.3-.2,0-.5-.2-.6-.2,0,0,0,0,0,0,0,0,0,0,0,0Zm12.3,35.8s0,0,0,0c-.2.4-.2.9-.4,1.4-.2.5-.5.6-.7.7-.1,0-.3.1-.3.4,0,0,0,0,0,0-1.3-1.2-2.3-2.3-3.4-12,.3-.2.8-.4,1.2-.5l3.8,9.8s0,0,0,.1Z"/>
            </g>
          </g>
        </g>
      </g>
      <circle class="cls-8" cx="408.3" cy="183.4" r="6.6"/>
      <circle class="cls-8" cx="454.7" cy="83" r="4.9"/>
      <g>
        <path class="cls-8" d="m254,99.4c0,.1-1.1.5-2.4.7-1.4.3-2.5.4-2.5.2,0-.1,1-.5,2.4-.7,1.4-.3,2.5-.4,2.5-.2Z"/>
        <path class="cls-8" d="m273.6,96.8c0,.1-2.2.5-4.9.8-2.7.3-4.9.4-4.9.3,0-.1,2.2-.5,4.9-.8,2.7-.3,4.9-.4,4.9-.3Z"/>
        <path class="cls-8" d="m293.2,95.9c0,.1-2.2.3-4.9.4-2.7,0-4.9,0-4.9-.2,0-.1,2.2-.3,4.9-.4,2.7,0,4.9,0,4.9.2Z"/>
        <path class="cls-8" d="m312.8,97.4c0,.1-2.2-.1-4.9-.4-2.7-.3-4.9-.6-4.9-.7,0-.1,2.2-.1,4.9.2,2.7.3,4.9.8,4.8.9Z"/>
        <path class="cls-8" d="m331.8,102.7c0,.1-2.1-.6-4.7-1.4-2.6-.9-4.7-1.6-4.6-1.7,0-.1,2.2.3,4.8,1.2,2.6.9,4.6,1.8,4.5,1.9Z"/>
        <path class="cls-8" d="m349.4,111.5c0,.1-2-1-4.4-2.3-2.4-1.3-4.3-2.4-4.2-2.5,0-.1,2.1.7,4.5,2.1,2.4,1.3,4.2,2.6,4.1,2.7Z"/>
        <path class="cls-8" d="m365.1,123.3c0,.1-1.8-1.3-3.9-3-2.1-1.7-3.8-3.1-3.7-3.2,0-.1,1.9,1.1,4,2.8,2.1,1.7,3.7,3.3,3.6,3.4Z"/>
        <path class="cls-8" d="m379,137.3c-.1,0-1.7-1.5-3.5-3.4-1.8-2-3.2-3.7-3.1-3.8.1-.1,1.7,1.4,3.5,3.4,1.8,2,3.2,3.7,3.1,3.8Z"/>
        <path class="cls-8" d="m390.8,153c-.1,0-1.5-1.7-3.1-3.9-1.6-2.2-2.8-4.1-2.6-4.2.1,0,1.5,1.6,3.1,3.9,1.6,2.2,2.8,4.1,2.6,4.2Z"/>
        <path class="cls-8" d="m400.9,170c-.1,0-1.3-1.8-2.6-4.2-1.3-2.4-2.3-4.4-2.2-4.4.1,0,1.3,1.8,2.6,4.2,1.3,2.4,2.3,4.4,2.2,4.4Z"/>
        <path class="cls-8" d="m406.4,178.5c0,0,.2.5.4,1.4,0,.5.2,1,.3,1.6,0,.3,0,.6.1.9v.5c0,0,.1.3.1.3h0c0,.1,0,.2,0,.2h0s0,0,0,0h0s0,0,0,0h0c.4-.1-.6.2-.5.1-1-2.5-1.8-4.6-1.7-4.7s1.1,2,2.2,4.5c.1,0-.9.2-.5.1h0s0,0,0,0h0s0,0,0,0h0s0,0,0,0h0c0-.1,0-.4,0-.4v-.5c0-.3-.1-.6-.2-.9,0-.5-.1-1.1-.2-1.6,0-.9,0-1.5,0-1.5Z"/>
        <path class="cls-8" d="m405.1,160.1c.1,0,.4,2,.5,4.6.1,2.5.1,4.6,0,4.6-.1,0-.4-2-.5-4.6-.1-2.5-.1-4.6,0-4.6Z"/>
        <path class="cls-8" d="m405.3,141.7c.1,0,.2,2.1,0,4.6-.1,2.5-.3,4.6-.4,4.6-.1,0-.2-2.1,0-4.6.1-2.5.3-4.6.4-4.6Z"/>
        <path class="cls-8" d="m407.7,123.5c.1,0,0,2.1-.5,4.6-.4,2.5-.9,4.5-1,4.5-.1,0,0-2.1.5-4.6.4-2.5.9-4.5,1-4.5Z"/>
        <path class="cls-8" d="m413.4,105.9c.1,0-.7,2-1.6,4.3-.9,2.4-1.6,4.3-1.8,4.3-.1,0,.4-2.1,1.3-4.4.9-2.4,1.9-4.2,2-4.1Z"/>
        <path class="cls-8" d="m424.1,91.1c0,.1-1.4,1.5-3.1,3.4-1.7,1.9-2.9,3.5-3.1,3.4-.1,0,1-1.9,2.7-3.8,1.7-1.9,3.4-3.2,3.5-3.1Z"/>
        <path class="cls-8" d="m440.5,83.3c0,.2-2,.6-4.4,1.4-2.4.8-4.3,1.6-4.4,1.4,0-.1,1.8-1.2,4.2-1.9,2.4-.8,4.5-1,4.5-.9Z"/>
        <path class="cls-8" d="m454.7,83c0,.1-1.1.2-2.5,0-1.4,0-2.5-.3-2.5-.4,0-.1,1.1-.2,2.5,0,1.4.1,2.5.3,2.5.4Z"/>
      </g>
      <path class="cls-8" d="m257.2,100.4c0,3.7-3,6.6-6.6,6.6s-6.6-3-6.6-6.6,3-6.6,6.6-6.6,6.6,3,6.6,6.6Z"/>
    </g>
  </g>
  <g id="Coins">
    <g>
      <g>
        <g>
          <path class="cls-8" d="m159.6,121.8c-1.1,17.1-15.9,30.1-33,28.9-17.1-1.1-30.1-15.9-28.9-33,1.1-17.1,15.9-30.1,33-28.9,17.1,1.1,30.1,15.9,28.9,33Z"/>
          <g class="cls-11">
            <path class="cls-1" d="m130.7,88.8c-17.1-1.1-31.9,11.8-33,28.9,0,0,21.7,2.4,27.5-6,5.8-8.4,5.5-22.9,5.5-22.9Z"/>
          </g>
          <path class="cls-8" d="m151.7,120.8c-.9,13-12.1,22.9-25.1,22-13-.9-22.9-12.1-22-25.1.9-13,12.1-22.9,25.1-22,13,.9,22.9,12.1,22,25.1Z"/>
          <g class="cls-4">
            <path d="m151.7,120.8c-.9,13-12.1,22.9-25.1,22-13-.9-22.9-12.1-22-25.1.9-13,12.1-22.9,25.1-22,13,.9,22.9,12.1,22,25.1Z"/>
          </g>
          <path class="cls-8" d="m152.3,121.8c-.8,12.8-11.9,22.5-24.8,21.7-12.8-.8-22.5-11.9-21.7-24.8.8-12.8,11.9-22.5,24.8-21.7,12.8.8,22.5,11.9,21.7,24.8Z"/>
          <g class="cls-4">
            <path class="cls-1" d="m152.3,121.8c-.8,12.8-11.9,22.5-24.8,21.7-12.8-.8-22.5-11.9-21.7-24.8.8-12.8,11.9-22.5,24.8-21.7,12.8.8,22.5,11.9,21.7,24.8Z"/>
          </g>
        </g>
        <g>
          <path class="cls-8" d="m130.1,118.4l.4-5.9s0,0,0,0c1,.2,2.1.5,3.1,1,.9.5,1.4,1,1.4,1v-.2c0,0,1.1-2.1,1.1-2.1l.2-.5-1-1.2-.5.2c-1.3-.7-2.7-1.3-4.2-1.5l.2-3.3-1-.9v.8c0,0-1.5,0-1.5,0l-.2,3.3c-4.6.1-7,2.6-7.2,5.6-.3,4.1,3.2,5.4,6.4,6.4l-.4,5.9c-2.2-.4-4.4-1.4-5.7-2.6l-1.5,2.9c1.4,1.4,4.2,2.6,7.1,2.9l-.2,2.5h-1.2c0,0,1.1.8,1.1.8l2.4.2.2-3.3c4.7-.2,7-2.6,7.2-5.6.3-4.1-3.2-5.4-6.4-6.4Zm-2.4-.8c-1.7-.6-2.9-1.3-2.8-2.8,0-1.3,1-2.3,3.2-2.5l-.3,5.2Zm2.8-5.2h0,0Zm-1,14.7l.3-5.2c1.7.6,3,1.4,2.9,2.8,0,1.3-1.1,2.2-3.2,2.4Z"/>
          <g class="cls-10">
            <path d="m130.1,118.4l.4-5.9s0,0,0,0c1,.2,2.1.5,3.1,1,.9.5,1.4,1,1.4,1v-.2c0,0,1.1-2.1,1.1-2.1l.2-.5-1-1.2-.5.2c-1.3-.7-2.7-1.3-4.2-1.5l.2-3.3-1-.9v.8c0,0-1.5,0-1.5,0l-.2,3.3c-4.6.1-7,2.6-7.2,5.6-.3,4.1,3.2,5.4,6.4,6.4l-.4,5.9c-2.2-.4-4.4-1.4-5.7-2.6l-1.5,2.9c1.4,1.4,4.2,2.6,7.1,2.9l-.2,2.5h-1.2c0,0,1.1.8,1.1.8l2.4.2.2-3.3c4.7-.2,7-2.6,7.2-5.6.3-4.1-3.2-5.4-6.4-6.4Zm-2.4-.8c-1.7-.6-2.9-1.3-2.8-2.8,0-1.3,1-2.3,3.2-2.5l-.3,5.2Zm2.8-5.2h0,0Zm-1,14.7l.3-5.2c1.7.6,3,1.4,2.9,2.8,0,1.3-1.1,2.2-3.2,2.4Z"/>
          </g>
          <path class="cls-8" d="m128.4,129.5l-.2,3.3-2.4-.2.2-3.3c-2.9-.4-5.6-1.5-7.1-2.9l1.5-2.9c1.4,1.3,3.5,2.3,5.7,2.6l.4-5.9c-3.2-1-6.7-2.3-6.4-6.4.2-3,2.5-5.5,7.2-5.6l.2-3.3,2.4.2-.2,3.3c2.2.3,4.3,1.1,5.9,2.2l-1.4,2.9c-1.5-1-3.1-1.6-4.7-1.9l-.4,5.9c3.2,1,6.7,2.3,6.4,6.4-.2,3-2.6,5.5-7.2,5.6Zm-1.6-12.8l.3-5.2c-2.1.2-3.1,1.2-3.2,2.5,0,1.4,1.1,2.1,2.8,2.8Zm5,7.2c0-1.4-1.2-2.2-2.9-2.8l-.3,5.2c2.2-.2,3.2-1.1,3.2-2.4Z"/>
        </g>
      </g>
      <path class="cls-1" d="m101.3,132.6s0,0-.1-.2c0-.2-.2-.4-.3-.7-.1-.3-.3-.7-.5-1.2-.2-.5-.4-1-.5-1.6,0-.3-.2-.6-.3-.9,0-.3-.2-.7-.2-1-.2-.7-.3-1.5-.4-2.3-.2-1.6-.4-3.5-.3-5.4,0-1.9.3-3.7.6-5.3.2-.8.3-1.6.6-2.3.1-.4.2-.7.3-1,.1-.3.2-.6.3-.9.2-.6.4-1.1.6-1.6.2-.5.4-.8.5-1.2.1-.3.3-.5.4-.7,0-.2.1-.2.1-.2,0,0,0,0,0,.3,0,.2-.2.4-.3.7-.1.3-.3.7-.5,1.2-.2.5-.4,1-.6,1.6,0,.3-.2.6-.3.9-.1.3-.2.7-.3,1-.2.7-.4,1.5-.5,2.3-.3,1.6-.5,3.4-.6,5.3,0,1.9,0,3.7.3,5.3.1.8.2,1.6.4,2.3,0,.4.1.7.2,1,0,.3.2.6.3.9.2.6.4,1.1.5,1.6.1.5.3.9.4,1.2.1.3.2.6.3.7,0,.2,0,.3,0,.3Z"/>
      <path class="cls-1" d="m122.1,116.5s-.3-.2-.6-.7c-.3-.5-.6-1.3-.5-2.3,0-.9.6-1.7,1-2.1.4-.4.8-.6.8-.6,0,0-.3.2-.6.7-.4.4-.8,1.2-.9,2,0,.9.2,1.7.4,2.2.3.5.5.8.5.8Z"/>
      <path class="cls-1" d="m127.9,107.8c0,0,0-.4,0-1,0-.5.1-1,.2-1,0,0,0,.4,0,1,0,.5-.1,1-.2,1Z"/>
      <path class="cls-1" d="m131.9,95.3s-.3,0-.8,0c-.2,0-.5,0-.9-.1-.3,0-.7,0-1.2,0-.4,0-.9,0-1.4,0-.5,0-1.1,0-1.6,0-1.1,0-2.4.3-3.7.5-1.3.3-2.5.7-3.6,1.1-.5.2-1,.4-1.5.7-.5.2-.9.4-1.3.6-.4.2-.7.4-1,.6-.3.2-.5.3-.8.5-.4.3-.6.4-.6.4,0,0,.2-.2.6-.5.2-.1.4-.3.7-.5.3-.2.6-.4,1-.6.4-.2.8-.5,1.3-.7.5-.2,1-.4,1.5-.7,1.1-.4,2.3-.8,3.6-1.1,1.3-.3,2.6-.5,3.7-.5.6,0,1.1,0,1.6,0,.5,0,1,0,1.4,0,.4,0,.8,0,1.2.1.3,0,.6,0,.9.1.5,0,.7.2.7.2Z"/>
      <path class="cls-1" d="m130.5,149.4s-.2,0-.6.1c-.4,0-.9.1-1.6.2-1.3,0-3.2,0-5.1-.3-2-.3-3.7-.9-4.9-1.4-.6-.3-1.1-.5-1.4-.7-.3-.2-.5-.3-.5-.3,0,0,.2,0,.5.2.3.2.8.4,1.4.6,1.2.5,3,1,4.9,1.4,2,.3,3.8.4,5.1.3.7,0,1.2,0,1.6,0,.4,0,.6,0,.6,0Z"/>
    </g>
    <g>
      <g>
        <g>
          <path class="cls-8" d="m569,79.1c-1,14.9-13.8,26.2-28.7,25.2-14.9-1-26.2-13.8-25.2-28.7,1-14.9,13.8-26.2,28.7-25.2,14.9,1,26.2,13.8,25.2,28.7Z"/>
          <g class="cls-11">
            <path class="cls-1" d="m543.8,50.4c-14.9-1-27.8,10.3-28.7,25.2,0,0,18.9,2.1,24-5.2,5.1-7.3,4.8-20,4.8-20Z"/>
          </g>
          <path class="cls-8" d="m562.1,78.2c-.7,11.3-10.5,19.9-21.8,19.2-11.3-.7-19.9-10.5-19.2-21.9.7-11.3,10.5-19.9,21.9-19.2,11.3.7,19.9,10.5,19.2,21.9Z"/>
          <g class="cls-4">
            <path d="m562.1,78.2c-.7,11.3-10.5,19.9-21.8,19.2-11.3-.7-19.9-10.5-19.2-21.9.7-11.3,10.5-19.9,21.9-19.2,11.3.7,19.9,10.5,19.2,21.9Z"/>
          </g>
          <path class="cls-8" d="m562.6,79.1c-.7,11.2-10.4,19.6-21.6,18.9-11.2-.7-19.6-10.4-18.9-21.6.7-11.2,10.4-19.6,21.6-18.9,11.2.7,19.6,10.4,18.9,21.6Z"/>
          <g class="cls-4">
            <path class="cls-1" d="m562.6,79.1c-.7,11.2-10.4,19.6-21.6,18.9-11.2-.7-19.6-10.4-18.9-21.6.7-11.2,10.4-19.6,21.6-18.9,11.2.7,19.6,10.4,18.9,21.6Z"/>
          </g>
        </g>
        <g>
          <path class="cls-8" d="m543.3,76.1l.3-5.2s0,0,0,0c.9.2,1.8.5,2.7.9.7.4,1.2.9,1.2.9v-.2c0,0,1-1.8,1-1.8l.2-.4-.9-1-.5.2c-1.1-.6-2.4-1.2-3.7-1.3l.2-2.8-.8-.8v.7s-1.3,0-1.3,0l-.2,2.9c-4,.1-6.1,2.3-6.2,4.9-.2,3.6,2.8,4.7,5.6,5.6l-.3,5.1c-1.9-.3-3.8-1.2-5-2.3l-1.3,2.5c1.3,1.2,3.6,2.2,6.1,2.5v2.1c-.1,0-1.1,0-1.1,0l1,.7h2.1c0,.1.2-2.7.2-2.7,4.1-.1,6.1-2.3,6.3-4.9.2-3.6-2.8-4.7-5.6-5.5Zm-2.1-.7c-1.5-.5-2.5-1.2-2.4-2.4,0-1.1.9-2,2.7-2.2l-.3,4.6Zm2.4-4.5h0,0Zm-.8,12.8l.3-4.5c1.5.5,2.6,1.2,2.5,2.5,0,1.1-.9,1.9-2.8,2.1Z"/>
          <g class="cls-10">
            <path d="m543.3,76.1l.3-5.2s0,0,0,0c.9.2,1.8.5,2.7.9.7.4,1.2.9,1.2.9v-.2c0,0,1-1.8,1-1.8l.2-.4-.9-1-.5.2c-1.1-.6-2.4-1.2-3.7-1.3l.2-2.8-.8-.8v.7s-1.3,0-1.3,0l-.2,2.9c-4,.1-6.1,2.3-6.2,4.9-.2,3.6,2.8,4.7,5.6,5.6l-.3,5.1c-1.9-.3-3.8-1.2-5-2.3l-1.3,2.5c1.3,1.2,3.6,2.2,6.1,2.5v2.1c-.1,0-1.1,0-1.1,0l1,.7h2.1c0,.1.2-2.7.2-2.7,4.1-.1,6.1-2.3,6.3-4.9.2-3.6-2.8-4.7-5.6-5.5Zm-2.1-.7c-1.5-.5-2.5-1.2-2.4-2.4,0-1.1.9-2,2.7-2.2l-.3,4.6Zm2.4-4.5h0,0Zm-.8,12.8l.3-4.5c1.5.5,2.6,1.2,2.5,2.5,0,1.1-.9,1.9-2.8,2.1Z"/>
          </g>
          <path class="cls-8" d="m541.8,85.8l-.2,2.9h-2.1c0-.1.2-3,.2-3-2.5-.3-4.9-1.3-6.1-2.5l1.3-2.5c1.2,1.1,3.1,2,5,2.3l.3-5.1c-2.8-.9-5.8-2-5.6-5.6.2-2.6,2.2-4.8,6.2-4.9l.2-2.9h2.1c0,.1-.2,3-.2,3,1.9.2,3.8.9,5.1,1.9l-1.2,2.5c-1.3-.9-2.7-1.4-4.1-1.7l-.3,5.2c2.8.9,5.8,2,5.6,5.5-.2,2.6-2.2,4.7-6.3,4.9Zm-1.4-11.1l.3-4.6c-1.8.2-2.7,1-2.7,2.2,0,1.2,1,1.9,2.4,2.4Zm4.4,6.2c0-1.3-1-1.9-2.5-2.5l-.3,4.5c1.9-.2,2.7-1,2.8-2.1Z"/>
        </g>
      </g>
      <path class="cls-1" d="m518.2,88.5s0,0-.1-.2c0-.2-.2-.4-.3-.6-.1-.3-.3-.6-.4-1-.1-.4-.3-.9-.5-1.4,0-.3-.2-.5-.2-.8,0-.3-.1-.6-.2-.9-.2-.6-.3-1.3-.4-2-.2-1.4-.3-3-.3-4.7,0-1.7.3-3.2.5-4.6.2-.7.3-1.4.5-2,0-.3.2-.6.3-.9,0-.3.2-.5.3-.8.2-.5.4-1,.5-1.4.2-.4.3-.7.5-1,.1-.3.2-.5.3-.6,0-.1.1-.2.1-.2,0,0,0,0,0,.2,0,.2-.2.4-.3.6-.1.3-.3.6-.4,1-.2.4-.4.8-.5,1.4,0,.3-.2.5-.3.8,0,.3-.2.6-.2.9-.2.6-.3,1.3-.5,2-.3,1.4-.5,3-.5,4.6,0,1.6,0,3.2.3,4.6.1.7.2,1.4.4,2,0,.3.1.6.2.9,0,.3.2.6.2.8.1.5.3,1,.4,1.4.1.4.3.8.4,1,.1.3.2.5.2.7,0,.1,0,.2,0,.2Z"/>
      <path class="cls-1" d="m536.3,74.4s-.3-.2-.6-.6c-.3-.4-.5-1.2-.4-2,0-.8.5-1.5.8-1.8.4-.4.7-.5.7-.5,0,0-.2.2-.6.6-.3.4-.7,1-.7,1.8,0,.8.1,1.4.4,1.9.2.4.5.7.4.7Z"/>
      <path class="cls-1" d="m541.4,66.9c0,0,0-.4,0-.8,0-.5.1-.8.2-.8,0,0,0,.4,0,.8,0,.5-.1.8-.2.8Z"/>
      <path class="cls-1" d="m544.8,56s-.2,0-.7,0c-.2,0-.5,0-.8,0-.3,0-.6,0-1,0-.4,0-.8,0-1.2,0-.4,0-.9,0-1.4,0-1,0-2.1.2-3.2.5-1.1.3-2.2.6-3.1,1-.5.2-.9.4-1.3.6-.4.2-.8.4-1.1.6-.3.2-.6.4-.9.5-.3.2-.5.3-.7.4-.4.2-.6.4-.6.3,0,0,.2-.2.5-.4.2-.1.4-.3.6-.4.3-.2.5-.4.9-.5.3-.2.7-.4,1.1-.6.4-.2.8-.4,1.3-.6.9-.4,2-.7,3.1-1,1.1-.3,2.2-.4,3.2-.5.5,0,1,0,1.4,0,.4,0,.9,0,1.2,0,.4,0,.7,0,1,.1.3,0,.6,0,.8.1.4,0,.6.1.6.1Z"/>
      <path class="cls-1" d="m543.6,103.1s-.2,0-.5,0c-.3,0-.8.1-1.4.1-1.1,0-2.7,0-4.5-.2-1.7-.3-3.3-.8-4.3-1.3-.5-.2-.9-.4-1.2-.6-.3-.2-.4-.2-.4-.3,0,0,.2,0,.5.2.3.1.7.3,1.2.5,1.1.4,2.6.9,4.3,1.2,1.7.3,3.3.3,4.4.3.6,0,1,0,1.4,0,.3,0,.5,0,.5,0Z"/>
    </g>
    <g>
      <g>
        <g>
          <path class="cls-8" d="m336.2,266.9c-1.1,16-14.9,28.1-30.9,27.1-16-1.1-28.1-14.9-27.1-30.9,1.1-16,14.9-28.1,30.9-27.1,16,1.1,28.1,14.9,27.1,30.9Z"/>
          <g class="cls-11">
            <path class="cls-1" d="m309.1,236c-16-1.1-29.9,11.1-30.9,27.1,0,0,20.3,2.3,25.8-5.6,5.4-7.9,5.1-21.5,5.1-21.5Z"/>
          </g>
          <path class="cls-8" d="m328.8,266c-.8,12.2-11.3,21.4-23.5,20.6-12.2-.8-21.4-11.3-20.6-23.5.8-12.2,11.3-21.4,23.5-20.6,12.2.8,21.4,11.3,20.6,23.5Z"/>
          <g class="cls-4">
            <path d="m328.8,266c-.8,12.2-11.3,21.4-23.5,20.6-12.2-.8-21.4-11.3-20.6-23.5.8-12.2,11.3-21.4,23.5-20.6,12.2.8,21.4,11.3,20.6,23.5Z"/>
          </g>
          <path class="cls-8" d="m329.4,266.9c-.8,12-11.2,21.1-23.2,20.3-12-.8-21.1-11.2-20.3-23.2.8-12,11.2-21.1,23.2-20.3,12,.8,21.1,11.2,20.3,23.2Z"/>
          <g class="cls-4">
            <path class="cls-1" d="m329.4,266.9c-.8,12-11.2,21.1-23.2,20.3-12-.8-21.1-11.2-20.3-23.2.8-12,11.2-21.1,23.2-20.3,12,.8,21.1,11.2,20.3,23.2Z"/>
          </g>
        </g>
        <g>
          <path class="cls-8" d="m308.6,263.7l.4-5.6s0,0,0,0c1,.2,1.9.5,2.9,1,.8.5,1.3,1,1.3,1v-.2c0,0,1.1-1.9,1.1-1.9l.2-.4-.9-1.1-.5.2c-1.2-.7-2.5-1.3-4-1.4l.2-3.1-.9-.8v.8c0,0-1.4,0-1.4,0l-.2,3.1c-4.3.1-6.5,2.5-6.7,5.3-.3,3.8,3,5,6,6l-.4,5.5c-2.1-.3-4.1-1.3-5.4-2.5l-1.4,2.7c1.4,1.3,3.9,2.4,6.6,2.7l-.2,2.3h-1.1c0,0,1,.7,1,.7h2.3c0,.1.2-2.9.2-2.9,4.4-.2,6.6-2.4,6.8-5.3.3-3.8-3-5-6-6Zm-2.2-.7c-1.6-.6-2.7-1.3-2.6-2.6,0-1.2,1-2.2,2.9-2.3l-.3,4.9Zm2.6-4.8h0,0Zm-.9,13.8l.3-4.9c1.6.6,2.8,1.3,2.7,2.6,0,1.2-1,2.1-3,2.2Z"/>
          <g class="cls-10">
            <path d="m308.6,263.7l.4-5.6s0,0,0,0c1,.2,1.9.5,2.9,1,.8.5,1.3,1,1.3,1v-.2c0,0,1.1-1.9,1.1-1.9l.2-.4-.9-1.1-.5.2c-1.2-.7-2.5-1.3-4-1.4l.2-3.1-.9-.8v.8c0,0-1.4,0-1.4,0l-.2,3.1c-4.3.1-6.5,2.5-6.7,5.3-.3,3.8,3,5,6,6l-.4,5.5c-2.1-.3-4.1-1.3-5.4-2.5l-1.4,2.7c1.4,1.3,3.9,2.4,6.6,2.7l-.2,2.3h-1.1c0,0,1,.7,1,.7h2.3c0,.1.2-2.9.2-2.9,4.4-.2,6.6-2.4,6.8-5.3.3-3.8-3-5-6-6Zm-2.2-.7c-1.6-.6-2.7-1.3-2.6-2.6,0-1.2,1-2.2,2.9-2.3l-.3,4.9Zm2.6-4.8h0,0Zm-.9,13.8l.3-4.9c1.6.6,2.8,1.3,2.7,2.6,0,1.2-1,2.1-3,2.2Z"/>
          </g>
          <path class="cls-8" d="m307,274.1l-.2,3.1h-2.3c0-.1.2-3.2.2-3.2-2.7-.3-5.3-1.4-6.6-2.7l1.4-2.7c1.3,1.2,3.3,2.1,5.4,2.5l.4-5.5c-3-.9-6.2-2.2-6-6,.2-2.8,2.4-5.1,6.7-5.3l.2-3.1h2.3c0,.1-.2,3.2-.2,3.2,2,.2,4.1,1,5.5,2l-1.3,2.7c-1.4-1-2.9-1.5-4.4-1.8l-.4,5.6c3,.9,6.3,2.1,6,6-.2,2.8-2.4,5.1-6.8,5.3Zm-1.5-12l.3-4.9c-2,.2-2.9,1.1-2.9,2.3,0,1.3,1.1,2,2.6,2.6Zm4.7,6.7c0-1.4-1.1-2.1-2.7-2.6l-.3,4.9c2-.2,2.9-1.1,3-2.2Z"/>
        </g>
      </g>
      <path class="cls-1" d="m281.6,277s0,0-.1-.2c0-.2-.2-.4-.3-.7-.1-.3-.3-.7-.4-1.1-.2-.4-.4-.9-.5-1.5,0-.3-.2-.6-.3-.9,0-.3-.2-.6-.2-1-.2-.7-.3-1.4-.4-2.2-.2-1.5-.3-3.2-.3-5,0-1.8.3-3.5.6-5,.2-.8.3-1.5.5-2.1,0-.3.2-.7.3-1,.1-.3.2-.6.3-.9.2-.6.4-1,.6-1.5.2-.4.3-.8.5-1.1.1-.3.3-.5.3-.7,0-.2.1-.2.1-.2,0,0,0,0,0,.2,0,.2-.2.4-.3.7-.1.3-.3.7-.5,1.1-.2.4-.4.9-.5,1.5,0,.3-.2.6-.3.9,0,.3-.2.6-.3,1-.2.7-.3,1.4-.5,2.1-.3,1.5-.5,3.2-.5,5,0,1.8,0,3.5.3,5,.1.8.2,1.5.4,2.1,0,.3.1.7.2,1,0,.3.2.6.2.9.1.6.3,1.1.5,1.5.1.4.3.8.4,1.1.1.3.2.5.3.7,0,.2,0,.2,0,.3Z"/>
      <path class="cls-1" d="m301.1,261.9s-.3-.2-.6-.7c-.3-.5-.6-1.3-.5-2.1,0-.9.5-1.6.9-2,.4-.4.7-.6.7-.5,0,0-.3.2-.6.6-.3.4-.7,1.1-.8,1.9,0,.8.2,1.6.4,2,.3.5.5.7.5.8Z"/>
      <path class="cls-1" d="m306.6,253.8c0,0,0-.4,0-.9,0-.5.1-.9.2-.9,0,0,0,.4,0,.9,0,.5-.1.9-.2.9Z"/>
      <path class="cls-1" d="m310.3,242s-.3,0-.7,0c-.2,0-.5,0-.8,0-.3,0-.7,0-1.1,0-.4,0-.9,0-1.3,0-.5,0-1,0-1.5,0-1.1,0-2.2.2-3.5.5-1.2.3-2.3.6-3.3,1-.5.2-1,.4-1.4.6-.4.2-.8.4-1.2.6-.4.2-.7.4-1,.5-.3.2-.5.3-.7.4-.4.3-.6.4-.6.4,0,0,.2-.2.6-.4.2-.1.4-.3.7-.5.3-.2.6-.4.9-.6.4-.2.7-.4,1.2-.6.4-.2.9-.4,1.4-.6,1-.4,2.1-.8,3.4-1.1,1.2-.3,2.4-.4,3.5-.5.5,0,1.1,0,1.5,0,.5,0,.9,0,1.3,0,.4,0,.8,0,1.1.1.3,0,.6,0,.8.1.4,0,.7.1.7.2Z"/>
      <path class="cls-1" d="m308.9,292.8s-.2,0-.5.1c-.3,0-.8.1-1.5.2-1.2,0-3,0-4.8-.3-1.9-.3-3.5-.9-4.6-1.3-.6-.2-1-.5-1.3-.6-.3-.2-.5-.3-.5-.3,0,0,.2,0,.5.2.3.1.8.3,1.3.6,1.1.4,2.8,1,4.6,1.3,1.8.3,3.5.4,4.8.3.6,0,1.1,0,1.5,0,.3,0,.5,0,.5,0Z"/>
    </g>
    <g>
      <g>
        <g>
          <path class="cls-8" d="m273.4,48.3c-1.6,24.4-22.7,42.8-47,41.2-24.4-1.6-42.9-22.7-41.2-47,1.6-24.4,22.7-42.9,47-41.2,24.4,1.6,42.8,22.7,41.2,47Z"/>
          <g class="cls-11">
            <path class="cls-1" d="m232.1,1.3c-24.4-1.6-45.4,16.9-47,41.2,0,0,30.9,3.4,39.2-8.6,8.3-12,7.8-32.7,7.8-32.7Z"/>
          </g>
          <path class="cls-8" d="m262.1,46.9c-1.2,18.5-17.2,32.6-35.8,31.4-18.5-1.2-32.6-17.2-31.4-35.8,1.2-18.5,17.2-32.6,35.8-31.4,18.5,1.2,32.6,17.2,31.4,35.8Z"/>
          <g class="cls-4">
            <path d="m262.1,46.9c-1.2,18.5-17.2,32.6-35.8,31.4-18.5-1.2-32.6-17.2-31.4-35.8,1.2-18.5,17.2-32.6,35.8-31.4,18.5,1.2,32.6,17.2,31.4,35.8Z"/>
          </g>
          <path class="cls-8" d="m263,48.3c-1.2,18.3-17,32.1-35.3,30.9-18.3-1.2-32.1-17-30.9-35.3,1.2-18.3,17-32.1,35.3-30.9,18.3,1.2,32.1,17,30.9,35.3Z"/>
          <g class="cls-4">
            <path class="cls-1" d="m263,48.3c-1.2,18.3-17,32.1-35.3,30.9-18.3-1.2-32.1-17-30.9-35.3,1.2-18.3,17-32.1,35.3-30.9,18.3,1.2,32.1,17,30.9,35.3Z"/>
          </g>
        </g>
        <g>
          <path class="cls-8" d="m231.4,43.4l.6-8.5s0,0,0,0c1.5.3,3,.8,4.4,1.5,1.2.7,2,1.5,2,1.5v-.3c.1,0,1.6-3,1.6-3l.3-.7-1.4-1.7-.7.3c-1.8-1-3.9-1.9-6-2.2l.3-4.7-1.4-1.3v1.2c0,0-2.1-.1-2.1-.1l-.3,4.7c-6.6.2-9.9,3.7-10.2,8-.4,5.8,4.5,7.7,9.1,9.1l-.6,8.4c-3.2-.5-6.2-1.9-8.2-3.7l-2.2,4.1c2.1,2,6,3.6,10.1,4.2l-.2,3.5h-1.6c0,0,1.6,1.1,1.6,1.1l3.4.2.3-4.7c6.6-.2,10-3.7,10.3-8,.4-5.8-4.6-7.6-9.2-9.1Zm-3.4-1.1c-2.4-.9-4.1-1.9-4-3.9.1-1.8,1.5-3.3,4.5-3.5l-.5,7.5Zm3.9-7.4h0,0Zm-1.4,21l.5-7.4c2.5.9,4.3,2,4.1,4-.1,1.8-1.5,3.1-4.6,3.4Z"/>
          <g class="cls-10">
            <path d="m231.4,43.4l.6-8.5s0,0,0,0c1.5.3,3,.8,4.4,1.5,1.2.7,2,1.5,2,1.5v-.3c.1,0,1.6-3,1.6-3l.3-.7-1.4-1.7-.7.3c-1.8-1-3.9-1.9-6-2.2l.3-4.7-1.4-1.3v1.2c0,0-2.1-.1-2.1-.1l-.3,4.7c-6.6.2-9.9,3.7-10.2,8-.4,5.8,4.5,7.7,9.1,9.1l-.6,8.4c-3.2-.5-6.2-1.9-8.2-3.7l-2.2,4.1c2.1,2,6,3.6,10.1,4.2l-.2,3.5h-1.6c0,0,1.6,1.1,1.6,1.1l3.4.2.3-4.7c6.6-.2,10-3.7,10.3-8,.4-5.8-4.6-7.6-9.2-9.1Zm-3.4-1.1c-2.4-.9-4.1-1.9-4-3.9.1-1.8,1.5-3.3,4.5-3.5l-.5,7.5Zm3.9-7.4h0,0Zm-1.4,21l.5-7.4c2.5.9,4.3,2,4.1,4-.1,1.8-1.5,3.1-4.6,3.4Z"/>
          </g>
          <path class="cls-8" d="m228.9,59.2l-.3,4.7-3.4-.2.3-4.7c-4.1-.5-8-2.1-10.1-4.2l2.2-4.1c1.9,1.8,5,3.2,8.2,3.7l.6-8.4c-4.6-1.4-9.5-3.3-9.1-9.1.3-4.3,3.6-7.8,10.2-8l.3-4.7,3.4.2-.3,4.7c3.1.4,6.2,1.5,8.4,3.1l-2,4.1c-2.1-1.4-4.4-2.3-6.7-2.7l-.6,8.5c4.6,1.4,9.6,3.2,9.2,9.1-.3,4.3-3.7,7.8-10.3,8Zm-2.3-18.2l.5-7.5c-3,.3-4.4,1.7-4.5,3.5-.1,2,1.6,3.1,4,3.9Zm7.2,10.2c.1-2.1-1.6-3.1-4.1-4l-.5,7.4c3.1-.3,4.5-1.6,4.6-3.4Z"/>
        </g>
      </g>
      <path class="cls-1" d="m190.3,63.7s0-.1-.2-.4c-.1-.3-.3-.6-.5-1-.2-.5-.4-1-.7-1.7-.2-.7-.5-1.4-.8-2.3-.1-.4-.3-.9-.4-1.3-.1-.5-.2-1-.4-1.5-.3-1-.4-2.1-.6-3.3-.3-2.3-.5-4.9-.5-7.6,0-2.7.4-5.3.9-7.6.3-1.1.5-2.2.8-3.2.1-.5.3-1,.4-1.5.2-.5.3-.9.5-1.3.3-.8.6-1.6.9-2.2.3-.7.5-1.2.8-1.6.2-.4.4-.8.5-1,.1-.2.2-.3.2-.3,0,0,0,.1-.1.4-.1.3-.3.6-.5,1-.2.4-.5,1-.7,1.7-.3.7-.6,1.4-.8,2.2-.1.4-.3.9-.4,1.3-.2.5-.3.9-.4,1.4-.3,1-.5,2.1-.8,3.2-.4,2.3-.7,4.9-.8,7.6,0,2.7.1,5.3.4,7.6.2,1.2.3,2.3.6,3.3.1.5.2,1,.3,1.5.1.5.3.9.4,1.3.2.9.5,1.6.7,2.3.2.7.4,1.2.6,1.7.2.4.3.8.4,1.1,0,.2.1.4.1.4Z"/>
      <path class="cls-1" d="m219.9,40.7s-.5-.3-.9-1c-.5-.7-.9-1.9-.7-3.2.1-1.3.8-2.4,1.4-3,.6-.6,1.1-.9,1.1-.8,0,0-.4.3-.9,1-.5.6-1.1,1.7-1.2,2.9-.1,1.2.2,2.4.6,3.1.4.7.8,1.1.7,1.1Z"/>
      <path class="cls-1" d="m228.2,28.3c0,0-.1-.6,0-1.4,0-.8.2-1.4.3-1.4,0,0,.1.6,0,1.4,0,.8-.2,1.4-.3,1.4Z"/>
      <path class="cls-1" d="m233.9,10.4s-.4,0-1.1-.1c-.3,0-.8-.1-1.3-.1-.5,0-1-.1-1.7-.1-.6,0-1.3,0-2,0-.7,0-1.5,0-2.3,0-1.6.1-3.4.4-5.3.8-1.8.4-3.6,1-5.1,1.6-.8.3-1.5.6-2.1.9-.7.3-1.3.6-1.8.9-.6.3-1,.6-1.4.8-.4.2-.8.5-1.1.7-.6.4-.9.6-.9.6,0,0,.3-.3.8-.7.3-.2.6-.5,1-.7.4-.3.9-.6,1.4-.9.5-.3,1.1-.6,1.8-1,.7-.3,1.4-.6,2.1-1,1.5-.6,3.3-1.2,5.1-1.6,1.9-.4,3.7-.6,5.3-.8.8,0,1.6,0,2.3,0,.7,0,1.4,0,2,0,.6,0,1.2.1,1.7.2.5,0,.9.1,1.3.2.7.1,1.1.2,1.1.2Z"/>
      <path class="cls-1" d="m231.8,87.6s-.3,0-.8.2c-.5,0-1.3.2-2.2.2-1.9.1-4.5,0-7.3-.4-2.8-.5-5.3-1.3-7.1-2.1-.9-.4-1.6-.7-2-1-.5-.2-.7-.4-.7-.4,0,0,.3,0,.8.3.5.2,1.2.5,2,.9,1.7.7,4.2,1.5,7,1.9,2.8.5,5.4.6,7.3.5.9,0,1.7,0,2.2-.1.5,0,.8,0,.8,0Z"/>
    </g>
    <g>
      <g>
        <g>
          <path class="cls-8" d="m638.8,180.1c-.2,26.5-21.9,47.9-48.4,47.6-26.5-.2-47.9-21.9-47.6-48.4.2-26.5,21.9-47.9,48.4-47.6,26.5.2,47.9,21.9,47.6,48.4Z"/>
          <g class="cls-11">
            <path class="cls-1" d="m591.2,131.7c-26.5-.2-48.2,21.1-48.4,47.6,0,0,33.7,1.8,42-11.7,8.2-13.5,6.5-35.9,6.5-35.9Z"/>
          </g>
          <path class="cls-8" d="m626.6,179.2c-.2,20.2-16.6,36.4-36.8,36.2-20.2-.2-36.4-16.7-36.2-36.8.2-20.2,16.6-36.4,36.8-36.2,20.2.2,36.4,16.7,36.2,36.8Z"/>
          <g class="cls-4">
            <path d="m626.6,179.2c-.2,20.2-16.6,36.4-36.8,36.2-20.2-.2-36.4-16.7-36.2-36.8.2-20.2,16.6-36.4,36.8-36.2,20.2.2,36.4,16.7,36.2,36.8Z"/>
          </g>
          <path class="cls-8" d="m627.6,180.8c-.2,19.9-16.4,35.9-36.3,35.7-19.9-.2-35.9-16.4-35.7-36.3.2-19.9,16.4-35.9,36.3-35.7,19.9.2,35.9,16.4,35.7,36.3Z"/>
          <g class="cls-4">
            <path class="cls-1" d="m627.6,180.8c-.2,19.9-16.4,35.9-36.3,35.7-19.9-.2-35.9-16.4-35.7-36.3.2-19.9,16.4-35.9,36.3-35.7,19.9.2,35.9,16.4,35.7,36.3Z"/>
          </g>
        </g>
        <g>
          <path class="cls-8" d="m593,177.4v-9.2c0,0,.1,0,.1,0,1.6.2,3.3.6,4.9,1.3,1.4.7,2.3,1.5,2.3,1.5v-.3c.1,0,1.6-3.3,1.6-3.3l.3-.8-1.6-1.7-.8.3c-2-1-4.3-1.8-6.7-2v-5.1s-1.5-1.3-1.5-1.3v1.3s-2.2,0-2.2,0v5.2c-7.2.6-10.6,4.7-10.6,9.3,0,6.3,5.4,8,10.4,9.3v9.1c-3.5-.3-7-1.7-9.2-3.5l-2.1,4.6c2.4,2.1,6.7,3.6,11.2,3.9v3.8s-1.8,0-1.8,0l1.8,1.2h3.7s0-5.1,0-5.1c7.2-.7,10.6-4.7,10.7-9.3,0-6.3-5.5-8-10.5-9.3Zm-3.7-1c-2.6-.8-4.6-1.8-4.6-4,0-2,1.4-3.6,4.6-4.1v8.1Zm3.8-8.2h0,0Zm-.2,22.8v-8.1c2.8.8,4.8,1.9,4.8,4.1,0,2-1.4,3.5-4.8,4Z"/>
          <g class="cls-10">
            <path d="m593,177.4v-9.2c0,0,.1,0,.1,0,1.6.2,3.3.6,4.9,1.3,1.4.7,2.3,1.5,2.3,1.5v-.3c.1,0,1.6-3.3,1.6-3.3l.3-.8-1.6-1.7-.8.3c-2-1-4.3-1.8-6.7-2v-5.1s-1.5-1.3-1.5-1.3v1.3s-2.2,0-2.2,0v5.2c-7.2.6-10.6,4.7-10.6,9.3,0,6.3,5.4,8,10.4,9.3v9.1c-3.5-.3-7-1.7-9.2-3.5l-2.1,4.6c2.4,2.1,6.7,3.6,11.2,3.9v3.8s-1.8,0-1.8,0l1.8,1.2h3.7s0-5.1,0-5.1c7.2-.7,10.6-4.7,10.7-9.3,0-6.3-5.5-8-10.5-9.3Zm-3.7-1c-2.6-.8-4.6-1.8-4.6-4,0-2,1.4-3.6,4.6-4.1v8.1Zm3.8-8.2h0,0Zm-.2,22.8v-8.1c2.8.8,4.8,1.9,4.8,4.1,0,2-1.4,3.5-4.8,4Z"/>
          </g>
          <path class="cls-8" d="m591.3,194.7v5.1s-3.8,0-3.8,0v-5.1c-4.4-.3-8.8-1.8-11.1-3.9l2.1-4.6c2.2,1.8,5.6,3.2,9.1,3.5v-9.1c-5-1.3-10.4-3-10.4-9.3,0-4.7,3.5-8.7,10.6-9.3v-5.2s3.8,0,3.8,0v5.1c3.3.2,6.8,1.2,9.2,2.9l-1.9,4.6c-2.4-1.4-5-2.2-7.4-2.5v9.2c5,1.3,10.5,2.9,10.4,9.3,0,4.7-3.5,8.7-10.7,9.3Zm-3.6-19.6v-8.1c-3.2.5-4.6,2.1-4.6,4.1,0,2.2,1.9,3.2,4.6,4Zm8.4,10.6c0-2.2-2-3.3-4.7-4.1v8.1c3.3-.5,4.7-2,4.7-4Z"/>
        </g>
      </g>
      <path class="cls-1" d="m549.7,201.9s0-.1-.2-.4c-.1-.3-.3-.7-.6-1.1-.3-.5-.5-1.1-.8-1.8-.3-.7-.7-1.5-1-2.4-.2-.5-.3-.9-.5-1.4-.2-.5-.3-1-.5-1.6-.3-1.1-.6-2.3-.9-3.5-.5-2.5-.9-5.3-1-8.2,0-3,.1-5.8.5-8.3.2-1.3.4-2.5.7-3.6.1-.6.2-1.1.4-1.6.1-.5.3-1,.4-1.5.2-.9.6-1.7.8-2.5.2-.7.5-1.3.7-1.8.2-.5.4-.8.5-1.1.1-.3.2-.4.2-.4,0,0,0,.1-.1.4-.1.3-.3.7-.4,1.2-.2.5-.4,1.1-.7,1.8-.2.7-.5,1.5-.8,2.5-.1.5-.3,1-.4,1.5-.1.5-.2,1-.4,1.6-.3,1.1-.4,2.3-.6,3.5-.3,2.5-.5,5.3-.4,8.2.1,2.9.5,5.7.9,8.2.3,1.2.5,2.4.8,3.5.2.5.3,1.1.5,1.6.2.5.3,1,.5,1.4.3.9.6,1.7.9,2.4.3.7.5,1.3.8,1.8.2.5.4.8.5,1.1.1.3.2.4.2.4Z"/>
      <path class="cls-1" d="m580.4,175.2s-.5-.3-1.1-1.1c-.5-.8-1.1-2-1-3.5,0-1.5.7-2.7,1.3-3.4.6-.7,1.1-1,1.1-1,0,0-.4.4-.9,1.1-.5.7-1.1,1.9-1.1,3.2,0,1.4.4,2.6.9,3.3.5.8.9,1.2.8,1.2Z"/>
      <path class="cls-1" d="m588.6,161.3c0,0-.2-.7-.2-1.5,0-.8,0-1.5.2-1.5,0,0,.2.7.2,1.5,0,.8,0,1.5-.2,1.5Z"/>
      <path class="cls-1" d="m593.7,141.5s-.4,0-1.2,0c-.4,0-.8,0-1.4,0-.5,0-1.1,0-1.8,0-.7,0-1.4,0-2.2,0-.8,0-1.6.1-2.5.2-1.8.2-3.7.6-5.7,1.2-2,.6-3.8,1.3-5.4,2-.8.4-1.6.7-2.3,1.1-.7.4-1.3.8-1.9,1.1-.6.3-1.1.7-1.5,1-.4.3-.8.6-1.1.8-.6.4-.9.7-1,.7,0,0,.3-.3.9-.8.3-.2.6-.5,1.1-.8.4-.3.9-.7,1.5-1,.6-.4,1.2-.8,1.9-1.2.7-.4,1.5-.8,2.3-1.2,1.6-.8,3.5-1.5,5.5-2.1,2-.6,3.9-.9,5.7-1.1.9,0,1.7-.2,2.5-.2.8,0,1.5,0,2.2,0,.7,0,1.3,0,1.8,0,.5,0,1,0,1.4.1.8.1,1.2.2,1.2.2Z"/>
      <path class="cls-1" d="m596.3,225.3s-.3.1-.9.2c-.6.1-1.4.3-2.4.4-2,.3-4.9.4-8,0-3.1-.3-5.9-1.1-7.8-1.8-1-.3-1.7-.7-2.2-.9-.5-.2-.8-.4-.8-.4,0,0,.3,0,.8.3.5.2,1.3.5,2.3.8,1.9.6,4.7,1.3,7.7,1.7,3.1.3,5.9.3,7.9,0,1,0,1.8-.2,2.4-.3.6,0,.9-.1.9,0Z"/>
    </g>
  </g>
  <g id="Characters">
    <g>
      <path class="cls-5" d="m340.9,311.6s3.4-1.7,6.3-1.1c3,.7,13.8,7.7,13.8,7.7l15.1-2.8,4.9,27.2-40.1,12.6v-43.6Z"/>
      <path class="cls-3" d="m314.4,319.6s9.2-.4,12-1.8c2.8-1.4,9.5-7.4,10.9-7.2,1.4.1,6.5,1.1,6.5,1.1l-2.1,6.2s10.2,6.2,13.2,8.4,12.5,12.4,13,14.9-.3,5.4-1.5,6.4c-1.2,1-5.5-1-5.5-1,0,0,.6,2.3-1,4.4-1.6,2.2-5.4,1.4-5.4,1.4,0,0-.3,3.6-2.1,4.2-1.7.6-5.6-1.3-5.6-1.3,0,0-1.2,3-2.6,3.4-1.4.3-5.4-2.1-5.4-2.1,0,0-20.8-13.9-24.7-15.8l-1.8,2.5,2.1-23.7Z"/>
      <path class="cls-9" d="m346.8,355.3c0,0-.1-.3-.3-.8-.2-.5-.5-1.1-.9-1.7-.8-1.3-1.5-2.4-1.3-2.5.1,0,1,.8,1.8,2.2.4.7.7,1.4.8,1.9.1.5,0,.9,0,.9Z"/>
      <path class="cls-9" d="m354,353.2c-.1,0-1-1.5-2.2-3.3-1.2-1.8-2.5-3-2.4-3.1,0-.1,1.6,1,2.8,2.8,1.2,1.8,1.9,3.5,1.8,3.6Z"/>
      <path class="cls-9" d="m361,347c-.2,0-.6-1.8-1.8-3.9-1.2-2-2.6-3.4-2.5-3.5,0-.1,1.7,1.1,2.9,3.2,1.2,2.1,1.5,4.1,1.4,4.1Z"/>
      <path class="cls-9" d="m355.9,333.5c.1,0,.5,1.3.6,2.9,0,1.6-.2,3-.3,2.9-.1,0-.1-1.3-.2-2.9,0-1.6-.2-2.9,0-2.9Z"/>
      <path class="cls-5" d="m330.7,323.7s2.7-8.7,3.7-9.7c1-1.1,10-3.5,10-3.5l2.8,7.2-2,2.1-4.3-.3s-2.7,7.1-10.2,4.1Z"/>
      <path class="cls-5" d="m314.1,340.9s-1.2,1,0,3.2c1.2,2.3,4.6.6,5.7,0,0,0-1.6,3.8.4,5,2.1,1.2,4.5.9,4.5.9,0,0-.1,2.3,2.8,3.8,2.9,1.5,3.7,0,3.7,0,0,0,.3,3.8,3.7,4.1,3.4.3,4.5-.8,4.5-.8l-1.5-2.2s1.9-4,.4-5.7c-1.5-1.7-4-1.5-4-1.5,0,0,.7-3.5-1.3-4.5-3.6-1.8-5.1,1.6-5.1,1.6,0,0-.2-3.9-3-3.8-2.8,0-4.3,1.8-4.3,1.8l-6.5-1.8Z"/>
      <path class="cls-7" d="m328,344.6c.1,0-.4,1.4-1.3,2.9-.9,1.5-1.8,2.6-1.9,2.5-.1,0,.6-1.3,1.4-2.8.9-1.5,1.6-2.7,1.7-2.6Z"/>
      <path class="cls-7" d="m334.5,348c.1,0-.4,1.5-1.5,3-1,1.5-2.2,2.6-2.3,2.5-.1-.1.8-1.3,1.8-2.8,1-1.5,1.8-2.8,1.9-2.7Z"/>
    </g>
    <g>
      <g>
        <g>
          <path class="cls-13" d="m452.3,135.6c-3.9.5-8-2.3-9-6.2-.9-3.9,1.5-8.2,5.2-9.5-2.5-2.5-3.2-6.6-1.6-9.7,1.6-3.2,5.2-5.1,8.7-4.6,0-3.5,2.1-6.8,5.1-8.6,3-1.7,6.9-1.7,10,0,3.8-3.4,9.9-3.6,14-.5,3.4-.7,7.1,1,8.7,4,1.6,3,1.1,7.1-1.3,9.5"/>
          <g>
            <g>
              <path class="cls-5" d="m451.2,136.7c1.1-17.9,15.7-32,33.6-32.3h1.8c19.2.7,29.3,17.4,28.1,36.6l1.1,68.5h0l-46.7,16.8-.4-24.7s-18.5-2.5-19.1-20.9c-.3-8.9.6-27.3,1.6-44Z"/>
              <path class="cls-7" d="m468.6,201.6s11.8.5,24-7.6c0,0-5.4,13.4-23.9,12.1l-.2-4.5Z"/>
              <path class="cls-13" d="m456.4,153.4c0,1.4,1.1,2.6,2.6,2.6,1.5,0,2.6-1,2.7-2.4,0-1.4-1.1-2.6-2.6-2.6-1.5,0-2.7,1-2.7,2.4Z"/>
              <path class="cls-13" d="m455.3,145.7c.3.3,2.3-1.2,5.1-1.2,2.8,0,4.9,1.3,5.2,1,.1-.2-.2-.8-1.1-1.4-.9-.6-2.4-1.2-4.2-1.2-1.8,0-3.2.7-4.1,1.4-.9.7-1.1,1.3-1,1.5Z"/>
              <path class="cls-13" d="m482.2,153.4c0,1.4,1.1,2.6,2.6,2.6,1.5,0,2.6-1,2.7-2.4,0-1.4-1.1-2.6-2.6-2.6-1.5,0-2.7,1-2.7,2.4Z"/>
              <path class="cls-13" d="m483.2,145.6c.3.3,2.3-1.2,5.1-1.2,2.8,0,4.9,1.3,5.2,1,.1-.2-.2-.8-1.1-1.4-.9-.6-2.4-1.2-4.2-1.2-1.8,0-3.2.7-4.1,1.4-.9.7-1.1,1.3-1,1.5Z"/>
              <path class="cls-13" d="m473.4,166.9c0-.2-1.8-.4-4.6-.7-.7,0-1.4-.2-1.5-.7-.2-.5.1-1.3.4-2.2.6-1.8,1.3-3.6,2-5.6,2.8-7.9,4.8-14.4,4.5-14.5-.3-.1-2.9,6.2-5.7,14.1-.7,2-1.3,3.8-1.9,5.6-.3.8-.7,1.8-.3,2.9.2.5.7.9,1.2,1,.5.1.9.1,1.2.1,2.9,0,4.7,0,4.7,0Z"/>
              <path class="cls-13" d="m482.2,136c.4.7,2.8-.1,5.8-.3,3-.2,5.5.3,5.8-.5.1-.4-.4-1-1.5-1.5-1.1-.6-2.7-1-4.5-.9-1.8.1-3.3.7-4.3,1.4-1,.7-1.4,1.4-1.2,1.7Z"/>
              <path class="cls-13" d="m454.8,135.6c.6.6,2.9,0,5.8-.2,2.8-.2,5.2.3,5.7-.4.2-.3-.2-1-1.2-1.6-1-.6-2.8-1-4.7-1-1.9,0-3.6.7-4.6,1.4-1,.7-1.3,1.4-1,1.7Z"/>
              <path class="cls-13" d="m452.8,128.2s4.6-11.7,10.2-14.5c6.7-3.4,9.7,3.9,16.1,2,6.4-1.9,12.8-5.2,19.4-.4,7.3,5.3,4,9.2,4.6,17.4,2.5,33.2,8.7,42.4,10.1,26.8.2-1.7,4.9-3.2,5.4-10.4.7-9.4.9-20.8-1.4-27.4-1.9-5.6-5.2-9.4-11-13.6-9.2-6.6-21.7-6.5-30.1-5.4-8.4,1-24.5,11.1-23.5,25.5Z"/>
              <path class="cls-5" d="m512.1,159c0-2.9,2.5-5.2,5.3-4.9,3.4.3,7.3,2.1,7.2,9.3-.1,12.6-12.8,9.9-12.8,9.5,0-.2.2-8.5.3-13.8Z"/>
              <path class="cls-7" d="m514.6,168.2c0,0,.2.2.6.3.4.2,1,.3,1.6,0,1.3-.5,2.5-2.6,2.6-4.9,0-1.1-.2-2.2-.6-3.2-.4-.9-1-1.6-1.6-1.7-.7-.2-1.1.2-1.3.6-.2.4,0,.6-.2.6,0,0-.3-.2-.2-.7,0-.2.2-.5.5-.8.3-.2.8-.4,1.2-.3,1,0,1.8,1,2.3,2,.5,1,.8,2.2.7,3.5-.1,2.5-1.4,4.9-3.3,5.4-.9.2-1.6,0-2-.4-.4-.3-.5-.6-.4-.6Z"/>
            </g>
            <path class="cls-13" d="m511.3,134.6c-1.6,1.2-3.3,2.3-5.3,2.6-2,.2-4.3-.9-4.6-2.8-.2-.9,0-1.9-.6-2.6-.7-.8-2-.5-3-.4-3.7.5-7.5-2.1-8.5-5.6-.9,1.4-3.1,1.4-4.5.5-1.4-.9-2.4-2.4-3.5-3.6-1.1-1.2-2.7-2.3-4.4-2.1-.9.2-1.8.7-2.7.7-1.7-.1-2.5-2-2.8-3.7-.3-1.6-.5-3.6-1.9-4.4-1.3-.8-3-.3-4.5,0-1.5.3-3.5,0-3.9-1.5-.2-.8,0-1.6.5-2.3,1.9-3.1,6.2-4.6,9.6-3.3,1.1-4.2,5-7.5,9.3-8.1,4.3-.5,8.9,1.7,11,5.5,2.6-2.5,6.5-3.6,10-2.8,3.5.7,6.6,3.3,8.1,6.6,3.1-.9,6.6.2,8.6,2.7,2,2.5,2.3,6.1.9,9,2.3,1.2,4.3,3.5,4.4,6.1.1,2.6-2.4,5.3-4.9,4.6,1.1,2,.3,4.8-1.7,6-1.9,1.2-4.8.6-6.1-1.3"/>
            <path class="cls-2" d="m470.3,109.8s0,0,0,.2c0,.2,0,.4,0,.7.1.6.4,1.4,1,2.4.6,1,1.5,2.1,2.9,2.9,1.3.9,3.2,1.5,5.2,1.4l-.2-.3c-.4,1.1-.2,2.4.3,3.5.5,1.1,1.4,2.1,2.2,3.1.4.5.8,1,1.4,1.4.6.4,1.3.6,2,.7,1.4.2,3-.3,4-1.5h-.5c.4,2.4,1.8,4.9,4.1,6.3,1.2.8,2.7,1.3,4.2,1.3,1.5,0,2.8-.5,4.1-1h-.3c.7,1.4,1.8,2.7,3.1,3.7,1.3,1,2.9,1.5,4.4,1.1,3-.7,4.9-3.2,5.2-5.5h-.3c1.5.9,3.1,1,4.3.7,1.3-.3,2.3-.8,3-1.4.7-.6,1.1-1.2,1.4-1.6.2-.4.3-.7.3-.7,0,0-.4,1-1.8,2.1-.7.5-1.7,1.1-2.9,1.3-1.2.2-2.7.2-4.1-.6h-.2c0-.1,0,.1,0,.1-.4,2.2-2.2,4.5-5,5.1-1.4.3-2.8-.1-4-1.1-1.2-.9-2.2-2.2-2.9-3.6v-.2c-.1,0-.3,0-.3,0-1.2.5-2.5.9-3.9.9-1.4,0-2.7-.4-3.9-1.2-2.2-1.4-3.6-3.7-3.9-6.1v-.6c0,0-.5.5-.5.5-.9,1-2.3,1.5-3.6,1.4-.6,0-1.3-.3-1.8-.6-.5-.3-.9-.9-1.4-1.3-.9-.9-1.7-1.9-2.2-2.9-.5-1-.7-2.2-.3-3.1v-.3c0,0-.2,0-.2,0-1.9.2-3.7-.4-5-1.2-1.3-.8-2.2-1.9-2.8-2.8-1.2-1.9-1.2-3.2-1.3-3.2Z"/>
          </g>
        </g>
        <path class="cls-13" d="m483.1,167.8c-.5,0,0,3-2.1,5.6-2.2,2.6-5.4,2.8-5.3,3.2,0,.2.8.5,2.2.3,1.3-.2,3.2-.9,4.5-2.5,1.3-1.6,1.7-3.4,1.6-4.7-.1-1.3-.6-1.9-.8-1.9Z"/>
      </g>
      <g>
        <g>
          <path class="cls-8" d="m367.4,313.1c1.6-.6,67.1-8.6,67.1-8.6l21.4-18.2-2,52.6-77.9,7.5-8.6-33.3Z"/>
          <path class="cls-10" d="m446.4,294.3c-.6.3-5.9,5-5.9,5l1.6,40.5,4.3-45.5Z"/>
        </g>
        <g>
          <path class="cls-13" d="m536.5,389.5h-89.3s4.7,25.2,6.5,36.8c1.8,11.6,4.3,19.8,4.3,19.8h80.8s6-14.6,7.1-24c1.1-9.4-9.5-32.6-9.5-32.6Z"/>
          <path class="cls-13" d="m440.6,392.5s-2.5,28.7,0,53.6h30.9v-22.9l-30.9-30.7Z"/>
          <path class="cls-12" d="m457.7,251.8l9.6-21.1,1.2-13s18.4-11.6,27.2-16c8.8-4.4,20.5-8.3,20.5-8.3v12.3l-58.6,46.1Z"/>
          <path class="cls-8" d="m538.1,359.4s5.2-70.2,5.6-75.4c0,0,3.1-37.5-3.6-51.8-6.7-14.3-21.6-26.8-21.6-26.8l-1.4-7.5-29.1,18.4-13.5,11.7s-7.6,8.1-12.7,15.8c-3.8,5.3-8.1,12.1-10,20.6-.7,3.1-8.7,40.5-8.9,66.6,0,0-1.2,22.7-2.5,35.6-1.6,15.9-4.1,52.3-3.6,73.8l94.4-2.9c23.3-3.6,19.2-5.9,19.2-5.9l-12.3-72.1Z"/>
          <path class="cls-13" d="m516.3,205.7s-.2.1-.7.3c-.5.2-1.1.5-1.9.8-.8.4-1.8.9-3,1.5-1.1.7-2.5,1.4-3.9,2.4-5.7,3.8-13.1,10.2-20.7,19.2h0c0,0,0,0,0,0-2.9.5-5.9,1.1-9.1,1.7l.2-.2c-.1,4.2-.3,8.6-.4,13.2h0c0,.1,0,.2,0,.2-4.5,4.3-9.1,9.2-13.3,14.6-1.7,2.2-3.3,4.5-4.6,6.9l-.5.9-.4.9c-.3.6-.5,1.2-.7,1.9-.4,1.3-.8,2.5-1.1,3.8-1.4,5.1-2.5,10.1-3.6,14.8-2.1,9.5-3.9,18.1-5.4,25.3-3,14.4-4.6,23.4-4.6,23.4,0,0,0-.6.2-1.6.2-1.1.4-2.6.8-4.7.7-4.1,1.8-9.9,3.3-17.1,1.4-7.2,3.2-15.8,5.3-25.3,1.1-4.7,2.2-9.7,3.6-14.8.3-1.3.7-2.6,1.1-3.9.2-.6.4-1.3.7-1.9l.4-1,.5-.9c1.3-2.4,2.9-4.7,4.6-7,4.2-5.5,8.8-10.3,13.4-14.6v.2c0-4.6.2-9,.4-13.2v-.2s.2,0,.2,0c3.1-.6,6.2-1.1,9.1-1.6h-.1c7.7-8.9,15.2-15.3,20.9-19,1.4-1,2.8-1.7,3.9-2.4,1.2-.6,2.2-1.1,3-1.5.8-.3,1.5-.6,2-.7.4-.2.7-.2.7-.2Z"/>
          <g>
            <path class="cls-8" d="m484.6,261.2l1.1,93.7-14.3,91.3h37.6s17.1-69.3,21.1-83.8c3.9-14.1,9.7-85.3,10.2-88.8.2-1.4,4.3-25.9-7.7-37.5"/>
            <path class="cls-13" d="m532.6,236s.3.3.8.8c.5.5,1.2,1.4,2.1,2.5,1.6,2.3,3.6,6.2,4.7,11.5,1.1,5.3,1.5,12.1.7,19.8-.6,3.8-.8,7.9-1.3,12.3-.4,4.4-.8,9-1.3,13.8-.9,9.7-1.9,20.3-3.1,31.7-.6,5.7-1.3,11.6-2.1,17.7-.8,6-1.6,12.3-3.3,18.6-6.3,25-13.2,52.6-20.5,81.5v.2h-.3c-1.3,0-2.7,0-4.1,0-11.4,0-22.6,0-33.6,0h-.3v-.3c5.3-33.7,10.2-64.7,14.4-91.2h0c-.3-28.3-.6-51.8-.7-68.1,0-8.2-.1-14.5-.2-18.9,0-2.2,0-3.8,0-5,0-1.1,0-1.7,0-1.7,0,0,0,.6,0,1.7,0,1.1,0,2.8,0,5,0,4.4.2,10.7.3,18.9.2,16.3.5,39.8.9,68.1h0s0,0,0,0c-4.1,26.5-9,57.6-14.2,91.3l-.3-.3c10.9,0,22.1,0,33.6,0h4.1l-.3.2c7.3-29,14.2-56.5,20.5-81.5,1.7-6.2,2.5-12.5,3.3-18.5.8-6.1,1.5-11.9,2.1-17.6,1.2-11.4,2.3-22,3.2-31.7.5-4.8.9-9.5,1.3-13.8.4-4.4.7-8.5,1.3-12.3.8-7.7.5-14.4-.6-19.7-1.1-5.3-3-9.2-4.6-11.5-.8-1.2-1.5-2-2-2.5-.5-.5-.7-.8-.7-.8Z"/>
          </g>
          <path class="cls-13" d="m504.5,364.1c0,0-1.1-.2-2.9-.8-1.8-.6-4.2-1.5-6.8-2.7-2.6-1.2-4.9-2.3-6.5-3.2-1.6-.9-2.6-1.5-2.6-1.6,0,0,1.1.4,2.7,1.3,1.7.8,4,1.9,6.6,3.1,2.6,1.2,5,2.1,6.7,2.8,1.7.7,2.8,1.1,2.8,1.2Z"/>
          <path class="cls-13" d="m440.1,370.3s0,0,0-.2c0-.2,0-.4,0-.7,0-.7,0-1.6.1-2.8.2-2.4.4-5.9.6-10.1.6-8.6,1.4-20.4,2.6-33.4,1.2-13,2.5-24.8,3.6-33.3.5-4.3,1-7.7,1.4-10.1.2-1.2.3-2.1.4-2.7,0-.3,0-.5.1-.7,0-.2,0-.2,0-.2,0,0,0,0,0,.2,0,.2,0,.4,0,.7,0,.7-.2,1.6-.3,2.7-.3,2.4-.7,5.9-1.2,10.1-1,8.5-2.3,20.3-3.4,33.3-1.2,13-2,24.8-2.7,33.4-.3,4.2-.6,7.7-.8,10.1-.1,1.2-.2,2.1-.2,2.7,0,.3,0,.5,0,.7,0,.2,0,.2,0,.2Z"/>
          <path class="cls-13" d="m516.3,224.1c-.2,0-1.1-3.6-3.5-7.5-2.4-3.9-5.3-6.3-5.2-6.4,0,0,.8.5,1.9,1.5,1.1,1,2.5,2.6,3.7,4.6,1.2,2,2.1,3.9,2.5,5.4.5,1.4.6,2.4.6,2.4Z"/>
          <path class="cls-13" d="m449.9,340.5s.1.2,0,.7c0,.4-.2,1.1-.8,1.7-.6.6-1.6,1-2.7.6-.5-.2-1-.5-1.4-1-.4-.5-.6-1.1-.6-1.8,0-.8.3-1.6.7-2.2.2-.3.5-.5.9-.7.4-.1.6-.2.9-.3h0s0,0,0,0c.7,0,1.3.2,1.8.5.5.3.7.8.8,1.2.2.8.2,1.2.2,1.2,0,0-.1-.4-.4-1.1-.1-.3-.4-.7-.8-1-.4-.3-1-.4-1.6-.4h0c-.3,0-.6.2-.9.3-.3.1-.5.3-.7.6-.4.5-.6,1.2-.6,1.9,0,1.1.7,2,1.6,2.3.9.3,1.8,0,2.3-.4.5-.5.8-1.1.9-1.5,0-.4,0-.6.1-.7Z"/>
          <path class="cls-13" d="m448.5,373.7s.1.2,0,.7c0,.4-.2,1.1-.8,1.7-.6.6-1.6,1-2.7.6-.5-.2-1-.5-1.4-1-.4-.5-.6-1.1-.6-1.8,0-.8.3-1.6.7-2.2.2-.3.5-.5.9-.7.4-.1.6-.2.9-.3h0s0,0,0,0c.7,0,1.3.2,1.8.5.5.3.7.8.8,1.2.2.8.2,1.2.2,1.2,0,0-.1-.4-.4-1.1-.1-.3-.4-.7-.8-1-.4-.3-1-.4-1.6-.4h0c-.3,0-.6.2-.9.3-.3.1-.5.3-.7.6-.4.5-.6,1.2-.6,1.9,0,1.1.7,2,1.6,2.3.9.3,1.8,0,2.3-.4.5-.5.8-1.1.9-1.5,0-.4,0-.6.1-.7Z"/>
        </g>
        <path class="cls-13" d="m528.4,230.4c0,0-1.3-.7-3.5-1.5-1.1-.4-2.4-.8-4-1.1-1.5-.3-3.2-.5-5-.4-1.8,0-3.5.3-5,.6-1.5.4-2.8.8-3.9,1.2-2.2.9-3.4,1.7-3.4,1.6,0,0,.3-.2.8-.6.3-.2.6-.4,1-.6.4-.2.9-.5,1.4-.7,1.1-.5,2.4-1,4-1.4,1.5-.4,3.3-.6,5.1-.6,1.8,0,3.6.2,5.1.5,1.5.3,2.9.8,4,1.3.6.2,1,.5,1.5.7.4.2.8.4,1.1.6.6.4.9.6.8.6Z"/>
        <g class="cls-10">
          <path d="m446,318c4.1-5.9,5.6-11.5,7.7-18.4,3.2-10.2,4.1-21.7,9.2-31.1,3-5.5,6.5-11.2,11.7-14.8,5.1-3.5,5.8-7.9,5.7-19.8,3.6,0,7.5-2.8,7.9-3.2,2.5-2.7,4.3-6.9,4.4-8.3-2.5,2.8-6.8,7.4-6.8,7.4,0,0-9.2,1.7-9.1,1.6-.2,4.6-.2,8.6-.5,13.2,0,0-17.6,18.7-19,22.5s-11.4,51-11.4,51Z"/>
        </g>
        <g class="cls-10">
          <path d="m511.5,434.8c22.3-42.3,29.3-97.9,28-150.9,0,0-6.4,64.4-8.6,75.4-2.1,11-19.4,75.4-19.4,75.4Z"/>
        </g>
        <path class="cls-13" d="m514.9,198.9s-.2.1-.5.4c-.4.3-.9.6-1.5,1-1.4.9-3.2,2.1-5.5,3.6-4.7,3.1-11.2,7.2-18.3,11.8-2.8,1.8-5.4,3.5-7.9,5h0c-.9.7-1.7,1.3-2.5,1.9-.8.6-1.6,1.2-2.3,1.9-1.4,1.3-2.6,2.6-3.7,3.8l-.2.2v-.3c-1.3-2.8-2.3-5-3-6.7-.3-.8-.6-1.4-.8-1.8-.2-.4-.2-.6-.2-.7s.1.2.3.6c.2.5.5,1.1.9,1.8.7,1.6,1.8,3.9,3,6.6h-.3c1.1-1.3,2.3-2.6,3.7-3.9.7-.7,1.5-1.4,2.3-2,.8-.6,1.6-1.3,2.5-2h0s0,0,0,0c2.5-1.6,5.1-3.3,7.9-5.1,7.2-4.6,13.7-8.7,18.4-11.7,2.3-1.4,4.2-2.6,5.6-3.5.6-.4,1.1-.7,1.5-.9.4-.2.5-.3.6-.3Z"/>
      </g>
    </g>
    <g>
      <g>
        <g>
          <path class="cls-13" d="m193.1,176.3c-2.6-7.1-5.1-14.2-6.5-21.6-1.3-7.4-1.4-15.2,1-22.4.4-1.1,3.5-8.4,4.6-8.3.8,0-1,6.8-.6,7.5,4.2,6.6,5.5,14.6,5.2,22.4-.3,7.8-1.7,14.8-3.7,22.4"/>
          <path class="cls-3" d="m195.5,216.4l-2.8-68.4c-1.3-18.9,7.2-35.8,26-36.6h2.1c17.4.3,31.7,14,32.8,31.4,1,16.4,2,34.7,1.7,43.5-.5,18.1-18.7,20.6-18.7,20.6,0,0,.8,13.1.9,18.5,0,0-1.9,1.4-18.8,2-16.9.6-23.3-11-23.3-11Z"/>
          <path class="cls-9" d="m236.7,207s-11.4.5-23.5-7.4c0,0,5.5,13.3,23.7,12l-.2-4.6Z"/>
          <path class="cls-13" d="m248.2,160c0,1.4-1.1,2.5-2.5,2.6-1.4,0-2.6-1-2.6-2.4,0-1.4,1.1-2.5,2.5-2.6,1.4,0,2.6,1,2.6,2.4Z"/>
          <path class="cls-13" d="m223.1,160.6c0,1.4-1.1,2.5-2.5,2.6-1.4,0-2.6-1-2.6-2.4,0-1.4,1.1-2.5,2.5-2.6,1.4,0,2.6,1,2.6,2.4Z"/>
          <path class="cls-13" d="m249.1,152.9c-.3.3-2.3-1.2-5.1-1.2-2.8,0-4.9,1.3-5.2,1-.1-.2.2-.8,1.1-1.4.9-.6,2.4-1.2,4.1-1.2,1.7,0,3.2.7,4,1.4.8.7,1.1,1.3,1,1.4Z"/>
          <path class="cls-13" d="m222.3,153.6c-.3.3-2.3-1.2-5.1-1.2-2.8,0-4.9,1.3-5.2,1-.1-.2.2-.8,1.1-1.4.9-.6,2.4-1.2,4.1-1.2,1.7,0,3.2.7,4,1.4.8.7,1.1,1.3,1,1.4Z"/>
          <path class="cls-13" d="m232.1,174.8c0-.2,1.7-.4,4.5-.7.7,0,1.4-.2,1.5-.7.2-.5-.1-1.3-.4-2.1-.6-1.7-1.3-3.6-2-5.5-2.8-7.8-4.8-14.2-4.5-14.3.3-.1,2.8,6.1,5.6,13.9.7,1.9,1.3,3.7,1.9,5.5.3.8.7,1.7.3,2.8-.2.5-.7.9-1.2,1-.5.1-.9.1-1.2.1-2.8.1-4.6,0-4.6,0Z"/>
          <path class="cls-13" d="m222.3,143.6c-.3.7-3.1.1-6.4.2-3.3,0-6,.7-6.4,0-.2-.3.4-1,1.5-1.6,1.1-.6,2.9-1.2,4.8-1.2,2,0,3.7.4,4.9,1,1.2.6,1.7,1.2,1.6,1.6Z"/>
          <path class="cls-13" d="m249.4,141.7c-.5.7-2.8.2-5.5.3-2.7,0-4.9.7-5.5.1-.2-.3,0-1,1-1.6.9-.7,2.5-1.3,4.4-1.3,1.8,0,3.5.4,4.5,1,1,.6,1.3,1.2,1.1,1.5Z"/>
          <path class="cls-3" d="m194,161.4c-.3-.1-12.4-3.9-12.2,8.5.2,12.4,12.6,9.7,12.6,9.3,0-.4-.4-17.8-.4-17.8Z"/>
          <path class="cls-9" d="m190.3,174.6c0,0-.2.2-.6.3-.4.2-1,.3-1.6,0-1.3-.5-2.5-2.5-2.5-4.8,0-1.1.2-2.2.6-3.1.4-.9.9-1.6,1.6-1.7.7-.2,1.1.2,1.3.6.2.3,0,.6.2.6,0,0,.3-.2.2-.7,0-.2-.2-.5-.5-.8-.3-.2-.7-.4-1.2-.3-1,0-1.8,1-2.2,2-.5,1-.8,2.2-.7,3.5.1,2.5,1.4,4.8,3.2,5.3.9.2,1.6,0,2-.4.4-.3.4-.6.4-.6Z"/>
          <path class="cls-13" d="m245.2,122.8c2-1.2-4.2-7.5-9.2-9.6-7.5-3.2-19-5-25.8-2.9-8.2,2.5-15,6.8-19,14.5-4,7.6-5.3,16.4-4.9,25,.1,2.6.5,5.4,1.9,7.5,1.8,2.7,5.2,4.4,5.1,8.1,0,1.4.4,2.8,1.4,3.8,2.3,2.4,5,0,6.3-2.3,2.6-4.9,2.8-10.7,2.9-16.3,0-4,.1-8-1.1-11.8-.7-2.1-1.7-4-2.2-6.1-.5-2.1-.5-4.5.7-6.2.2-.3.5-.6,1-1,3.4-3.2,8.3-4.2,12.8-2.7,7,2.3,19.1,5.7,22.1,3.3,4.4-3.5,5.4-5.8,5.4-5.8l2.5,2.5Z"/>
        </g>
        <path class="cls-13" d="m222.4,176c.4,0,.7,2.9,3.4,4.9,2.7,1.9,5.9,1.3,6,1.8,0,.2-.7.6-2,.8-1.3.2-3.3-.1-5-1.3-1.7-1.2-2.5-2.9-2.7-4.1-.2-1.2,0-2,.3-2Z"/>
      </g>
      <g>
        <path class="cls-13" d="m167.3,387.4s-10.5,24.6-9.5,34.6c1.1,10,6.9,25.1,6.9,25.1h83.1s.4-8.3,2.2-20.6c1.8-12.3,2.8-39,2.8-39h-85.6Z"/>
        <g>
          <path class="cls-2" d="m244.7,235.5c0,1.7,5.6,38.9,6.5,48.5,1.5,15.2,5.5,90.3,4.2,96.8-1.3,6.5-1.6,7.7-1.6,7.7,0,0-72.7,2.7-81.6,3.5s-12.6.5-14.8-9.6c-2.2-10.1.4-59,.4-71.8s-1.7-24.9-2.5-43.8c-.6-16.4,3.4-26.5,11.2-36,7.8-9.5,22.4-19.9,22.4-19.9l6.1-8.9,43.3,22.9,1-5.2,2.6,8.1,2.7,7.8Z"/>
          <g class="cls-10">
            <path d="m263.4,348.4c-.7-1.8-3.1-2.3-5-2.5-18.4-2-37.5-6.6-50.9-19.3-5.2-5-9.4-11-13.4-17-8.7-13.2-16.9-26.7-25.1-40.2l-6.4,2.4c3.9,19.1,7.7,32.9,14.1,48.5,6.4,15.7,11.3,30.8,27.4,35.9,10.4,3.3,30.2.8,41.1,0,4.5-.4,9.1-.8,13.5-2.1,1.3-.4,2.7-.9,3.7-1.9s1.6-2.5,1.1-3.8Z"/>
          </g>
          <g>
            <path class="cls-2" d="m160.4,266.7c.5.8,37.2,79.3,53.6,82.6,16.4,3.2,67.4,4,77.4,2.1s21.2-5,21.2-5l2-29.4-16.6-.5s-38.1-2.1-43.5-3.5-10-6.5-14.9-6.2l-29-67.4s-18.8-17.5-32.3-12.1c-13.4,5.4-22,32.5-18,39.5Z"/>
            <path class="cls-13" d="m206.8,234s-.5-.5-1.4-1.3c-.9-.9-2.3-2-4.2-3.2-1.9-1.2-4.3-2.3-7.1-3.1-2.8-.8-6.1-1.1-9.4-.8-3.4.4-6.5,1.4-9.1,2.7-2.6,1.3-4.8,2.9-6.4,4.4-1.6,1.5-2.8,2.9-3.5,3.9-.7,1-1.1,1.6-1.1,1.6,0,0,0-.2.2-.5.2-.3.4-.7.7-1.2.7-1.1,1.8-2.5,3.4-4.1,1.6-1.6,3.8-3.2,6.4-4.6,2.7-1.4,5.8-2.4,9.3-2.8,3.4-.3,6.8,0,9.6.9,2.9.8,5.3,2,7.2,3.2,1.9,1.2,3.3,2.4,4.1,3.3.5.4.8.8,1,1.1.2.3.3.4.3.4Z"/>
            <path class="cls-13" d="m239.5,306.8c.1,0-.7,2.6-1.9,5.7-1.2,3.1-2.2,5.6-2.3,5.5-.1,0,.7-2.6,1.9-5.7,1.2-3.1,2.2-5.6,2.3-5.5Z"/>
          </g>
          <path class="cls-13" d="m239.4,227.4s-.4-.2-1-.5c-.7-.4-1.6-.9-2.7-1.6h.2c-.5,2.6-1.1,6.7-2,11.5v.3c0,0-.3-.2-.3-.2-4-2.5-8.9-5.4-14-8.5-3.8-2.3-7.4-4.6-10.7-6.6-3.3-2-6.4-3.7-8.9-5.1-2.5-1.4-4.6-2.5-6.1-3.4-.7-.4-1.2-.7-1.6-.9-.4-.2-.6-.3-.6-.4,0,0,.2,0,.6.3.4.2,1,.5,1.7.8,1.5.7,3.6,1.8,6.2,3.2,2.6,1.4,5.6,3.1,9,5.1,3.3,2,6.9,4.3,10.8,6.6,5.1,3.1,10,6,14,8.6h-.3c1-4.6,1.5-8.7,2.2-11.4v-.2s.2,0,.2,0c1.1.7,2,1.3,2.7,1.7.6.4.9.6.9.6Z"/>
          <g class="cls-10">
            <path d="m197.7,215.2c7.5,5.6,15.1,11.2,22.6,16.9,5,3.7,10.1,7.5,16,9.4-.1-5.2-.2-10.5-.3-15.7l-2.3,11-36-21.5Z"/>
          </g>
        </g>
      </g>
      <path class="cls-13" d="m312.5,346.4s0-.2,0-.5c0-.4,0-.9,0-1.5,0-1.4.2-3.3.3-5.9.3-5.1.8-12.5,1.4-21.5l.2.2c-14.5-.8-33.7-1.8-54.6-2.9-2.6-.1-5.1-.3-7.7-.4h-.1s0-.1,0-.1c-1.5-2.2-3.3-4.1-5.4-5.4-2.1-1.3-4.8-1.9-7-1.3h-.2c0,0,0-.1,0-.1-6.9-16.2-12.9-30.3-17.1-40.3-2.1-5-3.8-9-4.9-11.7-.6-1.4-1-2.4-1.3-3.1-.1-.3-.2-.6-.3-.8,0-.2-.1-.3,0-.3,0,0,0,0,.1.3,0,.2.2.5.4.8.3.7.8,1.8,1.4,3.1,1.2,2.7,2.9,6.7,5.1,11.7,4.3,10,10.3,24,17.3,40.2h-.3c2.5-.8,5.2-.2,7.4,1.1,2.2,1.4,4.1,3.4,5.6,5.6h-.2c2.5,0,5.1.2,7.7.3,20.9,1.2,40.1,2.2,54.6,3h.2s0,.2,0,.2c-.7,9-1.2,16.4-1.6,21.5-.2,2.5-.3,4.5-.5,5.9,0,.7-.1,1.2-.1,1.5,0,.3,0,.5,0,.5Z"/>
      <polygon class="cls-13" points="251.4 390.2 263.6 447.1 246.8 447.1 251.4 390.2"/>
      <path class="cls-2" d="m250.1,410.8c.1,0-.5,8.2-1.4,18.2-.9,10-1.8,18.2-1.9,18.2-.1,0,.5-8.2,1.4-18.2.9-10,1.8-18.2,1.9-18.2Z"/>
    </g>
  </g>
</svg>