<?xml version="1.0" encoding="UTF-8"?>
<svg xmlns="http://www.w3.org/2000/svg" viewBox="0 0 466.4 444.9">
  <defs>
    <style>
      .cls-1 {
        fill: #fff;
      }

      .cls-2 {
        fill: #fafafa;
      }

      .cls-3 {
        fill: #455a64;
      }

      .cls-4 {
        fill: #ae7461;
      }

      .cls-5 {
        fill: #e0e0e0;
      }

      .cls-6 {
        fill: #ff725e;
      }

      .cls-7 {
        fill: #6f4439;
      }

      .cls-8 {
        opacity: .3;
      }

      .cls-9 {
        fill: #263238;
      }
    </style>
  </defs>
  <g id="Floor">
    <path class="cls-9" d="m466.4,444.6c0,.1-104.4.3-233.2.3s-233.2-.1-233.2-.3,104.4-.3,233.2-.3,233.2.1,233.2.3Z"/>
  </g>
  <g id="Briefcase">
    <g>
      <path class="cls-9" d="m305.3,444.6h82.1c1.6,0,2.8-1.3,2.7-2.9l-4.1-58.1c0-1.4-1.3-2.5-2.7-2.5h-75.4c-1.4-.1-2.6,1-2.7,2.5l-2.6,58.2c0,1.5,1.2,2.8,2.7,2.8Z"/>
      <path class="cls-3" d="m316.6,444.6c.1,0,.2-14.2.2-31.7s-.1-31.7-.2-31.7-.2,14.2-.2,31.7.1,31.7.2,31.7Z"/>
      <path class="cls-3" d="m317.6,382.6s0,0,.1.2c.1.2.2.4.4.7.4.6.9,1.4,1.6,2.5,1.4,2.2,3.4,5.3,6.2,9,2.8,3.7,6.2,7.9,10.9,11.9,2.3,2,5,3.8,7.9,5.4,2.9,1.5,6.2,2.8,9.8,3.1,3.5.3,7-.5,10.1-1.7,3.1-1.3,5.8-3,8.2-4.9,4.7-3.9,7.9-8.6,9.8-12.7,1.9-4.2,2.6-7.9,2.9-10.5,0-.6.1-1.2.1-1.7,0-.5,0-.9,0-1.3,0-.3,0-.6,0-.8,0-.2,0-.3,0-.3,0,0,0,0,0,.3,0,.2,0,.5,0,.8,0,.3,0,.8,0,1.2,0,.5-.1,1.1-.2,1.7-.3,2.5-1.1,6.2-3,10.3-1.9,4.1-5.1,8.7-9.8,12.5-2.3,1.9-5.1,3.6-8.1,4.8-3,1.2-6.4,2-9.9,1.7-3.5-.3-6.7-1.5-9.6-3-2.9-1.6-5.5-3.4-7.8-5.3-4.6-3.9-8.1-8.1-10.9-11.8-2.8-3.7-4.8-6.7-6.3-8.9-.7-1-1.3-1.9-1.7-2.4-.2-.3-.3-.5-.4-.6-.1-.1-.2-.2-.2-.2Z"/>
      <path class="cls-3" d="m351.6,415.4c0,2.1,1.7,3.8,3.8,3.8s3.8-1.7,3.8-3.8-1.7-3.8-3.8-3.8-3.8,1.7-3.8,3.8Z"/>
      <path class="cls-9" d="m329.5,369.3c1.6-1.5,3.8-2,5.9-2.2,5.2-.5,10.8.6,15.3,3.1,4.5,2.6,7.8,6.8,10,11.5l-3,3.1c-1.2-4.9-3.9-9.1-8.1-11.9-4.2-2.8-8.6-4-13.6-3.2-1.1.2-2.8.6-3.7,1.3-1.9,1.4-2.2,2.9-1.9,4.9.5,3,1.3,4.3,2.5,5.9-2.2,0-2.7,0-4.9.1-.5-2.1-1.1-4.3-1.1-6.5,0-2.2.7-4.5,2.4-6Z"/>
    </g>
  </g>
  <g id="Books">
    <g>
      <g>
        <rect class="cls-2" x="216" y="414.2" width="31.1" height="12.3"/>
        <rect class="cls-3" x="214.7" y="412.1" width="97.7" height="2.6"/>
        <rect class="cls-3" x="215.1" y="425.9" width="97.3" height="2.6"/>
        <polygon class="cls-3" points="247.1 412.7 247.3 427.9 312.4 427.9 312.4 412.7 247.1 412.7"/>
        <g>
          <path class="cls-9" d="m262.9,420.3c0,2.1-1.6,3.8-3.5,3.8s-3.5-1.7-3.5-3.8,1.6-3.8,3.5-3.8,3.5,1.7,3.5,3.8Z"/>
          <path class="cls-5" d="m259.4,424.6c-2.2,0-4.1-2-4.1-4.4s1.8-4.4,4.1-4.4,4.1,2,4.1,4.4-1.8,4.4-4.1,4.4Zm0-7.6c-1.6,0-3,1.5-3,3.3s1.3,3.3,3,3.3,3-1.5,3-3.3-1.3-3.3-3-3.3Z"/>
        </g>
        <path class="cls-9" d="m244.8,423.4c0,.2-6.4.3-14.3.3s-14.3-.1-14.3-.3,6.4-.3,14.3-.3,14.3.1,14.3.3Z"/>
        <path class="cls-9" d="m244.8,421.3c0,.2-6.4.3-14.3.3s-14.3-.1-14.3-.3,6.4-.3,14.3-.3,14.3.1,14.3.3Z"/>
        <path class="cls-9" d="m244.8,419.1c0,.2-6.4.3-14.3.3s-14.3-.1-14.3-.3,6.4-.3,14.3-.3,14.3.1,14.3.3Z"/>
        <path class="cls-9" d="m244.8,417c0,.2-6.4.3-14.3.3s-14.3-.1-14.3-.3,6.4-.3,14.3-.3,14.3.1,14.3.3Z"/>
        <g>
          <rect class="cls-1" x="275.8" y="415.9" width="29.4" height="8.2"/>
          <path class="cls-5" d="m280.4,423.3c-.2,0-.3-1.5-.3-3.3s.1-3.3.3-3.3.3,1.5.3,3.3-.1,3.3-.3,3.3Z"/>
          <path class="cls-5" d="m284.3,423.3c-.2,0-.3-1.5-.3-3.3s.1-3.3.3-3.3.3,1.5.3,3.3-.1,3.3-.3,3.3Z"/>
          <path class="cls-5" d="m288.2,423.3c-.2,0-.3-1.5-.3-3.3s.1-3.3.3-3.3.3,1.5.3,3.3-.1,3.3-.3,3.3Z"/>
          <path class="cls-5" d="m292,423.3c-.2,0-.3-1.5-.3-3.3s.1-3.3.3-3.3.3,1.5.3,3.3-.1,3.3-.3,3.3Z"/>
          <path class="cls-5" d="m295.9,423.3c-.2,0-.3-1.5-.3-3.3s.1-3.3.3-3.3.3,1.5.3,3.3-.1,3.3-.3,3.3Z"/>
          <path class="cls-5" d="m299.8,423.3c-.2,0-.3-1.5-.3-3.3s.1-3.3.3-3.3.3,1.5.3,3.3-.1,3.3-.3,3.3Z"/>
        </g>
      </g>
      <g>
        <rect class="cls-2" x="220.1" y="430.1" width="31.1" height="12.3"/>
        <rect class="cls-6" x="218.8" y="428" width="97.7" height="2.6"/>
        <rect class="cls-6" x="219.3" y="441.8" width="97.3" height="2.6"/>
        <polygon class="cls-6" points="251.2 428.6 251.4 443.9 316.6 443.9 316.6 428.6 251.2 428.6"/>
        <g>
          <path class="cls-9" d="m267.1,436.2c0,2.1-1.6,3.8-3.5,3.8s-3.5-1.7-3.5-3.8,1.6-3.8,3.5-3.8,3.5,1.7,3.5,3.8Z"/>
          <path class="cls-5" d="m263.6,440.6c-2.2,0-4.1-2-4.1-4.4s1.8-4.4,4.1-4.4,4.1,2,4.1,4.4-1.8,4.4-4.1,4.4Zm0-7.6c-1.6,0-3,1.5-3,3.3s1.3,3.3,3,3.3,3-1.5,3-3.3-1.3-3.3-3-3.3Z"/>
        </g>
        <path class="cls-9" d="m248.9,439.3c0,.2-6.4.3-14.3.3s-14.3-.1-14.3-.3,6.4-.3,14.3-.3,14.3.1,14.3.3Z"/>
        <path class="cls-9" d="m248.9,437.2c0,.2-6.4.3-14.3.3s-14.3-.1-14.3-.3,6.4-.3,14.3-.3,14.3.1,14.3.3Z"/>
        <path class="cls-9" d="m248.9,435.1c0,.2-6.4.3-14.3.3s-14.3-.1-14.3-.3,6.4-.3,14.3-.3,14.3.1,14.3.3Z"/>
        <path class="cls-9" d="m248.9,432.9c0,.2-6.4.3-14.3.3s-14.3-.1-14.3-.3,6.4-.3,14.3-.3,14.3.1,14.3.3Z"/>
        <g>
          <rect class="cls-1" x="280" y="431.8" width="29.4" height="8.2"/>
          <path class="cls-5" d="m284.5,439.2c-.2,0-.3-1.5-.3-3.3s.1-3.3.3-3.3.3,1.5.3,3.3-.1,3.3-.3,3.3Z"/>
          <path class="cls-5" d="m288.4,439.2c-.2,0-.3-1.5-.3-3.3s.1-3.3.3-3.3.3,1.5.3,3.3-.1,3.3-.3,3.3Z"/>
          <path class="cls-5" d="m292.3,439.2c-.2,0-.3-1.5-.3-3.3s.1-3.3.3-3.3.3,1.5.3,3.3-.1,3.3-.3,3.3Z"/>
          <path class="cls-5" d="m296.2,439.2c-.2,0-.3-1.5-.3-3.3s.1-3.3.3-3.3.3,1.5.3,3.3-.1,3.3-.3,3.3Z"/>
          <path class="cls-5" d="m300.1,439.2c-.2,0-.3-1.5-.3-3.3s.1-3.3.3-3.3.3,1.5.3,3.3-.1,3.3-.3,3.3Z"/>
          <path class="cls-5" d="m303.9,439.2c-.2,0-.3-1.5-.3-3.3s.1-3.3.3-3.3.3,1.5.3,3.3-.1,3.3-.3,3.3Z"/>
        </g>
      </g>
    </g>
  </g>
  <g id="Speech_Bubble" data-name="Speech Bubble">
    <g>
      <g>
        <path class="cls-1" d="m187.7,136.1l-8.1-1.6c-5.4,3-11.8,4.5-18.5,3.8-15.9-1.6-28.1-15.3-28-31.3.1-18.4,16.1-32.8,34.6-30.9,15.7,1.6,27.9,15,28,30.8,0,7.8-2.7,14.9-7.4,20.4h0s-.6,8.8-.6,8.8Z"/>
        <path class="cls-9" d="m187.7,136.1s0-.2,0-.6c0-.4,0-1,0-1.7,0-1.5.2-3.7.4-6.5h.2c0,.1,0,.1,0,.1,0,0-.1,0-.2,0,0,0,0-.1,0-.1,2.5-3,5.3-7.4,6.6-13.5.6-3,.9-6.3.5-9.9-.4-3.5-1.4-7.2-3.2-10.7-1.8-3.5-4.4-6.9-7.7-9.7-3.3-2.8-7.3-5.1-11.8-6.2-4.5-1.2-9.4-1.4-14.2-.5-4.8.9-9.5,3.1-13.4,6.3-2,1.6-3.8,3.5-5.3,5.5-.7,1-1.4,2.1-2.1,3.2l-.9,1.7-.4.8-.3.9c-1.9,4.6-2.7,9.5-2.4,14.1.3,4.7,1.7,9.1,3.8,12.9,2.1,3.8,4.9,7,8.1,9.5,3.1,2.5,6.6,4.2,10,5.2.9.2,1.7.4,2.5.7.8.2,1.7.3,2.5.4,1.6.3,3.2.3,4.8.3,6.2-.1,11.1-2.1,14.4-3.9,0,0,0,0,0,0,2.6.5,4.6,1,5.9,1.3.7.1,1.2.3,1.6.3.4,0,.5.1.5.1,0,0-.2,0-.5,0-.4,0-.9-.2-1.5-.3-1.4-.3-3.4-.6-6-1.1h0c-3.3,1.9-8.3,3.9-14.5,4-1.6,0-3.2,0-4.8-.3-.8-.1-1.7-.2-2.5-.4-.8-.2-1.7-.4-2.6-.6-3.5-1-6.9-2.8-10.2-5.3-3.2-2.5-6.1-5.7-8.2-9.6-2.1-3.9-3.7-8.4-3.9-13.1-.3-4.8.4-9.7,2.4-14.4l.4-.9.4-.8c.3-.6.6-1.1.9-1.7.6-1.1,1.4-2.2,2.1-3.2,1.6-2,3.3-4,5.4-5.6,4-3.3,8.8-5.5,13.7-6.4,4.9-.9,9.9-.7,14.4.5,4.6,1.2,8.6,3.5,12,6.4,3.4,2.8,6,6.3,7.8,9.8,1.8,3.6,2.8,7.3,3.2,10.9.3,3.6.1,7-.6,10-1.3,6.1-4.2,10.6-6.7,13.5l-.2-.2s0,0,0,0c0,0,.1,0,.2,0,0,0,0,0,0,0-.2,2.8-.4,5-.5,6.6,0,.7-.1,1.3-.1,1.7,0,.4,0,.5,0,.5Z"/>
      </g>
      <polygon class="cls-6" points="150.5 109.3 154.4 105.1 162.5 111.8 177.3 96.5 181.2 100.4 162.1 119.6 150.5 109.3"/>
    </g>
  </g>
  <g id="Character">
    <g>
      <g>
        <path class="cls-6" d="m404.9,83.6h-25.5l-74.3,44.7c.3.4,9,6.8,20.5,14.9l-107.6,198.1-90-39.8-79.7,143.3h43.6l54.9-100.3,82.6,38.3,35,4.2,94.8-219.8c11.9,8.4,21.1,14.9,21.1,14.9h25.5s-7.4-62.3-7.4-62.8,6.5-35.7,6.5-35.7Z"/>
        <path class="cls-8" d="m404.9,83.6h-25.5l-74.3,44.7c.3.4,9,6.8,20.5,14.9l-107.6,198.1-90-39.8-79.7,143.3h43.6l54.9-100.3,82.6,38.3,35,4.2,94.8-219.8c11.9,8.4,21.1,14.9,21.1,14.9h25.5s-7.4-62.3-7.4-62.8,6.5-35.7,6.5-35.7Z"/>
        <polygon class="cls-6" points="74.1 444.8 154.2 300.3 243.9 341.3 359.6 128.3 394 146.4 264.5 386.9 172.6 344.5 117.7 444.8 74.1 444.8"/>
        <path class="cls-6" d="m330.6,128.3c.8,1.2,75.2,53.8,75.2,53.8l-.9-98.5-74.3,44.7Z"/>
        <path class="cls-9" d="m330.6,128.3c0,.1-5.7.3-12.7.3s-12.7-.1-12.7-.3,5.7-.3,12.7-.3,12.7.1,12.7.3Z"/>
        <path class="cls-9" d="m350.5,143.6c0,.1-5.7.3-12.7.3-7,0-12.7-.1-12.7-.3s5.7-.3,12.7-.3,12.7.1,12.7.3Z"/>
      </g>
      <g>
        <g>
          <g>
            <path class="cls-4" d="m159.3,232.8s-1.5.7-1.8-1.4c-.2-2.1,4.1-6.4,5.4-7.7,1.4-1.4,3.3-1.1,5.1-.7,1.7.4,8.9,1.1,11.2,2.6,2.4,1.5,6,9.1,6.7,9.5.8.4,23,1.5,23,1.5l-1,18.2s-21.9-4.2-26.2-6.9-3.8-3.8-5-6.3c-1.2-2.5-2.6-5.2-2.6-5.2l-2-.3-3.3,1.8s-.4,4.6-3.6,4.5l-1.6-.8s-1.1,1.2-2.3-.7-1-2.3-1-2.3c0,0-1.3,1.6-2.6-.4-1.4-2,1.4-5.6,1.4-5.6Z"/>
            <path class="cls-7" d="m183.3,240.6s0,0-.2,0c-.2,0-.4,0-.7,0-.6,0-1.6-.1-2.6-.7-1-.6-2.1-1.6-2.8-3.1-.7-1.4-1.1-3.2-1.2-5.1l.4.2c-1.5.7-3.2,1.1-5,1.2-1.3,0-2.5,0-3.7-.4-.6-.2-1.2-.2-1.7-.8-.3-.3-.3-.8,0-1.1.2-.3.5-.4.8-.5,2-.8,3.8-1.4,5.4-1.9,1.6-.5,2.8-.8,3.7-1,.9-.2,1.4-.3,1.4-.2,0,0-.5.2-1.3.4-.9.3-2.1.6-3.7,1.2-1.5.5-3.4,1.2-5.3,2-.2,0-.5.2-.6.4-.1.1,0,.3,0,.5.3.3.9.5,1.4.6,1.1.3,2.3.4,3.5.4,1.7,0,3.4-.5,4.8-1.1l.3-.2v.4c0,1.8.4,3.6,1.1,5,.6,1.4,1.6,2.4,2.6,3,1,.6,1.9.8,2.5.8.6,0,1,0,1,0Z"/>
            <path class="cls-7" d="m172,228.1c0,0-.8.5-2.1.4-.7,0-1.4-.1-2.3,0-.8,0-1.6.4-2.3,1.1-1.4,1.5-3,2.5-4.2,3-1.2.5-2.1.6-2.1.6,0,0,.8-.3,1.9-.9,1.2-.6,2.6-1.6,4-3,.3-.4.7-.7,1.2-.9.5-.2,1-.3,1.4-.3.9,0,1.7.1,2.3.2,1.3.2,2-.1,2.1,0Z"/>
            <path class="cls-7" d="m167.4,232.9c.1,0-.8,2.1-2.8,3.8-2,1.8-4.2,2.3-4.2,2.2,0-.1,1.9-.9,3.9-2.6,2-1.7,3-3.5,3.2-3.4Z"/>
            <path class="cls-7" d="m168.2,235.7c.1,0-.2,1.8-1.5,3.6-1.3,1.8-2.9,2.6-3,2.5,0-.1,1.3-1.1,2.5-2.8,1.2-1.7,1.7-3.3,1.9-3.3Z"/>
          </g>
          <polygon class="cls-5" points="235.5 197.3 215.6 233.2 184.6 232.7 182.3 251.3 214.2 259.1 227.4 244.7 235.5 197.3"/>
          <path class="cls-9" d="m218.1,239.3c-.2,0-.3-1.5-1-3.1-.7-1.7-1.6-2.9-1.4-3,0,0,1.2,1,1.9,2.8.7,1.8.7,3.3.6,3.3Z"/>
        </g>
        <g>
          <g>
            <path class="cls-9" d="m243.1,133.6c-2.5.3-5.1-1.5-5.7-3.9-.6-2.5.9-5.3,3.4-6.1-1.6-1.6-2-4.2-1-6.2,1-2,3.4-3.3,5.6-3,0-2.2,1.3-4.4,3.3-5.5,1.9-1.1,4.4-1.1,6.4,0,2.4-2.1,6.4-2.3,8.9-.3,2.1-.4,4.5.7,5.6,2.6,1,1.9.7,4.5-.9,6.1"/>
            <g>
              <g>
                <path class="cls-4" d="m265,113.7h-1.1c-11.5.2-20.9,9.2-21.6,20.7-.7,10.7-1.2,22.4-1.1,28.1.4,11.8,12.2,13.4,12.2,13.4l-.7,14.2,1.4,10.8,27.3-12.3,1.5-51.5c.8-12.3-5.6-23-18-23.5Z"/>
                <path class="cls-7" d="m253.4,175.9s7.6.3,15.4-4.8c0,0-3.7,9.1-15.5,8.3v-3.5Z"/>
                <path class="cls-9" d="m246.2,146.4c0,.9.7,1.6,1.7,1.7.9,0,1.7-.7,1.7-1.6,0-.9-.7-1.6-1.7-1.7-.9,0-1.7.7-1.7,1.6Z"/>
                <path class="cls-9" d="m245,140.1c.2.2,1.5-.8,3.3-.8,1.8,0,3.2.9,3.4.6,0-.1-.1-.5-.7-.9-.6-.4-1.6-.8-2.7-.8-1.1,0-2.1.5-2.6.9-.6.4-.7.8-.6.9Z"/>
                <path class="cls-9" d="m261.5,146c0,.9.7,1.6,1.7,1.7.9,0,1.7-.7,1.7-1.6,0-.9-.7-1.6-1.7-1.7-.9,0-1.7.7-1.7,1.6Z"/>
                <path class="cls-9" d="m262.8,140.1c.2.2,1.5-.8,3.3-.8,1.8,0,3.2.9,3.4.6,0-.1-.1-.5-.7-.9-.6-.4-1.6-.8-2.7-.8-1.1,0-2.1.5-2.6.9-.5.4-.7.8-.6.9Z"/>
                <path class="cls-9" d="m256.5,153.7c0-.1-1.1-.3-3-.5-.5,0-.9-.1-1-.4-.1-.3,0-.8.3-1.4.4-1.1.8-2.3,1.3-3.6,1.8-5.1,3.1-9.2,2.9-9.3-.2,0-1.8,4-3.6,9-.4,1.2-.9,2.4-1.2,3.6-.2.5-.5,1.1-.2,1.8.1.3.5.6.8.7.3,0,.6,0,.8,0,1.8,0,3,0,3,0Z"/>
                <path class="cls-9" d="m261.1,133.1c.2.5,1.8,0,3.7-.2,1.9-.1,3.5.2,3.7-.3,0-.2-.3-.6-1-1-.7-.4-1.7-.6-2.9-.5-1.1,0-2.1.5-2.8.9-.6.4-.9.9-.8,1.1Z"/>
                <path class="cls-9" d="m244.8,132.6c.4.4,1.9,0,3.7-.1,1.8-.1,3.3.2,3.7-.2.1-.2,0-.6-.8-1-.7-.4-1.8-.7-3-.6-1.2,0-2.3.5-2.9.9-.6.4-.8.9-.7,1.1Z"/>
                <path class="cls-9" d="m243.4,128.9s3-7.5,6.5-9.3c4.3-2.2,6.2,2.5,10.3,1.3,4.1-1.2,8.2-3.3,12.4-.2,4.7,3.4,2.6,5.9,2.9,11.1,1.6,21.2,5.6,27.2,6.5,17.1,0-1.1,3.1-2,3.5-6.7.5-6,.6-13.3-.9-17.6-1.2-3.6-3.3-6-7-8.7-5.9-4.2-13.9-4.1-19.3-3.5-5.4.6-15.7,7.1-15,16.3Z"/>
                <path class="cls-4" d="m281.3,148.7c0-1.8,1.6-3.3,3.4-3.2,2.2.2,4.7,1.4,4.6,5.9-.1,8.1-8.2,6.3-8.2,6.1,0-.2.1-5.5.2-8.9Z"/>
                <path class="cls-7" d="m282.9,154.5s.1.1.4.2c.2.1.6.2,1.1,0,.9-.3,1.6-1.6,1.7-3.1,0-.7-.1-1.4-.4-2-.2-.6-.6-1-1-1.1-.4-.1-.7.1-.8.4-.1.2,0,.4-.1.4,0,0-.2-.1-.1-.5,0-.2.1-.3.3-.5.2-.2.5-.2.8-.2.6,0,1.2.6,1.5,1.3.3.6.5,1.4.5,2.3,0,1.6-.9,3.1-2.1,3.5-.6.1-1,0-1.3-.2-.2-.2-.3-.4-.3-.4Z"/>
              </g>
              <path class="cls-9" d="m280.8,133.1c-1,.7-2.1,1.5-3.4,1.6-1.3.1-2.7-.5-3-1.8-.1-.6,0-1.2-.4-1.6-.5-.5-1.3-.3-1.9-.2-2.3.3-5.1-2.2-5.8-4.5-.6.9-1.9,1.2-2.8.6-.9-.6-1.3-.9-2-1.7-.7-.8-1.7-1.5-2.8-1.3-.6,0-1.1.5-1.7.4-1.1,0-1.6-1.3-1.8-2.4-.2-1-.3-2.3-1.2-2.8-.8-.5-1.9-.2-2.9,0s-2.2,0-2.5-1c-.1-.5,0-1,.3-1.5,1.2-2,3.9-2.9,6.1-2.1.7-2.7,3.2-4.8,6-5.2,2.8-.3,5.7,1.1,7,3.5,1.7-1.6,4.1-2.3,6.4-1.8,2.3.5,4.2,2.1,5.2,4.2,2-.6,4.2.2,5.5,1.7,1.3,1.6,1.5,3.9.5,5.7,1.5.8,2.7,2.2,2.8,3.9,0,1.7-1.5,3.4-3.2,3,.7,1.3.2,3.1-1.1,3.8-1.2.8-3.1.4-3.9-.8"/>
              <path class="cls-3" d="m254.6,117.2s0,0,0,.1c0,0,0,.2,0,.4,0,.4.2.9.6,1.5.4.6,1,1.3,1.8,1.9.9.6,2,1,3.3.9v-.2c-.4.7-.3,1.5,0,2.2.3.7.9,1.3,1.4,2,.3.3.5.6.9.9.4.3.8.4,1.3.5.9,0,1.9-.2,2.6-1h-.3c.2,1.5,1.2,3.1,2.7,4.1.8.5,1.7.9,2.7.8.9,0,1.8-.3,2.6-.6h-.2c.5.9,1.1,1.7,2,2.4.8.6,1.9,1,2.8.7,1.9-.4,3.1-2.1,3.4-3.5h-.2c1,.6,2,.6,2.8.4.8-.2,1.5-.5,1.9-.9.5-.4.7-.7.9-1,.1-.3.2-.4.2-.4,0,0-.3.6-1.2,1.3-.5.3-1.1.7-1.9.8-.8.1-1.7,0-2.6-.4h-.2c0,0,0,0,0,0-.2,1.4-1.4,2.9-3.2,3.3-.9.2-1.8,0-2.6-.7-.8-.6-1.4-1.4-1.8-2.3h0c0-.1-.2,0-.2,0-.8.3-1.6.6-2.5.6-.9,0-1.7-.2-2.5-.8-1.4-.9-2.3-2.4-2.5-3.9v-.4c0,0-.3.3-.3.3-.5.7-1.5,1-2.3.9-.4,0-.8-.2-1.1-.4-.3-.2-.6-.6-.9-.9-.6-.6-1.1-1.2-1.4-1.9-.3-.7-.4-1.4-.2-2v-.2c0,0-.1,0-.1,0-1.2.1-2.4-.3-3.2-.8-.9-.5-1.4-1.2-1.8-1.8-.8-1.2-.8-2.1-.8-2Z"/>
            </g>
          </g>
          <path class="cls-9" d="m257,159.9c0-.3,2,0,3.8-1.4,1.7-1.4,1.9-3.6,2.2-3.6.1,0,.3.5.2,1.4-.1.9-.7,2.1-1.7,3-1.1.9-2.3,1.1-3.1,1-.8,0-1.3-.4-1.3-.5Z"/>
        </g>
        <g>
          <path class="cls-5" d="m199.4,274.3l15.4-17,12.9-38.9c2.6-6.7,4.9-15.3,8.1-21.7,1.6-3.1,4.2-5.6,7.4-7.1l5.5-2.4,3.3-5.2c-1.9,11.8,14.6,13.2,32.2-1.4,0,0,5.8,3.9,14,10.7,3.6,3,6.8,6.2,8.2,11.1,2.5,8.9-8.1,35.2-19.6,60-3.4,7.4-19.8,40.6-19.8,40.6l-5.9,4.3s-52.1-15.8-56.8-24.5l-4.7-8.7Z"/>
          <path class="cls-9" d="m208,264.2s.1-.2.4-.5c.3-.4.8-.8,1.3-1.4,1.2-1.2,2.9-3,5-5.1h0c1-2.9,2.1-6.4,3.4-10.4,1.3-3.9,2.7-8.3,4-13,2.6-9.1,5.1-17.3,7.4-23.1,1.1-2.9,2.2-5.2,2.9-6.8.4-.7.7-1.3.9-1.8.2-.4.3-.6.3-.6s0,.2-.2.7c-.2.5-.5,1.1-.8,1.8-.7,1.6-1.7,3.9-2.7,6.8-2.2,5.8-4.6,14-7.3,23.1-1.4,4.6-2.7,9-4.1,13-1.3,3.9-2.5,7.5-3.5,10.4h0s0,0,0,0c-2.1,2.1-3.8,3.8-5.1,5-.6.5-1,1-1.4,1.3-.3.3-.5.4-.5.4Z"/>
          <polygon class="cls-6" points="255.8 199.4 237.8 273.3 219.1 282.6 219.1 264.6 251.5 197.8 255.8 199.4"/>
          <g class="cls-8">
            <path d="m221.4,266.7c5.1,1.9,9.7,5,14.2,8,4.5,3.1,9,6.2,14,8.4,5,2.2,10.6,3.3,16,2.2,5.3-1.1,10.3-4.8,12.1-9.9l-56.4-8.7Z"/>
          </g>
          <polygon class="cls-5" points="248.6 187 253.2 180 255.1 189.6 259.6 184.4 282.4 173.8 286.4 182.2 261.2 197.1 254.2 196.6 249.1 190.6 248.6 187"/>
          <path class="cls-9" d="m248.6,187c0,0,.2.5.3,1.5.2,1.1.5,2.3.8,3.7h-.5c.4-.8.8-1.5,1.2-2.3.7-1.2,1.3-2.4,1.9-3.4l.2-.4.2.5c.4,1.2.6,2.1.8,2.8.2.7.3,1.1.2,1.1,0,0-.2-.3-.5-1-.3-.7-.5-1.6-1-2.7h.4c-.6,1.1-1.2,2.2-1.9,3.5-.4.8-.9,1.5-1.3,2.3l-.3.6v-.7c-.7-3-.9-5.3-.8-5.3Z"/>
          <path class="cls-6" d="m256.3,190.6l-2.9-.4c-.8.9-2.7,2.7-3.5,3.6h0c.3,2,.7,4,1,5.9,1.6,0,3.3,0,4.8.4,1-1.7,1.7-3,2.7-4.7l-2.1-4.8Z"/>
          <path class="cls-9" d="m261.3,299.6c0,0-.9-.9-2.3-2.3-1.4-1.4-3.5-3.3-5.8-5.2-2.4-1.9-4.7-3.5-6.4-4.6-1.7-1.1-2.8-1.7-2.7-1.8,0,0,.3,0,.8.3.5.2,1.2.6,2.1,1.1,1.7,1,4.1,2.5,6.5,4.5,2.4,1.9,4.4,3.9,5.8,5.4.7.7,1.2,1.4,1.6,1.8.4.4.5.7.5.7Z"/>
          <polygon class="cls-6" points="256.5 191.2 259.8 189.6 260.8 195.2 258.2 195.5 256.5 191.2"/>
          <polygon class="cls-8" points="259.3 187.3 259.3 200.1 283.1 184.4 261 197.3 259.3 187.3"/>
          <path class="cls-9" d="m286.4,182.2s-.5.4-1.4,1c-.9.6-2.3,1.5-4,2.5-3.4,2.1-8.3,4.6-13.5,7.7-2.2,1.3-4.3,2.6-6.2,3.9l-.3.2v-.4c-.8-3.9-1.4-7.3-1.9-9.8h.3c-1,1-1.9,1.8-2.5,2.4-.6.5-.9.8-.9.8,0,0,.3-.3.8-.9.6-.6,1.4-1.4,2.4-2.4l.2-.2v.3c.6,2.5,1.3,5.9,2,9.8l-.4-.2c1.9-1.3,4-2.6,6.2-3.9,5.3-3,10.2-5.5,13.6-7.5,1.7-1,3.1-1.8,4-2.4.9-.6,1.5-.9,1.5-.9Z"/>
          <polygon class="cls-6" points="253.4 191.3 252.1 188.1 249.9 192.1 250.9 193.5 253.4 191.3"/>
          <path class="cls-9" d="m257.1,190.8c.1.1-1.5,1.9-3.2,4.4-1.7,2.4-2.9,4.6-3,4.5-.1,0,.9-2.3,2.6-4.8,1.7-2.5,3.5-4.2,3.6-4.1Z"/>
          <path class="cls-9" d="m255.5,200.2c0,.1-1.1,0-2.5-.2-1.3-.2-2.4-.4-2.4-.6,0-.1,1.1-.2,2.5,0,1.4.2,2.4.6,2.4.8Z"/>
        </g>
        <g>
          <g>
            <path class="cls-3" d="m135.8,246.2h0l-15-42.5c-.3-.9.3-1.9,1.2-2.1l34.7-9.1c.9-.2,1.7.3,2,1.1l15.8,47.8,49,32.2-2.4,2.4-12.5-3.1-72.8-26.9Z"/>
            <path class="cls-9" d="m221.1,276.1s0,0-.3-.1c-.2-.1-.4-.3-.7-.5-.7-.4-1.6-1-2.7-1.8-2.4-1.6-5.8-3.8-9.9-6.6-8.4-5.6-19.9-13.4-32.7-22-.9-.6-1.8-1.2-2.6-1.8h0s0-.1,0-.1c-4.6-13.9-8.7-26.4-11.7-35.4-1.5-4.5-2.6-8.1-3.5-10.6-.4-1.2-.7-2.2-.9-2.9,0-.3-.2-.6-.2-.8,0-.2,0-.3,0-.3,0,0,0,0,.1.2,0,.2.2.4.3.7.2.7.6,1.6,1,2.9.9,2.5,2.1,6.1,3.6,10.6,3,9,7.2,21.5,11.9,35.4h-.1c.8.4,1.7,1,2.6,1.6,12.7,8.6,24.2,16.4,32.6,22.1,4.1,2.8,7.5,5.1,9.8,6.8,1.1.8,2,1.4,2.7,1.9.3.2.5.4.7.5.2.1.2.2.2.2Z"/>
            <path class="cls-9" d="m141.8,245.3c0-.1,6.8-.6,15.2-1,8.4-.4,15.3-.6,15.3-.5,0,.1-6.8.6-15.2,1-8.4.4-15.3.6-15.3.5Z"/>
          </g>
          <path class="cls-5" d="m147.3,221c.6,1.9.3,3.7-.8,4.1-1,.3-2.3-1-2.9-2.9-.6-1.9-.3-3.7.8-4.1,1-.3,2.3,1,2.9,2.9Z"/>
        </g>
        <g>
          <g>
            <path class="cls-4" d="m190.1,236.2s-1.3.6-1.5-1.4c-.2-1.8,4.2-4.5,5.9-5.6,1.6-1,5.1-.3,6.9,0,2.4.3,8,2.8,9.7,4.9,1.8,2.2,3,7.7,3.7,8.2.7.5,22.8,9.2,22.8,9.2l-5,17.6s-20.4-9-24-12.6c-3.6-3.6-2.8-4.5-3.4-7.3-.6-2.7-1.3-5.6-1.3-5.6l-1.9-.8-3.6,1s-.4,1.4-1.4,2.4c-1.1,1.3-3.1,1.2-4.2,0h0s-1.8.6-2.7-1.4c-.4-.8-.1-2.1-.1-2.1,0,0-1.6.3-1.7-1.7,0-2.2,1.8-4.7,1.8-4.7Z"/>
            <path class="cls-7" d="m201.6,238.5c0,0-.7,0-1.9.3-1.1.2-2.7.8-4,2-1.3,1.2-2.1,2.6-2.5,3.7-.4,1.1-.5,1.8-.5,1.8,0,0-.1-.8.2-1.9.3-1.2,1.1-2.7,2.5-4,1.4-1.2,3.1-1.8,4.3-2,1.2-.2,2,0,2,0Z"/>
            <path class="cls-7" d="m200,234.7c0,0-.8,0-2,.2-1.2.3-2.8,1-4.2,2.4-1.4,1.3-2.3,2.9-3,3.9-.7,1.1-1.1,1.8-1.2,1.7,0,0,.2-.8.8-1.9.6-1.1,1.5-2.7,2.9-4.1,1.4-1.4,3.2-2.2,4.5-2.4,1.3-.2,2.1,0,2.1.1Z"/>
            <path class="cls-7" d="m199.6,230.6c0,0-.7,0-1.8.2-1.1.2-2.5.7-3.8,1.7-1.3,1-2.4,2.1-3.1,2.9-.8.8-1.2,1.3-1.3,1.3,0,0,.3-.6,1-1.5.7-.9,1.7-2.1,3.1-3.1,1.4-1,2.9-1.6,4.1-1.7,1.1-.1,1.8.1,1.8.2Z"/>
          </g>
          <g>
            <g>
              <path class="cls-5" d="m294.3,190.7c6.2,1.2,10.3,6.7,11.6,13.5,1.8,9.7-20.5,55.6-24.6,65.6-4.4,10.6-14,12.9-19.7,12.7-5.6-.1-45.1-18.6-45.1-18.6l5.8-20,35.1,10.4,13.9-39.1"/>
              <path class="cls-9" d="m271.2,215.3s0,.2-.2.7c-.2.5-.4,1.2-.7,2-.6,1.8-1.5,4.4-2.7,7.8-2.4,6.8-5.8,16.6-10.1,28.6v.2c0,0-.2,0-.2,0-10.1-3-22-6.5-35.1-10.4l.3-.2c-1.8,6.4-3.8,13.1-5.8,20v-.3c9.1,4.3,18.9,8.8,29.2,13.1,4.2,1.7,8.3,3.5,12.5,4.8l1.6.5c.5.1,1,.2,1.6.3,1.1,0,2.2,0,3.2-.2,2.1-.3,4.2-.9,6.1-1.7,3.8-1.7,7-4.7,9-8.3,1-1.8,1.7-3.7,2.5-5.5.8-1.8,1.6-3.6,2.4-5.4,6.5-14.3,12.2-27.2,16.3-38.3,2-5.6,3.8-10.7,4.5-15.3.2-1.2.2-2.3,0-3.4-.2-1.1-.4-2.1-.8-3-.6-1.9-1.5-3.6-2.4-4.9-1.9-2.7-4.2-4.1-5.7-4.8-.8-.3-1.4-.5-1.9-.6-.4-.1-.7-.2-.7-.2,0,0,.2,0,.7.1.4,0,1.1.3,1.9.6,1.6.7,3.9,2,5.9,4.8,1,1.4,1.8,3,2.5,5,.3,1,.6,2,.8,3.1.2,1.1,0,2.3,0,3.4-.7,4.7-2.4,9.8-4.4,15.4-4.1,11.1-9.8,24.1-16.3,38.4-.8,1.8-1.6,3.6-2.4,5.4-.8,1.8-1.5,3.7-2.5,5.6-2,3.7-5.2,6.7-9.2,8.5-2,.9-4.1,1.5-6.3,1.8-1.1.1-2.2.2-3.3.2-.6,0-1.1-.2-1.7-.3l-1.6-.5c-4.2-1.3-8.4-3.1-12.5-4.8-10.3-4.3-20.1-8.8-29.4-13.1h-.2c0,0,0-.3,0-.3,2-6.9,3.9-13.6,5.8-20v-.2c0,0,.3,0,.3,0,13.1,3.9,25,7.5,35.1,10.5h-.2c4.3-11.9,7.8-21.7,10.2-28.5,1.2-3.4,2.2-6,2.8-7.8.3-.9.6-1.5.7-2,.2-.5.3-.7.3-.7Z"/>
            </g>
            <path class="cls-9" d="m262.9,269.1c-.2,0-.7-3.5-2.3-7.5-1.5-4.1-3.5-7.1-3.3-7.1,0,0,.6.7,1.4,1.9.8,1.2,1.7,3,2.5,5.1.8,2.1,1.3,4,1.5,5.4.3,1.4.3,2.3.2,2.3Z"/>
            <path class="cls-9" d="m291.8,190.8c0,0-1.3.5-3.3,1.5-1,.5-2.1,1.2-3.3,2-1.2.8-2.5,1.9-3.7,3-1.2,1.2-2.2,2.4-3.1,3.6-.9,1.2-1.6,2.3-2.1,3.3-1,2-1.5,3.3-1.6,3.2,0,0,0-.3.3-.9.2-.6.5-1.4,1-2.5.5-1,1.2-2.2,2-3.4.9-1.2,1.9-2.5,3.1-3.7,1.2-1.2,2.5-2.2,3.8-3.1,1.2-.8,2.4-1.5,3.5-1.9,1-.5,1.9-.8,2.5-1,.6-.2.9-.3,1-.2Z"/>
          </g>
        </g>
        <g>
          <path class="cls-9" d="m73,334.8l-19-23.7s73.3-60.4,80.2-64.7c5.2-3.3,15.9-7.6,26-4.2,10.1,3.4,27.2,15.2,33.5,19,6.3,3.8,61.2,37.8,67.1,46.1,0,0-11.9,21.6-19.8,25.2-6.1,2.8-23.8-1.4-34.1-7.7-10.3-6.3-57.6-46.8-57.6-46.8l-76.4,56.7Z"/>
          <path class="cls-9" d="m80.1,362.6l25.6,18.4,49.3-80.3,49.8,22.7-33.5-55.9s-27,.3-31.2-.2c-5.4-.6-15.4,8-20.8,18.5-4.7,9.1-39.2,76.8-39.2,76.8Z"/>
          <path class="cls-3" d="m188.6,316.8c-.1.1-11.3-11.4-25.1-25.6-13.8-14.2-24.8-25.9-24.7-26,.1,0,11.3,11.4,25.1,25.6,13.8,14.2,24.8,25.9,24.7,26Z"/>
          <path class="cls-8" d="m94.5,318.9s22-41.2,32.4-43.9c0,0-15,20.4-20.1,34.8l-12.4,9.2Z"/>
          <path class="cls-3" d="m143.5,270.1c0,0-1-.4-2.9-.6-1.9-.2-4.7.1-7.7,1.6-3.1,1.5-6.1,4.3-8.7,7.9-2.6,3.6-5.3,7.8-7.8,12.4-5,9.1-8.9,17.8-11.9,23.9-1.5,3.1-2.8,5.5-3.7,7.2-.4.8-.8,1.4-1.1,1.9-.3.4-.4.7-.4.7,0,0,0-.2.3-.7.2-.5.6-1.1,1-2,.8-1.7,2.1-4.2,3.6-7.3,3-6.1,6.8-14.8,11.8-24,2.5-4.6,5.2-8.8,7.9-12.4,2.7-3.6,5.8-6.5,9-8,3.1-1.5,6-1.8,7.9-1.5,1.9.2,2.9.8,2.9.8Z"/>
          <g>
            <path class="cls-9" d="m92.7,347.7l-14,25.8s-31.3-3.7-34,1l50.8,26,21.1-40.7-23.8-12.1Z"/>
            <path class="cls-5" d="m95.5,379.4c2.1,1.9-.7,5.2-2.8,3.4-2.3-2.1,1-5.4,3-3.2"/>
            <path class="cls-3" d="m95.4,400.5l2-4.2-49.4-23.3s-2.8-.2-3.3,1.6l50.8,26Z"/>
            <path class="cls-1" d="m78,372.9c-.1.3,1.1,1,1.9,2.4.9,1.4.9,2.8,1.2,2.8,1.4-.9-1.7-6.1-3.1-5.2Z"/>
            <path class="cls-1" d="m71.5,372.3c-.2.2.7,1.2,1,2.7.3,1.5,0,2.7.2,2.8,1.6-.3.4-5.9-1.2-5.5Z"/>
            <path class="cls-1" d="m65.2,377.2c1.4.2,1.6-5.3.2-5.2,0,.2-.1,5.1-.2,5.2Z"/>
            <path class="cls-1" d="m81.5,367.1c.2,0,5,2.8,5.1,3,.8-1.2-4.5-4.2-5.1-3Z"/>
          </g>
          <g>
            <path class="cls-9" d="m73.6,301.6l-24,16.9s-26.4-17.2-31-14.2l34,45.8,36-28.4-15.1-20.2Z"/>
            <path class="cls-5" d="m62.1,331.3c1,2.6-2.9,4.3-4,1.7-1.1-2.9,3.3-4.4,4.1-1.5"/>
            <path class="cls-3" d="m52.6,350.2l3.6-2.9-34-42.8s-2.4-1.4-3.7,0l34,45.8Z"/>
            <path class="cls-1" d="m49.2,317.6c-.2.2.5,1.4.6,3,.1,1.6-.4,2.9-.2,3.1,1.7-.1,1.2-6.2-.4-6.1Z"/>
            <path class="cls-1" d="m43.7,314.3c-.3.1,0,1.4-.3,2.8-.3,1.5-1.2,2.4-1,2.6,1.6.4,3-5.1,1.3-5.5Z"/>
            <path class="cls-1" d="m35.9,315.9c1.1.8,3.8-4.1,2.5-4.6,0,.2-2.4,4.5-2.5,4.6Z"/>
          </g>
          <path class="cls-8" d="m184.9,312.9s-28-21.3-34.7-29.6c-6.6-8.1-10.1-16-10.1-16l44.8,45.5Z"/>
        </g>
      </g>
    </g>
  </g>
</svg>