<svg width="973" height="836" viewBox="0 0 973 836" fill="none" xmlns="http://www.w3.org/2000/svg">
<g clip-path="url(#clip0_45_274)">
<path d="M461.345 5.57839L953.386 190.656C964.885 194.982 972.5 205.982 972.5 218.268V805.5C972.5 821.792 959.292 835 943 835H542.382C537.877 835 533.431 833.968 529.386 831.983L100.275 621.395C92.239 617.452 86.4285 610.073 84.4792 601.336L5.59439 247.778C2.64403 234.555 9.08023 221.021 21.1999 214.965L437.773 6.80101C445.118 3.13071 453.66 2.68765 461.345 5.57839Z" stroke="white"/>
<path d="M356.561 252.5L348.433 241.46L351.025 239.86L360.209 252.5H356.561ZM341.489 252.5V230.1H344.625V252.5H341.489ZM343.665 242.644V239.828H350.929V242.644H343.665ZM351.313 241.652L348.369 241.204L356.401 230.1H359.825L351.313 241.652ZM360.536 252.468L360.728 249.876C360.877 249.897 361.016 249.919 361.144 249.94C361.272 249.961 361.389 249.972 361.496 249.972C362.179 249.972 362.712 249.737 363.096 249.268C363.501 248.799 363.8 248.18 363.992 247.412C364.184 246.623 364.323 245.737 364.408 244.756C364.493 243.775 364.557 242.793 364.6 241.812L364.888 235.54H377.912V252.5H374.84V237.332L375.576 238.228H366.872L367.576 237.3L367.352 242.004C367.288 243.497 367.171 244.895 367 246.196C366.829 247.497 366.563 248.639 366.2 249.62C365.859 250.601 365.379 251.369 364.76 251.924C364.163 252.479 363.384 252.756 362.424 252.756C362.147 252.756 361.848 252.724 361.528 252.66C361.229 252.617 360.899 252.553 360.536 252.468ZM383.852 252.5V235.54H386.924V247.892L397.324 235.54H400.108V252.5H397.036V240.148L386.668 252.5H383.852ZM413.623 252.692C411.809 252.692 410.209 252.319 408.823 251.572C407.457 250.825 406.391 249.801 405.623 248.5C404.876 247.199 404.503 245.705 404.503 244.02C404.503 242.335 404.865 240.841 405.591 239.54C406.337 238.239 407.351 237.225 408.631 236.5C409.932 235.753 411.393 235.38 413.015 235.38C414.657 235.38 416.108 235.743 417.367 236.468C418.625 237.193 419.607 238.217 420.311 239.54C421.036 240.841 421.399 242.367 421.399 244.116C421.399 244.244 421.388 244.393 421.367 244.564C421.367 244.735 421.356 244.895 421.335 245.044H406.903V242.836H419.735L418.487 243.604C418.508 242.516 418.284 241.545 417.815 240.692C417.345 239.839 416.695 239.177 415.863 238.708C415.052 238.217 414.103 237.972 413.015 237.972C411.948 237.972 410.999 238.217 410.167 238.708C409.335 239.177 408.684 239.849 408.215 240.724C407.745 241.577 407.511 242.559 407.511 243.668V244.18C407.511 245.311 407.767 246.324 408.279 247.22C408.812 248.095 409.548 248.777 410.487 249.268C411.425 249.759 412.503 250.004 413.719 250.004C414.721 250.004 415.628 249.833 416.439 249.492C417.271 249.151 417.996 248.639 418.615 247.956L420.311 249.94C419.543 250.836 418.583 251.519 417.431 251.988C416.3 252.457 415.031 252.692 413.623 252.692ZM426.164 252.5V235.54H429.236V242.74H438.9V235.54H441.972V252.5H438.9V245.396H429.236V252.5H426.164ZM451.306 252.5V237.428L452.074 238.228H445.098V235.54H460.586V238.228H453.642L454.378 237.428V252.5H451.306Z" fill="white"/>
<path d="M575.4 260.649C575.4 353.774 497.09 429.298 400.45 429.298C303.81 429.298 225.5 353.774 225.5 260.649C225.5 167.524 303.81 92 400.45 92C497.09 92 575.4 167.524 575.4 260.649Z" fill="white" fill-opacity="0.1" stroke="white"/>
<path d="M187.488 452.5V430.1H206.784V452.5H203.648V432.052L204.416 432.884H189.856L190.656 432.052V452.5H187.488ZM223.657 452.5V448.916L223.497 448.244V442.132C223.497 440.831 223.113 439.828 222.345 439.124C221.599 438.399 220.468 438.036 218.953 438.036C217.951 438.036 216.969 438.207 216.009 438.548C215.049 438.868 214.239 439.305 213.577 439.86L212.297 437.556C213.172 436.852 214.217 436.319 215.433 435.956C216.671 435.572 217.961 435.38 219.305 435.38C221.631 435.38 223.423 435.945 224.681 437.076C225.94 438.207 226.569 439.935 226.569 442.26V452.5H223.657ZM218.089 452.692C216.831 452.692 215.721 452.479 214.761 452.052C213.823 451.625 213.097 451.039 212.585 450.292C212.073 449.524 211.817 448.66 211.817 447.7C211.817 446.783 212.031 445.951 212.457 445.204C212.905 444.457 213.62 443.86 214.601 443.412C215.604 442.964 216.948 442.74 218.633 442.74H224.009V444.948H218.761C217.225 444.948 216.191 445.204 215.657 445.716C215.124 446.228 214.857 446.847 214.857 447.572C214.857 448.404 215.188 449.076 215.849 449.588C216.511 450.079 217.428 450.324 218.601 450.324C219.753 450.324 220.756 450.068 221.609 449.556C222.484 449.044 223.113 448.297 223.497 447.316L224.105 449.428C223.7 450.431 222.985 451.231 221.961 451.828C220.937 452.404 219.647 452.692 218.089 452.692ZM241.093 452.692C239.685 452.692 238.394 452.372 237.221 451.732C236.069 451.071 235.141 450.1 234.437 448.82C233.754 447.54 233.413 445.94 233.413 444.02C233.413 442.1 233.744 440.5 234.405 439.22C235.088 437.94 236.005 436.98 237.157 436.34C238.33 435.7 239.642 435.38 241.093 435.38C242.757 435.38 244.229 435.743 245.509 436.468C246.789 437.193 247.802 438.207 248.549 439.508C249.296 440.788 249.669 442.292 249.669 444.02C249.669 445.748 249.296 447.263 248.549 448.564C247.802 449.865 246.789 450.879 245.509 451.604C244.229 452.329 242.757 452.692 241.093 452.692ZM232.101 458.708V435.54H235.045V440.116L234.853 444.052L235.173 447.988V458.708H232.101ZM240.837 450.004C241.925 450.004 242.896 449.759 243.749 449.268C244.624 448.777 245.306 448.084 245.797 447.188C246.309 446.271 246.565 445.215 246.565 444.02C246.565 442.804 246.309 441.759 245.797 440.884C245.306 439.988 244.624 439.295 243.749 438.804C242.896 438.313 241.925 438.068 240.837 438.068C239.77 438.068 238.8 438.313 237.925 438.804C237.072 439.295 236.389 439.988 235.877 440.884C235.386 441.759 235.141 442.804 235.141 444.02C235.141 445.215 235.386 446.271 235.877 447.188C236.389 448.084 237.072 448.777 237.925 449.268C238.8 449.759 239.77 450.004 240.837 450.004ZM256.867 452.5V437.428L257.635 438.228H250.659V435.54H266.147V438.228H259.203L259.939 437.428V452.5H256.867ZM269.289 452.5V435.54H272.361V442.74H282.025V435.54H285.097V452.5H282.025V445.396H272.361V452.5H269.289ZM298.622 452.692C296.808 452.692 295.208 452.319 293.822 451.572C292.456 450.825 291.39 449.801 290.622 448.5C289.875 447.199 289.502 445.705 289.502 444.02C289.502 442.335 289.864 440.841 290.59 439.54C291.336 438.239 292.35 437.225 293.63 436.5C294.931 435.753 296.392 435.38 298.014 435.38C299.656 435.38 301.107 435.743 302.366 436.468C303.624 437.193 304.606 438.217 305.31 439.54C306.035 440.841 306.398 442.367 306.398 444.116C306.398 444.244 306.387 444.393 306.366 444.564C306.366 444.735 306.355 444.895 306.334 445.044H291.902V442.836H304.734L303.486 443.604C303.507 442.516 303.283 441.545 302.814 440.692C302.344 439.839 301.694 439.177 300.862 438.708C300.051 438.217 299.102 437.972 298.014 437.972C296.947 437.972 295.998 438.217 295.166 438.708C294.334 439.177 293.683 439.849 293.214 440.724C292.744 441.577 292.51 442.559 292.51 443.668V444.18C292.51 445.311 292.766 446.324 293.278 447.22C293.811 448.095 294.547 448.777 295.486 449.268C296.424 449.759 297.502 450.004 298.718 450.004C299.72 450.004 300.627 449.833 301.438 449.492C302.27 449.151 302.995 448.639 303.614 447.956L305.31 449.94C304.542 450.836 303.582 451.519 302.43 451.988C301.299 452.457 300.03 452.692 298.622 452.692ZM320.156 452.692C318.748 452.692 317.457 452.372 316.284 451.732C315.132 451.071 314.204 450.1 313.5 448.82C312.817 447.54 312.476 445.94 312.476 444.02C312.476 442.1 312.806 440.5 313.468 439.22C314.15 437.94 315.068 436.98 316.22 436.34C317.393 435.7 318.705 435.38 320.156 435.38C321.82 435.38 323.292 435.743 324.572 436.468C325.852 437.193 326.865 438.207 327.612 439.508C328.358 440.788 328.732 442.292 328.732 444.02C328.732 445.748 328.358 447.263 327.612 448.564C326.865 449.865 325.852 450.879 324.572 451.604C323.292 452.329 321.82 452.692 320.156 452.692ZM311.164 458.708V435.54H314.108V440.116L313.916 444.052L314.236 447.988V458.708H311.164ZM319.9 450.004C320.988 450.004 321.958 449.759 322.812 449.268C323.686 448.777 324.369 448.084 324.86 447.188C325.372 446.271 325.628 445.215 325.628 444.02C325.628 442.804 325.372 441.759 324.86 440.884C324.369 439.988 323.686 439.295 322.812 438.804C321.958 438.313 320.988 438.068 319.9 438.068C318.833 438.068 317.862 438.313 316.988 438.804C316.134 439.295 315.452 439.988 314.94 440.884C314.449 441.759 314.204 442.804 314.204 444.02C314.204 445.215 314.449 446.271 314.94 447.188C315.452 448.084 316.134 448.777 316.988 449.268C317.862 449.759 318.833 450.004 319.9 450.004Z" fill="white"/>
<path d="M432.7 452.351C432.7 545.476 354.39 621 257.75 621C161.11 621 82.7998 545.476 82.7998 452.351C82.7998 359.226 161.11 283.702 257.75 283.702C354.39 283.702 432.7 359.226 432.7 452.351Z" fill="white" fill-opacity="0.1" stroke="white"/>
<path d="M447.36 456.5V434.1H456.096C458.059 434.1 459.733 434.409 461.12 435.028C462.507 435.647 463.573 436.543 464.32 437.716C465.067 438.889 465.44 440.287 465.44 441.908C465.44 443.529 465.067 444.927 464.32 446.1C463.573 447.252 462.507 448.137 461.12 448.756C459.733 449.375 458.059 449.684 456.096 449.684H449.12L450.56 448.212V456.5H447.36ZM462.336 456.5L456.64 448.372H460.064L465.824 456.5H462.336ZM450.56 448.532L449.12 446.964H456C458.048 446.964 459.595 446.527 460.64 445.652C461.707 444.756 462.24 443.508 462.24 441.908C462.24 440.308 461.707 439.071 460.64 438.196C459.595 437.321 458.048 436.884 456 436.884H449.12L450.56 435.284V448.532ZM477.714 456.692C475.901 456.692 474.301 456.319 472.914 455.572C471.549 454.825 470.482 453.801 469.714 452.5C468.967 451.199 468.594 449.705 468.594 448.02C468.594 446.335 468.957 444.841 469.682 443.54C470.429 442.239 471.442 441.225 472.722 440.5C474.023 439.753 475.485 439.38 477.106 439.38C478.749 439.38 480.199 439.743 481.458 440.468C482.717 441.193 483.698 442.217 484.402 443.54C485.127 444.841 485.49 446.367 485.49 448.116C485.49 448.244 485.479 448.393 485.458 448.564C485.458 448.735 485.447 448.895 485.426 449.044H470.994V446.836H483.826L482.578 447.604C482.599 446.516 482.375 445.545 481.906 444.692C481.437 443.839 480.786 443.177 479.954 442.708C479.143 442.217 478.194 441.972 477.106 441.972C476.039 441.972 475.09 442.217 474.258 442.708C473.426 443.177 472.775 443.849 472.306 444.724C471.837 445.577 471.602 446.559 471.602 447.668V448.18C471.602 449.311 471.858 450.324 472.37 451.22C472.903 452.095 473.639 452.777 474.578 453.268C475.517 453.759 476.594 454.004 477.81 454.004C478.813 454.004 479.719 453.833 480.53 453.492C481.362 453.151 482.087 452.639 482.706 451.956L484.402 453.94C483.634 454.836 482.674 455.519 481.522 455.988C480.391 456.457 479.122 456.692 477.714 456.692ZM510.972 439.38C512.337 439.38 513.542 439.647 514.588 440.18C515.633 440.713 516.444 441.524 517.02 442.612C517.617 443.7 517.916 445.076 517.916 446.74V456.5H514.844V447.092C514.844 445.449 514.46 444.212 513.692 443.38C512.924 442.548 511.846 442.132 510.46 442.132C509.436 442.132 508.54 442.345 507.772 442.772C507.004 443.199 506.406 443.828 505.98 444.66C505.574 445.492 505.372 446.527 505.372 447.764V456.5H502.3V447.092C502.3 445.449 501.916 444.212 501.148 443.38C500.401 442.548 499.324 442.132 497.916 442.132C496.913 442.132 496.028 442.345 495.26 442.772C494.492 443.199 493.894 443.828 493.468 444.66C493.041 445.492 492.828 446.527 492.828 447.764V456.5H489.756V439.54H492.7V444.052L492.22 442.9C492.753 441.791 493.574 440.927 494.684 440.308C495.793 439.689 497.084 439.38 498.556 439.38C500.177 439.38 501.574 439.785 502.748 440.596C503.921 441.385 504.689 442.591 505.052 444.212L503.804 443.7C504.316 442.399 505.212 441.353 506.492 440.564C507.772 439.775 509.265 439.38 510.972 439.38ZM530.832 456.692C529.126 456.692 527.611 456.319 526.288 455.572C524.966 454.825 523.92 453.801 523.152 452.5C522.384 451.177 522 449.684 522 448.02C522 446.335 522.384 444.841 523.152 443.54C523.92 442.239 524.966 441.225 526.288 440.5C527.611 439.753 529.126 439.38 530.832 439.38C532.518 439.38 534.022 439.753 535.344 440.5C536.688 441.225 537.734 442.239 538.48 443.54C539.248 444.82 539.632 446.313 539.632 448.02C539.632 449.705 539.248 451.199 538.48 452.5C537.734 453.801 536.688 454.825 535.344 455.572C534.022 456.319 532.518 456.692 530.832 456.692ZM530.832 454.004C531.92 454.004 532.891 453.759 533.744 453.268C534.619 452.777 535.302 452.084 535.792 451.188C536.283 450.271 536.528 449.215 536.528 448.02C536.528 446.804 536.283 445.759 535.792 444.884C535.302 443.988 534.619 443.295 533.744 442.804C532.891 442.313 531.92 442.068 530.832 442.068C529.744 442.068 528.774 442.313 527.92 442.804C527.067 443.295 526.384 443.988 525.872 444.884C525.36 445.759 525.104 446.804 525.104 448.02C525.104 449.215 525.36 450.271 525.872 451.188C526.384 452.084 527.067 452.777 527.92 453.268C528.774 453.759 529.744 454.004 530.832 454.004ZM552.937 439.38C554.323 439.38 555.539 439.647 556.585 440.18C557.651 440.713 558.483 441.524 559.081 442.612C559.678 443.7 559.977 445.076 559.977 446.74V456.5H556.905V447.092C556.905 445.449 556.499 444.212 555.689 443.38C554.899 442.548 553.779 442.132 552.329 442.132C551.241 442.132 550.291 442.345 549.481 442.772C548.67 443.199 548.041 443.828 547.593 444.66C547.166 445.492 546.953 446.527 546.953 447.764V456.5H543.881V439.54H546.825V444.116L546.345 442.9C546.899 441.791 547.753 440.927 548.905 440.308C550.057 439.689 551.401 439.38 552.937 439.38ZM571.486 456.692C569.779 456.692 568.457 456.233 567.518 455.316C566.579 454.399 566.11 453.087 566.11 451.38V435.828H569.182V451.252C569.182 452.169 569.406 452.873 569.854 453.364C570.323 453.855 570.985 454.1 571.838 454.1C572.798 454.1 573.598 453.833 574.238 453.3L575.198 455.508C574.729 455.913 574.163 456.212 573.502 456.404C572.862 456.596 572.19 456.692 571.486 456.692ZM563.23 442.068V439.54H574.046V442.068H563.23ZM587.954 456.5V434.1H596.69C598.652 434.1 600.327 434.409 601.714 435.028C603.1 435.647 604.167 436.543 604.914 437.716C605.66 438.889 606.034 440.287 606.034 441.908C606.034 443.529 605.66 444.927 604.914 446.1C604.167 447.252 603.1 448.148 601.714 448.788C600.327 449.407 598.652 449.716 596.69 449.716H589.714L591.154 448.212V456.5H587.954ZM591.154 448.532L589.714 446.932H596.594C598.642 446.932 600.188 446.495 601.234 445.62C602.3 444.745 602.834 443.508 602.834 441.908C602.834 440.308 602.3 439.071 601.234 438.196C600.188 437.321 598.642 436.884 596.594 436.884H589.714L591.154 435.284V448.532ZM610.6 456.5V432.756H613.672V456.5H610.6ZM630.065 456.5V452.916L629.905 452.244V446.132C629.905 444.831 629.521 443.828 628.753 443.124C628.006 442.399 626.876 442.036 625.361 442.036C624.358 442.036 623.377 442.207 622.417 442.548C621.457 442.868 620.646 443.305 619.985 443.86L618.705 441.556C619.58 440.852 620.625 440.319 621.841 439.956C623.078 439.572 624.369 439.38 625.713 439.38C628.038 439.38 629.83 439.945 631.089 441.076C632.348 442.207 632.977 443.935 632.977 446.26V456.5H630.065ZM624.497 456.692C623.238 456.692 622.129 456.479 621.169 456.052C620.23 455.625 619.505 455.039 618.993 454.292C618.481 453.524 618.225 452.66 618.225 451.7C618.225 450.783 618.438 449.951 618.865 449.204C619.313 448.457 620.028 447.86 621.009 447.412C622.012 446.964 623.356 446.74 625.041 446.74H630.417V448.948H625.169C623.633 448.948 622.598 449.204 622.065 449.716C621.532 450.228 621.265 450.847 621.265 451.572C621.265 452.404 621.596 453.076 622.257 453.588C622.918 454.079 623.836 454.324 625.009 454.324C626.161 454.324 627.164 454.068 628.017 453.556C628.892 453.044 629.521 452.297 629.905 451.316L630.513 453.428C630.108 454.431 629.393 455.231 628.369 455.828C627.345 456.404 626.054 456.692 624.497 456.692ZM639.086 462.9C638.275 462.9 637.486 462.761 636.718 462.484C635.95 462.228 635.288 461.844 634.733 461.332L636.046 459.028C636.472 459.433 636.942 459.743 637.454 459.956C637.966 460.169 638.51 460.276 639.086 460.276C639.832 460.276 640.451 460.084 640.942 459.7C641.432 459.316 641.891 458.633 642.318 457.652L643.374 455.316L643.694 454.932L650.35 439.54H653.358L645.134 458.196C644.643 459.391 644.088 460.329 643.47 461.012C642.872 461.695 642.211 462.175 641.486 462.452C640.76 462.751 639.96 462.9 639.086 462.9ZM643.118 457.044L635.373 439.54H638.574L645.166 454.644L643.118 457.044Z" fill="white"/>
<path d="M721.608 452.351C721.608 545.476 643.298 621 546.658 621C450.018 621 371.708 545.476 371.708 452.351C371.708 359.226 450.018 283.702 546.658 283.702C643.298 283.702 721.608 359.226 721.608 452.351Z" fill="white" fill-opacity="0.1" stroke="white"/>
</g>
<defs>
<clipPath id="clip0_45_274">
<rect width="973" height="835" fill="white" transform="translate(0 0.5)"/>
</clipPath>
</defs>
</svg>
