<svg width="973" height="835" viewBox="0 0 973 835" fill="none" xmlns="http://www.w3.org/2000/svg">
<path d="M461.345 5.07851L953.386 190.156C964.885 194.482 972.5 205.482 972.5 217.768V805C972.5 821.292 959.292 834.5 943 834.5H542.382C537.877 834.5 533.431 833.468 529.386 831.483L100.275 620.895C92.239 616.952 86.4285 609.573 84.4792 600.836L5.59443 247.278C2.64407 234.055 9.08027 220.521 21.1999 214.465L437.773 6.30113C445.118 2.63083 453.66 2.18777 461.345 5.07851Z" stroke="#2B6DEB"/>
<path d="M356.561 252L348.433 240.96L351.025 239.36L360.209 252H356.561ZM341.489 252V229.6H344.625V252H341.489ZM343.665 242.144V239.328H350.929V242.144H343.665ZM351.313 241.152L348.369 240.704L356.401 229.6H359.825L351.313 241.152ZM360.536 251.968L360.728 249.376C360.877 249.397 361.016 249.419 361.144 249.44C361.272 249.461 361.389 249.472 361.496 249.472C362.179 249.472 362.712 249.237 363.096 248.768C363.501 248.299 363.8 247.68 363.992 246.912C364.184 246.123 364.323 245.237 364.408 244.256C364.493 243.275 364.557 242.293 364.6 241.312L364.888 235.04H377.912V252H374.84V236.832L375.576 237.728H366.872L367.576 236.8L367.352 241.504C367.288 242.997 367.171 244.395 367 245.696C366.829 246.997 366.563 248.139 366.2 249.12C365.859 250.101 365.379 250.869 364.76 251.424C364.163 251.979 363.384 252.256 362.424 252.256C362.147 252.256 361.848 252.224 361.528 252.16C361.229 252.117 360.899 252.053 360.536 251.968ZM383.852 252V235.04H386.924V247.392L397.324 235.04H400.108V252H397.036V239.648L386.668 252H383.852ZM413.623 252.192C411.809 252.192 410.209 251.819 408.823 251.072C407.457 250.325 406.391 249.301 405.623 248C404.876 246.699 404.503 245.205 404.503 243.52C404.503 241.835 404.865 240.341 405.591 239.04C406.337 237.739 407.351 236.725 408.631 236C409.932 235.253 411.393 234.88 413.015 234.88C414.657 234.88 416.108 235.243 417.367 235.968C418.625 236.693 419.607 237.717 420.311 239.04C421.036 240.341 421.399 241.867 421.399 243.616C421.399 243.744 421.388 243.893 421.367 244.064C421.367 244.235 421.356 244.395 421.335 244.544H406.903V242.336H419.735L418.487 243.104C418.508 242.016 418.284 241.045 417.815 240.192C417.345 239.339 416.695 238.677 415.863 238.208C415.052 237.717 414.103 237.472 413.015 237.472C411.948 237.472 410.999 237.717 410.167 238.208C409.335 238.677 408.684 239.349 408.215 240.224C407.745 241.077 407.511 242.059 407.511 243.168V243.68C407.511 244.811 407.767 245.824 408.279 246.72C408.812 247.595 409.548 248.277 410.487 248.768C411.425 249.259 412.503 249.504 413.719 249.504C414.721 249.504 415.628 249.333 416.439 248.992C417.271 248.651 417.996 248.139 418.615 247.456L420.311 249.44C419.543 250.336 418.583 251.019 417.431 251.488C416.3 251.957 415.031 252.192 413.623 252.192ZM426.164 252V235.04H429.236V242.24H438.9V235.04H441.972V252H438.9V244.896H429.236V252H426.164ZM451.306 252V236.928L452.074 237.728H445.098V235.04H460.586V237.728H453.642L454.378 236.928V252H451.306Z" fill="#2B6DEB"/>
<path d="M575.4 260.149C575.4 353.274 497.09 428.798 400.45 428.798C303.81 428.798 225.5 353.274 225.5 260.149C225.5 167.024 303.81 91.5 400.45 91.5C497.09 91.5 575.4 167.024 575.4 260.149Z" fill="#2B6DEB" fill-opacity="0.1" stroke="#2B6DEB"/>
<path d="M187.488 452V429.6H206.784V452H203.648V431.552L204.416 432.384H189.856L190.656 431.552V452H187.488ZM223.657 452V448.416L223.497 447.744V441.632C223.497 440.331 223.113 439.328 222.345 438.624C221.599 437.899 220.468 437.536 218.953 437.536C217.951 437.536 216.969 437.707 216.009 438.048C215.049 438.368 214.239 438.805 213.577 439.36L212.297 437.056C213.172 436.352 214.217 435.819 215.433 435.456C216.671 435.072 217.961 434.88 219.305 434.88C221.631 434.88 223.423 435.445 224.681 436.576C225.94 437.707 226.569 439.435 226.569 441.76V452H223.657ZM218.089 452.192C216.831 452.192 215.721 451.979 214.761 451.552C213.823 451.125 213.097 450.539 212.585 449.792C212.073 449.024 211.817 448.16 211.817 447.2C211.817 446.283 212.031 445.451 212.457 444.704C212.905 443.957 213.62 443.36 214.601 442.912C215.604 442.464 216.948 442.24 218.633 442.24H224.009V444.448H218.761C217.225 444.448 216.191 444.704 215.657 445.216C215.124 445.728 214.857 446.347 214.857 447.072C214.857 447.904 215.188 448.576 215.849 449.088C216.511 449.579 217.428 449.824 218.601 449.824C219.753 449.824 220.756 449.568 221.609 449.056C222.484 448.544 223.113 447.797 223.497 446.816L224.105 448.928C223.7 449.931 222.985 450.731 221.961 451.328C220.937 451.904 219.647 452.192 218.089 452.192ZM241.093 452.192C239.685 452.192 238.394 451.872 237.221 451.232C236.069 450.571 235.141 449.6 234.437 448.32C233.754 447.04 233.413 445.44 233.413 443.52C233.413 441.6 233.744 440 234.405 438.72C235.088 437.44 236.005 436.48 237.157 435.84C238.33 435.2 239.642 434.88 241.093 434.88C242.757 434.88 244.229 435.243 245.509 435.968C246.789 436.693 247.802 437.707 248.549 439.008C249.296 440.288 249.669 441.792 249.669 443.52C249.669 445.248 249.296 446.763 248.549 448.064C247.802 449.365 246.789 450.379 245.509 451.104C244.229 451.829 242.757 452.192 241.093 452.192ZM232.101 458.208V435.04H235.045V439.616L234.853 443.552L235.173 447.488V458.208H232.101ZM240.837 449.504C241.925 449.504 242.896 449.259 243.749 448.768C244.624 448.277 245.306 447.584 245.797 446.688C246.309 445.771 246.565 444.715 246.565 443.52C246.565 442.304 246.309 441.259 245.797 440.384C245.306 439.488 244.624 438.795 243.749 438.304C242.896 437.813 241.925 437.568 240.837 437.568C239.77 437.568 238.8 437.813 237.925 438.304C237.072 438.795 236.389 439.488 235.877 440.384C235.386 441.259 235.141 442.304 235.141 443.52C235.141 444.715 235.386 445.771 235.877 446.688C236.389 447.584 237.072 448.277 237.925 448.768C238.8 449.259 239.77 449.504 240.837 449.504ZM256.867 452V436.928L257.635 437.728H250.659V435.04H266.147V437.728H259.203L259.939 436.928V452H256.867ZM269.289 452V435.04H272.361V442.24H282.025V435.04H285.097V452H282.025V444.896H272.361V452H269.289ZM298.622 452.192C296.808 452.192 295.208 451.819 293.822 451.072C292.456 450.325 291.39 449.301 290.622 448C289.875 446.699 289.502 445.205 289.502 443.52C289.502 441.835 289.864 440.341 290.59 439.04C291.336 437.739 292.35 436.725 293.63 436C294.931 435.253 296.392 434.88 298.014 434.88C299.656 434.88 301.107 435.243 302.366 435.968C303.624 436.693 304.606 437.717 305.31 439.04C306.035 440.341 306.398 441.867 306.398 443.616C306.398 443.744 306.387 443.893 306.366 444.064C306.366 444.235 306.355 444.395 306.334 444.544H291.902V442.336H304.734L303.486 443.104C303.507 442.016 303.283 441.045 302.814 440.192C302.344 439.339 301.694 438.677 300.862 438.208C300.051 437.717 299.102 437.472 298.014 437.472C296.947 437.472 295.998 437.717 295.166 438.208C294.334 438.677 293.683 439.349 293.214 440.224C292.744 441.077 292.51 442.059 292.51 443.168V443.68C292.51 444.811 292.766 445.824 293.278 446.72C293.811 447.595 294.547 448.277 295.486 448.768C296.424 449.259 297.502 449.504 298.718 449.504C299.72 449.504 300.627 449.333 301.438 448.992C302.27 448.651 302.995 448.139 303.614 447.456L305.31 449.44C304.542 450.336 303.582 451.019 302.43 451.488C301.299 451.957 300.03 452.192 298.622 452.192ZM320.156 452.192C318.748 452.192 317.457 451.872 316.284 451.232C315.132 450.571 314.204 449.6 313.5 448.32C312.817 447.04 312.476 445.44 312.476 443.52C312.476 441.6 312.806 440 313.468 438.72C314.15 437.44 315.068 436.48 316.22 435.84C317.393 435.2 318.705 434.88 320.156 434.88C321.82 434.88 323.292 435.243 324.572 435.968C325.852 436.693 326.865 437.707 327.612 439.008C328.358 440.288 328.732 441.792 328.732 443.52C328.732 445.248 328.358 446.763 327.612 448.064C326.865 449.365 325.852 450.379 324.572 451.104C323.292 451.829 321.82 452.192 320.156 452.192ZM311.164 458.208V435.04H314.108V439.616L313.916 443.552L314.236 447.488V458.208H311.164ZM319.9 449.504C320.988 449.504 321.958 449.259 322.812 448.768C323.686 448.277 324.369 447.584 324.86 446.688C325.372 445.771 325.628 444.715 325.628 443.52C325.628 442.304 325.372 441.259 324.86 440.384C324.369 439.488 323.686 438.795 322.812 438.304C321.958 437.813 320.988 437.568 319.9 437.568C318.833 437.568 317.862 437.813 316.988 438.304C316.134 438.795 315.452 439.488 314.94 440.384C314.449 441.259 314.204 442.304 314.204 443.52C314.204 444.715 314.449 445.771 314.94 446.688C315.452 447.584 316.134 448.277 316.988 448.768C317.862 449.259 318.833 449.504 319.9 449.504Z" fill="#2B6DEB"/>
<path d="M432.7 451.851C432.7 544.976 354.39 620.5 257.75 620.5C161.11 620.5 82.7998 544.976 82.7998 451.851C82.7998 358.726 161.11 283.202 257.75 283.202C354.39 283.202 432.7 358.726 432.7 451.851Z" fill="#2B6DEB" fill-opacity="0.1" stroke="#2B6DEB"/>
<path d="M447.36 456V433.6H456.096C458.059 433.6 459.733 433.909 461.12 434.528C462.507 435.147 463.573 436.043 464.32 437.216C465.067 438.389 465.44 439.787 465.44 441.408C465.44 443.029 465.067 444.427 464.32 445.6C463.573 446.752 462.507 447.637 461.12 448.256C459.733 448.875 458.059 449.184 456.096 449.184H449.12L450.56 447.712V456H447.36ZM462.336 456L456.64 447.872H460.064L465.824 456H462.336ZM450.56 448.032L449.12 446.464H456C458.048 446.464 459.595 446.027 460.64 445.152C461.707 444.256 462.24 443.008 462.24 441.408C462.24 439.808 461.707 438.571 460.64 437.696C459.595 436.821 458.048 436.384 456 436.384H449.12L450.56 434.784V448.032ZM477.714 456.192C475.901 456.192 474.301 455.819 472.914 455.072C471.549 454.325 470.482 453.301 469.714 452C468.967 450.699 468.594 449.205 468.594 447.52C468.594 445.835 468.957 444.341 469.682 443.04C470.429 441.739 471.442 440.725 472.722 440C474.023 439.253 475.485 438.88 477.106 438.88C478.749 438.88 480.199 439.243 481.458 439.968C482.717 440.693 483.698 441.717 484.402 443.04C485.127 444.341 485.49 445.867 485.49 447.616C485.49 447.744 485.479 447.893 485.458 448.064C485.458 448.235 485.447 448.395 485.426 448.544H470.994V446.336H483.826L482.578 447.104C482.599 446.016 482.375 445.045 481.906 444.192C481.437 443.339 480.786 442.677 479.954 442.208C479.143 441.717 478.194 441.472 477.106 441.472C476.039 441.472 475.09 441.717 474.258 442.208C473.426 442.677 472.775 443.349 472.306 444.224C471.837 445.077 471.602 446.059 471.602 447.168V447.68C471.602 448.811 471.858 449.824 472.37 450.72C472.903 451.595 473.639 452.277 474.578 452.768C475.517 453.259 476.594 453.504 477.81 453.504C478.813 453.504 479.719 453.333 480.53 452.992C481.362 452.651 482.087 452.139 482.706 451.456L484.402 453.44C483.634 454.336 482.674 455.019 481.522 455.488C480.391 455.957 479.122 456.192 477.714 456.192ZM510.972 438.88C512.337 438.88 513.542 439.147 514.588 439.68C515.633 440.213 516.444 441.024 517.02 442.112C517.617 443.2 517.916 444.576 517.916 446.24V456H514.844V446.592C514.844 444.949 514.46 443.712 513.692 442.88C512.924 442.048 511.846 441.632 510.46 441.632C509.436 441.632 508.54 441.845 507.772 442.272C507.004 442.699 506.406 443.328 505.98 444.16C505.574 444.992 505.372 446.027 505.372 447.264V456H502.3V446.592C502.3 444.949 501.916 443.712 501.148 442.88C500.401 442.048 499.324 441.632 497.916 441.632C496.913 441.632 496.028 441.845 495.26 442.272C494.492 442.699 493.894 443.328 493.468 444.16C493.041 444.992 492.828 446.027 492.828 447.264V456H489.756V439.04H492.7V443.552L492.22 442.4C492.753 441.291 493.574 440.427 494.684 439.808C495.793 439.189 497.084 438.88 498.556 438.88C500.177 438.88 501.574 439.285 502.748 440.096C503.921 440.885 504.689 442.091 505.052 443.712L503.804 443.2C504.316 441.899 505.212 440.853 506.492 440.064C507.772 439.275 509.265 438.88 510.972 438.88ZM530.832 456.192C529.126 456.192 527.611 455.819 526.288 455.072C524.966 454.325 523.92 453.301 523.152 452C522.384 450.677 522 449.184 522 447.52C522 445.835 522.384 444.341 523.152 443.04C523.92 441.739 524.966 440.725 526.288 440C527.611 439.253 529.126 438.88 530.832 438.88C532.518 438.88 534.022 439.253 535.344 440C536.688 440.725 537.734 441.739 538.48 443.04C539.248 444.32 539.632 445.813 539.632 447.52C539.632 449.205 539.248 450.699 538.48 452C537.734 453.301 536.688 454.325 535.344 455.072C534.022 455.819 532.518 456.192 530.832 456.192ZM530.832 453.504C531.92 453.504 532.891 453.259 533.744 452.768C534.619 452.277 535.302 451.584 535.792 450.688C536.283 449.771 536.528 448.715 536.528 447.52C536.528 446.304 536.283 445.259 535.792 444.384C535.302 443.488 534.619 442.795 533.744 442.304C532.891 441.813 531.92 441.568 530.832 441.568C529.744 441.568 528.774 441.813 527.92 442.304C527.067 442.795 526.384 443.488 525.872 444.384C525.36 445.259 525.104 446.304 525.104 447.52C525.104 448.715 525.36 449.771 525.872 450.688C526.384 451.584 527.067 452.277 527.92 452.768C528.774 453.259 529.744 453.504 530.832 453.504ZM552.937 438.88C554.323 438.88 555.539 439.147 556.585 439.68C557.651 440.213 558.483 441.024 559.081 442.112C559.678 443.2 559.977 444.576 559.977 446.24V456H556.905V446.592C556.905 444.949 556.499 443.712 555.689 442.88C554.899 442.048 553.779 441.632 552.329 441.632C551.241 441.632 550.291 441.845 549.481 442.272C548.67 442.699 548.041 443.328 547.593 444.16C547.166 444.992 546.953 446.027 546.953 447.264V456H543.881V439.04H546.825V443.616L546.345 442.4C546.899 441.291 547.753 440.427 548.905 439.808C550.057 439.189 551.401 438.88 552.937 438.88ZM571.486 456.192C569.779 456.192 568.457 455.733 567.518 454.816C566.579 453.899 566.11 452.587 566.11 450.88V435.328H569.182V450.752C569.182 451.669 569.406 452.373 569.854 452.864C570.323 453.355 570.985 453.6 571.838 453.6C572.798 453.6 573.598 453.333 574.238 452.8L575.198 455.008C574.729 455.413 574.163 455.712 573.502 455.904C572.862 456.096 572.19 456.192 571.486 456.192ZM563.23 441.568V439.04H574.046V441.568H563.23ZM587.954 456V433.6H596.69C598.652 433.6 600.327 433.909 601.714 434.528C603.1 435.147 604.167 436.043 604.914 437.216C605.66 438.389 606.034 439.787 606.034 441.408C606.034 443.029 605.66 444.427 604.914 445.6C604.167 446.752 603.1 447.648 601.714 448.288C600.327 448.907 598.652 449.216 596.69 449.216H589.714L591.154 447.712V456H587.954ZM591.154 448.032L589.714 446.432H596.594C598.642 446.432 600.188 445.995 601.234 445.12C602.3 444.245 602.834 443.008 602.834 441.408C602.834 439.808 602.3 438.571 601.234 437.696C600.188 436.821 598.642 436.384 596.594 436.384H589.714L591.154 434.784V448.032ZM610.6 456V432.256H613.672V456H610.6ZM630.065 456V452.416L629.905 451.744V445.632C629.905 444.331 629.521 443.328 628.753 442.624C628.006 441.899 626.876 441.536 625.361 441.536C624.358 441.536 623.377 441.707 622.417 442.048C621.457 442.368 620.646 442.805 619.985 443.36L618.705 441.056C619.58 440.352 620.625 439.819 621.841 439.456C623.078 439.072 624.369 438.88 625.713 438.88C628.038 438.88 629.83 439.445 631.089 440.576C632.348 441.707 632.977 443.435 632.977 445.76V456H630.065ZM624.497 456.192C623.238 456.192 622.129 455.979 621.169 455.552C620.23 455.125 619.505 454.539 618.993 453.792C618.481 453.024 618.225 452.16 618.225 451.2C618.225 450.283 618.438 449.451 618.865 448.704C619.313 447.957 620.028 447.36 621.009 446.912C622.012 446.464 623.356 446.24 625.041 446.24H630.417V448.448H625.169C623.633 448.448 622.598 448.704 622.065 449.216C621.532 449.728 621.265 450.347 621.265 451.072C621.265 451.904 621.596 452.576 622.257 453.088C622.918 453.579 623.836 453.824 625.009 453.824C626.161 453.824 627.164 453.568 628.017 453.056C628.892 452.544 629.521 451.797 629.905 450.816L630.513 452.928C630.108 453.931 629.393 454.731 628.369 455.328C627.345 455.904 626.054 456.192 624.497 456.192ZM639.086 462.4C638.275 462.4 637.486 462.261 636.718 461.984C635.95 461.728 635.288 461.344 634.733 460.832L636.046 458.528C636.472 458.933 636.942 459.243 637.454 459.456C637.966 459.669 638.51 459.776 639.086 459.776C639.832 459.776 640.451 459.584 640.942 459.2C641.432 458.816 641.891 458.133 642.318 457.152L643.374 454.816L643.694 454.432L650.35 439.04H653.358L645.134 457.696C644.643 458.891 644.088 459.829 643.47 460.512C642.872 461.195 642.211 461.675 641.486 461.952C640.76 462.251 639.96 462.4 639.086 462.4ZM643.118 456.544L635.373 439.04H638.574L645.166 454.144L643.118 456.544Z" fill="#2B6DEB"/>
<path d="M721.608 451.851C721.608 544.976 643.298 620.5 546.658 620.5C450.018 620.5 371.708 544.976 371.708 451.851C371.708 358.726 450.018 283.202 546.658 283.202C643.298 283.202 721.608 358.726 721.608 451.851Z" fill="#2B6DEB" fill-opacity="0.1" stroke="#2B6DEB"/>
</svg>
