<?xml version="1.0" encoding="UTF-8"?>
<svg xmlns="http://www.w3.org/2000/svg" viewBox="0 0 666.94 402.17">
  <defs>
    <style>
      .cls-1 {
        fill: #fff;
      }

      .cls-2 {
        fill: #fafafa;
      }

      .cls-3 {
        opacity: .6;
      }

      .cls-4 {
        fill: #455a64;
      }

      .cls-5 {
        opacity: .2;
      }

      .cls-6 {
        fill: #e8505b;
      }

      .cls-7 {
        fill: #eb996e;
      }

      .cls-8 {
        opacity: .3;
      }

      .cls-9 {
        opacity: .78;
      }

      .cls-10 {
        fill: #ffbe9d;
      }

      .cls-11 {
        fill: #263238;
      }
    </style>
  </defs>
  <g id="Credit_Card" data-name="Credit Card">
    <g>
      <path class="cls-6" d="m328.48,305.63l-154.79-163.73c-1.63-1.73-1.55-4.45.17-6.08l101.59-96.04c1.73-1.63,4.45-1.55,6.08.17l154.79,163.73c1.63,1.73,1.55,4.45-.17,6.08l-101.59,96.04c-1.73,1.63-4.45,1.56-6.08-.17Z"/>
      <g class="cls-8">
        <path d="m328.48,305.63l-154.79-163.73c-1.63-1.73-1.55-4.45.17-6.08l101.59-96.04c1.73-1.63,4.45-1.55,6.08.17l154.79,163.73c1.63,1.73,1.55,4.45-.17,6.08l-101.59,96.04c-1.73,1.63-4.45,1.56-6.08-.17Z"/>
      </g>
      <path class="cls-6" d="m435.19,202.49L282.66,41.15c-2.26-2.39-6.02-2.49-8.41-.24l-28.86,27.29c-.58.54-.86,1.34-.72,2.12,2.88,16.14,14.43,30.57,28.18,40.13,16.63,11.56,36.32,17.64,55.05,25.35,18.72,7.71,37.51,17.87,48.73,34.73,10.59,15.9,13.1,35.63,18.48,53.97,1.44,4.89,3.24,9.84,5.44,14.58.69,1.48,2.61,1.86,3.8.74l30.59-28.92c2.39-2.26,2.49-6.02.24-8.41Z"/>
      <g>
        <path class="cls-1" d="m280.41,88.11c-1.38,1.3-3.21.96-5.2-1.13l-3.9-4.13,7.98-7.54,3.69,3.9c1.89,1.99,2.02,3.81.78,4.98-.8.75-1.8.93-2.76.6.56,1.16.41,2.38-.59,3.32Zm-.77-9.65l-1.88,1.78,1.73,1.84c.85.9,1.63,1.09,2.26.5.63-.59.47-1.38-.38-2.28l-1.73-1.84Zm-.79,7.61c.67-.64.51-1.45-.4-2.41l-2.04-2.15-1.97,1.86,2.04,2.15c.91.96,1.69,1.19,2.37.54Z"/>
        <path class="cls-1" d="m286.23,95.2l-3.5-3.71-2.38.91-1.79-1.89,11.34-3.99,1.72,1.82-4.61,11.11-1.83-1.94,1.04-2.32Zm.85-1.91l1.86-4.15-4.25,1.62,2.39,2.53Z"/>
        <path class="cls-1" d="m302.7,100.07l-7.98,7.54-1.43-1.52,1.08-8.56-4.84,4.58-1.72-1.82,7.98-7.54,1.44,1.53-1.09,8.55,4.84-4.58,1.72,1.82Z"/>
        <path class="cls-1" d="m302.38,109.44l-2.13-.02-2.02,1.91-1.74-1.84,7.98-7.54,1.74,1.84-3.73,3.52h7.07s1.94,2.06,1.94,2.06l-6.68.06-1.12,7.68-2.04-2.15.72-5.52Z"/>
      </g>
      <g>
        <path class="cls-1" d="m245.82,117.98l-1.38-1.47-1.93,1.82-.71-.75,1.93-1.82-3.91-4.13.54-.51,8.52-.71.79.84-8.27.73,3.01,3.18,1.69-1.6.69.73-1.69,1.6,1.38,1.46-.67.63Z"/>
        <path class="cls-1" d="m251.08,123.19c-1.22,1.16-3.01,1.16-4.68-.61-1-1.06-1.59-2.42-1.55-3.53l.94-.2c-.05.94.4,2.12,1.3,3.07,1.15,1.21,2.35,1.35,3.26.49.88-.83.87-1.99-.42-3.35l-.49-.52.55-.52,4.46-.37-3.54-3.75.67-.63,4.45,4.71-.53.5-4.56.39c1.4,1.65,1.32,3.22.14,4.32Z"/>
        <path class="cls-1" d="m256.73,129.07c-1.24,1.18-3.04,1.23-4.73-.56-1-1.06-1.58-2.41-1.54-3.52l.94-.2c-.05.94.39,2.11,1.28,3.05,1.18,1.25,2.41,1.33,3.3.49.94-.89.97-2.03-.79-3.89l-1.47-1.56,4.03-3.09,3.79,4.01-.67.63-3.17-3.35-2.57,1.95.89.94c2.09,2.21,2.01,3.87.71,5.09Z"/>
        <path class="cls-1" d="m262.86,135.49c-1.37,1.3-3.27,1.05-4.61-.37-1.84-1.95-1.49-4.28.82-6.47,2.49-2.35,5.07-2.22,6.95-.23.62.66,1.09,1.39,1.25,2.11l-.89.27c-.1-.61-.49-1.2-1-1.75-1.49-1.58-3.47-1.64-5.46.24-.17.16-.37.37-.57.6,1.15-.4,2.41.04,3.37,1.05,1.38,1.45,1.48,3.28.14,4.55Zm-.72-.72c.96-.91.91-2.2-.16-3.33-1.06-1.12-2.47-1.23-3.38-.37-.81.76-.94,2.15.26,3.42,1,1.06,2.31,1.21,3.28.29Z"/>
        <path class="cls-1" d="m275.64,153.39l.65-3.92-3.96.42-.79-.84,4.88-.49.72-4.6.79.84-.59,3.69,3.72-.38.77.82-4.64.46-.75,4.87-.8-.85Z"/>
        <path class="cls-1" d="m280.92,158.97l.65-3.92-3.96.42-.79-.84,4.88-.49.72-4.6.79.84-.59,3.69,3.72-.38.77.82-4.64.46-.75,4.87-.8-.85Z"/>
        <path class="cls-1" d="m286.2,164.56l.65-3.92-3.96.42-.79-.84,4.88-.49.72-4.6.79.84-.59,3.69,3.72-.38.77.82-4.64.46-.75,4.87-.8-.85Z"/>
        <path class="cls-1" d="m291.49,170.15l.65-3.92-3.96.42-.79-.84,4.88-.49.72-4.6.79.84-.59,3.69,3.72-.38.77.82-4.64.46-.75,4.87-.8-.85Z"/>
        <path class="cls-1" d="m309.72,189.44l.65-3.92-3.96.42-.79-.84,4.88-.49.72-4.6.79.84-.59,3.69,3.72-.38.77.82-4.64.46-.75,4.87-.8-.85Z"/>
        <path class="cls-1" d="m315,195.03l.65-3.92-3.96.42-.79-.84,4.88-.49.72-4.6.79.84-.59,3.69,3.72-.38.77.82-4.64.46-.75,4.87-.8-.85Z"/>
        <path class="cls-1" d="m320.29,200.61l.65-3.92-3.96.42-.79-.84,4.88-.49.72-4.6.79.84-.59,3.69,3.72-.38.77.82-4.64.46-.75,4.87-.8-.85Z"/>
        <path class="cls-1" d="m325.57,206.2l.65-3.92-3.96.42-.79-.84,4.88-.49.72-4.6.79.84-.59,3.69,3.72-.38.77.82-4.64.46-.75,4.87-.8-.85Z"/>
        <path class="cls-1" d="m349.27,216.6l-7.32,6.92-.71-.75,6.65-6.29-1.63-1.73.67-.63,2.34,2.48Z"/>
        <path class="cls-1" d="m350.28,228.13c-1.22,1.16-3.01,1.16-4.68-.61-1-1.06-1.59-2.42-1.55-3.53l.94-.2c-.05.94.4,2.12,1.3,3.07,1.15,1.21,2.35,1.35,3.26.49.88-.83.87-1.99-.42-3.35l-.49-.52.55-.52,4.46-.37-3.54-3.75.67-.63,4.45,4.71-.53.5-4.56.39c1.4,1.65,1.32,3.21.14,4.32Z"/>
        <path class="cls-1" d="m356.99,235.58l-1.38-1.47-1.93,1.82-.71-.75,1.93-1.82-3.91-4.13.54-.51,8.52-.71.79.84-8.27.73,3.01,3.18,1.69-1.6.69.73-1.69,1.6,1.38,1.47-.67.63Z"/>
        <path class="cls-1" d="m361.07,242.41l-.67.63-4.86-5.14.53-.5,5.86.23c1.6.06,2.24-.25,2.74-.73.85-.8.81-1.89-.25-3.01-.81-.86-1.7-1.27-2.71-1.23l-.05-.97c1.2-.07,2.44.49,3.5,1.61,1.4,1.49,1.54,3.14.32,4.3-.7.66-1.54,1.04-3.43.96l-4.8-.18,3.81,4.03Z"/>
      </g>
      <g>
        <path class="cls-1" d="m219.12,124.06c1.05-1,2.57-.9,3.6.19.57.6.83,1.32.74,2.02l-.97-.07c.05-.49-.09-.92-.42-1.27-.62-.65-1.52-.68-2.18-.06-.66.62-.68,1.52-.06,2.18.33.35.75.51,1.25.49v.97c-.71.05-1.4-.24-1.98-.85-1.03-1.08-1.04-2.61.02-3.6Z"/>
        <path class="cls-1" d="m223.91,131.12l-1.53-1.62-1.04.4-.78-.83,4.97-1.75.76.8-2.02,4.87-.8-.85.46-1.02Zm.37-.84l.81-1.82-1.86.71,1.05,1.11Z"/>
        <path class="cls-1" d="m226.71,135.58l.34-1.59-.04-.04-.67-.7-.97.92-.76-.81,3.49-3.3,1.43,1.51c.88.93.95,1.98.17,2.72-.52.5-1.16.59-1.78.32l-.38,1.85-.82-.87Zm2.12-3.44l-.62-.66-1.22,1.15.62.66c.47.49.93.53,1.31.17.38-.36.37-.83-.09-1.32Z"/>
        <path class="cls-1" d="m228.16,136.43l.87-.3c.06.5.33,1.08.73,1.5.45.48.8.52,1.01.32.65-.62-1.72-2.22-.42-3.45.59-.56,1.54-.55,2.48.44.42.44.74.99.84,1.51l-.85.33c-.12-.5-.35-.92-.64-1.23-.45-.48-.81-.49-1.03-.29-.64.61,1.72,2.22.44,3.43-.58.55-1.54.54-2.49-.46-.52-.55-.89-1.27-.94-1.81Z"/>
        <path class="cls-1" d="m238.96,141.54l-3.49,3.3-.76-.81,1.43-1.35-1.5-1.59-1.43,1.35-.76-.81,3.49-3.3.76.81-1.38,1.3,1.5,1.59,1.38-1.3.76.81Z"/>
        <path class="cls-1" d="m237.79,143.81c1.04-.98,2.57-.9,3.62.2,1.04,1.1,1.04,2.63,0,3.62-1.04.99-2.58.89-3.61-.2-1.04-1.1-1.04-2.64,0-3.62Zm2.84,3.01c.66-.63.68-1.53.09-2.15-.59-.62-1.49-.66-2.15-.04-.66.63-.68,1.53-.08,2.15.59.62,1.49.66,2.15.04Z"/>
        <path class="cls-1" d="m243.74,146.6l.76.81-2.84,2.68,1.66,1.75-.66.62-2.42-2.56,3.49-3.3Z"/>
        <path class="cls-1" d="m246.59,149.62l1.5,1.59c1.08,1.14,1.13,2.58.08,3.58-1.06,1-2.49.87-3.57-.28l-1.5-1.59,3.49-3.3Zm-1.37,4.22c.66.69,1.5.76,2.17.12.67-.63.65-1.48,0-2.17l-.7-.74-2.17,2.05.7.74Z"/>
        <path class="cls-1" d="m250.21,159.14l-.65.61-2.56-2.71,3.49-3.3,2.5,2.64-.65.61-1.74-1.84-.76.72,1.53,1.62-.63.59-1.53-1.62-.81.76,1.8,1.9Z"/>
        <path class="cls-1" d="m252.28,162.63l.34-1.59-.04-.04-.67-.7-.97.92-.76-.81,3.49-3.3,1.43,1.51c.88.93.95,1.98.17,2.72-.52.5-1.16.59-1.78.32l-.38,1.85-.82-.87Zm2.12-3.44l-.62-.66-1.22,1.15.62.66c.47.49.93.53,1.31.17.38-.36.37-.83-.09-1.32Z"/>
      </g>
      <g>
        <path class="cls-1" d="m205.14,136.62l1.86-.12c-.14.83-.01,1.47.44,1.95.59.62,1.28.6,2.02-.1l3.2-3.03-2.24-2.37,1.25-1.18,3.7,3.91-4.37,4.13c-1.66,1.57-3.27,1.51-4.77-.08-.86-.9-1.26-2.03-1.09-3.12Z"/>
        <path class="cls-1" d="m210.44,142.24c.56-.53,1.31-.46,1.81.06.49.52.52,1.28-.04,1.81-.55.52-1.33.48-1.82-.04-.49-.52-.49-1.31.06-1.83Z"/>
        <path class="cls-1" d="m228.41,149.49l-8.82,4.16-1.58-1.67,3.16-5.79-6,2.78-1.57-1.66,4.64-8.58,1.53,1.62-3.3,5.99,6.23-2.89,1.36,1.44-3.32,6.05,6.25-2.94,1.41,1.49Z"/>
        <path class="cls-1" d="m229.04,150.15c.47-.45,1.19-.42,1.72.14.53.56.54,1.26.07,1.7-.5.47-1.22.44-1.75-.11-.53-.56-.52-1.28-.04-1.72Zm-1.39,1.66l1.42,1.5-5.17,4.89-1.42-1.5,5.17-4.89Z"/>
        <path class="cls-1" d="m232.35,152.85l1.42,1.5-7.14,6.75-1.42-1.5,7.14-6.75Z"/>
        <path class="cls-1" d="m235.08,155.74l1.42,1.5-7.14,6.75-1.42-1.5,7.14-6.75Z"/>
        <path class="cls-1" d="m237.24,158.83c.47-.45,1.19-.42,1.72.14.53.56.54,1.26.07,1.7-.5.47-1.22.44-1.75-.11-.53-.56-.52-1.28-.04-1.72Zm-1.39,1.66l1.42,1.5-5.17,4.89-1.42-1.5,5.17-4.89Z"/>
        <path class="cls-1" d="m240.7,170.06l-2.95,2.79-1.33-1.41.64-.61c-.73.17-1.49-.14-2.21-.89-1.15-1.21-1.15-2.57-.26-3.42.91-.86,2.16-.82,3.65.76l1.13,1.19c.64-.61.65-1.35-.11-2.16-.52-.55-1.24-.94-1.89-1.04l.54-1.53c.94.19,1.95.81,2.73,1.64,1.49,1.58,1.62,3.18.06,4.67Zm-2.74-.25l.53-.5-.97-1.03c-.66-.7-1.13-.68-1.48-.35-.38.35-.32.91.18,1.44.47.5,1.11.71,1.75.44Z"/>
        <path class="cls-1" d="m250.25,180.14l-2.96,2.8-1.42-1.5,2.73-2.58c.84-.79.87-1.53.29-2.14-.64-.67-1.52-.74-2.44.14l-2.6,2.46-1.42-1.5,2.73-2.58c.84-.79.88-1.51.29-2.14-.63-.66-1.51-.73-2.43.15l-2.6,2.46-1.42-1.5,5.17-4.89,1.35,1.43-.6.56c.81-.03,1.58.33,2.21.99.68.72.98,1.6.76,2.5.92-.09,1.87.29,2.61,1.07,1.16,1.23,1.29,2.79-.29,4.28Z"/>
        <path class="cls-1" d="m248.56,183.33l1.55-.52c.14.74.6,1.64,1.2,2.27.65.69,1.08.78,1.37.51.85-.8-2.97-3.11-.91-5.06.98-.93,2.51-.7,3.94.81.67.71,1.25,1.66,1.43,2.42l-1.54.51c-.19-.78-.58-1.38-1.02-1.86-.64-.67-1.12-.76-1.39-.51-.89.84,2.93,3.15.89,5.08-.96.91-2.49.66-3.95-.89-.83-.88-1.42-1.99-1.56-2.77Z"/>
      </g>
      <g>
        <path class="cls-1" d="m308.31,241.16c2.22-2.1,4.65-2.06,6.21-.41,1.57,1.66,1.47,4.08-.75,6.18-2.22,2.1-4.64,2.07-6.21.41-1.56-1.66-1.47-4.08.75-6.18Zm3.97,4.2c1.53-1.45,1.66-2.58.92-3.36-.73-.77-1.87-.71-3.4.74-1.53,1.45-1.65,2.59-.93,3.35.74.78,1.88.72,3.41-.73Z"/>
        <path class="cls-1" d="m318.49,254.41c-1.38,1.3-3.3.99-4.65-.43-1.75-1.86-1.68-4.11.49-6.17,2.33-2.2,4.95-2.02,6.87,0,.67.71,1.17,1.56,1.31,2.31l-1.69.51c-.11-.61-.43-1.13-.85-1.58-1.06-1.13-2.41-1.22-3.74-.05.77.02,1.51.4,2.17,1.1,1.23,1.3,1.36,3.1.1,4.3Zm-1.51-1.44c.62-.58.58-1.41-.07-2.1-.65-.68-1.52-.76-2.11-.21-.58.55-.59,1.38.12,2.13.63.66,1.45.76,2.06.18Z"/>
        <path class="cls-1" d="m327.43,251.91l1.26,1.34-12.06,5.39-1.26-1.34,12.06-5.39Z"/>
        <path class="cls-1" d="m326.58,264.68l-1.27,1.2-4.81-5.09,1.01-.95,4.91.28c1.13.06,1.58-.16,1.9-.47.53-.5.49-1.16-.18-1.87-.55-.58-1.23-.86-1.99-.76l-.34-1.83c1.25-.2,2.63.28,3.78,1.49,1.42,1.5,1.6,3.23.37,4.38-.65.62-1.42,1-3.19.88l-2.93-.17,2.74,2.89Z"/>
        <path class="cls-1" d="m333.06,271.25l-1.04-1.1-1.41,1.34-1.44-1.52,1.41-1.34-3.43-3.63,1.05-.99,7.27-.86,1.55,1.64-6.83.88,1.71,1.81,1.26-1.19,1.39,1.47-1.26,1.19,1.04,1.1-1.27,1.2Z"/>
      </g>
      <path class="cls-6" d="m364.65,187.96c3.79-5.84,2.31-13.6-2.79-18.34-1.59-1.48-3.41-2.69-5.31-3.49-4.87-2.03-11.33-.55-13.88,4.07-2.09,3.77-1.24,8.48.22,12.53,1.53,4.25,4.01,8.59,8.22,10.24,4.05,1.59,8.91.13,11.94-2.99.61-.62,1.14-1.31,1.61-2.03Z"/>
    </g>
  </g>
  <g id="Wallet">
    <g>
      <g>
        <rect class="cls-6" x="184.23" y="190.37" width="290.61" height="210.91" rx="17.44" ry="17.44"/>
        <path class="cls-11" d="m474.84,207.81s-.02-.21-.05-.63c-.04-.42-.02-1.05-.18-1.87-.23-1.63-.82-4.09-2.56-6.83-.88-1.35-2.03-2.77-3.57-4.04-1.54-1.26-3.45-2.39-5.69-3.12-.56-.19-1.15-.31-1.74-.47-.6-.12-1.22-.19-1.85-.3-.63-.03-1.28-.06-1.93-.09-.66,0-1.33,0-2.01,0-2.73,0-5.63,0-8.71.01-24.63.02-60.25.05-104.27.08-22.01,0-46.12.02-72,.03-12.94,0-26.33,0-40.11.01-6.89,0-13.89,0-20.98,0-1.77,0-3.55,0-5.33,0-1.79.02-3.57-.06-5.31.3-1.74.34-3.44.91-5.01,1.75-1.56.86-3,1.96-4.25,3.24-1.27,1.27-2.27,2.8-3.07,4.41-.79,1.62-1.35,3.37-1.56,5.17-.24,1.79-.16,3.64-.18,5.5,0,1.85,0,3.71,0,5.57,0,7.45,0,14.99,0,22.6,0,15.23,0,30.79,0,46.62,0,31.67,0,64.46,0,98.04,0,4.14,1.54,8.24,4.26,11.33,2.69,3.11,6.53,5.19,10.59,5.7,2.01.26,4.1.15,6.17.18,2.07,0,4.13,0,6.19,0,4.12,0,8.22,0,12.31,0,16.36,0,32.48,0,48.32,0,31.68,0,62.23.01,91.34.02,29.11,0,56.76.02,82.65.02,3.24,0,6.44,0,9.62,0,1.6.01,3.15-.02,4.69-.31,1.52-.32,3.02-.76,4.39-1.48.71-.3,1.34-.76,2-1.14.6-.47,1.26-.88,1.8-1.42,1.17-.99,2.12-2.19,2.98-3.43,1.64-2.54,2.65-5.47,2.78-8.44.11-11.99.04-23.54.07-34.54.03-44.02.06-79.64.08-104.26.02-12.31.04-21.86.05-28.35.01-3.24.02-5.71.03-7.37,0-1.66.03-2.51.03-2.51,0,0,.02.85.03,2.51,0,1.67.01,4.14.03,7.37.01,6.49.03,16.04.05,28.35.02,24.62.05,60.24.08,104.26-.02,11.01.06,22.53-.03,34.56-.13,3.04-1.16,6.04-2.84,8.64-.88,1.27-1.85,2.5-3.05,3.52-.56.55-1.23.97-1.85,1.46-.68.39-1.32.86-2.05,1.17-1.4.74-2.94,1.19-4.5,1.52-1.57.3-3.19.33-4.77.32-3.18,0-6.39,0-9.62,0-25.88,0-53.54.02-82.65.02-29.11,0-59.66,0-91.34.02-15.84,0-31.96,0-48.32,0-4.09,0-8.19,0-12.31,0-2.06,0-4.12,0-6.19,0-2.06-.02-4.14.09-6.24-.18-4.18-.53-8.14-2.67-10.91-5.87-2.8-3.18-4.39-7.4-4.39-11.67,0-33.58,0-66.37,0-98.04,0-15.83,0-31.39,0-46.62,0-7.62,0-15.15,0-22.6,0-1.86,0-3.72,0-5.57.01-1.85-.07-3.7.18-5.56.22-1.85.8-3.65,1.61-5.32.82-1.66,1.85-3.22,3.16-4.53,1.29-1.32,2.76-2.44,4.37-3.33,1.62-.86,3.37-1.45,5.15-1.8l1.35-.21,1.36-.07c.91-.05,1.79-.01,2.69-.02,1.78,0,3.56,0,5.33,0,7.09,0,14.08,0,20.98,0,13.79,0,27.17,0,40.11.01,25.88.01,49.99.02,72,.03,44.02.03,79.64.06,104.27.08,3.08,0,5.98,0,8.71.01.68,0,1.35,0,2.01,0,.66.03,1.31.07,1.95.1.63.1,1.26.18,1.86.3.59.17,1.19.28,1.75.48,2.26.75,4.18,1.89,5.73,3.17,1.54,1.29,2.69,2.73,3.57,4.09,1.73,2.77,2.31,5.25,2.52,6.88.15.82.12,1.45.15,1.87.02.42.02.63.02.63Z"/>
      </g>
      <g>
        <path class="cls-11" d="m464.66,203.37c0-.14,1.34-.26,3-.26s3,.12,3,.26-1.34.26-3,.26-3-.12-3-.26Z"/>
        <path class="cls-11" d="m440.18,203.37c0-.14,2.74-.26,6.12-.26s6.12.12,6.12.26-2.74.26-6.12.26-6.12-.12-6.12-.26Z"/>
        <path class="cls-11" d="m415.71,203.37c0-.14,2.74-.26,6.12-.26s6.12.12,6.12.26-2.74.26-6.12.26-6.12-.12-6.12-.26Z"/>
        <path class="cls-11" d="m391.23,203.37c0-.14,2.74-.26,6.12-.26s6.12.12,6.12.26-2.74.26-6.12.26-6.12-.12-6.12-.26Z"/>
        <path class="cls-11" d="m366.76,203.37c0-.14,2.74-.26,6.12-.26s6.12.12,6.12.26-2.74.26-6.12.26-6.12-.12-6.12-.26Z"/>
        <path class="cls-11" d="m342.28,203.37c0-.14,2.74-.26,6.12-.26s6.12.12,6.12.26-2.74.26-6.12.26-6.12-.12-6.12-.26Z"/>
        <path class="cls-11" d="m317.81,203.37c0-.14,2.74-.26,6.12-.26s6.12.12,6.12.26-2.74.26-6.12.26-6.12-.12-6.12-.26Z"/>
        <path class="cls-11" d="m293.33,203.37c0-.14,2.74-.26,6.12-.26s6.12.12,6.12.26-2.74.26-6.12.26-6.12-.12-6.12-.26Z"/>
        <path class="cls-11" d="m268.86,203.37c0-.14,2.74-.26,6.12-.26s6.12.12,6.12.26-2.74.26-6.12.26-6.12-.12-6.12-.26Z"/>
        <path class="cls-11" d="m244.38,203.37c0-.14,2.74-.26,6.12-.26s6.12.12,6.12.26-2.74.26-6.12.26-6.12-.12-6.12-.26Z"/>
        <path class="cls-11" d="m219.91,203.37c0-.14,2.74-.26,6.12-.26s6.12.12,6.12.26-2.74.26-6.12.26-6.12-.12-6.12-.26Z"/>
        <path class="cls-11" d="m201.67,209.37c-.14,0-.26-2.69-.26-6,.52-.52.15-.14.26-.26h.15s.15,0,.15,0h.3c.2,0,.4,0,.6,0,.38,0,.76.01,1.13.02.66.02,1.29.04,1.91.06,1.09.05,1.76.11,1.76.18s-.67.14-1.76.18c-.62.02-1.25.04-1.91.06-.37,0-.74.01-1.13.02-.2,0-.4,0-.6,0h-.3s-.15,0-.15,0h-.15c.12-.12-.26.26.26-.26,0,3.31-.12,6-.26,6Z"/>
        <path class="cls-11" d="m201.67,231.8c-.14,0-.26-2.51-.26-5.61s.12-5.61.26-5.61.26,2.51.26,5.61-.12,5.61-.26,5.61Z"/>
        <path class="cls-11" d="m201.67,254.23c-.14,0-.26-2.51-.26-5.61s.12-5.61.26-5.61.26,2.51.26,5.61-.12,5.61-.26,5.61Z"/>
        <path class="cls-11" d="m201.67,276.66c-.14,0-.26-2.51-.26-5.61s.12-5.61.26-5.61.26,2.51.26,5.61-.12,5.61-.26,5.61Z"/>
        <path class="cls-11" d="m201.67,299.08c-.14,0-.26-2.51-.26-5.61s.12-5.61.26-5.61.26,2.51.26,5.61-.12,5.61-.26,5.61Z"/>
        <path class="cls-11" d="m201.67,321.51c-.14,0-.26-2.51-.26-5.61s.12-5.61.26-5.61.26,2.51.26,5.61-.12,5.61-.26,5.61Z"/>
        <path class="cls-11" d="m201.67,343.94c-.14,0-.26-2.51-.26-5.61s.12-5.61.26-5.61.26,2.51.26,5.61-.12,5.61-.26,5.61Z"/>
        <path class="cls-11" d="m201.67,366.37c-.14,0-.26-2.51-.26-5.61s.12-5.61.26-5.61.26,2.51.26,5.61-.12,5.61-.26,5.61Z"/>
        <path class="cls-11" d="m207.67,383.58c0,.14-2.69.26-6,.26-.52-.52-.14-.15-.26-.26h0v-.08s0-.08,0-.08v-.15s0-.3,0-.3c0-.2,0-.4,0-.6,0-.38.01-.76.02-1.13.02-.66.04-1.29.06-1.91.05-1.09.11-1.76.18-1.76s.14.67.18,1.76c.02.62.04,1.25.06,1.91,0,.37.01.74.02,1.13,0,.2,0,.39,0,.6v.3s0,.15,0,.15v.08s0,.04,0,.04v.02h0v.02c-.12-.12.26.26-.26-.26,3.31,0,6,.12,6,.26Z"/>
        <path class="cls-11" d="m231.79,383.58c0,.14-2.7.26-6.03.26s-6.03-.12-6.03-.26,2.7-.26,6.03-.26,6.03.12,6.03.26Z"/>
        <path class="cls-11" d="m255.91,383.58c0,.14-2.7.26-6.03.26s-6.03-.12-6.03-.26,2.7-.26,6.03-.26,6.03.12,6.03.26Z"/>
        <path class="cls-11" d="m280.03,383.58c0,.14-2.7.26-6.03.26s-6.03-.12-6.03-.26,2.7-.26,6.03-.26,6.03.12,6.03.26Z"/>
        <path class="cls-11" d="m304.15,383.58c0,.14-2.7.26-6.03.26s-6.03-.12-6.03-.26,2.7-.26,6.03-.26,6.03.12,6.03.26Z"/>
        <path class="cls-11" d="m328.27,383.58c0,.14-2.7.26-6.03.26s-6.03-.12-6.03-.26,2.7-.26,6.03-.26,6.03.12,6.03.26Z"/>
        <path class="cls-11" d="m352.39,383.58c0,.14-2.7.26-6.03.26s-6.03-.12-6.03-.26,2.7-.26,6.03-.26,6.03.12,6.03.26Z"/>
        <path class="cls-11" d="m376.51,383.58c0,.14-2.7.26-6.03.26s-6.03-.12-6.03-.26,2.7-.26,6.03-.26,6.03.12,6.03.26Z"/>
        <path class="cls-11" d="m400.64,383.58c0,.14-2.7.26-6.03.26s-6.03-.12-6.03-.26,2.7-.26,6.03-.26,6.03.12,6.03.26Z"/>
        <path class="cls-11" d="m424.76,383.58c0,.14-2.7.26-6.03.26s-6.03-.12-6.03-.26,2.7-.26,6.03-.26,6.03.12,6.03.26Z"/>
        <path class="cls-11" d="m448.88,383.58c0,.14-2.7.26-6.03.26s-6.03-.12-6.03-.26,2.7-.26,6.03-.26,6.03.12,6.03.26Z"/>
        <path class="cls-11" d="m466.94,383.58c0,.14-1.34.26-3,.26s-3-.12-3-.26,1.34-.26,3-.26,3,.12,3,.26Z"/>
      </g>
      <g class="cls-8">
        <path d="m284.51,307.34s.06,10-2.96,16.05-4.04,8.37-10.39,10.7c-6.35,2.33-86.92,11.16-86.92,11.16v-27.21l100.28-10.7Z"/>
      </g>
      <g class="cls-8">
        <path d="m283.07,269.64s.92-10.2-24.69-13.99c-29.29-4.34-74.14-9.66-74.14-9.66v19.31l98.83,4.34Z"/>
      </g>
      <g>
        <g>
          <rect class="cls-6" x="172.58" y="260.38" width="111.93" height="65.92" rx="14.31" ry="14.31"/>
          <path class="cls-11" d="m186.89,326.3s-.29,0-.86-.02c-.57,0-1.41-.1-2.49-.34-1.08-.22-2.38-.7-3.8-1.48-1.41-.79-2.92-1.97-4.22-3.63-1.28-1.66-2.42-3.8-2.84-6.34-.26-1.26-.23-2.62-.24-3.99,0-1.38,0-2.82-.01-4.31-.01-5.95-.02-12.73-.04-20.22,0-3.75-.04-7.66,0-11.76.11-4.13,2.13-8.42,5.74-11.1,1.78-1.34,3.9-2.33,6.18-2.71,1.13-.21,2.32-.25,3.46-.24,1.16,0,2.32,0,3.49,0,4.69,0,9.52,0,14.47-.01,19.81,0,41.58-.01,64.43-.02,1.45.03,2.9.23,4.29.64,1.38.44,2.69,1.07,3.89,1.86,1.18.82,2.24,1.8,3.15,2.9.9,1.11,1.61,2.35,2.17,3.66.54,1.31.85,2.7,1.02,4.1.1,1.41.06,2.78.07,4.15,0,2.74,0,5.46,0,8.15,0,5.39,0,10.68,0,15.87,0,2.59,0,5.16,0,7.69-.02,1.27.05,2.51-.05,3.8,0,.64-.15,1.26-.23,1.89-.15.61-.28,1.24-.5,1.83-1.59,4.81-5.77,8.43-10.42,9.47-.57.17-1.17.2-1.75.31-.59.05-1.18.07-1.76.09-1.16,0-2.3,0-3.44,0-2.28,0-4.52,0-6.72,0-8.81-.01-17.01-.02-24.5-.03-14.97-.03-27.09-.06-35.48-.08-4.18-.02-7.43-.04-9.65-.05-1.09-.01-1.93-.02-2.51-.03-.57,0-.85-.03-.85-.03,0,0,.29-.02.85-.03.58,0,1.42-.01,2.51-.03,2.22-.01,5.47-.03,9.65-.05,8.39-.02,20.51-.05,35.48-.08,7.49,0,15.69-.02,24.5-.03,2.2,0,4.44,0,6.72,0,2.28-.06,4.61.19,6.85-.4,4.5-1.02,8.54-4.53,10.07-9.18.87-2.31.75-4.82.75-7.36,0-2.54,0-5.1,0-7.69,0-5.18,0-10.48,0-15.87,0-2.69,0-5.41,0-8.15,0-1.37.03-2.76-.07-4.1-.16-1.35-.46-2.68-.98-3.95-.54-1.25-1.22-2.45-2.09-3.53-.88-1.06-1.9-2-3.04-2.79-1.16-.76-2.42-1.37-3.75-1.79-1.34-.4-2.73-.59-4.14-.62-22.85,0-44.63-.01-64.43-.02-4.95,0-9.78,0-14.47-.01-1.17,0-2.34,0-3.49,0-1.16-.01-2.28.03-3.39.23-2.21.36-4.27,1.32-6,2.62-3.51,2.59-5.49,6.75-5.6,10.77-.05,4.07-.02,8.01-.04,11.75-.01,7.49-.03,14.26-.04,20.22,0,1.49,0,2.92-.01,4.31,0,1.38-.03,2.71.22,3.95.4,2.5,1.51,4.62,2.76,6.26,1.27,1.65,2.75,2.82,4.13,3.62,1.4.78,2.68,1.28,3.75,1.51,1.07.25,1.9.37,2.47.39.56.04.85.07.85.07Z"/>
        </g>
        <g>
          <circle class="cls-11" cx="250.79" cy="295.82" r="23.96"/>
          <path class="cls-2" d="m256.94,315.4c-.06-.13,2.47-.64,5.71-2.99,1.61-1.16,3.35-2.83,4.84-5,1.49-2.16,2.69-4.86,3.18-7.85.45-3,.15-5.93-.59-8.45-.74-2.52-1.88-4.64-3.05-6.25-2.36-3.25-4.6-4.51-4.5-4.62,0-.01.15.06.39.22.24.17.63.39,1.06.75.9.68,2.11,1.81,3.34,3.42,1.23,1.61,2.43,3.76,3.22,6.33.79,2.57,1.12,5.58.65,8.67-.51,3.08-1.76,5.84-3.3,8.04-1.55,2.2-3.35,3.88-5.02,5.02-1.67,1.15-3.17,1.85-4.24,2.22-.52.21-.96.3-1.24.38-.29.08-.44.11-.44.09Z"/>
        </g>
      </g>
    </g>
  </g>
  <g id="Money">
    <g>
      <g>
        <g>
          <path class="cls-6" d="m625.89,142.24c2.17,24.29-15.81,45.75-40.15,47.93-24.35,2.18-45.85-15.75-48.02-40.04-2.17-24.29,15.8-45.75,40.15-47.93,24.35-2.18,45.85,15.75,48.02,40.04Z"/>
          <g class="cls-8">
            <path d="m615.3,142.13c-.2.03-.48-1.44-1.25-3.96-.78-2.51-2.13-6.12-4.8-9.95-1.33-1.91-2.98-3.86-4.99-5.71-2.03-1.82-4.39-3.56-7.11-4.95-1.36-.7-2.79-1.35-4.3-1.86-1.51-.53-3.08-.98-4.71-1.28-1.63-.3-3.31-.52-5.02-.57-1.71-.05-3.45.02-5.2.22-1.75.22-3.45.57-5.1,1.03-1.65.46-3.23,1.07-4.74,1.75-1.52.68-2.93,1.49-4.27,2.37-1.34.86-2.58,1.83-3.73,2.84-2.3,2.01-4.19,4.26-5.72,6.51-1.51,2.27-2.65,4.56-3.49,6.73-1.67,4.36-2.12,8.18-2.28,10.81-.14,2.64-.06,4.12-.27,4.14-.15.02-.57-1.43-.74-4.14-.15-2.7.02-6.73,1.56-11.41.77-2.33,1.87-4.82,3.41-7.28,1.55-2.45,3.5-4.91,5.93-7.12,1.21-1.11,2.52-2.17,3.95-3.12,1.43-.96,2.94-1.85,4.57-2.61,1.62-.75,3.32-1.43,5.1-1.93,1.78-.51,3.62-.89,5.5-1.13,1.89-.22,3.76-.29,5.61-.22,1.85.06,3.66.31,5.42.66,1.76.34,3.45.85,5.06,1.44,1.62.58,3.15,1.3,4.58,2.09,2.88,1.56,5.37,3.48,7.46,5.5,2.08,2.03,3.74,4.18,5.05,6.26,2.61,4.18,3.74,8.05,4.24,10.71.49,2.68.42,4.19.27,4.2Z"/>
          </g>
        </g>
        <g class="cls-8">
          <path d="m587.39,165.89l.61,5.84-5.22.54-.59-5.69c-5.2.22-10.32-.88-13.43-2.82l2.21-6.66c2.81,1.66,6.71,2.68,10.51,2.65l-.91-8.71c-5.94-.8-12.61-2.06-13.38-9.52-.57-5.53,2.95-10.7,11.09-12.49l-.6-5.79,5.22-.54.59,5.69c3.95-.09,7.86.55,10.92,2.08l-1.94,6.69c-2.82-1.24-5.62-1.84-8.27-1.88l.92,8.87c5.93.75,12.5,2.02,13.26,9.38.56,5.43-2.91,10.54-11,12.38Zm-7.62-22.52l-.77-7.41c-2.7.91-3.64,2.54-3.46,4.26.19,1.83,1.86,2.65,4.23,3.15Zm10.28,11.64c-.19-1.83-1.81-2.66-4.13-3.21l.75,7.2c2.55-.84,3.56-2.32,3.38-3.99Z"/>
        </g>
      </g>
      <path class="cls-11" d="m548.21,149.28s.03.09.07.27c.04.21.08.47.14.79.06.36.13.79.21,1.28.08.51.15,1.1.35,1.74.57,2.6,1.79,6.32,4.29,10.38,1.22,2.05,2.89,4.07,4.82,6.08.52.47,1.04.95,1.58,1.43.27.24.53.5.82.72.29.22.59.44.89.66.6.44,1.18.92,1.83,1.33.65.4,1.32.8,1.99,1.21,2.75,1.5,5.81,2.83,9.15,3.55,3.34.72,6.9.99,10.51.7,3.61-.38,7.06-1.29,10.21-2.61,3.16-1.32,5.92-3.19,8.35-5.16.59-.52,1.16-1.04,1.73-1.55.56-.52,1.04-1.11,1.56-1.65.25-.27.5-.55.75-.81.24-.28.45-.58.67-.86.44-.57.87-1.14,1.29-1.7,1.53-2.34,2.81-4.63,3.63-6.86,1.72-4.44,2.24-8.33,2.33-10.99.07-.67.03-1.26.02-1.77-.01-.5-.02-.94-.03-1.3,0-.33,0-.59,0-.8,0-.18,0-.27.02-.28s.02.09.04.27c.02.21.03.47.06.8.02.37.05.8.08,1.3.03.52.08,1.11.02,1.78-.03,2.68-.49,6.6-2.19,11.11-.81,2.27-2.08,4.6-3.62,6.97-.43.57-.86,1.14-1.3,1.73-.22.29-.43.6-.68.88-.25.27-.5.55-.76.83-.52.55-1.01,1.14-1.57,1.68-.58.52-1.16,1.05-1.75,1.58-2.46,2.02-5.25,3.92-8.46,5.27-3.2,1.35-6.7,2.27-10.37,2.66-3.67.29-7.29.02-10.67-.72-3.4-.74-6.5-2.1-9.28-3.63-.68-.42-1.35-.83-2.01-1.24-.65-.42-1.24-.92-1.85-1.36-.3-.23-.6-.45-.9-.68-.29-.23-.55-.5-.82-.74-.54-.5-1.07-.98-1.59-1.46-1.94-2.06-3.62-4.11-4.83-6.19-2.49-4.13-3.66-7.9-4.18-10.53-.18-.65-.23-1.24-.3-1.76-.06-.5-.12-.93-.16-1.3-.04-.33-.06-.59-.09-.8-.02-.18-.02-.27-.01-.27Z"/>
    </g>
    <g>
      <g>
        <g>
          <path class="cls-6" d="m563.51,272.76c-6.15,12.77-21.51,18.12-34.31,11.95-12.8-6.17-18.18-21.51-12.03-34.28,6.15-12.77,21.51-18.12,34.31-11.95,12.8,6.17,18.18,21.51,12.03,34.28Z"/>
          <g class="cls-8">
            <path d="m558.26,269.55c-.11-.05.19-.86.56-2.35.36-1.48.76-3.69.57-6.39-.1-1.35-.34-2.82-.79-4.33-.47-1.51-1.13-3.08-2.07-4.59-.47-.76-.99-1.5-1.59-2.21-.6-.71-1.24-1.41-1.97-2.04-.72-.64-1.49-1.25-2.33-1.78-.84-.54-1.73-1.02-2.66-1.44-.94-.41-1.89-.74-2.85-1.01-.96-.26-1.93-.43-2.89-.54-.96-.11-1.91-.13-2.84-.09-.93.03-1.83.14-2.71.3-1.75.32-3.36.88-4.79,1.54-1.43.68-2.68,1.49-3.75,2.32-2.13,1.68-3.49,3.45-4.35,4.71-.86,1.27-1.26,2.04-1.37,1.99-.08-.03.14-.88.87-2.29.73-1.39,2.02-3.35,4.18-5.23,1.08-.93,2.37-1.84,3.87-2.62,1.5-.76,3.21-1.41,5.08-1.79.93-.19,1.9-.33,2.9-.38,1-.05,2.02-.05,3.06.06,1.03.11,2.08.28,3.12.56,1.04.28,2.07.64,3.08,1.08,1.01.45,1.96.98,2.86,1.56.9.58,1.73,1.25,2.51,1.94.78.69,1.47,1.45,2.1,2.22.63.77,1.18,1.59,1.67,2.41.97,1.64,1.64,3.34,2.08,4.96.43,1.63.62,3.2.65,4.63.06,2.86-.53,5.13-1.07,6.61-.55,1.48-1.04,2.21-1.12,2.18Z"/>
          </g>
        </g>
        <g class="cls-8">
          <path d="m537.27,273.09l-1.44,3.1-2.76-1.28,1.4-3.01c-2.66-1.44-4.89-3.51-5.86-5.41l3.09-2.67c.91,1.67,2.55,3.34,4.45,4.45l2.14-4.62c-2.72-2.17-5.68-4.78-3.84-8.74,1.36-2.93,4.66-4.46,9.26-2.93l1.43-3.07,2.76,1.28-1.4,3.01c2,1.13,3.76,2.62,4.83,4.29l-2.96,2.76c-1.04-1.46-2.26-2.59-3.56-3.4l-2.18,4.7c2.74,2.14,5.63,4.73,3.82,8.63-1.34,2.88-4.59,4.39-9.18,2.9Zm2.91-13.5l1.82-3.93c-1.62-.35-2.57.18-3,1.1-.45.97.14,1.88,1.17,2.83Zm1.66,8.87c.45-.97-.11-1.87-1.1-2.83l-1.77,3.82c1.52.34,2.47-.1,2.88-.98Z"/>
        </g>
      </g>
      <path class="cls-11" d="m522.67,253.13s-.31.81-.8,2.28c-.47,1.47-.96,3.68-.91,6.44,0,1.38.24,2.88.61,4.45.45,1.55,1.03,3.19,1.94,4.76.92,1.56,2.05,3.12,3.49,4.47,1.44,1.35,3.13,2.53,5.01,3.46,1.9.88,3.88,1.45,5.84,1.73,1.96.28,3.88.18,5.68-.08,1.8-.27,3.44-.85,4.93-1.47,1.45-.7,2.77-1.46,3.85-2.32,2.18-1.69,3.6-3.46,4.45-4.75.84-1.3,1.22-2.07,1.27-2.05.02,0-.07.2-.25.57-.2.36-.42.93-.85,1.58-.8,1.34-2.2,3.17-4.39,4.93-1.08.9-2.41,1.69-3.89,2.42-1.52.66-3.19,1.26-5.03,1.55-1.84.28-3.81.4-5.82.11-2.01-.28-4.04-.87-6-1.77-1.93-.95-3.66-2.17-5.14-3.56-1.48-1.39-2.63-3-3.56-4.61-.93-1.62-1.51-3.3-1.95-4.89-.36-1.61-.57-3.15-.55-4.55,0-2.81.55-5.05,1.09-6.51.24-.74.54-1.28.7-1.66.17-.37.27-.56.29-.56Z"/>
    </g>
    <g>
      <g>
        <g>
          <path class="cls-6" d="m138.91,269.08c3.33,22.89-12.58,44.15-35.52,47.49-22.94,3.33-44.24-12.52-47.57-35.41-3.33-22.89,12.58-44.15,35.52-47.49,22.94-3.33,44.24,12.52,47.57,35.41Z"/>
          <g class="cls-8">
            <path d="m128.87,269.53c-.19.03-.53-1.34-1.39-3.69-.87-2.33-2.34-5.68-5.06-9.17-1.36-1.74-3.03-3.5-5.03-5.14-2.01-1.62-4.34-3.14-6.99-4.32-1.32-.6-2.71-1.13-4.17-1.54-1.46-.42-2.97-.77-4.53-.96-1.56-.2-3.16-.32-4.78-.28-1.62.04-3.27.2-4.91.48-1.64.3-3.24.72-4.78,1.24-1.54.52-3,1.18-4.4,1.91-1.4.72-2.7,1.57-3.92,2.46-1.23.89-2.35,1.87-3.38,2.88-2.08,2.02-3.74,4.25-5.07,6.46-1.31,2.23-2.27,4.46-2.95,6.56-1.35,4.22-1.58,7.86-1.59,10.35,0,2.5.16,3.91-.04,3.94-.14.03-.62-1.32-.92-3.89-.28-2.55-.33-6.37.88-10.89.61-2.25,1.52-4.66,2.85-7.08,1.34-2.4,3.06-4.83,5.24-7.05,1.09-1.11,2.27-2.18,3.58-3.16,1.3-.98,2.69-1.91,4.19-2.71,1.5-.8,3.07-1.52,4.73-2.1,1.66-.57,3.38-1.03,5.15-1.35,1.78-.3,3.55-.47,5.3-.5,1.75-.04,3.48.11,5.16.34,1.68.23,3.31.62,4.87,1.1,1.56.47,3.05,1.07,4.45,1.74,2.81,1.33,5.26,3.02,7.35,4.82,2.07,1.82,3.76,3.76,5.11,5.66,2.69,3.82,3.96,7.43,4.58,9.92.6,2.51.62,3.94.48,3.97Z"/>
          </g>
        </g>
        <g class="cls-8">
          <path d="m103.69,293.48l.88,5.5-4.91.79-.86-5.35c-4.91.48-9.82-.29-12.86-1.97l1.74-6.43c2.75,1.43,6.5,2.18,10.09,1.96l-1.31-8.21c-5.67-.45-12.05-1.29-13.17-8.32-.83-5.21,2.23-10.28,9.85-12.41l-.87-5.45,4.91-.79.86,5.36c3.73-.3,7.48.11,10.45,1.4l-1.49,6.44c-2.73-1.02-5.42-1.45-7.93-1.35l1.34,8.35c5.66.4,11.94,1.26,13.05,8.19.82,5.11-2.21,10.13-9.77,12.3Zm-8.39-20.93l-1.12-6.98c-2.51,1.01-3.31,2.6-3.05,4.22.28,1.72,1.9,2.42,4.17,2.76Zm10.35,10.49c-.28-1.72-1.85-2.42-4.08-2.83l1.09,6.78c2.37-.93,3.25-2.38,3-3.96Z"/>
        </g>
      </g>
      <path class="cls-11" d="m65.72,279.8s.03.08.08.25c.05.2.1.44.17.74.07.34.16.74.27,1.21.11.48.2,1.03.42,1.63.68,2.43,2.03,5.89,4.61,9.6,1.26,1.87,2.95,3.7,4.89,5.51.51.42,1.04.84,1.57,1.27.27.21.53.44.81.64.29.19.58.39.88.58.59.38,1.17.81,1.8,1.17.64.34,1.29.69,1.94,1.04,2.68,1.28,5.64,2.38,8.85,2.89,3.2.51,6.58.57,9.99.11,3.4-.55,6.62-1.59,9.53-3,2.92-1.42,5.44-3.33,7.64-5.32.53-.53,1.05-1.05,1.56-1.56.5-.52.93-1.1,1.39-1.64.22-.27.45-.54.67-.81.21-.27.39-.57.59-.85.38-.57.76-1.13,1.13-1.67,1.33-2.29,2.42-4.53,3.08-6.68,1.4-4.3,1.69-8,1.63-10.52.04-.63-.03-1.19-.07-1.68-.04-.48-.07-.88-.09-1.23-.02-.31-.03-.56-.05-.76,0-.17,0-.26,0-.26s.03.08.05.25c.03.2.06.45.1.75.04.35.09.76.14,1.23.05.49.14,1.05.12,1.69.11,2.54-.11,6.28-1.49,10.64-.65,2.19-1.73,4.46-3.06,6.8-.37.56-.75,1.13-1.14,1.7-.2.29-.38.59-.59.87-.22.27-.45.55-.67.83-.46.55-.89,1.14-1.4,1.67-.52.52-1.04,1.05-1.58,1.59-2.22,2.04-4.77,3.99-7.74,5.43-2.96,1.44-6.23,2.5-9.68,3.06-3.46.47-6.9.4-10.15-.13-3.26-.53-6.26-1.65-8.98-2.96-.66-.36-1.32-.72-1.97-1.07-.64-.36-1.22-.8-1.82-1.19-.3-.2-.59-.4-.88-.6-.29-.2-.55-.44-.82-.66-.54-.44-1.06-.88-1.58-1.3-1.95-1.85-3.64-3.71-4.9-5.62-2.58-3.78-3.88-7.3-4.5-9.76-.2-.6-.29-1.17-.38-1.65-.08-.47-.16-.88-.22-1.22-.05-.3-.09-.55-.12-.75-.02-.17-.03-.26-.02-.26Z"/>
    </g>
  </g>
  <g id="Character">
    <g>
      <g>
        <path class="cls-10" d="m511.48,213.45s-.08-6.66-.36-6.71l-13.68,3.04c-.14.87-1.87,11.78-1.57,12.85l15.38,4.27s.23-13.06.22-13.45Z"/>
        <g>
          <g>
            <path class="cls-10" d="m511.49,225.89s.05-.12.07-.3c.16-1.49.06-7.99-.73-8.27-.89-.31-3.11.2-3.27,1.05-.15.86.37,8.18.37,8.18,0,0,.16,1.15,2.09,1.43,1.2.17,1.47-2.09,1.47-2.09Z"/>
            <path class="cls-10" d="m507.59,228.22s.05-.12.07-.3c.16-1.49.06-7.99-.73-8.27-.89-.31-3.11.2-3.26,1.05-.15.86.37,8.18.37,8.18,0,0,.16,1.15,2.09,1.43,1.2.17,1.47-2.09,1.47-2.09Z"/>
            <path class="cls-10" d="m503.77,229.39s.05-.12.07-.3c.16-1.49.06-7.99-.73-8.27-.89-.31-3.11.2-3.27,1.05-.15.86.37,8.18.37,8.18,0,0,.16,1.15,2.09,1.43,1.2.17,1.47-2.09,1.47-2.09Z"/>
            <path class="cls-10" d="m499.98,230.49s.05-.12.07-.3c.16-1.49.06-7.99-.73-8.27-.89-.31-3.11.2-3.27,1.05-.15.86.37,8.18.37,8.18,0,0,.16,1.15,2.09,1.43,1.2.17,1.47-2.09,1.47-2.09Z"/>
            <path class="cls-7" d="m507.53,220.27c.11,0,.25,1.43.3,3.17.06,1.74.01,3.14-.1,3.13-.11,0-.25-1.43-.3-3.17-.06-1.74-.01-3.14.1-3.13Z"/>
            <path class="cls-7" d="m503.7,220.25c.11,0,.28,2.01.36,4.5.09,2.49.07,4.51-.04,4.52-.11,0-.28-2.01-.36-4.5-.09-2.49-.07-4.51.04-4.51Z"/>
            <g class="cls-9">
              <path class="cls-7" d="m499.8,220.57c.11,0,.28,2.01.36,4.5.09,2.49.07,4.51-.04,4.52-.11,0-.28-2.01-.36-4.5-.09-2.49-.07-4.51.04-4.51Z"/>
            </g>
          </g>
          <path class="cls-10" d="m497.35,210.14s-5.41,12.3-4.62,13.06c.79.76,3.33,1.94,3.33,1.94l1.29-15Z"/>
        </g>
      </g>
      <g>
        <g>
          <g>
            <path class="cls-10" d="m467.42,45.19l-3.97,45.99-23.04-1.84c-.14-2.69.05-13.09.05-13.09,0,0-9.58-1.49-9.7-11.07-.06-4.65.61-14.27,1.31-22.94.78-9.61,9.09-16.84,18.71-16.28h0c9.97.58,17.49,9.28,16.64,19.23Z"/>
            <path class="cls-7" d="m440.45,76.11s6.06.49,12.49-3.55c0,0-2.95,6.9-12.52,6.03l.02-2.48Z"/>
          </g>
          <g>
            <g>
              <g>
                <path class="cls-11" d="m434.63,48.96c-.03.72.57,1.34,1.32,1.38.75.04,1.38-.51,1.41-1.23.03-.72-.57-1.34-1.32-1.38-.75-.04-1.39.51-1.41,1.23Z"/>
                <path class="cls-11" d="m434.12,47.07c.17.18,1.21-.59,2.68-.58,1.47-.02,2.55.74,2.71.56.08-.08-.09-.4-.56-.74-.46-.34-1.25-.67-2.17-.67-.92,0-1.69.34-2.13.69-.45.35-.61.67-.52.75Z"/>
              </g>
              <g>
                <path class="cls-11" d="m449.13,48.96c-.03.72.57,1.34,1.32,1.38.75.04,1.38-.51,1.41-1.23.03-.72-.57-1.34-1.32-1.38-.75-.04-1.39.51-1.41,1.23Z"/>
                <path class="cls-11" d="m448.6,47.35c.17.18,1.21-.59,2.68-.58,1.47-.02,2.55.74,2.71.56.08-.08-.09-.4-.57-.74-.46-.34-1.25-.67-2.17-.67-.92,0-1.69.34-2.13.69-.45.35-.61.67-.52.75Z"/>
              </g>
              <path class="cls-11" d="m443.25,58.27c0-.08-.91-.24-2.39-.43-.38-.04-.73-.11-.8-.37-.09-.27.07-.68.25-1.11.35-.91.72-1.86,1.11-2.86,1.54-4.08,2.66-7.43,2.5-7.49-.16-.06-1.55,3.19-3.09,7.27-.37,1.01-.73,1.96-1.07,2.88-.14.43-.39.91-.2,1.48.1.28.38.48.62.55.24.07.45.08.64.09,1.49.08,2.42.09,2.42,0Z"/>
              <path class="cls-11" d="m447.59,59.29c-.24-.01-.24,1.58-1.61,2.72-1.37,1.14-3.07.96-3.08,1.18-.02.1.38.31,1.1.33.71.02,1.74-.2,2.57-.9.83-.7,1.19-1.62,1.25-2.28.06-.67-.12-1.06-.23-1.05Z"/>
            </g>
            <path class="cls-11" d="m448.22,41.57c.15.4,1.62.21,3.34.42,1.73.17,3.13.68,3.35.32.1-.17-.14-.55-.7-.94-.56-.39-1.45-.75-2.49-.87-1.04-.11-1.99.05-2.62.31-.63.26-.95.57-.89.76Z"/>
            <path class="cls-11" d="m434.66,42.81c.26.33,1.27-.01,2.49-.03,1.22-.06,2.25.22,2.49-.13.1-.17-.06-.5-.51-.82-.44-.32-1.19-.57-2.03-.55-.84.03-1.56.33-1.99.67-.43.34-.57.69-.46.85Z"/>
          </g>
        </g>
        <path class="cls-11" d="m469.48,39.26c-.55,4.66-1.82,10.54-2.18,15.31-.03.44-.08.9-.34,1.25-.68.91-2.31,2.86-3.14,2.09-2.02-1.88-2.81-7.15-3.21-9.88-.4-2.73-.33-5.51-.71-8.24,0-.06-.02-.13-.03-.19-.27-1.92-1.27-3.65-2.78-4.86-.36-.24-.73-.46-1.13-.6-2.81-.99-7.51.84-10.31,1.86-1.45.53-2.85,1.18-4.25,1.82-3.22,1.46-7.03,1.24-9.89-.83-1.71-1.23-1.86-5.14-1.11-7.61,2.02-6.68,10.42-8.97,21.18-6.42,10.69,2.53,19,6.73,17.9,16.31Z"/>
        <g>
          <path class="cls-10" d="m464.19,49.53c.16-.07,6.58-1.95,6.38,4.6-.21,6.55-6.74,4.99-6.75,4.8,0-.19.37-9.41.37-9.41Z"/>
          <path class="cls-7" d="m465.9,56.51s.11.08.3.18c.19.09.51.16.85.05.7-.23,1.32-1.31,1.39-2.49.04-.6-.07-1.17-.27-1.64-.18-.49-.48-.83-.83-.9-.34-.09-.6.11-.68.29-.09.18-.06.31-.09.32-.02.02-.14-.11-.08-.38.03-.13.11-.28.27-.4.16-.12.39-.18.64-.15.5.05.94.53,1.16,1.05.24.53.38,1.17.34,1.84-.08,1.32-.8,2.53-1.76,2.78-.46.11-.84-.05-1.04-.21-.2-.17-.23-.32-.2-.33Z"/>
        </g>
        <path class="cls-4" d="m469.37,39.71c.08.1-1.93,1.22-4.68,1.25-2.75.06-4.8-.97-4.73-1.08.05-.15,2.09.62,4.72.56,2.63-.03,4.64-.88,4.69-.73Z"/>
        <path class="cls-4" d="m469.15,41.58c.08.1-1.84,1.21-4.49,1.25-2.65.06-4.61-.97-4.53-1.08.05-.15,2,.62,4.52.56,2.52-.03,4.44-.88,4.5-.73Z"/>
      </g>
      <g>
        <path class="cls-11" d="m423.56,367.96l4.26,19.6s-18.5,10.91-18.06,14.61l38.3-6.89-5.38-30.82-19.12,3.49Z"/>
        <path class="cls-4" d="m448.05,395.29l-.66-3.08-36.48,7.76s-1.57,1.05-1.16,2.22l38.3-6.89Z"/>
      </g>
      <g>
        <path class="cls-11" d="m467.12,370.12l.63,20.05s-20.17,7.38-20.41,11.09l38.92.17.3-31.28-19.44-.03Z"/>
        <g class="cls-3">
          <path class="cls-4" d="m486.26,401.43l-.09-3.15-37.28,1.02s-1.74.75-1.55,1.97l38.92.17Z"/>
        </g>
      </g>
      <g>
        <path class="cls-11" d="m421.46,384.78s-19.95-97.87-19.97-99.82l35.64-18.84,13.8,114.85-29.47,3.81Z"/>
        <path class="cls-11" d="m466.33,388.05l-27.56-169.62v-36.59l37.65,3.49c.48,1.43,12.8,202.94,12.8,202.94l-3.89-.22h-19.01"/>
        <polygon class="cls-11" points="417.11 179.26 401.49 284.95 436.42 276.48 450.66 182.7 417.11 179.26"/>
        <path class="cls-4" d="m449.42,188.22s0,.18.04.52c.04.36.09.86.16,1.52.15,1.35.38,3.31.66,5.82.6,5.06,1.49,12.37,2.67,21.39,2.33,18.06,5.87,42.96,9.67,70.47,1.89,13.76,3.63,26.88,5.12,38.82.38,2.99.69,5.9,1.11,8.73.43,2.82.85,5.55,1.26,8.2.8,5.29,1.55,10.22,2.23,14.72,1.35,9,2.42,16.29,3.12,21.33.35,2.52.61,4.48.76,5.81.08.66.13,1.17.15,1.51.01.17.02.3,0,.38-.01.11-.06,0-.06.01,0,0,0,.01.01.03.01.04.07,0,.07-.04.02-.09.02-.22.02-.39,0-.34-.04-.86-.1-1.52-.12-1.34-.35-3.3-.67-5.82-.64-5.05-1.66-12.35-2.97-21.35-.66-4.5-1.39-9.44-2.17-14.73-.4-2.65-.81-5.38-1.23-8.2-.41-2.81-.71-5.74-1.09-8.72-1.46-11.95-3.19-25.07-5.08-38.83-3.8-27.52-7.39-52.41-9.81-70.45-1.19-9.01-2.15-16.31-2.82-21.37-.33-2.51-.58-4.47-.75-5.81-.09-.65-.16-1.15-.21-1.51-.05-.34-.09-.51-.09-.51Z"/>
        <path class="cls-4" d="m428.42,383.87s-.01-.17-.06-.5c-.06-.35-.14-.84-.24-1.47-.22-1.31-.55-3.2-.96-5.63-.86-4.9-2.1-11.97-3.63-20.69-3.11-17.48-7.4-41.59-12.14-68.23-.35-1.64-.47-3.3-.29-4.94.21-1.63.48-3.29.72-4.91.5-3.26,1-6.46,1.49-9.62.99-6.3,1.97-12.38,2.94-18.16,1.92-11.57,3.78-21.96,5.44-30.67,1.66-8.71,3.12-15.73,4.23-20.57.52-2.42,1-4.29,1.29-5.56.14-.62.26-1.1.33-1.45.07-.33.1-.5.1-.5,0,0-.06.16-.15.48-.09.34-.22.82-.38,1.44-.32,1.26-.83,3.12-1.38,5.54-1.17,4.82-2.67,11.84-4.38,20.54-1.7,8.7-3.59,19.1-5.54,30.66-.98,5.78-1.97,11.86-2.97,18.16-.49,3.15-.99,6.36-1.5,9.62-.24,1.63-.51,3.26-.73,4.94-.18,1.69-.05,3.42.3,5.09,4.79,26.62,9.13,50.72,12.28,68.19,1.59,8.71,2.88,15.76,3.78,20.66.45,2.42.81,4.31,1.05,5.61.12.63.22,1.11.29,1.46.07.33.11.49.11.49Z"/>
        <path class="cls-4" d="m438.78,217.24c-.13.02,1.5,10.98,3.64,24.47,2.14,13.5,3.98,24.42,4.11,24.4.13-.02-1.5-10.98-3.64-24.48-2.14-13.49-3.98-24.42-4.11-24.4Z"/>
        <path class="cls-4" d="m466,387.75s.32.09.9.16c.58.07,1.43.15,2.48.23,2.09.16,4.99.32,8.2.37,3.21.05,6.11,0,8.21-.1,1.05-.05,1.9-.1,2.48-.15.59-.05.91-.09.91-.13,0-.07-1.3-.07-3.4-.06-2.1,0-4.99.01-8.19-.04-3.2-.05-6.09-.15-8.19-.23-2.1-.08-3.39-.12-3.4-.05Z"/>
        <path class="cls-4" d="m421.46,384.78s.42.01,1.17-.06c.84-.09,1.91-.2,3.17-.34,2.67-.3,6.36-.76,10.43-1.29,4.07-.53,7.75-1.03,10.41-1.42,1.25-.19,2.31-.35,3.15-.48.74-.12,1.15-.2,1.15-.23,0-.04-.42-.02-1.17.05-.75.07-1.83.18-3.17.33-2.67.3-6.36.75-10.43,1.28-4.07.53-7.75,1.04-10.41,1.43-1.25.19-2.31.36-3.15.49-.74.13-1.15.21-1.15.24Z"/>
      </g>
      <g>
        <g>
          <path class="cls-4" d="m369.01,116.79l22.47,17.09s20.91-35.65,22.75-37.87c1.85-2.22,6.54-4.59,6.54-4.59l-2.6,45.71s-11.31,28.86-26.83,27.29c-11.88-1.2-32.42-32.55-32.42-32.55l10.08-15.08Z"/>
          <g class="cls-5">
            <path d="m391.06,133.34c-3.12,4.79-3.98,10.99-2.27,16.44.17.56.41,1.15.91,1.45.75.45,1.78-.01,2.25-.75.47-.74.53-1.66.58-2.53.44.81.9,1.65,1.66,2.17.76.52,1.91.59,2.53-.09.75-.82.34-2.12-.11-3.14-1.91-4.34-3.83-8.68-5.74-13.01"/>
          </g>
          <path class="cls-11" d="m374.66,121.91c.14.09-2.16,3.95-5.14,8.62-2.98,4.67-5.52,8.38-5.66,8.29-.14-.09,2.16-3.95,5.14-8.62,2.98-4.67,5.52-8.38,5.66-8.29Z"/>
          <path class="cls-11" d="m368.94,121.28c-.06-.05.23-.35.74-.16.23.09.51.31.6.7.09.4-.17.85-.54,1.03-.36.2-.88.17-1.16-.14-.28-.29-.29-.65-.24-.89.13-.53.54-.6.55-.52.04.08-.14.25-.12.57.01.34.28.66.69.44.41-.21.3-.62.03-.82-.26-.2-.5-.15-.54-.22Z"/>
          <path class="cls-11" d="m391.51,144.71c-.14.05-.98-2.32-1.02-5.39-.06-3.07.71-5.47.85-5.42.18.04-.3,2.43-.24,5.41.03,2.98.59,5.35.41,5.4Z"/>
          <path class="cls-11" d="m395.86,144.55c-.14.08-1.61-2.09-2.88-5.05-1.28-2.96-1.85-5.52-1.69-5.56.17-.05.99,2.4,2.25,5.32,1.25,2.92,2.47,5.2,2.32,5.29Z"/>
        </g>
        <g>
          <path class="cls-4" d="m467.79,87.07l-3.4-6.72h-24.57l-3.86,7.63-15.18,3.43-6.54,97.89c-.04,1.24.26,2.47.87,3.55h0l59.69,2.29,2.43.99c2.14-1.32.81-6.77.83-9.34l.76-48.48,11.81-38.74-22.84-12.52Z"/>
          <g class="cls-5">
            <path d="m442.32,90.46c1.45-1.45,2.89-2.89,4.34-4.34,1.63,3.92,3.25,7.84,4.88,11.77,5.61-3.3,10.96-7.04,15.98-11.19-5.51,1.77-11.02,3.54-16.53,5.31-1.4-3.71-2.79-7.41-4.19-11.12-.98,3.36-2.38,6.61-4.15,9.63"/>
          </g>
          <path class="cls-4" d="m511.58,209.82l-16.09.83-.04-46.17-16.64-26.16,11.81-38.74c2.43.96,20.76,46.98,25.43,59.48.67,1.8.97,3.72.87,5.65l-5.35,45.11Z"/>
          <path class="cls-11" d="m420.78,111.62c.17.02-.63,9.48-1.78,21.14-1.15,11.66-2.22,21.1-2.39,21.08-.17-.02.63-9.48,1.78-21.14,1.15-11.66,2.22-21.1,2.39-21.08Z"/>
          <path class="cls-11" d="m446.79,80.92c.16.06-1.15,3.59-2.93,7.87-.11.27-.22.53-.33.79-.12.27-.24.57-.54.82-.31.27-.81.22-1.07.07-.28-.14-.47-.29-.69-.43-.78-.53-1.51-1.03-2.21-1.5-1.25-.87-2-1.44-1.95-1.51.05-.07.88.37,2.18,1.15.72.44,1.48.9,2.28,1.39.44.27.88.6,1.08.36.26-.22.44-.86.67-1.37,1.77-4.28,3.33-7.7,3.49-7.64Z"/>
          <path class="cls-11" d="m466.33,86.91c.03.08-1.41.65-3.75,1.51-2.34.86-5.59,2.01-9.19,3.24-.67.23-1.34.45-1.97.67l-.27.09-.11-.26c-1.27-3.07-2.36-5.78-3.12-7.74-.76-1.96-1.18-3.15-1.11-3.18.07-.03.62,1.11,1.48,3.03.86,1.92,2.02,4.6,3.31,7.66l-.38-.17c.63-.22,1.29-.44,1.97-.68,3.6-1.23,6.87-2.32,9.25-3.07,2.38-.76,3.86-1.18,3.89-1.1Z"/>
          <path class="cls-11" d="m488.1,100.97c.05.18-3.41,1.12-7.42,2.91-4.02,1.78-7.03,3.72-7.13,3.56-.04-.07.65-.64,1.88-1.43,1.22-.79,2.98-1.79,5.01-2.69,2.03-.9,3.95-1.54,5.35-1.92,1.41-.38,2.3-.51,2.32-.44Z"/>
          <path class="cls-11" d="m446.79,80.92s.02.1.03.29c.01.23.02.51.04.86.02.76.07,1.87.08,3.31.03,2.87.01,7.03-.19,12.16-.37,10.27-1.65,24.42-3.7,39.95-1,7.77-2.09,15.16-2.83,21.9-.75,6.74-1.07,12.84-.97,17.96.07,5.12.54,9.25.96,12.09.17,1.42.4,2.51.51,3.26.05.34.09.62.13.85.03.19.03.29.02.29-.01,0-.04-.09-.08-.28-.05-.22-.11-.5-.19-.84-.15-.74-.41-1.83-.63-3.25-.49-2.83-1.03-6.97-1.15-12.12-.16-5.14.13-11.27.85-18.03.71-6.76,1.79-14.15,2.79-21.92,2.05-15.53,3.4-29.64,3.87-39.89.26-5.12.34-9.28.38-12.14.01-1.4.02-2.5.03-3.3,0-.35.02-.63.02-.86,0-.19.02-.29.03-.29Z"/>
          <path class="cls-11" d="m512.45,202.75c0,.17-3.83.12-8.53-.11-4.7-.23-8.51-.55-8.5-.72,0-.17,3.83-.12,8.53.11,4.7.23,8.5.55,8.5.72Z"/>
          <path class="cls-11" d="m498.18,204.55c.05.07-.03.23.05.44.09.23.26.34.47.17.21-.18.14-.36-.06-.5-.19-.12-.36-.08-.42-.14-.07-.04.1-.33.54-.27.2.03.46.16.59.46.14.31,0,.72-.27.92-.26.22-.68.27-.96.07-.27-.2-.33-.47-.33-.68.03-.44.35-.55.38-.47Z"/>
          <g class="cls-5">
            <path d="m479.06,138.2c-1.75-3.16-3.5-6.32-5.25-9.48-2.09,16.66-.91,33.73,3.46,49.94.54-13.42,1.08-26.84,1.62-40.27"/>
          </g>
          <path class="cls-11" d="m452.43,120.8s.31-.04.95-.06c.73-.02,1.66-.04,2.8-.07,2.43-.05,5.93-.11,10.15-.13h.29s-.02.29-.02.29c-.27,3.69-.59,7.98-.92,12.54v.17s-.16.08-.16.08c-.2.1-.41.22-.62.33-2.36,1.24-4.64,2.44-6.8,3.57l-.17.09-.15-.12c-2.29-1.87-4.41-3.61-6.31-5.16l-.1-.08v-.13c.31-3.39.55-6.22.73-8.3.09-.91.17-1.65.23-2.25.06-.51.09-.77.11-.75s.01.31,0,.85c-.03.61-.06,1.38-.1,2.31-.12,2.06-.27,4.84-.46,8.18l-.09-.21c1.91,1.53,4.05,3.24,6.36,5.09l-.32-.03c2.15-1.14,4.43-2.34,6.78-3.59.21-.11.43-.23.62-.33l-.16.25c.36-4.56.7-8.84,1-12.53l.26.29c-4.11-.03-7.55-.08-9.99-.13-1.16-.03-2.11-.05-2.85-.07-.67-.02-1.03-.04-1.05-.06Z"/>
          <path class="cls-11" d="m422.92,193.34c-.01.17-1.26-.06-2.06-1.27-.82-1.2-.56-2.44-.4-2.39.18,0,.21,1.05.9,2.05.67,1.02,1.62,1.44,1.56,1.61Z"/>
          <path class="cls-11" d="m424.47,192.7c-.1.12-1.24-.96-1.69-2.77-.47-1.81.02-3.29.17-3.24.18.03,0,1.44.42,3.09.4,1.65,1.24,2.81,1.09,2.92Z"/>
          <path class="cls-11" d="m469.53,185.97c.15-.02.3,2.35-.93,4.93-1.2,2.59-3.13,3.99-3.2,3.86-.13-.13,1.52-1.67,2.65-4.12,1.17-2.44,1.3-4.68,1.48-4.67Z"/>
        </g>
      </g>
      <path class="cls-10" d="m367.76,118.66s-18.18-13.77-20.73-14.69c-4.23-1.53-5.24-1.12-5.24-1.12l9.97,10.74s-10.54,3.56-11.3,3.97c-.85.46-1.14,2.74,1.43,2.74,2.11,0,12.22.24,12.22.24l8.34,6.09,5.32-7.96Z"/>
    </g>
  </g>
  <g id="Speech_Bubble" data-name="Speech Bubble">
    <path class="cls-11" d="m528.61.01s.2-.02.6-.01c.44.01,1.02.03,1.76.05.39.02.82.02,1.3.06.48.07,1,.14,1.55.22.56.08,1.17.17,1.81.26.64.16,1.31.33,2.03.5,2.85.73,6.3,1.98,9.83,4.28,3.53,2.26,7.19,5.5,10.16,9.9,2.92,4.4,5.17,9.94,5.77,16.17.06,1.56.25,3.14.1,4.75-.06.8-.04,1.62-.16,2.43-.12.81-.24,1.63-.37,2.45-.66,3.25-1.63,6.57-3.3,9.67-1.63,3.1-3.74,6.06-6.32,8.69-2.62,2.58-5.69,4.81-9.1,6.54-3.4,1.74-7.17,2.94-11.09,3.4-.97.19-1.97.19-2.96.25-.99.06-1.99.1-2.99.05-2-.08-4.01-.33-5.99-.76-4.31-.92-8.36-2.67-11.92-5.02l.36.04c-4.13,1.66-8.19,3.29-12.15,4.88l-.72.29.21-.75c1.23-4.46,2.42-8.79,3.57-12.99l.06.32c-3.41-4.53-5.58-9.7-6.48-14.84-.45-2.57-.64-5.13-.47-7.6.05-1.24.11-2.46.34-3.65.09-.6.18-1.19.28-1.78.11-.58.29-1.15.42-1.72,2.35-9.14,7.98-15.89,13.55-19.76,2.79-1.97,5.54-3.38,8.07-4.25.63-.22,1.23-.44,1.82-.65.6-.15,1.17-.3,1.72-.44.55-.14,1.08-.27,1.58-.39.51-.1.99-.15,1.45-.22.92-.12,1.73-.27,2.43-.31.7-.02,1.29-.04,1.78-.06.45-.01.81-.02,1.09-.02.24,0,.37,0,.37.01s-.12.03-.37.05c-.28.02-.64.05-1.09.09-.49.03-1.08.07-1.77.12-.7.05-1.5.23-2.41.37-3.57.66-8.93,2.08-14.41,6.08-5.47,3.87-10.95,10.55-13.21,19.54-.13.56-.31,1.12-.41,1.69-.09.58-.17,1.16-.26,1.75-.22,1.17-.28,2.37-.32,3.59-.16,2.43.04,4.94.49,7.45.9,5.03,3.04,10.09,6.39,14.52l.11.14-.05.18c-1.14,4.2-2.33,8.53-3.54,12.99l-.51-.46c3.96-1.59,8.01-3.23,12.14-4.89l.19-.08.17.11c3.48,2.29,7.45,4.01,11.66,4.9,1.94.41,3.9.66,5.86.74.98.05,1.95.01,2.92-.05.97-.06,1.94-.06,2.89-.24,3.84-.45,7.52-1.62,10.85-3.32,3.34-1.68,6.34-3.86,8.91-6.38,2.52-2.57,4.59-5.46,6.2-8.49,1.65-3.03,2.6-6.28,3.27-9.46.12-.81.25-1.6.37-2.4.12-.79.1-1.6.16-2.38.16-1.58-.02-3.13-.07-4.66-.56-6.11-2.74-11.56-5.58-15.92-2.9-4.35-6.48-7.57-9.94-9.84-3.46-2.31-6.86-3.59-9.67-4.36-.71-.19-1.37-.37-2-.53-.64-.1-1.24-.2-1.8-.29-.55-.09-1.07-.18-1.54-.25-.47-.05-.9-.06-1.29-.1-.74-.05-1.32-.1-1.75-.13-.4-.03-.6-.06-.6-.07Z"/>
    <g>
      <path class="cls-6" d="m540.02,43.1s-.14.02-.41.03c-.29,0-.69.02-1.18.03-1.05.02-2.54.04-4.37.07-3.73.03-8.88.08-14.67.13h-.12s-.02-.12-.02-.12c-.11-.78-.23-1.6-.35-2.43-1.02-7.11-1.92-13.46-2.51-17.61l.09.07c-1.65,0-2.97-.01-3.91-.02-.44,0-.78-.01-1.04-.02-.24,0-.36-.01-.36-.02,0,0,.12-.02.36-.03.26,0,.6-.02,1.04-.03.93-.02,2.25-.04,3.91-.06h.08s.01.08.01.08c.62,4.14,1.56,10.49,2.61,17.59.12.83.24,1.65.35,2.43l-.14-.12c5.79-.02,10.94-.03,14.67-.04,1.83,0,3.32.01,4.37.02.49,0,.89.01,1.18.02.27,0,.41.01.41.02Z"/>
      <path class="cls-6" d="m519.69,43.51l-.04-.03h-.5s-.07-.49-.07-.49l-.04-.03h.03l-.02-.12-.29-2.01-2.49-17.42-4.76-.03c-.42-.01-.48-.01-.48-.15v-.05l.03-.04s.05-.05.45-.07l1.04-.03,3.67-.06v-.09s.09.09.09.09h.34s.03.18.03.18c0,.05.01.1.02.16l.1.09h-.09c.62,4.15,1.54,10.38,2.58,17.35l.32,2.2,14.44-.04,5.55.03c.47.01.53.01.53.15s-.05.14-.53.15l-1.18.03-4.37.07-14.37.13v.03Zm-.04-.31v.02s3.91-.03,3.91-.03h-3.91Zm-1.3-7.08l.98,6.84h.03l-.32-2.17c-.24-1.6-.47-3.16-.69-4.67Z"/>
    </g>
    <g>
      <path class="cls-6" d="m518.76,38.95s.03,0,.1-.01c.08,0,.18,0,.3-.01.29,0,.68-.02,1.18-.03,1.05-.02,2.55-.04,4.42-.06,3.79-.03,9.09-.08,15.23-.14l-.13.11c.44-2.57.91-5.34,1.4-8.21.25-1.48.5-2.93.74-4.31l.14.16c-7.13.02-13.41.04-17.95.06-2.24,0-4.05,0-5.31-.01-.61,0-1.09-.01-1.43-.02-.15,0-.27,0-.37-.01-.08,0-.13,0-.13-.01s.04,0,.13-.01c.1,0,.22,0,.37-.01.35,0,.82-.02,1.43-.03,1.27-.02,3.07-.04,5.31-.07,4.53-.04,10.82-.09,17.95-.15h.16s-.03.16-.03.16c-.24,1.38-.48,2.83-.73,4.31-.49,2.87-.97,5.64-1.41,8.21l-.02.11h-.11c-6.14.02-11.44.03-15.23.04-1.87,0-3.37,0-4.42-.01-.5,0-.89-.01-1.18-.01-.12,0-.22,0-.3,0-.07,0-.1,0-.1-.01Z"/>
      <path class="cls-6" d="m524.77,39.12l-5.91-.04c-.11,0-.22-.01-.22-.14s.12-.13.22-.14l1.49-.04,4.42-.06,15.01-.14,1.36-8c.23-1.37.46-2.71.68-4l-17.64.06-7.12-.04c-.13,0-.25-.01-.25-.14s.11-.13.24-.14l1.81-.05,5.31-.07,17.73-.15v-.05s.05.05.05.05h.48s-.08.47-.08.47l.04.05h-.05s-2.05,12-2.05,12h.04l-.04.04-.08.48h-.49s-.04.04-.04.04v-.04s-14.91.04-14.91.04Zm14.96-.3l-2.22.02,2.22-.02Zm2.34-12.25c-.22,1.3-.46,2.66-.69,4.05l-1.35,7.95h.02l2.05-12h-.02Zm-.21-.27l-4.4.04h4.39s0-.03,0-.04Z"/>
    </g>
    <g>
      <path class="cls-6" d="m524.58,48.79s-.03-.18-.12-.49c-.09-.3-.31-.74-.76-1.07-.44-.33-1.16-.51-1.85-.24-.68.24-1.27.98-1.25,1.83,0,.85.59,1.58,1.28,1.81.69.26,1.41.07,1.85-.27.45-.34.66-.77.75-1.08.09-.31.09-.49.11-.49.01,0,.05.18,0,.52-.06.33-.25.82-.74,1.21-.47.39-1.26.63-2.05.35-.78-.25-1.47-1.08-1.47-2.05-.01-.97.66-1.81,1.44-2.07.79-.29,1.59-.06,2.06.33.49.38.69.87.75,1.2.06.33.03.52.02.52Z"/>
      <path class="cls-6" d="m522.48,51.11c-.24,0-.49-.04-.75-.13-.77-.25-1.56-1.07-1.55-2.17-.02-1.09.76-1.93,1.53-2.18.89-.32,1.73-.01,2.17.35.58.46.75,1.04.79,1.27.04.19.05.41.02.54.04.14,0,.4-.02.54-.04.23-.2.81-.78,1.28-.31.26-.83.5-1.42.5Zm-.43-4.32c-.08.02-.17.04-.25.07-.67.22-1.38.98-1.36,1.95,0,.97.71,1.72,1.38,1.93.09.03.17.05.26.07-.08-.02-.17-.04-.25-.08-.68-.23-1.36-.97-1.36-1.93-.01-.84.55-1.66,1.34-1.94.08-.03.17-.06.25-.08Zm.48.19c-.21,0-.43.04-.65.12-.59.21-1.19.87-1.17,1.71,0,.84.6,1.49,1.19,1.69.7.26,1.37.03,1.73-.25.46-.34.64-.78.71-1.01.05-.16.07-.29.08-.37,0-.03,0-.06.02-.08,0-.03-.01-.06-.02-.09-.01-.08-.04-.21-.09-.37-.07-.23-.26-.67-.72-1-.25-.19-.64-.35-1.09-.35Z"/>
    </g>
    <g>
      <path class="cls-6" d="m537.85,48.71s-.03-.18-.12-.49c-.09-.3-.31-.74-.76-1.07-.44-.33-1.16-.51-1.85-.24-.68.24-1.27.98-1.25,1.82,0,.85.59,1.58,1.28,1.81.69.26,1.41.07,1.85-.27.45-.34.66-.77.75-1.08.09-.31.09-.49.11-.49.01,0,.05.18,0,.52-.06.33-.25.82-.74,1.21-.47.39-1.26.63-2.05.35-.78-.25-1.47-1.08-1.47-2.05-.01-.97.66-1.81,1.44-2.07.79-.29,1.59-.06,2.06.33.49.38.69.87.75,1.2.06.33.03.52.02.52Z"/>
      <path class="cls-6" d="m535.76,51.03c-.24,0-.49-.04-.75-.13-.77-.25-1.55-1.07-1.55-2.17-.02-1.09.76-1.93,1.53-2.18.89-.33,1.73-.02,2.17.35.58.46.75,1.04.79,1.27.04.19.05.41.02.54.04.14,0,.4-.02.54-.04.23-.2.81-.78,1.28-.31.26-.83.5-1.42.5Zm-.45-4.32c-.08.02-.16.04-.24.07-.67.23-1.38.98-1.36,1.95,0,.97.71,1.72,1.38,1.93.1.03.19.06.29.08-.09-.02-.19-.05-.28-.08-.68-.23-1.36-.97-1.36-1.93-.01-.96.66-1.7,1.34-1.94.08-.03.16-.06.24-.08Zm.5.19c-.21,0-.43.04-.65.12-.59.21-1.19.87-1.17,1.71,0,.84.6,1.49,1.19,1.69.7.26,1.37.03,1.73-.25.46-.34.64-.78.71-1.01.05-.16.07-.29.08-.37,0-.03,0-.06.02-.09,0-.03-.01-.06-.02-.09-.01-.08-.04-.21-.09-.37-.07-.23-.26-.67-.72-1-.25-.19-.64-.35-1.08-.35Z"/>
    </g>
  </g>
</svg>