<svg width="1019" height="835" viewBox="0 0 1019 835" fill="none" xmlns="http://www.w3.org/2000/svg">
<path d="M507.345 5.07851L999.386 190.156C1010.89 194.482 1018.5 205.482 1018.5 217.768V805C1018.5 821.292 1005.29 834.5 989 834.5H581.418H123.122C114.896 834.5 107.044 831.065 101.46 825.024L9.4542 725.491C3.76741 719.339 0.964604 711.059 1.74528 702.718L44.945 241.138C45.8946 230.992 52.014 222.054 61.1301 217.498L483.773 6.30113C491.118 2.63083 499.66 2.18777 507.345 5.07851Z" stroke="#2B6DEB"/>
<path d="M402.561 252L394.433 240.96L397.025 239.36L406.209 252H402.561ZM387.489 252V229.6H390.625V252H387.489ZM389.665 242.144V239.328H396.929V242.144H389.665ZM397.313 241.152L394.369 240.704L402.401 229.6H405.825L397.313 241.152ZM406.536 251.968L406.728 249.376C406.877 249.397 407.016 249.419 407.144 249.44C407.272 249.461 407.389 249.472 407.496 249.472C408.179 249.472 408.712 249.237 409.096 248.768C409.501 248.299 409.8 247.68 409.992 246.912C410.184 246.123 410.323 245.237 410.408 244.256C410.493 243.275 410.557 242.293 410.6 241.312L410.888 235.04H423.912V252H420.84V236.832L421.576 237.728H412.872L413.576 236.8L413.352 241.504C413.288 242.997 413.171 244.395 413 245.696C412.829 246.997 412.563 248.139 412.2 249.12C411.859 250.101 411.379 250.869 410.76 251.424C410.163 251.979 409.384 252.256 408.424 252.256C408.147 252.256 407.848 252.224 407.528 252.16C407.229 252.117 406.899 252.053 406.536 251.968ZM429.852 252V235.04H432.924V247.392L443.324 235.04H446.108V252H443.036V239.648L432.668 252H429.852ZM459.623 252.192C457.809 252.192 456.209 251.819 454.823 251.072C453.457 250.325 452.391 249.301 451.623 248C450.876 246.699 450.503 245.205 450.503 243.52C450.503 241.835 450.865 240.341 451.591 239.04C452.337 237.739 453.351 236.725 454.631 236C455.932 235.253 457.393 234.88 459.015 234.88C460.657 234.88 462.108 235.243 463.367 235.968C464.625 236.693 465.607 237.717 466.311 239.04C467.036 240.341 467.399 241.867 467.399 243.616C467.399 243.744 467.388 243.893 467.367 244.064C467.367 244.235 467.356 244.395 467.335 244.544H452.903V242.336H465.735L464.487 243.104C464.508 242.016 464.284 241.045 463.815 240.192C463.345 239.339 462.695 238.677 461.863 238.208C461.052 237.717 460.103 237.472 459.015 237.472C457.948 237.472 456.999 237.717 456.167 238.208C455.335 238.677 454.684 239.349 454.215 240.224C453.745 241.077 453.511 242.059 453.511 243.168V243.68C453.511 244.811 453.767 245.824 454.279 246.72C454.812 247.595 455.548 248.277 456.487 248.768C457.425 249.259 458.503 249.504 459.719 249.504C460.721 249.504 461.628 249.333 462.439 248.992C463.271 248.651 463.996 248.139 464.615 247.456L466.311 249.44C465.543 250.336 464.583 251.019 463.431 251.488C462.3 251.957 461.031 252.192 459.623 252.192ZM472.164 252V235.04H475.236V242.24H484.9V235.04H487.972V252H484.9V244.896H475.236V252H472.164ZM497.306 252V236.928L498.074 237.728H491.098V235.04H506.586V237.728H499.642L500.378 236.928V252H497.306Z" fill="#2B6DEB"/>
<path d="M621.4 260.149C621.4 353.274 543.09 428.798 446.45 428.798C349.81 428.798 271.5 353.274 271.5 260.149C271.5 167.024 349.81 91.5 446.45 91.5C543.09 91.5 621.4 167.024 621.4 260.149Z" fill="#2B6DEB" fill-opacity="0.1" stroke="#2B6DEB"/>
<path d="M233.488 452V429.6H252.784V452H249.648V431.552L250.416 432.384H235.856L236.656 431.552V452H233.488ZM269.657 452V448.416L269.497 447.744V441.632C269.497 440.331 269.113 439.328 268.345 438.624C267.599 437.899 266.468 437.536 264.953 437.536C263.951 437.536 262.969 437.707 262.009 438.048C261.049 438.368 260.239 438.805 259.577 439.36L258.297 437.056C259.172 436.352 260.217 435.819 261.433 435.456C262.671 435.072 263.961 434.88 265.305 434.88C267.631 434.88 269.423 435.445 270.681 436.576C271.94 437.707 272.569 439.435 272.569 441.76V452H269.657ZM264.089 452.192C262.831 452.192 261.721 451.979 260.761 451.552C259.823 451.125 259.097 450.539 258.585 449.792C258.073 449.024 257.817 448.16 257.817 447.2C257.817 446.283 258.031 445.451 258.457 444.704C258.905 443.957 259.62 443.36 260.601 442.912C261.604 442.464 262.948 442.24 264.633 442.24H270.009V444.448H264.761C263.225 444.448 262.191 444.704 261.657 445.216C261.124 445.728 260.857 446.347 260.857 447.072C260.857 447.904 261.188 448.576 261.849 449.088C262.511 449.579 263.428 449.824 264.601 449.824C265.753 449.824 266.756 449.568 267.609 449.056C268.484 448.544 269.113 447.797 269.497 446.816L270.105 448.928C269.7 449.931 268.985 450.731 267.961 451.328C266.937 451.904 265.647 452.192 264.089 452.192ZM287.093 452.192C285.685 452.192 284.394 451.872 283.221 451.232C282.069 450.571 281.141 449.6 280.437 448.32C279.754 447.04 279.413 445.44 279.413 443.52C279.413 441.6 279.744 440 280.405 438.72C281.088 437.44 282.005 436.48 283.157 435.84C284.33 435.2 285.642 434.88 287.093 434.88C288.757 434.88 290.229 435.243 291.509 435.968C292.789 436.693 293.802 437.707 294.549 439.008C295.296 440.288 295.669 441.792 295.669 443.52C295.669 445.248 295.296 446.763 294.549 448.064C293.802 449.365 292.789 450.379 291.509 451.104C290.229 451.829 288.757 452.192 287.093 452.192ZM278.101 458.208V435.04H281.045V439.616L280.853 443.552L281.173 447.488V458.208H278.101ZM286.837 449.504C287.925 449.504 288.896 449.259 289.749 448.768C290.624 448.277 291.306 447.584 291.797 446.688C292.309 445.771 292.565 444.715 292.565 443.52C292.565 442.304 292.309 441.259 291.797 440.384C291.306 439.488 290.624 438.795 289.749 438.304C288.896 437.813 287.925 437.568 286.837 437.568C285.77 437.568 284.8 437.813 283.925 438.304C283.072 438.795 282.389 439.488 281.877 440.384C281.386 441.259 281.141 442.304 281.141 443.52C281.141 444.715 281.386 445.771 281.877 446.688C282.389 447.584 283.072 448.277 283.925 448.768C284.8 449.259 285.77 449.504 286.837 449.504ZM302.867 452V436.928L303.635 437.728H296.659V435.04H312.147V437.728H305.203L305.939 436.928V452H302.867ZM315.289 452V435.04H318.361V442.24H328.025V435.04H331.097V452H328.025V444.896H318.361V452H315.289ZM344.622 452.192C342.808 452.192 341.208 451.819 339.822 451.072C338.456 450.325 337.39 449.301 336.622 448C335.875 446.699 335.502 445.205 335.502 443.52C335.502 441.835 335.864 440.341 336.59 439.04C337.336 437.739 338.35 436.725 339.63 436C340.931 435.253 342.392 434.88 344.014 434.88C345.656 434.88 347.107 435.243 348.366 435.968C349.624 436.693 350.606 437.717 351.31 439.04C352.035 440.341 352.398 441.867 352.398 443.616C352.398 443.744 352.387 443.893 352.366 444.064C352.366 444.235 352.355 444.395 352.334 444.544H337.902V442.336H350.734L349.486 443.104C349.507 442.016 349.283 441.045 348.814 440.192C348.344 439.339 347.694 438.677 346.862 438.208C346.051 437.717 345.102 437.472 344.014 437.472C342.947 437.472 341.998 437.717 341.166 438.208C340.334 438.677 339.683 439.349 339.214 440.224C338.744 441.077 338.51 442.059 338.51 443.168V443.68C338.51 444.811 338.766 445.824 339.278 446.72C339.811 447.595 340.547 448.277 341.486 448.768C342.424 449.259 343.502 449.504 344.718 449.504C345.72 449.504 346.627 449.333 347.438 448.992C348.27 448.651 348.995 448.139 349.614 447.456L351.31 449.44C350.542 450.336 349.582 451.019 348.43 451.488C347.299 451.957 346.03 452.192 344.622 452.192ZM366.156 452.192C364.748 452.192 363.457 451.872 362.284 451.232C361.132 450.571 360.204 449.6 359.5 448.32C358.817 447.04 358.476 445.44 358.476 443.52C358.476 441.6 358.806 440 359.468 438.72C360.15 437.44 361.068 436.48 362.22 435.84C363.393 435.2 364.705 434.88 366.156 434.88C367.82 434.88 369.292 435.243 370.572 435.968C371.852 436.693 372.865 437.707 373.612 439.008C374.358 440.288 374.732 441.792 374.732 443.52C374.732 445.248 374.358 446.763 373.612 448.064C372.865 449.365 371.852 450.379 370.572 451.104C369.292 451.829 367.82 452.192 366.156 452.192ZM357.164 458.208V435.04H360.108V439.616L359.916 443.552L360.236 447.488V458.208H357.164ZM365.9 449.504C366.988 449.504 367.958 449.259 368.812 448.768C369.686 448.277 370.369 447.584 370.86 446.688C371.372 445.771 371.628 444.715 371.628 443.52C371.628 442.304 371.372 441.259 370.86 440.384C370.369 439.488 369.686 438.795 368.812 438.304C367.958 437.813 366.988 437.568 365.9 437.568C364.833 437.568 363.862 437.813 362.988 438.304C362.134 438.795 361.452 439.488 360.94 440.384C360.449 441.259 360.204 442.304 360.204 443.52C360.204 444.715 360.449 445.771 360.94 446.688C361.452 447.584 362.134 448.277 362.988 448.768C363.862 449.259 364.833 449.504 365.9 449.504Z" fill="#2B6DEB"/>
<path d="M478.7 451.851C478.7 544.976 400.39 620.5 303.75 620.5C207.11 620.5 128.8 544.976 128.8 451.851C128.8 358.726 207.11 283.202 303.75 283.202C400.39 283.202 478.7 358.726 478.7 451.851Z" fill="#2B6DEB" fill-opacity="0.1" stroke="#2B6DEB"/>
<path d="M493.36 456V433.6H502.096C504.059 433.6 505.733 433.909 507.12 434.528C508.507 435.147 509.573 436.043 510.32 437.216C511.067 438.389 511.44 439.787 511.44 441.408C511.44 443.029 511.067 444.427 510.32 445.6C509.573 446.752 508.507 447.637 507.12 448.256C505.733 448.875 504.059 449.184 502.096 449.184H495.12L496.56 447.712V456H493.36ZM508.336 456L502.64 447.872H506.064L511.824 456H508.336ZM496.56 448.032L495.12 446.464H502C504.048 446.464 505.595 446.027 506.64 445.152C507.707 444.256 508.24 443.008 508.24 441.408C508.24 439.808 507.707 438.571 506.64 437.696C505.595 436.821 504.048 436.384 502 436.384H495.12L496.56 434.784V448.032ZM523.714 456.192C521.901 456.192 520.301 455.819 518.914 455.072C517.549 454.325 516.482 453.301 515.714 452C514.967 450.699 514.594 449.205 514.594 447.52C514.594 445.835 514.957 444.341 515.682 443.04C516.429 441.739 517.442 440.725 518.722 440C520.023 439.253 521.485 438.88 523.106 438.88C524.749 438.88 526.199 439.243 527.458 439.968C528.717 440.693 529.698 441.717 530.402 443.04C531.127 444.341 531.49 445.867 531.49 447.616C531.49 447.744 531.479 447.893 531.458 448.064C531.458 448.235 531.447 448.395 531.426 448.544H516.994V446.336H529.826L528.578 447.104C528.599 446.016 528.375 445.045 527.906 444.192C527.437 443.339 526.786 442.677 525.954 442.208C525.143 441.717 524.194 441.472 523.106 441.472C522.039 441.472 521.09 441.717 520.258 442.208C519.426 442.677 518.775 443.349 518.306 444.224C517.837 445.077 517.602 446.059 517.602 447.168V447.68C517.602 448.811 517.858 449.824 518.37 450.72C518.903 451.595 519.639 452.277 520.578 452.768C521.517 453.259 522.594 453.504 523.81 453.504C524.813 453.504 525.719 453.333 526.53 452.992C527.362 452.651 528.087 452.139 528.706 451.456L530.402 453.44C529.634 454.336 528.674 455.019 527.522 455.488C526.391 455.957 525.122 456.192 523.714 456.192ZM556.972 438.88C558.337 438.88 559.542 439.147 560.588 439.68C561.633 440.213 562.444 441.024 563.02 442.112C563.617 443.2 563.916 444.576 563.916 446.24V456H560.844V446.592C560.844 444.949 560.46 443.712 559.692 442.88C558.924 442.048 557.846 441.632 556.46 441.632C555.436 441.632 554.54 441.845 553.772 442.272C553.004 442.699 552.406 443.328 551.98 444.16C551.574 444.992 551.372 446.027 551.372 447.264V456H548.3V446.592C548.3 444.949 547.916 443.712 547.148 442.88C546.401 442.048 545.324 441.632 543.916 441.632C542.913 441.632 542.028 441.845 541.26 442.272C540.492 442.699 539.894 443.328 539.468 444.16C539.041 444.992 538.828 446.027 538.828 447.264V456H535.756V439.04H538.7V443.552L538.22 442.4C538.753 441.291 539.574 440.427 540.684 439.808C541.793 439.189 543.084 438.88 544.556 438.88C546.177 438.88 547.574 439.285 548.748 440.096C549.921 440.885 550.689 442.091 551.052 443.712L549.804 443.2C550.316 441.899 551.212 440.853 552.492 440.064C553.772 439.275 555.265 438.88 556.972 438.88ZM576.832 456.192C575.126 456.192 573.611 455.819 572.288 455.072C570.966 454.325 569.92 453.301 569.152 452C568.384 450.677 568 449.184 568 447.52C568 445.835 568.384 444.341 569.152 443.04C569.92 441.739 570.966 440.725 572.288 440C573.611 439.253 575.126 438.88 576.832 438.88C578.518 438.88 580.022 439.253 581.344 440C582.688 440.725 583.734 441.739 584.48 443.04C585.248 444.32 585.632 445.813 585.632 447.52C585.632 449.205 585.248 450.699 584.48 452C583.734 453.301 582.688 454.325 581.344 455.072C580.022 455.819 578.518 456.192 576.832 456.192ZM576.832 453.504C577.92 453.504 578.891 453.259 579.744 452.768C580.619 452.277 581.302 451.584 581.792 450.688C582.283 449.771 582.528 448.715 582.528 447.52C582.528 446.304 582.283 445.259 581.792 444.384C581.302 443.488 580.619 442.795 579.744 442.304C578.891 441.813 577.92 441.568 576.832 441.568C575.744 441.568 574.774 441.813 573.92 442.304C573.067 442.795 572.384 443.488 571.872 444.384C571.36 445.259 571.104 446.304 571.104 447.52C571.104 448.715 571.36 449.771 571.872 450.688C572.384 451.584 573.067 452.277 573.92 452.768C574.774 453.259 575.744 453.504 576.832 453.504ZM598.937 438.88C600.323 438.88 601.539 439.147 602.585 439.68C603.651 440.213 604.483 441.024 605.081 442.112C605.678 443.2 605.977 444.576 605.977 446.24V456H602.905V446.592C602.905 444.949 602.499 443.712 601.689 442.88C600.899 442.048 599.779 441.632 598.329 441.632C597.241 441.632 596.291 441.845 595.481 442.272C594.67 442.699 594.041 443.328 593.593 444.16C593.166 444.992 592.953 446.027 592.953 447.264V456H589.881V439.04H592.825V443.616L592.345 442.4C592.899 441.291 593.753 440.427 594.905 439.808C596.057 439.189 597.401 438.88 598.937 438.88ZM617.486 456.192C615.779 456.192 614.457 455.733 613.518 454.816C612.579 453.899 612.11 452.587 612.11 450.88V435.328H615.182V450.752C615.182 451.669 615.406 452.373 615.854 452.864C616.323 453.355 616.985 453.6 617.838 453.6C618.798 453.6 619.598 453.333 620.238 452.8L621.198 455.008C620.729 455.413 620.163 455.712 619.502 455.904C618.862 456.096 618.19 456.192 617.486 456.192ZM609.23 441.568V439.04H620.046V441.568H609.23ZM633.954 456V433.6H642.69C644.652 433.6 646.327 433.909 647.714 434.528C649.1 435.147 650.167 436.043 650.914 437.216C651.66 438.389 652.034 439.787 652.034 441.408C652.034 443.029 651.66 444.427 650.914 445.6C650.167 446.752 649.1 447.648 647.714 448.288C646.327 448.907 644.652 449.216 642.69 449.216H635.714L637.154 447.712V456H633.954ZM637.154 448.032L635.714 446.432H642.594C644.642 446.432 646.188 445.995 647.234 445.12C648.3 444.245 648.834 443.008 648.834 441.408C648.834 439.808 648.3 438.571 647.234 437.696C646.188 436.821 644.642 436.384 642.594 436.384H635.714L637.154 434.784V448.032ZM656.6 456V432.256H659.672V456H656.6ZM676.065 456V452.416L675.905 451.744V445.632C675.905 444.331 675.521 443.328 674.753 442.624C674.006 441.899 672.876 441.536 671.361 441.536C670.358 441.536 669.377 441.707 668.417 442.048C667.457 442.368 666.646 442.805 665.985 443.36L664.705 441.056C665.58 440.352 666.625 439.819 667.841 439.456C669.078 439.072 670.369 438.88 671.713 438.88C674.038 438.88 675.83 439.445 677.089 440.576C678.348 441.707 678.977 443.435 678.977 445.76V456H676.065ZM670.497 456.192C669.238 456.192 668.129 455.979 667.169 455.552C666.23 455.125 665.505 454.539 664.993 453.792C664.481 453.024 664.225 452.16 664.225 451.2C664.225 450.283 664.438 449.451 664.865 448.704C665.313 447.957 666.028 447.36 667.009 446.912C668.012 446.464 669.356 446.24 671.041 446.24H676.417V448.448H671.169C669.633 448.448 668.598 448.704 668.065 449.216C667.532 449.728 667.265 450.347 667.265 451.072C667.265 451.904 667.596 452.576 668.257 453.088C668.918 453.579 669.836 453.824 671.009 453.824C672.161 453.824 673.164 453.568 674.017 453.056C674.892 452.544 675.521 451.797 675.905 450.816L676.513 452.928C676.108 453.931 675.393 454.731 674.369 455.328C673.345 455.904 672.054 456.192 670.497 456.192ZM685.086 462.4C684.275 462.4 683.486 462.261 682.718 461.984C681.95 461.728 681.288 461.344 680.733 460.832L682.046 458.528C682.472 458.933 682.942 459.243 683.454 459.456C683.966 459.669 684.51 459.776 685.086 459.776C685.832 459.776 686.451 459.584 686.942 459.2C687.432 458.816 687.891 458.133 688.318 457.152L689.374 454.816L689.694 454.432L696.35 439.04H699.358L691.134 457.696C690.643 458.891 690.088 459.829 689.47 460.512C688.872 461.195 688.211 461.675 687.486 461.952C686.76 462.251 685.96 462.4 685.086 462.4ZM689.118 456.544L681.373 439.04H684.574L691.166 454.144L689.118 456.544Z" fill="#2B6DEB"/>
<path d="M767.608 451.851C767.608 544.976 689.298 620.5 592.658 620.5C496.018 620.5 417.708 544.976 417.708 451.851C417.708 358.726 496.018 283.202 592.658 283.202C689.298 283.202 767.608 358.726 767.608 451.851Z" fill="#2B6DEB" fill-opacity="0.1" stroke="#2B6DEB"/>
</svg>
