<?xml version="1.0" encoding="utf-8"?>
<!-- Generator: Adobe Illustrator 27.3.1, SVG Export Plug-In . SVG Version: 6.00 Build 0)  -->
<svg version="1.1" id="Слой_1" xmlns="http://www.w3.org/2000/svg" xmlns:xlink="http://www.w3.org/1999/xlink" x="0px" y="0px"
	 viewBox="0 0 666.9 402.2" style="enable-background:new 0 0 666.9 402.2;" xml:space="preserve">
<style type="text/css">
	.st0{fill:#E8505B;}
	.st1{opacity:0.3;}
	.st2{fill:#FFFFFF;}
	.st3{fill:#263238;}
	.st4{fill:#FAFAFA;}
	.st5{fill:#FFBE9D;}
	.st6{fill:#EB996E;}
	.st7{opacity:0.8;}
	.st8{fill:#455A64;}
	.st9{opacity:0.6;}
	.st10{opacity:0.2;}
</style>
<g id="Credit_Card">
	<g>
		<path class="st0" d="M328.5,305.6L173.7,141.9c-1.6-1.7-1.6-4.4,0.2-6.1l101.6-96c1.7-1.6,4.4-1.6,6.1,0.2l154.8,163.7
			c1.6,1.7,1.6,4.4-0.2,6.1l-101.6,96C332.9,307.4,330.2,307.4,328.5,305.6L328.5,305.6z"/>
		<g class="st1">
			<path d="M328.5,305.6L173.7,141.9c-1.6-1.7-1.6-4.4,0.2-6.1l101.6-96c1.7-1.6,4.4-1.6,6.1,0.2l154.8,163.7
				c1.6,1.7,1.6,4.4-0.2,6.1l-101.6,96C332.9,307.4,330.2,307.4,328.5,305.6L328.5,305.6z"/>
		</g>
		<path class="st0" d="M435.2,202.5L282.7,41.2c-2.3-2.4-6-2.5-8.4-0.2l-28.9,27.3c-0.6,0.5-0.9,1.3-0.7,2.1
			c2.9,16.1,14.4,30.6,28.2,40.1c16.6,11.6,36.3,17.6,55,25.4c18.7,7.7,37.5,17.9,48.7,34.7c10.6,15.9,13.1,35.6,18.5,54
			c1.4,4.9,3.2,9.8,5.4,14.6c0.7,1.5,2.6,1.9,3.8,0.7l30.6-28.9c2.4-2.3,2.5-6,0.2-8.4L435.2,202.5z"/>
		<g>
			<path class="st2" d="M280.4,88.1c-1.4,1.3-3.2,1-5.2-1.1l-3.9-4.1l8-7.5l3.7,3.9c1.9,2,2,3.8,0.8,5c-0.8,0.8-1.8,0.9-2.8,0.6
				c0.6,1.2,0.4,2.4-0.6,3.3V88.1z M279.6,78.4l-1.9,1.8l1.7,1.8c0.9,0.9,1.6,1.1,2.3,0.5c0.6-0.6,0.5-1.4-0.4-2.3L279.6,78.4z
				 M278.8,86c0.7-0.6,0.5-1.4-0.4-2.4l-2-2.2l-2,1.9l2,2.2C277.3,86.5,278.1,86.7,278.8,86z"/>
			<path class="st2" d="M286.2,95.2l-3.5-3.7l-2.4,0.9l-1.8-1.9l11.3-4l1.7,1.8l-4.6,11.1l-1.8-1.9L286.2,95.2L286.2,95.2z
				 M287.1,93.3l1.9-4.2l-4.3,1.6L287.1,93.3L287.1,93.3z"/>
			<path class="st2" d="M302.7,100.1l-8,7.5l-1.4-1.5l1.1-8.6l-4.8,4.6l-1.7-1.8l8-7.5l1.4,1.5l-1.1,8.5l4.8-4.6L302.7,100.1
				L302.7,100.1z"/>
			<path class="st2" d="M302.4,109.4h-2.1l-2,1.9l-1.7-1.8l8-7.5l1.7,1.8l-3.7,3.5h7.1l1.9,2.1h-6.7l-1.1,7.7l-2-2.2L302.4,109.4
				L302.4,109.4z"/>
		</g>
		<g>
			<path class="st2" d="M245.8,118l-1.4-1.5l-1.9,1.8l-0.7-0.8l1.9-1.8l-3.9-4.1l0.5-0.5l8.5-0.7l0.8,0.8l-8.3,0.7l3,3.2l1.7-1.6
				l0.7,0.7l-1.7,1.6l1.4,1.5l-0.7,0.6L245.8,118z"/>
			<path class="st2" d="M251.1,123.2c-1.2,1.2-3,1.2-4.7-0.6c-1-1.1-1.6-2.4-1.6-3.5l0.9-0.2c0,0.9,0.4,2.1,1.3,3.1
				c1.1,1.2,2.3,1.3,3.3,0.5c0.9-0.8,0.9-2-0.4-3.4l-0.5-0.5l0.6-0.5l4.5-0.4L251,114l0.7-0.6l4.5,4.7l-0.5,0.5l-4.6,0.4
				c1.4,1.6,1.3,3.2,0.1,4.3L251.1,123.2z"/>
			<path class="st2" d="M256.7,129.1c-1.2,1.2-3,1.2-4.7-0.6c-1-1.1-1.6-2.4-1.5-3.5l0.9-0.2c0,0.9,0.4,2.1,1.3,3
				c1.2,1.2,2.4,1.3,3.3,0.5c0.9-0.9,1-2-0.8-3.9l-1.5-1.6l4-3.1l3.8,4l-0.7,0.6l-3.2-3.3l-2.6,2l0.9,0.9c2.1,2.2,2,3.9,0.7,5.1
				L256.7,129.1z"/>
			<path class="st2" d="M262.9,135.5c-1.4,1.3-3.3,1-4.6-0.4c-1.8-1.9-1.5-4.3,0.8-6.5c2.5-2.4,5.1-2.2,7-0.2
				c0.6,0.7,1.1,1.4,1.2,2.1l-0.9,0.3c-0.1-0.6-0.5-1.2-1-1.7c-1.5-1.6-3.5-1.6-5.5,0.2c-0.2,0.2-0.4,0.4-0.6,0.6
				c1.2-0.4,2.4,0,3.4,1.1c1.4,1.5,1.5,3.3,0.1,4.5L262.9,135.5z M262.2,134.8c1-0.9,0.9-2.2-0.2-3.3s-2.5-1.2-3.4-0.4
				c-0.8,0.8-0.9,2.2,0.3,3.4C259.9,135.6,261.2,135.7,262.2,134.8L262.2,134.8z"/>
			<path class="st2" d="M275.6,153.4l0.7-3.9l-4,0.4l-0.8-0.8l4.9-0.5l0.7-4.6l0.8,0.8l-0.6,3.7l3.7-0.4l0.8,0.8l-4.6,0.5l-0.7,4.9
				l-0.8-0.8L275.6,153.4z"/>
			<path class="st2" d="M280.9,159l0.7-3.9l-4,0.4l-0.8-0.8l4.9-0.5l0.7-4.6l0.8,0.8l-0.6,3.7l3.7-0.4l0.8,0.8l-4.6,0.5l-0.7,4.9
				l-0.8-0.8L280.9,159z"/>
			<path class="st2" d="M286.2,164.6l0.7-3.9l-4,0.4l-0.8-0.8l4.9-0.5l0.7-4.6l0.8,0.8l-0.6,3.7l3.7-0.4l0.8,0.8l-4.6,0.5l-0.7,4.9
				l-0.8-0.8L286.2,164.6z"/>
			<path class="st2" d="M291.5,170.1l0.7-3.9l-4,0.4l-0.8-0.8l4.9-0.5l0.7-4.6l0.8,0.8l-0.6,3.7l3.7-0.4l0.8,0.8l-4.6,0.5l-0.7,4.9
				l-0.8-0.8L291.5,170.1z"/>
			<path class="st2" d="M309.7,189.4l0.7-3.9l-4,0.4l-0.8-0.8l4.9-0.5l0.7-4.6l0.8,0.8l-0.6,3.7l3.7-0.4l0.8,0.8l-4.6,0.5l-0.7,4.9
				l-0.8-0.8L309.7,189.4z"/>
			<path class="st2" d="M315,195l0.7-3.9l-4,0.4l-0.8-0.8l4.9-0.5l0.7-4.6l0.8,0.8l-0.6,3.7l3.7-0.4l0.8,0.8l-4.6,0.5l-0.7,4.9
				l-0.8-0.8L315,195z"/>
			<path class="st2" d="M320.3,200.6l0.7-3.9l-4,0.4l-0.8-0.8l4.9-0.5l0.7-4.6l0.8,0.8l-0.6,3.7l3.7-0.4l0.8,0.8l-4.6,0.5l-0.7,4.9
				l-0.8-0.8L320.3,200.6z"/>
			<path class="st2" d="M325.6,206.2l0.7-3.9l-4,0.4l-0.8-0.8l4.9-0.5l0.7-4.6l0.8,0.8l-0.6,3.7l3.7-0.4l0.8,0.8l-4.6,0.5l-0.7,4.9
				l-0.8-0.8L325.6,206.2z"/>
			<path class="st2" d="M349.3,216.6l-7.3,6.9l-0.7-0.8l6.7-6.3l-1.6-1.7l0.7-0.6l2.3,2.5L349.3,216.6z"/>
			<path class="st2" d="M350.3,228.1c-1.2,1.2-3,1.2-4.7-0.6c-1-1.1-1.6-2.4-1.6-3.5l0.9-0.2c0,0.9,0.4,2.1,1.3,3.1
				c1.1,1.2,2.3,1.3,3.3,0.5c0.9-0.8,0.9-2-0.4-3.4l-0.5-0.5l0.6-0.5l4.5-0.4l-3.5-3.7l0.7-0.6l4.5,4.7l-0.5,0.5l-4.6,0.4
				c1.4,1.6,1.3,3.2,0.1,4.3L350.3,228.1z"/>
			<path class="st2" d="M357,235.6l-1.4-1.5l-1.9,1.8l-0.7-0.8l1.9-1.8l-3.9-4.1l0.5-0.5l8.5-0.7l0.8,0.8l-8.3,0.7l3,3.2l1.7-1.6
				l0.7,0.7l-1.7,1.6l1.4,1.5l-0.7,0.6L357,235.6z"/>
			<path class="st2" d="M361.1,242.4l-0.7,0.6l-4.9-5.1l0.5-0.5l5.9,0.2c1.6,0,2.2-0.3,2.7-0.7c0.8-0.8,0.8-1.9-0.3-3
				c-0.8-0.9-1.7-1.3-2.7-1.2v-1c1.2,0,2.4,0.5,3.5,1.6c1.4,1.5,1.5,3.1,0.3,4.3c-0.7,0.7-1.5,1-3.4,1l-4.8-0.2l3.8,4L361.1,242.4z"
				/>
		</g>
		<g>
			<path class="st2" d="M219.1,124.1c1.1-1,2.6-0.9,3.6,0.2c0.6,0.6,0.8,1.3,0.7,2h-1c0-0.6,0-1-0.4-1.3c-0.6-0.7-1.5-0.7-2.2,0
				c-0.7,0.6-0.7,1.5,0,2.2c0.3,0.3,0.7,0.5,1.2,0.5v1c-0.7,0-1.4-0.2-2-0.9C218,126.7,218,125.2,219.1,124.1L219.1,124.1z"/>
			<path class="st2" d="M223.9,131.1l-1.5-1.6l-1,0.4l-0.8-0.8l5-1.7l0.8,0.8l-2,4.9l-0.8-0.8l0.5-1L223.9,131.1z M224.3,130.3
				l0.8-1.8l-1.9,0.7L224.3,130.3L224.3,130.3z"/>
			<path class="st2" d="M226.7,135.6l0.3-1.6l0,0l-0.7-0.7l-1,0.9l-0.8-0.8l3.5-3.3l1.4,1.5c0.9,0.9,1,2,0.2,2.7
				c-0.5,0.5-1.2,0.6-1.8,0.3l-0.4,1.8l-0.8-0.9L226.7,135.6z M228.8,132.2l-0.6-0.7l-1.2,1.2l0.6,0.7c0.5,0.5,0.9,0.5,1.3,0.2
				c0.4-0.4,0.4-0.8,0-1.3L228.8,132.2z"/>
			<path class="st2" d="M228.2,136.4l0.9-0.3c0,0.5,0.3,1.1,0.7,1.5c0.5,0.5,0.8,0.5,1,0.3c0.7-0.6-1.7-2.2-0.4-3.5
				c0.6-0.6,1.5-0.5,2.5,0.4c0.4,0.4,0.7,1,0.8,1.5l-0.8,0.3c-0.1-0.5-0.3-0.9-0.6-1.2c-0.5-0.5-0.8-0.5-1-0.3
				c-0.6,0.6,1.7,2.2,0.4,3.4c-0.6,0.6-1.5,0.5-2.5-0.5c-0.5-0.6-0.9-1.3-0.9-1.8L228.2,136.4z"/>
			<path class="st2" d="M239,141.5l-3.5,3.3l-0.8-0.8l1.4-1.4l-1.5-1.6l-1.4,1.4l-0.8-0.8l3.5-3.3l0.8,0.8l-1.4,1.3l1.5,1.6l1.4-1.3
				L239,141.5z"/>
			<path class="st2" d="M237.8,143.8c1-1,2.6-0.9,3.6,0.2c1,1.1,1,2.6,0,3.6s-2.6,0.9-3.6-0.2C236.8,146.3,236.8,144.8,237.8,143.8z
				 M240.6,146.8c0.7-0.6,0.7-1.5,0-2.1c-0.6-0.6-1.5-0.7-2.2,0c-0.7,0.6-0.7,1.5,0,2.2C239,147.5,239.9,147.6,240.6,146.8
				L240.6,146.8z"/>
			<path class="st2" d="M243.7,146.6l0.8,0.8l-2.8,2.7l1.7,1.8l-0.7,0.6l-2.4-2.6l3.5-3.3H243.7z"/>
			<path class="st2" d="M246.6,149.6l1.5,1.6c1.1,1.1,1.1,2.6,0,3.6s-2.5,0.9-3.6-0.3l-1.5-1.6l3.5-3.3H246.6z M245.2,153.8
				c0.7,0.7,1.5,0.8,2.2,0.1c0.7-0.6,0.7-1.5,0-2.2l-0.7-0.7l-2.2,2L245.2,153.8L245.2,153.8z"/>
			<path class="st2" d="M250.2,159.1l-0.6,0.6L247,157l3.5-3.3l2.5,2.6l-0.6,0.6l-1.7-1.8l-0.8,0.7l1.5,1.6l-0.6,0.6l-1.5-1.6
				l-0.8,0.8L250.2,159.1L250.2,159.1z"/>
			<path class="st2" d="M252.3,162.6l0.3-1.6l0,0l-0.7-0.7l-1,0.9l-0.8-0.8l3.5-3.3l1.4,1.5c0.9,0.9,1,2,0.2,2.7
				c-0.5,0.5-1.2,0.6-1.8,0.3l-0.4,1.8l-0.8-0.9L252.3,162.6z M254.4,159.2l-0.6-0.7l-1.2,1.2l0.6,0.7c0.5,0.5,0.9,0.5,1.3,0.2
				c0.4-0.4,0.4-0.8,0-1.3L254.4,159.2z"/>
		</g>
		<g>
			<path class="st2" d="M308.3,241.2c2.2-2.1,4.6-2.1,6.2-0.4c1.6,1.7,1.5,4.1-0.8,6.2c-2.2,2.1-4.6,2.1-6.2,0.4
				C305.9,245.7,306,243.3,308.3,241.2z M312.3,245.4c1.5-1.4,1.7-2.6,0.9-3.4c-0.7-0.8-1.9-0.7-3.4,0.7s-1.7,2.6-0.9,3.4
				C309.6,246.9,310.8,246.8,312.3,245.4z"/>
			<path class="st2" d="M318.5,254.4c-1.4,1.3-3.3,1-4.7-0.4c-1.8-1.9-1.7-4.1,0.5-6.2c2.3-2.2,5-2,6.9,0c0.7,0.7,1.2,1.6,1.3,2.3
				l-1.7,0.5c-0.1-0.6-0.4-1.1-0.9-1.6c-1.1-1.1-2.4-1.2-3.7,0c0.8,0,1.5,0.4,2.2,1.1c1.2,1.3,1.4,3.1,0,4.3L318.5,254.4z M317,253
				c0.6-0.6,0.6-1.4,0-2.1c-0.6-0.7-1.5-0.8-2.1-0.2c-0.6,0.5-0.6,1.4,0.1,2.1c0.6,0.7,1.4,0.8,2.1,0.2H317z"/>
			<path class="st2" d="M327.4,251.9l1.3,1.3l-12.1,5.4l-1.3-1.3L327.4,251.9L327.4,251.9z"/>
			<path class="st2" d="M326.6,264.7l-1.3,1.2l-4.8-5.1l1-1l4.9,0.3c1.1,0,1.6-0.2,1.9-0.5c0.5-0.5,0.5-1.2-0.2-1.9
				c-0.5-0.6-1.2-0.9-2-0.8l-0.3-1.8c1.3-0.2,2.6,0.3,3.8,1.5c1.4,1.5,1.6,3.2,0.4,4.4c-0.7,0.6-1.4,1-3.2,0.9l-2.9-0.2l2.7,2.9
				V264.7z"/>
			<path class="st2" d="M333.1,271.2l-1-1.1l-1.4,1.3l-1.4-1.5l1.4-1.3l-3.4-3.6l1-1l7.3-0.9l1.5,1.6l-6.8,0.9l1.7,1.8l1.3-1.2
				l1.4,1.5l-1.3,1.2l1,1.1L333.1,271.2L333.1,271.2z"/>
		</g>
		<path class="st0" d="M364.7,188c3.8-5.8,2.3-13.6-2.8-18.3c-1.6-1.5-3.4-2.7-5.3-3.5c-4.9-2-11.3-0.5-13.9,4.1
			c-2.1,3.8-1.2,8.5,0.2,12.5c1.5,4.2,4,8.6,8.2,10.2c4,1.6,8.9,0.1,11.9-3C363.6,189.4,364.1,188.7,364.7,188L364.7,188z"/>
		<g>
			<path class="st2" d="M212.9,132.6l-4.4,4.2l-0.8-0.8l4.4-4.2L212.9,132.6z"/>
			<path class="st2" d="M213.2,135.3l-1.1,2.1c-0.2,0.4-0.4,0.7-0.6,1l0,0c0.3-0.2,0.6-0.4,1-0.5l2.1-1l0.8,0.8l-4.3,1.8l-0.8-0.8
				l2-4.2L213.2,135.3z"/>
			<path class="st2" d="M214.5,143.1l0.3-0.4l0,0c-0.4,0-0.9-0.1-1.3-0.5c-0.6-0.6-0.5-1.4,0-1.9c0.8-0.8,1.9-0.4,3,0.7l0.1-0.1
				c0.2-0.2,0.5-0.6-0.1-1.2c-0.3-0.3-0.7-0.5-1.1-0.6l0.4-0.7c0.4,0.1,0.9,0.4,1.4,0.9c1,1,0.6,1.9-0.1,2.6l-1.1,1.1
				c-0.3,0.3-0.6,0.6-0.7,0.8L214.5,143.1z M215.9,141.5c-0.5-0.6-1.2-1-1.7-0.5c-0.3,0.3-0.3,0.6,0,0.9c0.3,0.3,0.7,0.4,1,0.2
				c0.1,0,0.1-0.1,0.2-0.1L215.9,141.5z"/>
			<path class="st2" d="M218.3,142.6c0.4-0.3,0.7-0.7,0.9-0.9l0.7,0.7l-0.4,0.5l0,0c0.4-0.1,1,0,1.5,0.5c0.5,0.6,0.7,1.5-0.3,2.4
				l-1.9,1.8l-0.8-0.8l1.8-1.7c0.5-0.4,0.6-0.9,0.2-1.4c-0.3-0.3-0.7-0.3-1.1-0.2c-0.1,0-0.2,0.1-0.3,0.2l-1.9,1.8l-0.8-0.8
				L218.3,142.6z"/>
			<path class="st2" d="M226.4,146.8L222,151l-0.8-0.8l4.4-4.2L226.4,146.8z"/>
			<path class="st2" d="M226.7,149.5l-1.1,2c-0.2,0.4-0.4,0.7-0.6,1l0,0c0.3-0.2,0.6-0.4,1-0.5l2.1-1l0.8,0.8l-4.3,1.8l-0.8-0.8
				l2-4.2L226.7,149.5z"/>
			<path class="st2" d="M228,157.3l0.3-0.4l0,0c-0.4,0-0.9-0.1-1.3-0.5c-0.6-0.6-0.5-1.4,0-1.9c0.8-0.8,1.9-0.4,3,0.7l0.1,0
				c0.2-0.2,0.5-0.6-0.1-1.2c-0.3-0.3-0.7-0.5-1-0.6l0.4-0.7c0.4,0.1,0.9,0.4,1.4,0.9c1,1,0.6,1.9-0.1,2.6l-1.1,1.1
				c-0.3,0.3-0.6,0.6-0.7,0.8L228,157.3z M229.5,155.7c-0.5-0.6-1.2-1-1.7-0.5c-0.3,0.3-0.3,0.6,0,0.9c0.3,0.3,0.7,0.4,1,0.2
				c0.1,0,0.1-0.1,0.2-0.1L229.5,155.7z"/>
			<path class="st2" d="M231.8,156.8c0.4-0.3,0.7-0.6,0.9-0.9l0.7,0.7l-0.4,0.5l0,0c0.4-0.1,1,0,1.5,0.5c0.5,0.6,0.7,1.5-0.3,2.4
				l-1.9,1.8l-0.8-0.8l1.8-1.7c0.5-0.4,0.6-0.9,0.2-1.4c-0.3-0.3-0.7-0.3-1.1-0.2c-0.1,0-0.2,0.1-0.3,0.2l-1.9,1.8l-0.8-0.8
				L231.8,156.8z"/>
			<path class="st2" d="M237.8,164.3c-1.2,1.1-2.5,0.8-3.2,0c-0.9-0.9-0.9-2.2,0.1-3.1c1-1,2.3-0.9,3.2,0
				C238.8,162.1,238.8,163.4,237.8,164.3z M235.5,161.9c-0.6,0.6-0.8,1.3-0.3,1.8c0.4,0.5,1.2,0.4,1.8-0.3c0.5-0.5,0.9-1.2,0.3-1.8
				C236.8,161.1,236,161.4,235.5,161.9z"/>
			<path class="st2" d="M240.6,164.1l-1.1,2.1c-0.2,0.4-0.4,0.7-0.6,1l0,0c0.3-0.2,0.6-0.4,1-0.5l2.1-1l0.8,0.8l-4.3,1.8l-0.8-0.8
				l2-4.2L240.6,164.1z"/>
		</g>
	</g>
</g>
<g id="Wallet">
	<g>
		<g>
			<path class="st0" d="M201.6,190.4h255.8c9.6,0,17.4,7.8,17.4,17.4v176.1c0,9.6-7.8,17.4-17.4,17.4H201.6
				c-9.6,0-17.4-7.8-17.4-17.4V207.8C184.2,198.2,192,190.4,201.6,190.4z"/>
			<path class="st3" d="M474.8,207.8c0,0,0-0.2,0-0.6c0-0.4,0-1-0.2-1.9c-0.2-1.6-0.8-4.1-2.6-6.8c-0.9-1.3-2-2.8-3.6-4
				c-1.5-1.3-3.4-2.4-5.7-3.1c-0.6-0.2-1.1-0.3-1.7-0.5c-0.6-0.1-1.2-0.2-1.8-0.3c-0.6,0-1.3,0-1.9,0c-0.7,0-1.3,0-2,0
				c-2.7,0-5.6,0-8.7,0c-24.6,0-60.3,0-104.3,0c-22,0-46.1,0-72,0c-12.9,0-26.3,0-40.1,0c-6.9,0-13.9,0-21,0c-1.8,0-3.6,0-5.3,0
				c-1.8,0-3.6,0-5.3,0.3s-3.4,0.9-5,1.8c-1.6,0.9-3,2-4.2,3.2c-1.3,1.3-2.3,2.8-3.1,4.4c-0.8,1.6-1.3,3.4-1.6,5.2
				c-0.2,1.8-0.2,3.6-0.2,5.5s0,3.7,0,5.6c0,7.5,0,15,0,22.6c0,15.2,0,30.8,0,46.6c0,31.7,0,64.5,0,98c0,4.1,1.5,8.2,4.3,11.3
				c2.7,3.1,6.5,5.2,10.6,5.7c2,0.3,4.1,0.2,6.2,0.2c2.1,0,4.1,0,6.2,0c4.1,0,8.2,0,12.3,0c16.4,0,32.5,0,48.3,0
				c31.7,0,62.2,0,91.3,0c29.1,0,56.8,0,82.6,0c3.2,0,6.4,0,9.6,0c1.6,0,3.2,0,4.7-0.3s3-0.8,4.4-1.5c0.7-0.3,1.3-0.8,2-1.1
				c0.6-0.5,1.3-0.9,1.8-1.4c1.2-1,2.1-2.2,3-3.4c1.6-2.5,2.6-5.5,2.8-8.4c0.1-12,0-23.5,0-34.5c0-44,0-79.6,0-104.3
				c0-12.3,0-21.9,0-28.3c0-3.2,0-5.7,0-7.4s0-2.5,0-2.5s0,0.9,0,2.5c0,1.7,0,4.1,0,7.4c0,6.5,0,16,0,28.3c0,24.6,0,60.2,0,104.3
				c0,11,0,22.5,0,34.6c-0.1,3-1.2,6-2.8,8.6c-0.9,1.3-1.9,2.5-3.1,3.5c-0.6,0.6-1.2,1-1.8,1.5c-0.7,0.4-1.3,0.9-2.1,1.2
				c-1.4,0.7-2.9,1.2-4.5,1.5s-3.2,0.3-4.8,0.3c-3.2,0-6.4,0-9.6,0c-25.9,0-53.5,0-82.6,0s-59.7,0-91.3,0c-15.8,0-32,0-48.3,0
				c-4.1,0-8.2,0-12.3,0c-2.1,0-4.1,0-6.2,0c-2.1,0-4.1,0-6.2-0.2c-4.2-0.5-8.1-2.7-10.9-5.9c-2.8-3.2-4.4-7.4-4.4-11.7
				c0-33.6,0-66.4,0-98c0-15.8,0-31.4,0-46.6c0-7.6,0-15.2,0-22.6c0-1.9,0-3.7,0-5.6c0-1.8,0-3.7,0.2-5.6c0.2-1.9,0.8-3.7,1.6-5.3
				c0.8-1.7,1.9-3.2,3.2-4.5s2.8-2.4,4.4-3.3c1.6-0.9,3.4-1.5,5.2-1.8l1.3-0.2h1.4c0.9-0.1,1.8,0,2.7,0c1.8,0,3.6,0,5.3,0
				c7.1,0,14.1,0,21,0c13.8,0,27.2,0,40.1,0c25.9,0,50,0,72,0c44,0,79.6,0,104.3,0c3.1,0,6,0,8.7,0c0.7,0,1.4,0,2,0c0.7,0,1.3,0,2,0
				c0.6,0.1,1.3,0.2,1.9,0.3c0.6,0.2,1.2,0.3,1.8,0.5c2.3,0.7,4.2,1.9,5.7,3.2s2.7,2.7,3.6,4.1c1.7,2.8,2.3,5.2,2.5,6.9
				c0.2,0.8,0.1,1.5,0.2,1.9C474.8,207.6,474.8,207.8,474.8,207.8L474.8,207.8z"/>
		</g>
		<g>
			<path class="st3" d="M464.7,203.4c0-0.1,1.3-0.3,3-0.3s3,0.1,3,0.3s-1.3,0.3-3,0.3S464.7,203.6,464.7,203.4z"/>
			<path class="st3" d="M440.2,203.4c0-0.1,2.7-0.3,6.1-0.3s6.1,0.1,6.1,0.3s-2.7,0.3-6.1,0.3S440.2,203.6,440.2,203.4z"/>
			<path class="st3" d="M415.7,203.4c0-0.1,2.7-0.3,6.1-0.3s6.1,0.1,6.1,0.3s-2.7,0.3-6.1,0.3S415.7,203.6,415.7,203.4z"/>
			<path class="st3" d="M391.2,203.4c0-0.1,2.7-0.3,6.1-0.3s6.1,0.1,6.1,0.3s-2.7,0.3-6.1,0.3S391.2,203.6,391.2,203.4z"/>
			<path class="st3" d="M366.8,203.4c0-0.1,2.7-0.3,6.1-0.3s6.1,0.1,6.1,0.3s-2.7,0.3-6.1,0.3S366.8,203.6,366.8,203.4z"/>
			<path class="st3" d="M342.3,203.4c0-0.1,2.7-0.3,6.1-0.3s6.1,0.1,6.1,0.3s-2.7,0.3-6.1,0.3S342.3,203.6,342.3,203.4z"/>
			<path class="st3" d="M317.8,203.4c0-0.1,2.7-0.3,6.1-0.3s6.1,0.1,6.1,0.3s-2.7,0.3-6.1,0.3S317.8,203.6,317.8,203.4z"/>
			<path class="st3" d="M293.3,203.4c0-0.1,2.7-0.3,6.1-0.3s6.1,0.1,6.1,0.3s-2.7,0.3-6.1,0.3S293.3,203.6,293.3,203.4z"/>
			<path class="st3" d="M268.9,203.4c0-0.1,2.7-0.3,6.1-0.3s6.1,0.1,6.1,0.3s-2.7,0.3-6.1,0.3S268.9,203.6,268.9,203.4z"/>
			<path class="st3" d="M244.4,203.4c0-0.1,2.7-0.3,6.1-0.3s6.1,0.1,6.1,0.3s-2.7,0.3-6.1,0.3S244.4,203.6,244.4,203.4z"/>
			<path class="st3" d="M219.9,203.4c0-0.1,2.7-0.3,6.1-0.3s6.1,0.1,6.1,0.3s-2.7,0.3-6.1,0.3S219.9,203.6,219.9,203.4z"/>
			<path class="st3" d="M201.7,209.4c-0.1,0-0.3-2.7-0.3-6c0.5-0.5,0.1-0.1,0.3-0.3h0.2h0.2h0.3c0.2,0,0.4,0,0.6,0
				c0.4,0,0.8,0,1.1,0c0.7,0,1.3,0,1.9,0c1.1,0,1.8,0.1,1.8,0.2s-0.7,0.1-1.8,0.2c-0.6,0-1.3,0-1.9,0c-0.4,0-0.7,0-1.1,0
				c-0.2,0-0.4,0-0.6,0h-0.3h-0.2h-0.2c0.1-0.1-0.3,0.3,0.3-0.3c0,3.3-0.1,6-0.3,6V209.4z"/>
			<path class="st3" d="M201.7,231.8c-0.1,0-0.3-2.5-0.3-5.6s0.1-5.6,0.3-5.6s0.3,2.5,0.3,5.6S201.9,231.8,201.7,231.8z"/>
			<path class="st3" d="M201.7,254.2c-0.1,0-0.3-2.5-0.3-5.6s0.1-5.6,0.3-5.6s0.3,2.5,0.3,5.6S201.9,254.2,201.7,254.2z"/>
			<path class="st3" d="M201.7,276.7c-0.1,0-0.3-2.5-0.3-5.6s0.1-5.6,0.3-5.6s0.3,2.5,0.3,5.6S201.9,276.7,201.7,276.7z"/>
			<path class="st3" d="M201.7,299.1c-0.1,0-0.3-2.5-0.3-5.6s0.1-5.6,0.3-5.6s0.3,2.5,0.3,5.6S201.9,299.1,201.7,299.1z"/>
			<path class="st3" d="M201.7,321.5c-0.1,0-0.3-2.5-0.3-5.6s0.1-5.6,0.3-5.6s0.3,2.5,0.3,5.6S201.9,321.5,201.7,321.5z"/>
			<path class="st3" d="M201.7,343.9c-0.1,0-0.3-2.5-0.3-5.6s0.1-5.6,0.3-5.6s0.3,2.5,0.3,5.6S201.9,343.9,201.7,343.9z"/>
			<path class="st3" d="M201.7,366.4c-0.1,0-0.3-2.5-0.3-5.6s0.1-5.6,0.3-5.6s0.3,2.5,0.3,5.6S201.9,366.4,201.7,366.4z"/>
			<path class="st3" d="M207.7,383.6c0,0.1-2.7,0.3-6,0.3c-0.5-0.5-0.1-0.1-0.3-0.3l0,0l0,0l0,0v-0.2v-0.3c0-0.2,0-0.4,0-0.6
				c0-0.4,0-0.8,0-1.1c0-0.7,0-1.3,0-1.9c0-1.1,0.1-1.8,0.2-1.8s0.1,0.7,0.2,1.8c0,0.6,0,1.3,0,1.9c0,0.4,0,0.7,0,1.1
				c0,0.2,0,0.4,0,0.6v0.3v0.2l0,0v0.2c-0.1-0.1,0.3,0.3-0.3-0.3c3.3,0,6,0.1,6,0.3L207.7,383.6z"/>
			<path class="st3" d="M231.8,383.6c0,0.1-2.7,0.3-6,0.3s-6-0.1-6-0.3s2.7-0.3,6-0.3S231.8,383.4,231.8,383.6z"/>
			<path class="st3" d="M255.9,383.6c0,0.1-2.7,0.3-6,0.3s-6-0.1-6-0.3s2.7-0.3,6-0.3S255.9,383.4,255.9,383.6z"/>
			<path class="st3" d="M280,383.6c0,0.1-2.7,0.3-6,0.3s-6-0.1-6-0.3s2.7-0.3,6-0.3S280,383.4,280,383.6z"/>
			<path class="st3" d="M304.2,383.6c0,0.1-2.7,0.3-6,0.3s-6-0.1-6-0.3s2.7-0.3,6-0.3S304.2,383.4,304.2,383.6z"/>
			<path class="st3" d="M328.3,383.6c0,0.1-2.7,0.3-6,0.3s-6-0.1-6-0.3s2.7-0.3,6-0.3S328.3,383.4,328.3,383.6z"/>
			<path class="st3" d="M352.4,383.6c0,0.1-2.7,0.3-6,0.3s-6-0.1-6-0.3s2.7-0.3,6-0.3S352.4,383.4,352.4,383.6z"/>
			<path class="st3" d="M376.5,383.6c0,0.1-2.7,0.3-6,0.3s-6-0.1-6-0.3s2.7-0.3,6-0.3S376.5,383.4,376.5,383.6z"/>
			<path class="st3" d="M400.6,383.6c0,0.1-2.7,0.3-6,0.3s-6-0.1-6-0.3s2.7-0.3,6-0.3S400.6,383.4,400.6,383.6z"/>
			<path class="st3" d="M424.8,383.6c0,0.1-2.7,0.3-6,0.3s-6-0.1-6-0.3s2.7-0.3,6-0.3S424.8,383.4,424.8,383.6z"/>
			<path class="st3" d="M448.9,383.6c0,0.1-2.7,0.3-6,0.3s-6-0.1-6-0.3s2.7-0.3,6-0.3S448.9,383.4,448.9,383.6z"/>
			<path class="st3" d="M466.9,383.6c0,0.1-1.3,0.3-3,0.3s-3-0.1-3-0.3s1.3-0.3,3-0.3S466.9,383.4,466.9,383.6z"/>
		</g>
		<g class="st1">
			<path d="M284.5,307.3c0,0,0,10-3,16s-4,8.4-10.4,10.7c-6.4,2.3-86.9,11.2-86.9,11.2V318L284.5,307.3z"/>
		</g>
		<g class="st1">
			<path d="M283.1,269.6c0,0,0.9-10.2-24.7-14c-29.3-4.3-74.1-9.7-74.1-9.7v19.3l98.8,4.3L283.1,269.6z"/>
		</g>
		<g>
			<g>
				<path class="st0" d="M186.9,260.4h83.3c7.9,0,14.3,6.4,14.3,14.3V312c0,7.9-6.4,14.3-14.3,14.3h-83.3c-7.9,0-14.3-6.4-14.3-14.3
					v-37.3C172.6,266.8,179,260.4,186.9,260.4z"/>
				<path class="st3" d="M186.9,326.3c0,0-0.3,0-0.9,0c-0.6,0-1.4,0-2.5-0.3c-1.1-0.2-2.4-0.7-3.8-1.5c-1.4-0.8-2.9-2-4.2-3.6
					c-1.3-1.7-2.4-3.8-2.8-6.3c-0.3-1.3-0.2-2.6-0.2-4s0-2.8,0-4.3c0-6,0-12.7,0-20.2c0-3.7,0-7.7,0-11.8c0.1-4.1,2.1-8.4,5.7-11.1
					c1.8-1.3,3.9-2.3,6.2-2.7c1.1-0.2,2.3-0.3,3.5-0.2c1.2,0,2.3,0,3.5,0c4.7,0,9.5,0,14.5,0c19.8,0,41.6,0,64.4,0
					c1.5,0,2.9,0.2,4.3,0.6s2.7,1.1,3.9,1.9c1.2,0.8,2.2,1.8,3.2,2.9c0.9,1.1,1.6,2.4,2.2,3.7c0.5,1.3,0.8,2.7,1,4.1
					c0.1,1.4,0,2.8,0,4.2c0,2.7,0,5.5,0,8.2c0,5.4,0,10.7,0,15.9c0,2.6,0,5.2,0,7.7c0,1.3,0,2.5,0,3.8c0,0.6-0.2,1.3-0.2,1.9
					c-0.2,0.6-0.3,1.2-0.5,1.8c-1.6,4.8-5.8,8.4-10.4,9.5c-0.6,0.2-1.2,0.2-1.8,0.3c-0.6,0-1.2,0-1.8,0c-1.2,0-2.3,0-3.4,0
					c-2.3,0-4.5,0-6.7,0c-8.8,0-17,0-24.5,0c-15,0-27.1,0-35.5,0c-4.2,0-7.4,0-9.6,0c-1.1,0-1.9,0-2.5,0s-0.9,0-0.9,0s0.3,0,0.9,0
					c0.6,0,1.4,0,2.5,0c2.2,0,5.5,0,9.6,0c8.4,0,20.5,0,35.5,0c7.5,0,15.7,0,24.5,0c2.2,0,4.4,0,6.7,0c2.3,0,4.6,0.2,6.8-0.4
					c4.5-1,8.5-4.5,10.1-9.2c0.9-2.3,0.7-4.8,0.7-7.4c0-2.5,0-5.1,0-7.7c0-5.2,0-10.5,0-15.9c0-2.7,0-5.4,0-8.2c0-1.4,0-2.8,0-4.1
					c-0.2-1.3-0.5-2.7-1-3.9c-0.5-1.3-1.2-2.5-2.1-3.5c-0.9-1.1-1.9-2-3-2.8c-1.2-0.8-2.4-1.4-3.7-1.8c-1.3-0.4-2.7-0.6-4.1-0.6
					c-22.9,0-44.6,0-64.4,0c-5,0-9.8,0-14.5,0c-1.2,0-2.3,0-3.5,0s-2.3,0-3.4,0.2c-2.2,0.4-4.3,1.3-6,2.6c-3.5,2.6-5.5,6.8-5.6,10.8
					c0,4.1,0,8,0,11.7c0,7.5,0,14.3,0,20.2c0,1.5,0,2.9,0,4.3s0,2.7,0.2,4c0.4,2.5,1.5,4.6,2.8,6.3c1.3,1.7,2.7,2.8,4.1,3.6
					c1.4,0.8,2.7,1.3,3.8,1.5c1.1,0.3,1.9,0.4,2.5,0.4s0.9,0,0.9,0L186.9,326.3z"/>
			</g>
			<g>
				
					<ellipse transform="matrix(0.1602 -0.9871 0.9871 0.1602 -81.3542 495.9796)" class="st3" cx="250.8" cy="295.8" rx="24" ry="24"/>
				<path class="st4" d="M256.9,315.4c0-0.1,2.5-0.6,5.7-3c1.6-1.2,3.3-2.8,4.8-5s2.7-4.9,3.2-7.8c0.5-3,0.2-5.9-0.6-8.4
					c-0.7-2.5-1.9-4.6-3.1-6.3c-2.4-3.2-4.6-4.5-4.5-4.6c0,0,0.1,0,0.4,0.2c0.2,0.2,0.6,0.4,1.1,0.8c0.9,0.7,2.1,1.8,3.3,3.4
					c1.2,1.6,2.4,3.8,3.2,6.3c0.8,2.6,1.1,5.6,0.6,8.7s-1.8,5.8-3.3,8s-3.3,3.9-5,5c-1.7,1.2-3.2,1.8-4.2,2.2
					c-0.5,0.2-1,0.3-1.2,0.4C257,315.3,256.9,315.4,256.9,315.4L256.9,315.4z"/>
			</g>
		</g>
	</g>
</g>
<g id="Money">
	<g>
		<g>
			<g>
				<path class="st0" d="M625.9,142.2c2.2,24.3-15.8,45.8-40.2,47.9c-24.3,2.2-45.8-15.7-48-40s15.8-45.8,40.2-47.9
					C602.2,100,623.7,117.9,625.9,142.2L625.9,142.2z"/>
				<g class="st1">
					<path d="M615.3,142.1c-0.2,0-0.5-1.4-1.2-4c-0.8-2.5-2.1-6.1-4.8-10c-1.3-1.9-3-3.9-5-5.7c-2-1.8-4.4-3.6-7.1-5
						c-1.4-0.7-2.8-1.3-4.3-1.9c-1.5-0.5-3.1-1-4.7-1.3c-1.6-0.3-3.3-0.5-5-0.6c-1.7,0-3.5,0-5.2,0.2s-3.5,0.6-5.1,1
						c-1.7,0.5-3.2,1.1-4.7,1.8c-1.5,0.7-2.9,1.5-4.3,2.4c-1.3,0.9-2.6,1.8-3.7,2.8c-2.3,2-4.2,4.3-5.7,6.5
						c-1.5,2.3-2.6,4.6-3.5,6.7c-1.7,4.4-2.1,8.2-2.3,10.8c-0.1,2.6,0,4.1-0.3,4.1c-0.1,0-0.6-1.4-0.7-4.1c-0.1-2.7,0-6.7,1.6-11.4
						c0.8-2.3,1.9-4.8,3.4-7.3s3.5-4.9,5.9-7.1c1.2-1.1,2.5-2.2,4-3.1c1.4-1,2.9-1.9,4.6-2.6c1.6-0.8,3.3-1.4,5.1-1.9
						s3.6-0.9,5.5-1.1s3.8-0.3,5.6-0.2c1.8,0,3.7,0.3,5.4,0.7c1.8,0.3,3.4,0.8,5.1,1.4c1.6,0.6,3.1,1.3,4.6,2.1
						c2.9,1.6,5.4,3.5,7.5,5.5s3.7,4.2,5,6.3c2.6,4.2,3.7,8.1,4.2,10.7c0.5,2.7,0.4,4.2,0.3,4.2L615.3,142.1z"/>
				</g>
			</g>
			<g class="st1">
				<path d="M587.4,165.9l0.6,5.8l-5.2,0.5l-0.6-5.7c-5.2,0.2-10.3-0.9-13.4-2.8l2.2-6.7c2.8,1.7,6.7,2.7,10.5,2.7l-0.9-8.7
					c-5.9-0.8-12.6-2.1-13.4-9.5c-0.6-5.5,2.9-10.7,11.1-12.5l-0.6-5.8l5.2-0.5l0.6,5.7c3.9,0,7.9,0.6,10.9,2.1l-1.9,6.7
					c-2.8-1.2-5.6-1.8-8.3-1.9l0.9,8.9c5.9,0.8,12.5,2,13.3,9.4C599,159,595.5,164.1,587.4,165.9L587.4,165.9z M579.8,143.4L579,136
					c-2.7,0.9-3.6,2.5-3.5,4.3C575.7,142.1,577.4,143,579.8,143.4L579.8,143.4z M590.1,155c-0.2-1.8-1.8-2.7-4.1-3.2l0.7,7.2
					C589.2,158.2,590.3,156.7,590.1,155L590.1,155z"/>
			</g>
		</g>
		<path class="st3" d="M548.2,149.3c0,0,0,0,0,0.3c0,0.2,0,0.5,0.1,0.8c0,0.4,0.1,0.8,0.2,1.3c0,0.5,0.2,1.1,0.3,1.7
			c0.6,2.6,1.8,6.3,4.3,10.4c1.2,2,2.9,4.1,4.8,6.1c0.5,0.5,1,0.9,1.6,1.4c0.3,0.2,0.5,0.5,0.8,0.7s0.6,0.4,0.9,0.7
			c0.6,0.4,1.2,0.9,1.8,1.3c0.7,0.4,1.3,0.8,2,1.2c2.8,1.5,5.8,2.8,9.2,3.6c3.3,0.7,6.9,1,10.5,0.7c3.6-0.4,7.1-1.3,10.2-2.6
			c3.2-1.3,5.9-3.2,8.4-5.2c0.6-0.5,1.2-1,1.7-1.6c0.6-0.5,1-1.1,1.6-1.6c0.3-0.3,0.5-0.5,0.8-0.8c0.2-0.3,0.4-0.6,0.7-0.9
			c0.4-0.6,0.9-1.1,1.3-1.7c1.5-2.3,2.8-4.6,3.6-6.9c1.7-4.4,2.2-8.3,2.3-11c0-0.7,0-1.3,0-1.8s0-0.9,0-1.3c0-0.3,0-0.6,0-0.8
			s0-0.3,0-0.3s0,0,0,0.3c0,0.2,0,0.5,0,0.8c0,0.4,0,0.8,0,1.3s0,1.1,0,1.8c0,2.7-0.5,6.6-2.2,11.1c-0.8,2.3-2.1,4.6-3.6,7
			c-0.4,0.6-0.9,1.1-1.3,1.7c-0.2,0.3-0.4,0.6-0.7,0.9c-0.3,0.3-0.5,0.6-0.8,0.8c-0.5,0.5-1,1.1-1.6,1.7c-0.6,0.5-1.2,1-1.8,1.6
			c-2.5,2-5.3,3.9-8.5,5.3c-3.2,1.3-6.7,2.3-10.4,2.7c-3.7,0.3-7.3,0-10.7-0.7s-6.5-2.1-9.3-3.6c-0.7-0.4-1.3-0.8-2-1.2
			s-1.2-0.9-1.8-1.4c-0.3-0.2-0.6-0.5-0.9-0.7c-0.3-0.2-0.6-0.5-0.8-0.7c-0.5-0.5-1.1-1-1.6-1.5c-1.9-2.1-3.6-4.1-4.8-6.2
			c-2.5-4.1-3.7-7.9-4.2-10.5c-0.2-0.6-0.2-1.2-0.3-1.8c0-0.5-0.1-0.9-0.2-1.3c0-0.3,0-0.6,0-0.8s0-0.3,0-0.3H548.2z"/>
	</g>
	<g>
		<g>
			<g>
				<path class="st0" d="M563.5,272.8c-6.2,12.8-21.5,18.1-34.3,11.9s-18.2-21.5-12-34.3s21.5-18.1,34.3-11.9
					C564.3,244.7,569.7,260,563.5,272.8z"/>
				<g class="st1">
					<path d="M558.3,269.5c-0.1,0,0.2-0.9,0.6-2.3c0.4-1.5,0.8-3.7,0.6-6.4c0-1.3-0.3-2.8-0.8-4.3s-1.1-3.1-2.1-4.6
						c-0.5-0.8-1-1.5-1.6-2.2s-1.2-1.4-2-2c-0.7-0.6-1.5-1.2-2.3-1.8c-0.8-0.5-1.7-1-2.7-1.4c-0.9-0.4-1.9-0.7-2.9-1
						s-1.9-0.4-2.9-0.5s-1.9-0.1-2.8,0c-0.9,0-1.8,0.1-2.7,0.3c-1.7,0.3-3.4,0.9-4.8,1.5c-1.4,0.7-2.7,1.5-3.7,2.3
						c-2.1,1.7-3.5,3.5-4.4,4.7c-0.9,1.3-1.3,2-1.4,2c0,0,0.1-0.9,0.9-2.3c0.7-1.4,2-3.3,4.2-5.2c1.1-0.9,2.4-1.8,3.9-2.6
						s3.2-1.4,5.1-1.8c0.9-0.2,1.9-0.3,2.9-0.4c1,0,2,0,3.1,0c1,0.1,2.1,0.3,3.1,0.6s2.1,0.6,3.1,1.1s2,1,2.9,1.6s1.7,1.2,2.5,1.9
						s1.5,1.4,2.1,2.2s1.2,1.6,1.7,2.4c1,1.6,1.6,3.3,2.1,5c0.4,1.6,0.6,3.2,0.7,4.6c0,2.9-0.5,5.1-1.1,6.6s-1,2.2-1.1,2.2
						L558.3,269.5z"/>
				</g>
			</g>
			<g class="st1">
				<path d="M537.3,273.1l-1.4,3.1l-2.8-1.3l1.4-3c-2.7-1.4-4.9-3.5-5.9-5.4l3.1-2.7c0.9,1.7,2.6,3.3,4.5,4.5l2.1-4.6
					c-2.7-2.2-5.7-4.8-3.8-8.7c1.4-2.9,4.7-4.5,9.3-2.9l1.4-3.1l2.8,1.3l-1.4,3c2,1.1,3.8,2.6,4.8,4.3l-3,2.8
					c-1-1.5-2.3-2.6-3.6-3.4l-2.2,4.7c2.7,2.1,5.6,4.7,3.8,8.6c-1.3,2.9-4.6,4.4-9.2,2.9L537.3,273.1z M540.2,259.6l1.8-3.9
					c-1.6-0.3-2.6,0.2-3,1.1C538.6,257.8,539.1,258.7,540.2,259.6z M541.9,268.5c0.4-1-0.1-1.9-1.1-2.8l-1.8,3.8
					C540.5,269.8,541.5,269.5,541.9,268.5L541.9,268.5z"/>
			</g>
		</g>
		<path class="st3" d="M522.7,253.1c0,0-0.3,0.8-0.8,2.3c-0.5,1.5-1,3.7-0.9,6.4c0,1.4,0.2,2.9,0.6,4.5c0.4,1.6,1,3.2,1.9,4.8
			c0.9,1.6,2,3.1,3.5,4.5c1.4,1.3,3.1,2.5,5,3.5c1.9,0.9,3.9,1.5,5.8,1.7c2,0.3,3.9,0.2,5.7,0c1.8-0.3,3.4-0.8,4.9-1.5
			s2.8-1.5,3.8-2.3c2.2-1.7,3.6-3.5,4.4-4.8c0.8-1.3,1.2-2.1,1.3-2c0,0,0,0.2-0.3,0.6c-0.2,0.4-0.4,0.9-0.9,1.6
			c-0.8,1.3-2.2,3.2-4.4,4.9c-1.1,0.9-2.4,1.7-3.9,2.4c-1.5,0.7-3.2,1.3-5,1.6c-1.8,0.3-3.8,0.4-5.8,0.1s-4-0.9-6-1.8
			c-1.9-1-3.7-2.2-5.1-3.6c-1.5-1.4-2.6-3-3.6-4.6c-0.9-1.6-1.5-3.3-1.9-4.9s-0.6-3.1-0.6-4.6c0-2.8,0.6-5,1.1-6.5
			c0.2-0.7,0.5-1.3,0.7-1.7s0.3-0.6,0.3-0.6L522.7,253.1z"/>
	</g>
	<g>
		<g>
			<g>
				<path class="st0" d="M138.9,269.1c3.3,22.9-12.6,44.2-35.5,47.5s-44.2-12.5-47.6-35.4c-3.3-22.9,12.6-44.2,35.5-47.5
					S135.5,246.2,138.9,269.1z"/>
				<g class="st1">
					<path d="M128.9,269.5c-0.2,0-0.5-1.3-1.4-3.7c-0.9-2.3-2.3-5.7-5.1-9.2c-1.4-1.7-3-3.5-5-5.1s-4.3-3.1-7-4.3
						c-1.3-0.6-2.7-1.1-4.2-1.5s-3-0.8-4.5-1c-1.6-0.2-3.2-0.3-4.8-0.3c-1.6,0-3.3,0.2-4.9,0.5s-3.2,0.7-4.8,1.2
						c-1.5,0.5-3,1.2-4.4,1.9s-2.7,1.6-3.9,2.5c-1.2,0.9-2.3,1.9-3.4,2.9c-2.1,2-3.7,4.3-5.1,6.5c-1.3,2.2-2.3,4.5-2.9,6.6
						c-1.4,4.2-1.6,7.9-1.6,10.4s0.2,3.9,0,3.9c-0.1,0-0.6-1.3-0.9-3.9c-0.3-2.5-0.3-6.4,0.9-10.9c0.6-2.2,1.5-4.7,2.8-7.1
						s3.1-4.8,5.2-7.1c1.1-1.1,2.3-2.2,3.6-3.2c1.3-1,2.7-1.9,4.2-2.7s3.1-1.5,4.7-2.1c1.7-0.6,3.4-1,5.2-1.4
						c1.8-0.3,3.5-0.5,5.3-0.5s3.5,0.1,5.2,0.3s3.3,0.6,4.9,1.1s3,1.1,4.4,1.7c2.8,1.3,5.3,3,7.3,4.8c2.1,1.8,3.8,3.8,5.1,5.7
						c2.7,3.8,4,7.4,4.6,9.9c0.6,2.5,0.6,3.9,0.5,4L128.9,269.5z"/>
				</g>
			</g>
			<g class="st1">
				<path d="M103.7,293.5l0.9,5.5l-4.9,0.8l-0.9-5.4c-4.9,0.5-9.8-0.3-12.9-2l1.7-6.4c2.7,1.4,6.5,2.2,10.1,2l-1.3-8.2
					c-5.7-0.5-12-1.3-13.2-8.3c-0.8-5.2,2.2-10.3,9.9-12.4l-0.9-5.5l4.9-0.8l0.9,5.4c3.7-0.3,7.5,0.1,10.5,1.4L107,266
					c-2.7-1-5.4-1.4-7.9-1.4l1.3,8.4c5.7,0.4,11.9,1.3,13.1,8.2C114.3,286.3,111.3,291.3,103.7,293.5z M95.3,272.6l-1.1-7
					c-2.5,1-3.3,2.6-3.1,4.2C91.4,271.5,93,272.2,95.3,272.6z M105.6,283.1c-0.3-1.7-1.8-2.4-4.1-2.8l1.1,6.8
					C105,286.2,105.8,284.7,105.6,283.1z"/>
			</g>
		</g>
		<path class="st3" d="M65.7,279.8c0,0,0,0,0,0.2s0.1,0.4,0.2,0.7c0,0.3,0.2,0.7,0.3,1.2c0.1,0.5,0.2,1,0.4,1.6
			c0.7,2.4,2,5.9,4.6,9.6c1.3,1.9,3,3.7,4.9,5.5c0.5,0.4,1,0.8,1.6,1.3c0.3,0.2,0.5,0.4,0.8,0.6s0.6,0.4,0.9,0.6
			c0.6,0.4,1.2,0.8,1.8,1.2c0.6,0.3,1.3,0.7,1.9,1c2.7,1.3,5.6,2.4,8.9,2.9c3.2,0.5,6.6,0.6,10,0.1s6.6-1.6,9.5-3s5.4-3.3,7.6-5.3
			c0.5-0.5,1-1,1.6-1.6c0.5-0.5,0.9-1.1,1.4-1.6c0.2-0.3,0.4-0.5,0.7-0.8c0.2-0.3,0.4-0.6,0.6-0.9c0.4-0.6,0.8-1.1,1.1-1.7
			c1.3-2.3,2.4-4.5,3.1-6.7c1.4-4.3,1.7-8,1.6-10.5c0-0.6,0-1.2,0-1.7s0-0.9,0-1.2c0-0.3,0-0.6,0-0.8c0-0.2,0-0.3,0-0.3s0,0,0,0.3
			c0,0.2,0,0.4,0,0.8c0,0.3,0,0.8,0.1,1.2c0,0.5,0.1,1,0.1,1.7c0.1,2.5-0.1,6.3-1.5,10.6c-0.7,2.2-1.7,4.5-3.1,6.8
			c-0.4,0.6-0.8,1.1-1.1,1.7c-0.2,0.3-0.4,0.6-0.6,0.9s-0.4,0.5-0.7,0.8c-0.5,0.5-0.9,1.1-1.4,1.7c-0.5,0.5-1,1.1-1.6,1.6
			c-2.2,2-4.8,4-7.7,5.4c-3,1.4-6.2,2.5-9.7,3.1c-3.5,0.5-6.9,0.4-10.2-0.1c-3.3-0.5-6.3-1.7-9-3c-0.7-0.4-1.3-0.7-2-1.1
			c-0.6-0.4-1.2-0.8-1.8-1.2c-0.3-0.2-0.6-0.4-0.9-0.6s-0.5-0.4-0.8-0.7c-0.5-0.4-1.1-0.9-1.6-1.3c-1.9-1.8-3.6-3.7-4.9-5.6
			c-2.6-3.8-3.9-7.3-4.5-9.8c-0.2-0.6-0.3-1.2-0.4-1.6c0-0.5-0.2-0.9-0.2-1.2C65.7,280.3,65.7,280,65.7,279.8
			c-0.1-0.2-0.1-0.3-0.1-0.3L65.7,279.8z"/>
	</g>
</g>
<g id="Character">
	<g>
		<g>
			<path class="st5" d="M511.5,213.5c0,0,0-6.7-0.4-6.7l-13.7,3c-0.1,0.9-1.9,11.8-1.6,12.8l15.4,4.3c0,0,0.2-13.1,0.2-13.4
				L511.5,213.5z"/>
			<g>
				<g>
					<path class="st5" d="M511.5,225.9c0,0,0-0.1,0-0.3c0.2-1.5,0-8-0.7-8.3c-0.9-0.3-3.1,0.2-3.3,1.1c-0.2,0.9,0.4,8.2,0.4,8.2
						s0.2,1.2,2.1,1.4C511.2,228.2,511.5,225.9,511.5,225.9L511.5,225.9z"/>
					<path class="st5" d="M507.6,228.2c0,0,0-0.1,0-0.3c0.2-1.5,0-8-0.7-8.3c-0.9-0.3-3.1,0.2-3.3,1.1c-0.2,0.9,0.4,8.2,0.4,8.2
						s0.2,1.2,2.1,1.4C507.3,230.5,507.6,228.2,507.6,228.2L507.6,228.2z"/>
					<path class="st5" d="M503.8,229.4c0,0,0-0.1,0-0.3c0.2-1.5,0-8-0.7-8.3c-0.9-0.3-3.1,0.2-3.3,1.1c-0.2,0.9,0.4,8.2,0.4,8.2
						s0.2,1.2,2.1,1.4C503.5,231.7,503.8,229.4,503.8,229.4L503.8,229.4z"/>
					<path class="st5" d="M500,230.5c0,0,0-0.1,0-0.3c0.2-1.5,0-8-0.7-8.3c-0.9-0.3-3.1,0.2-3.3,1.1c-0.2,0.9,0.4,8.2,0.4,8.2
						s0.2,1.2,2.1,1.4C499.7,232.8,500,230.5,500,230.5L500,230.5z"/>
					<path class="st6" d="M507.5,220.3c0.1,0,0.2,1.4,0.3,3.2c0,1.7,0,3.1-0.1,3.1s-0.2-1.4-0.3-3.2
						C507.4,221.7,507.4,220.3,507.5,220.3z"/>
					<path class="st6" d="M503.7,220.2c0.1,0,0.3,2,0.4,4.5c0,2.5,0,4.5,0,4.5c-0.1,0-0.3-2-0.4-4.5
						C503.7,222.2,503.7,220.2,503.7,220.2z"/>
					<g class="st7">
						<path class="st6" d="M499.8,220.6c0.1,0,0.3,2,0.4,4.5c0,2.5,0,4.5,0,4.5c-0.1,0-0.3-2-0.4-4.5
							C499.8,222.6,499.8,220.6,499.8,220.6z"/>
					</g>
				</g>
				<path class="st5" d="M497.4,210.1c0,0-5.4,12.3-4.6,13.1s3.3,1.9,3.3,1.9L497.4,210.1L497.4,210.1z"/>
			</g>
		</g>
		<g>
			<g>
				<g>
					<path class="st5" d="M467.4,45.2l-4,46l-23-1.8c-0.1-2.7,0-13.1,0-13.1s-9.6-1.5-9.7-11.1c0-4.7,0.6-14.3,1.3-22.9
						c0.8-9.6,9.1-16.8,18.7-16.3l0,0c10,0.6,17.5,9.3,16.6,19.2L467.4,45.2z"/>
					<path class="st6" d="M440.5,76.1c0,0,6.1,0.5,12.5-3.6c0,0-3,6.9-12.5,6V76.1L440.5,76.1z"/>
				</g>
				<g>
					<g>
						<g>
							<path class="st3" d="M434.6,49c0,0.7,0.6,1.3,1.3,1.4c0.8,0,1.4-0.5,1.4-1.2s-0.6-1.3-1.3-1.4
								C435.2,47.8,434.6,48.3,434.6,49z"/>
							<path class="st3" d="M434.1,47.1c0.2,0.2,1.2-0.6,2.7-0.6s2.6,0.7,2.7,0.6c0,0,0-0.4-0.6-0.7c-0.5-0.3-1.3-0.7-2.2-0.7
								c-0.9,0-1.7,0.3-2.1,0.7C434.1,46.7,434,47.1,434.1,47.1L434.1,47.1z"/>
						</g>
						<g>
							<path class="st3" d="M449.1,49c0,0.7,0.6,1.3,1.3,1.4c0.8,0,1.4-0.5,1.4-1.2s-0.6-1.3-1.3-1.4
								C449.7,47.8,449.1,48.3,449.1,49z"/>
							<path class="st3" d="M448.6,47.3c0.2,0.2,1.2-0.6,2.7-0.6s2.6,0.7,2.7,0.6c0,0,0-0.4-0.6-0.7c-0.5-0.3-1.3-0.7-2.2-0.7
								c-0.9,0-1.7,0.3-2.1,0.7C448.6,46.9,448.5,47.3,448.6,47.3L448.6,47.3z"/>
						</g>
						<path class="st3" d="M443.3,58.3c0,0-0.9-0.2-2.4-0.4c-0.4,0-0.7-0.1-0.8-0.4c0-0.3,0-0.7,0.3-1.1c0.4-0.9,0.7-1.9,1.1-2.9
							c1.5-4.1,2.7-7.4,2.5-7.5c-0.2,0-1.6,3.2-3.1,7.3c-0.4,1-0.7,2-1.1,2.9c-0.1,0.4-0.4,0.9-0.2,1.5c0.1,0.3,0.4,0.5,0.6,0.5
							s0.5,0,0.6,0c1.5,0,2.4,0,2.4,0L443.3,58.3z"/>
						<path class="st3" d="M447.6,59.3c-0.2,0-0.2,1.6-1.6,2.7c-1.4,1.1-3.1,1-3.1,1.2c0,0.1,0.4,0.3,1.1,0.3s1.7-0.2,2.6-0.9
							c0.8-0.7,1.2-1.6,1.2-2.3S447.7,59.2,447.6,59.3L447.6,59.3z"/>
					</g>
					<path class="st3" d="M448.2,41.6c0.1,0.4,1.6,0.2,3.3,0.4c1.7,0.2,3.1,0.7,3.4,0.3c0.1-0.2-0.1-0.5-0.7-0.9s-1.4-0.8-2.5-0.9
						c-1-0.1-2,0-2.6,0.3S448.1,41.4,448.2,41.6L448.2,41.6z"/>
					<path class="st3" d="M434.7,42.8c0.3,0.3,1.3,0,2.5,0s2.3,0.2,2.5-0.1c0.1-0.2,0-0.5-0.5-0.8c-0.4-0.3-1.2-0.6-2-0.5
						c-0.8,0-1.6,0.3-2,0.7c-0.4,0.3-0.6,0.7-0.5,0.9V42.8z"/>
				</g>
			</g>
			<path class="st3" d="M469.5,39.3c-0.5,4.7-1.8,10.5-2.2,15.3c0,0.4,0,0.9-0.3,1.3c-0.7,0.9-2.3,2.9-3.1,2.1
				c-2-1.9-2.8-7.1-3.2-9.9c-0.4-2.7-0.3-5.5-0.7-8.2c0,0,0-0.1,0-0.2c-0.3-1.9-1.3-3.7-2.8-4.9c-0.4-0.2-0.7-0.5-1.1-0.6
				c-2.8-1-7.5,0.8-10.3,1.9c-1.4,0.5-2.8,1.2-4.3,1.8c-3.2,1.5-7,1.2-9.9-0.8c-1.7-1.2-1.9-5.1-1.1-7.6c2-6.7,10.4-9,21.2-6.4
				c10.7,2.5,19,6.7,17.9,16.3L469.5,39.3z"/>
			<g>
				<path class="st5" d="M464.2,49.5c0.2,0,6.6-1.9,6.4,4.6c-0.2,6.6-6.7,5-6.7,4.8S464.3,49.5,464.2,49.5L464.2,49.5z"/>
				<path class="st6" d="M465.9,56.5c0,0,0.1,0,0.3,0.2c0.2,0,0.5,0.2,0.9,0c0.7-0.2,1.3-1.3,1.4-2.5c0-0.6,0-1.2-0.3-1.6
					c-0.2-0.5-0.5-0.8-0.8-0.9c-0.3,0-0.6,0.1-0.7,0.3c0,0.2,0,0.3,0,0.3s-0.1-0.1,0-0.4c0-0.1,0.1-0.3,0.3-0.4
					c0.2-0.1,0.4-0.2,0.6-0.1c0.5,0,0.9,0.5,1.2,1.1c0.2,0.5,0.4,1.2,0.3,1.8c0,1.3-0.8,2.5-1.8,2.8c-0.5,0.1-0.8,0-1-0.2
					s-0.2-0.3-0.2-0.3L465.9,56.5z"/>
			</g>
			<path class="st8" d="M469.4,39.7c0,0.1-1.9,1.2-4.7,1.2c-2.8,0-4.8-1-4.7-1.1c0-0.2,2.1,0.6,4.7,0.6S469.3,39.5,469.4,39.7z"/>
			<path class="st8" d="M469.1,41.6c0,0.1-1.8,1.2-4.5,1.2s-4.6-1-4.5-1.1c0-0.2,2,0.6,4.5,0.6S469,41.4,469.1,41.6z"/>
		</g>
		<g>
			<path class="st3" d="M423.6,368l4.3,19.6c0,0-18.5,10.9-18.1,14.6l38.3-6.9l-5.4-30.8L423.6,368L423.6,368z"/>
			<path class="st8" d="M448.1,395.3l-0.7-3.1l-36.5,7.8c0,0-1.6,1-1.2,2.2l38.3-6.9H448.1z"/>
		</g>
		<g>
			<path class="st3" d="M467.1,370.1l0.6,20c0,0-20.2,7.4-20.4,11.1l38.9,0.2l0.3-31.3L467.1,370.1L467.1,370.1z"/>
			<g class="st9">
				<path class="st8" d="M486.3,401.4v-3.2l-37.4,1c0,0-1.7,0.7-1.5,2L486.3,401.4z"/>
			</g>
		</g>
		<g>
			<path class="st3" d="M421.5,384.8c0,0-19.9-97.9-20-99.8l35.6-18.8l13.8,114.9l-29.5,3.8L421.5,384.8z"/>
			<path class="st3" d="M466.3,388.1l-27.6-169.6v-36.6l37.6,3.5c0.5,1.4,12.8,202.9,12.8,202.9l-3.9-0.2h-19"/>
			<polygon class="st3" points="417.1,179.3 401.5,285 436.4,276.5 450.7,182.7 			"/>
			<path class="st8" d="M449.4,188.2c0,0,0,0.2,0,0.5c0,0.4,0,0.9,0.2,1.5c0.2,1.4,0.4,3.3,0.7,5.8c0.6,5.1,1.5,12.4,2.7,21.4
				c2.3,18.1,5.9,43,9.7,70.5c1.9,13.8,3.6,26.9,5.1,38.8c0.4,3,0.7,5.9,1.1,8.7c0.4,2.8,0.9,5.6,1.3,8.2c0.8,5.3,1.5,10.2,2.2,14.7
				c1.4,9,2.4,16.3,3.1,21.3c0.4,2.5,0.6,4.5,0.8,5.8c0,0.7,0.1,1.2,0.2,1.5c0,0.2,0,0.3,0,0.4s0,0,0,0l0,0l0,0c0,0,0-0.2,0-0.4
				c0-0.3,0-0.9-0.1-1.5c-0.1-1.3-0.4-3.3-0.7-5.8c-0.6-5.1-1.7-12.3-3-21.4c-0.7-4.5-1.4-9.4-2.2-14.7c-0.4-2.6-0.8-5.4-1.2-8.2
				c-0.4-2.8-0.7-5.7-1.1-8.7c-1.5-11.9-3.2-25.1-5.1-38.8c-3.8-27.5-7.4-52.4-9.8-70.4c-1.2-9-2.2-16.3-2.8-21.4
				c-0.3-2.5-0.6-4.5-0.8-5.8c0-0.7-0.2-1.2-0.2-1.5s0-0.5,0-0.5H449.4z"/>
			<path class="st8" d="M428.4,383.9c0,0,0-0.2,0-0.5s-0.1-0.8-0.2-1.5c-0.2-1.3-0.5-3.2-1-5.6c-0.9-4.9-2.1-12-3.6-20.7
				c-3.1-17.5-7.4-41.6-12.1-68.2c-0.3-1.6-0.5-3.3-0.3-4.9s0.5-3.3,0.7-4.9c0.5-3.3,1-6.5,1.5-9.6c1-6.3,2-12.4,2.9-18.2
				c1.9-11.6,3.8-22,5.4-30.7c1.7-8.7,3.1-15.7,4.2-20.6c0.5-2.4,1-4.3,1.3-5.6c0.1-0.6,0.3-1.1,0.3-1.4c0-0.3,0-0.5,0-0.5
				s0,0.2-0.1,0.5c0,0.3-0.2,0.8-0.4,1.4c-0.3,1.3-0.8,3.1-1.4,5.5c-1.2,4.8-2.7,11.8-4.4,20.5c-1.7,8.7-3.6,19.1-5.5,30.7
				c-1,5.8-2,11.9-3,18.2c-0.5,3.2-1,6.4-1.5,9.6c-0.2,1.6-0.5,3.3-0.7,4.9c-0.2,1.7,0,3.4,0.3,5.1c4.8,26.6,9.1,50.7,12.3,68.2
				c1.6,8.7,2.9,15.8,3.8,20.7c0.5,2.4,0.8,4.3,1.1,5.6c0.1,0.6,0.2,1.1,0.3,1.5C428.3,383.7,428.4,383.9,428.4,383.9L428.4,383.9z"
				/>
			<path class="st8" d="M438.8,217.2c-0.1,0,1.5,11,3.6,24.5s4,24.4,4.1,24.4s-1.5-11-3.6-24.5S438.9,217.2,438.8,217.2L438.8,217.2
				z"/>
			<path class="st8" d="M466,387.8c0,0,0.3,0,0.9,0.2c0.6,0,1.4,0.2,2.5,0.2c2.1,0.2,5,0.3,8.2,0.4c3.2,0,6.1,0,8.2-0.1
				c1,0,1.9,0,2.5-0.2c0.6,0,0.9,0,0.9-0.1c0,0-1.3,0-3.4,0s-5,0-8.2,0s-6.1-0.2-8.2-0.2s-3.4-0.1-3.4,0V387.8z"/>
			<path class="st8" d="M421.5,384.8c0,0,0.4,0,1.2,0c0.8,0,1.9-0.2,3.2-0.3c2.7-0.3,6.4-0.8,10.4-1.3c4.1-0.5,7.7-1,10.4-1.4
				c1.3-0.2,2.3-0.4,3.1-0.5c0.7-0.1,1.2-0.2,1.1-0.2c0,0-0.4,0-1.2,0c-0.7,0-1.8,0.2-3.2,0.3c-2.7,0.3-6.4,0.8-10.4,1.3
				c-4.1,0.5-7.7,1-10.4,1.4c-1.3,0.2-2.3,0.4-3.1,0.5C421.9,384.7,421.4,384.8,421.5,384.8z"/>
		</g>
		<g>
			<g>
				<path class="st8" d="M369,116.8l22.5,17.1c0,0,20.9-35.7,22.8-37.9c1.8-2.2,6.5-4.6,6.5-4.6l-2.6,45.7c0,0-11.3,28.9-26.8,27.3
					c-11.9-1.2-32.4-32.6-32.4-32.6l10.1-15.1L369,116.8z"/>
				<g class="st10">
					<path d="M391.1,133.3c-3.1,4.8-4,11-2.3,16.4c0.2,0.6,0.4,1.1,0.9,1.4c0.8,0.4,1.8,0,2.2-0.8c0.5-0.7,0.5-1.7,0.6-2.5
						c0.4,0.8,0.9,1.7,1.7,2.2c0.8,0.5,1.9,0.6,2.5,0c0.7-0.8,0.3-2.1-0.1-3.1c-1.9-4.3-3.8-8.7-5.7-13"/>
				</g>
				<path class="st3" d="M374.7,121.9c0.1,0-2.2,4-5.1,8.6c-3,4.7-5.5,8.4-5.7,8.3c-0.1,0,2.2-3.9,5.1-8.6
					C372,125.5,374.5,121.8,374.7,121.9z"/>
				<path class="st3" d="M368.9,121.3c0,0,0.2-0.3,0.7-0.2c0.2,0,0.5,0.3,0.6,0.7c0,0.4-0.2,0.9-0.5,1c-0.4,0.2-0.9,0.2-1.2-0.1
					c-0.3-0.3-0.3-0.6-0.2-0.9C368.4,121.3,368.8,121.2,368.9,121.3c0,0-0.1,0.2-0.1,0.6c0,0.3,0.3,0.7,0.7,0.4
					c0.4-0.2,0.3-0.6,0-0.8c-0.3-0.2-0.5-0.1-0.5-0.2H368.9z"/>
				<path class="st3" d="M391.5,144.7c-0.1,0-1-2.3-1-5.4c0-3.1,0.7-5.5,0.9-5.4c0.2,0-0.3,2.4-0.2,5.4
					C391.2,142.3,391.8,144.7,391.5,144.7L391.5,144.7z"/>
				<path class="st3" d="M395.9,144.6c-0.1,0-1.6-2.1-2.9-5.1s-1.8-5.5-1.7-5.6c0.2,0,1,2.4,2.3,5.3c1.3,2.9,2.5,5.2,2.3,5.3
					L395.9,144.6z"/>
			</g>
			<g>
				<path class="st8" d="M467.8,87.1l-3.4-6.7h-24.6l-3.9,7.6l-15.2,3.4l-6.5,97.9c0,1.2,0.3,2.5,0.9,3.6l0,0l59.7,2.3l2.4,1
					c2.1-1.3,0.8-6.8,0.8-9.3l0.8-48.5l11.8-38.7l-22.8-12.5L467.8,87.1z"/>
				<g class="st10">
					<path d="M442.3,90.5c1.4-1.4,2.9-2.9,4.3-4.3c1.6,3.9,3.3,7.8,4.9,11.8c5.6-3.3,11-7,16-11.2c-5.5,1.8-11,3.5-16.5,5.3
						c-1.4-3.7-2.8-7.4-4.2-11.1c-1,3.4-2.4,6.6-4.2,9.6"/>
				</g>
				<path class="st8" d="M511.6,209.8l-16.1,0.8v-46.2l-16.7-26.2l11.8-38.7c2.4,1,20.8,47,25.4,59.5c0.7,1.8,1,3.7,0.9,5.6
					L511.6,209.8L511.6,209.8z"/>
				<path class="st3" d="M420.8,111.6c0.2,0-0.6,9.5-1.8,21.1c-1.2,11.7-2.2,21.1-2.4,21.1c-0.2,0,0.6-9.5,1.8-21.1
					C419.6,121,420.6,111.6,420.8,111.6z"/>
				<path class="st3" d="M446.8,80.9c0.2,0-1.2,3.6-2.9,7.9c-0.1,0.3-0.2,0.5-0.3,0.8c-0.1,0.3-0.2,0.6-0.5,0.8
					c-0.3,0.3-0.8,0.2-1.1,0c-0.3-0.1-0.5-0.3-0.7-0.4c-0.8-0.5-1.5-1-2.2-1.5c-1.2-0.9-2-1.4-2-1.5c0,0,0.9,0.4,2.2,1.1
					c0.7,0.4,1.5,0.9,2.3,1.4c0.4,0.3,0.9,0.6,1.1,0.4c0.3-0.2,0.4-0.9,0.7-1.4c1.8-4.3,3.3-7.7,3.5-7.6L446.8,80.9z"/>
				<path class="st3" d="M466.3,86.9c0,0-1.4,0.7-3.8,1.5c-2.3,0.9-5.6,2-9.2,3.2c-0.7,0.2-1.3,0.5-2,0.7H451l-0.1-0.2
					c-1.3-3.1-2.4-5.8-3.1-7.7c-0.8-2-1.2-3.2-1.1-3.2c0,0,0.6,1.1,1.5,3s2,4.6,3.3,7.7l-0.4-0.2c0.6-0.2,1.3-0.4,2-0.7
					c3.6-1.2,6.9-2.3,9.3-3.1C464.8,87.1,466.3,86.7,466.3,86.9L466.3,86.9z"/>
				<path class="st3" d="M488.1,101c0,0.2-3.4,1.1-7.4,2.9s-7,3.7-7.1,3.6c0,0,0.7-0.6,1.9-1.4c1.2-0.8,3-1.8,5-2.7
					c2-0.9,3.9-1.5,5.4-1.9C487.3,101.1,488.2,101,488.1,101L488.1,101z"/>
				<path class="st3" d="M446.8,80.9c0,0,0,0,0,0.3c0,0.2,0,0.5,0,0.9c0,0.8,0,1.9,0,3.3c0,2.9,0,7-0.2,12.2
					c-0.4,10.3-1.7,24.4-3.7,40c-1,7.8-2.1,15.2-2.8,21.9c-0.7,6.7-1.1,12.8-1,18c0,5.1,0.5,9.3,1,12.1c0.2,1.4,0.4,2.5,0.5,3.3
					c0,0.3,0,0.6,0.1,0.9c0,0.2,0,0.3,0,0.3s0,0,0-0.3c0-0.2-0.1-0.5-0.2-0.8c-0.1-0.7-0.4-1.8-0.6-3.2c-0.5-2.8-1-7-1.2-12.1
					s0.1-11.3,0.8-18c0.7-6.8,1.8-14.1,2.8-21.9c2-15.5,3.4-29.6,3.9-39.9c0.3-5.1,0.3-9.3,0.4-12.1c0-1.4,0-2.5,0-3.3
					c0-0.3,0-0.6,0-0.9c0-0.2,0-0.3,0-0.3L446.8,80.9z"/>
				<path class="st3" d="M512.5,202.8c0,0.2-3.8,0.1-8.5-0.1c-4.7-0.2-8.5-0.6-8.5-0.7c0-0.2,3.8-0.1,8.5,0.1
					C508.7,202.3,512.5,202.7,512.5,202.8z"/>
				<path class="st3" d="M498.2,204.6c0,0,0,0.2,0,0.4s0.3,0.3,0.5,0.2c0.2-0.2,0.1-0.4,0-0.5c-0.2-0.1-0.4,0-0.4-0.1
					c0,0,0.1-0.3,0.5-0.3c0.2,0,0.5,0.2,0.6,0.5s0,0.7-0.3,0.9s-0.7,0.3-1,0c-0.3-0.2-0.3-0.5-0.3-0.7c0-0.4,0.4-0.5,0.4-0.5
					L498.2,204.6z"/>
				<g class="st10">
					<path d="M479.1,138.2c-1.7-3.2-3.5-6.3-5.2-9.5c-2.1,16.7-0.9,33.7,3.5,49.9c0.5-13.4,1.1-26.8,1.6-40.3"/>
				</g>
				<path class="st3" d="M452.4,120.8c0,0,0.3,0,0.9,0c0.7,0,1.7,0,2.8,0c2.4,0,5.9-0.1,10.2-0.1h0.3v0.3c-0.3,3.7-0.6,8-0.9,12.5
					v0.2h-0.2c-0.2,0.1-0.4,0.2-0.6,0.3c-2.4,1.2-4.6,2.4-6.8,3.6h-0.2h-0.1c-2.3-1.9-4.4-3.6-6.3-5.2h-0.1v-0.2
					c0.3-3.4,0.5-6.2,0.7-8.3c0-0.9,0.2-1.7,0.2-2.3C452.3,121.1,452.3,120.8,452.4,120.8s0,0.3,0,0.9s0,1.4-0.1,2.3
					c-0.1,2.1-0.3,4.8-0.5,8.2V132c1.8,1.5,4,3.2,6.3,5.1h-0.3c2.1-1.2,4.4-2.4,6.8-3.6c0.2-0.1,0.4-0.2,0.6-0.3l-0.2,0.2
					c0.4-4.6,0.7-8.8,1-12.5l0.3,0.3c-4.1,0-7.5,0-10-0.1c-1.2,0-2.1,0-2.9,0c-0.7,0-1,0-1.1,0L452.4,120.8z"/>
				<path class="st3" d="M422.9,193.3c0,0.2-1.3,0-2.1-1.3c-0.8-1.2-0.6-2.4-0.4-2.4s0.2,1,0.9,2.1
					C422,192.7,422.9,193.1,422.9,193.3L422.9,193.3z"/>
				<path class="st3" d="M424.5,192.7c-0.1,0.1-1.2-1-1.7-2.8s0-3.3,0.2-3.2c0.2,0,0,1.4,0.4,3.1
					C423.8,191.5,424.6,192.6,424.5,192.7z"/>
				<path class="st3" d="M469.5,186c0.2,0,0.3,2.4-0.9,4.9c-1.2,2.6-3.1,4-3.2,3.9s1.5-1.7,2.7-4.1c1.2-2.4,1.3-4.7,1.5-4.7
					L469.5,186z"/>
			</g>
		</g>
		<path class="st5" d="M367.8,118.7c0,0-18.2-13.8-20.7-14.7c-4.2-1.5-5.2-1.1-5.2-1.1l10,10.7c0,0-10.5,3.6-11.3,4
			c-0.8,0.5-1.1,2.7,1.4,2.7s12.2,0.2,12.2,0.2l8.3,6.1l5.3-8L367.8,118.7z"/>
	</g>
</g>
<g id="Speech_Bubble">
	<path class="st3" d="M528.6,0c0,0,0.2,0,0.6,0c0.4,0,1,0,1.8,0c0.4,0,0.8,0,1.3,0s1,0.1,1.6,0.2c0.6,0,1.2,0.2,1.8,0.3
		c0.6,0.2,1.3,0.3,2,0.5c2.8,0.7,6.3,2,9.8,4.3s7.2,5.5,10.2,9.9c2.9,4.4,5.2,9.9,5.8,16.2c0,1.6,0.2,3.1,0,4.8c0,0.8,0,1.6-0.2,2.4
		c-0.1,0.8-0.2,1.6-0.4,2.4c-0.7,3.2-1.6,6.6-3.3,9.7c-1.6,3.1-3.7,6.1-6.3,8.7c-2.6,2.6-5.7,4.8-9.1,6.5c-3.4,1.7-7.2,2.9-11.1,3.4
		c-1,0.2-2,0.2-3,0.3c-1,0-2,0.1-3,0c-2,0-4-0.3-6-0.8c-4.3-0.9-8.4-2.7-11.9-5h0.4c-4.1,1.7-8.2,3.3-12.1,4.9l-0.7,0.3l0.2-0.7
		c1.2-4.5,2.4-8.8,3.6-13v0.3c-3.3-4.5-5.5-9.7-6.4-14.8c-0.5-2.6-0.6-5.1-0.5-7.6c0-1.2,0.1-2.5,0.3-3.7c0-0.6,0.2-1.2,0.3-1.8
		c0.1-0.6,0.3-1.2,0.4-1.7c2.3-9.1,8-15.9,13.6-19.8c2.8-2,5.5-3.4,8.1-4.3c0.6-0.2,1.2-0.4,1.8-0.7c0.6-0.2,1.2-0.3,1.7-0.4
		s1.1-0.3,1.6-0.4c0.5,0,1-0.1,1.5-0.2c0.9-0.1,1.7-0.3,2.4-0.3s1.3,0,1.8,0s0.8,0,1.1,0C528.5-0.1,528.7-0.1,528.6,0
		c0.1-0.1,0-0.1-0.3-0.1c-0.3,0-0.6,0-1.1,0s-1.1,0-1.8,0.1c-0.7,0-1.5,0.2-2.4,0.4c-3.6,0.7-8.9,2.1-14.4,6.1
		c-5.5,3.9-11,10.6-13.2,19.5c-0.1,0.6-0.3,1.1-0.4,1.7c0,0.6-0.2,1.2-0.3,1.7c-0.2,1.2-0.3,2.4-0.3,3.6c-0.2,2.4,0,4.9,0.5,7.5
		c0.9,5,3,10.1,6.4,14.5h0.1c0,0.1,0,0.3,0,0.3c-1.1,4.2-2.3,8.5-3.5,13l-0.5-0.5c4-1.6,8-3.2,12.1-4.9h0.2h0.2
		c3.5,2.3,7.4,4,11.7,4.9c1.9,0.4,3.9,0.7,5.9,0.7c1,0,2,0,2.9,0c1,0,1.9,0,2.9-0.2c3.8-0.5,7.5-1.6,10.8-3.3
		c3.3-1.7,6.3-3.9,8.9-6.4c2.5-2.6,4.6-5.5,6.2-8.5c1.6-3,2.6-6.3,3.3-9.5c0.1-0.8,0.2-1.6,0.4-2.4c0.1-0.8,0.1-1.6,0.2-2.4
		c0.2-1.6,0-3.1,0-4.7c-0.6-6.1-2.7-11.6-5.6-15.9c-2.9-4.3-6.5-7.6-9.9-9.8c-3.5-2.3-6.9-3.6-9.7-4.4c-0.7-0.2-1.4-0.4-2-0.5
		s-1.2-0.2-1.8-0.3c-0.6,0-1.1-0.2-1.5-0.3c-0.5,0-0.9,0-1.3,0c-0.7,0-1.3,0-1.8-0.1c-0.4,0-0.6,0-0.6,0L528.6,0z"/>
	<g>
		<path class="st0" d="M540,43.1c0,0-0.1,0-0.4,0c-0.3,0-0.7,0-1.2,0c-1.1,0-2.5,0-4.4,0c-3.7,0-8.9,0-14.7,0.1h-0.1v-0.1
			c-0.1-0.8-0.2-1.6-0.4-2.4c-1-7.1-1.9-13.5-2.5-17.6l0,0c-1.7,0-3,0-3.9,0c-0.4,0-0.8,0-1,0s-0.4,0-0.4,0s0.1,0,0.4,0s0.6,0,1,0
			c0.9,0,2.3,0,3.9,0l0,0l0,0c0.6,4.1,1.6,10.5,2.6,17.6c0.1,0.8,0.2,1.7,0.4,2.4h-0.1c5.8-0.1,10.9-0.1,14.7-0.2c1.8,0,3.3,0,4.4,0
			c0.5,0,0.9,0,1.2,0s0.4,0,0.4,0L540,43.1z"/>
		<path class="st0" d="M519.7,43.5L519.7,43.5h-0.5V43h-0.1l0,0l0,0c0-0.1-0.3-2.1-0.3-2.1l-2.5-17.4h-4.8c-0.4,0-0.5,0-0.5-0.2l0,0
			l0,0c0,0,0,0,0.4,0h1h3.7l0,0h0.1h0.3v0.2c0,0,0,0.1,0,0.2h0.1l0,0c0.6,4.1,1.5,10.4,2.6,17.3l0.3,2.2h14.4h5.6
			c0.5,0,0.5,0,0.5,0.1s0,0.1-0.5,0.2h-1.2h-4.4h-14.4c0,0.1,0,0.2,0,0.2L519.7,43.5z M519.7,43.2L519.7,43.2h3.9H519.7z
			 M518.4,36.1l1,6.8l0,0l-0.3-2.2c-0.2-1.6-0.5-3.2-0.7-4.7V36.1z"/>
	</g>
	<g>
		<path class="st0" d="M518.8,38.9C518.8,38.9,518.8,38.9,518.8,38.9c0.1,0,0.3,0,0.4,0c0.3,0,0.7,0,1.2,0c1.1,0,2.5,0,4.4,0
			c3.8,0,9.1,0,15.2-0.1h-0.1c0.4-2.5,0.9-5.2,1.4-8.1c0.3-1.5,0.5-2.9,0.7-4.3v0.2c-7,0-13.3,0-17.8,0c-2.2,0-4,0-5.3,0
			c-0.6,0-1.1,0-1.4,0c-0.2,0-0.3,0-0.4,0H517c0,0,0,0,0.1,0c0,0,0.2,0,0.4,0c0.3,0,0.8,0,1.4,0c1.3,0,3.1,0,5.3,0
			c4.5,0,10.8,0,17.9-0.2h0.2v0.2c-0.2,1.4-0.5,2.8-0.7,4.3c-0.5,2.9-1,5.6-1.4,8.2l0,0c0,0.1-0.1,0.1-0.1,0.1c-6.1,0-11.4,0-15.2,0
			c-1.9,0-3.4,0-4.4,0c-0.5,0-0.9,0-1.2,0c-0.1,0-0.2,0-0.3,0h-0.1L518.8,38.9z"/>
		<path class="st0" d="M524.8,39.1h-5.9c-0.1,0-0.2,0-0.2-0.2s0.1-0.1,0.2-0.1h1.5l4.4-0.1h15c0-0.1,1.4-8.1,1.4-8.1
			c0.2-1.4,0.5-2.7,0.7-4h-17.6h-7.1c-0.1,0-0.2,0-0.2-0.1s0.1-0.1,0.2-0.1h1.8l5.3-0.1H542c0-0.1,0-0.2,0-0.2l0,0h0.5v0.5l0,0l0,0
			l-2.1,12l0,0l0,0v0.5h-0.5l0,0l0,0H525H524.8z M539.8,38.8h-2.2H539.8z M542.1,26.5c-0.2,1.3-0.5,2.7-0.7,4l-1.4,8l0,0L542.1,26.5
			L542.1,26.5L542.1,26.5z M541.9,26.2h-4.4H541.9L541.9,26.2z"/>
	</g>
	<g>
		<path class="st0" d="M524.6,48.8c0,0,0-0.2-0.1-0.5c0-0.3-0.3-0.7-0.8-1.1c-0.4-0.3-1.2-0.5-1.8-0.2c-0.7,0.2-1.3,1-1.3,1.8
			s0.6,1.6,1.3,1.8c0.7,0.3,1.4,0,1.8-0.3c0.5-0.3,0.7-0.8,0.8-1.1C524.5,48.9,524.5,48.7,524.6,48.8c0-0.1,0,0.1,0,0.4
			s-0.3,0.8-0.7,1.2c-0.5,0.4-1.3,0.6-2.1,0.4c-0.8-0.3-1.5-1.1-1.5-2c0-1,0.7-1.8,1.4-2.1c0.8-0.3,1.6,0,2.1,0.3
			c0.5,0.4,0.7,0.9,0.8,1.2C524.6,48.5,524.6,48.7,524.6,48.8L524.6,48.8z"/>
		<path class="st0" d="M522.5,51.1c-0.2,0-0.5,0-0.7-0.1c-0.8-0.2-1.6-1.1-1.6-2.2c0-1.1,0.8-1.9,1.5-2.2c0.9-0.3,1.7,0,2.2,0.3
			c0.6,0.5,0.7,1,0.8,1.3c0,0.2,0,0.4,0,0.5s0,0.4,0,0.5c0,0.2-0.2,0.8-0.8,1.3c-0.3,0.3-0.8,0.5-1.4,0.5V51.1z M522.1,46.8
			c0,0-0.2,0-0.3,0c-0.7,0.2-1.4,1-1.4,1.9c0,1,0.7,1.7,1.4,1.9c0,0,0.2,0,0.3,0c0,0-0.2,0-0.3,0c-0.7-0.2-1.4-1-1.4-1.9
			c0-0.8,0.6-1.7,1.3-1.9c0,0,0.2,0,0.3,0H522.1z M522.6,47c-0.2,0-0.4,0-0.6,0.1c-0.6,0.2-1.2,0.9-1.2,1.7s0.6,1.5,1.2,1.7
			c0.7,0.3,1.4,0,1.7-0.2c0.5-0.3,0.6-0.8,0.7-1c0-0.2,0-0.3,0-0.4l0,0l0,0c0,0,0-0.2,0-0.4s-0.3-0.7-0.7-1
			C523.5,47.3,523.1,47.1,522.6,47L522.6,47z"/>
	</g>
	<g>
		<path class="st0" d="M537.9,48.7c0,0,0-0.2-0.1-0.5c0-0.3-0.3-0.7-0.8-1.1c-0.4-0.3-1.2-0.5-1.8-0.2c-0.7,0.2-1.3,1-1.3,1.8
			s0.6,1.6,1.3,1.8c0.7,0.3,1.4,0,1.8-0.3c0.5-0.3,0.7-0.8,0.8-1.1C537.8,48.8,537.8,48.6,537.9,48.7c0-0.1,0,0.1,0,0.4
			s-0.3,0.8-0.7,1.2c-0.5,0.4-1.3,0.6-2.1,0.4c-0.8-0.3-1.5-1.1-1.5-2c0-1,0.7-1.8,1.4-2.1c0.8-0.3,1.6,0,2.1,0.3
			c0.5,0.4,0.7,0.9,0.8,1.2C537.9,48.4,537.9,48.6,537.9,48.7L537.9,48.7z"/>
		<path class="st0" d="M535.8,51c-0.2,0-0.5,0-0.7-0.1c-0.8-0.2-1.6-1.1-1.6-2.2c0-1.1,0.8-1.9,1.5-2.2c0.9-0.3,1.7,0,2.2,0.4
			c0.6,0.5,0.7,1,0.8,1.3c0,0.2,0,0.4,0,0.5s0,0.4,0,0.5c0,0.2-0.2,0.8-0.8,1.3C536.9,50.8,536.4,51,535.8,51z M535.4,46.7h-0.2
			c-0.7,0.2-1.4,1-1.4,1.9c0,1,0.7,1.7,1.4,1.9c0,0,0.2,0,0.3,0c0,0-0.2,0-0.3,0c-0.7-0.2-1.4-1-1.4-1.9c0-1,0.7-1.7,1.3-1.9h0.2
			H535.4z M535.9,46.9c-0.2,0-0.4,0-0.6,0.1c-0.6,0.2-1.2,0.9-1.2,1.7s0.6,1.5,1.2,1.7c0.7,0.3,1.4,0,1.7-0.2c0.5-0.3,0.6-0.8,0.7-1
			c0-0.2,0-0.3,0-0.4l0,0l0,0c0,0,0-0.2,0-0.4s-0.3-0.7-0.7-1c-0.2-0.2-0.6-0.3-1.1-0.3L535.9,46.9z"/>
	</g>
</g>
</svg>
