<?xml version="1.0" encoding="UTF-8"?>
<svg id="Layer_1" data-name="Layer 1" xmlns="http://www.w3.org/2000/svg" viewBox="0 0 2182.7 385.5">
  <defs>
    <style>
      .cls-1 {
        fill: #7a3c5f;
      }

      .cls-2 {
        fill: #e6e6e6;
      }
    </style>
  </defs>
  <path class="cls-1" d="m1490.9,175.1l-187.9-108.5c-17.4-10.1-39.2,2.5-39.2,22.6v217c0,20.1,21.8,32.7,39.2,22.6l187.9-108.5c17.4-10.1,17.4-35.2,0-45.3Z"/>
  <g>
    <path class="cls-2" d="m0,325.4V22.1h95.5c17.1,0,31,4,41.6,12.1,10.6,8,15.9,20.8,15.9,38.2v49.3c0,17.4-5.2,31-15.7,40.6-10.4,9.6-24.6,14.7-42.3,15.4v-.5c10.9.7,19.2,4.5,24.6,11.6,5.5,7,10.3,17.9,14.4,32.6l31.3,104.2h-34.9l-27.7-102.1c-1.7-6.5-3.9-12.6-6.7-18.2-2.7-5.7-6.1-10.3-10-14.1-3.9-3.8-9.2-5.7-15.6-5.7h-37v140.1H0Zm33.4-162.2h45.2c14,0,24.6-3.3,31.8-10,7.2-6.7,10.8-18,10.8-34.1v-41.1c0-13-3.4-22.4-10.3-28.2-6.8-5.8-14.9-8.7-24.1-8.7h-53.4v122.2Z"/>
    <path class="cls-2" d="m273,330c-17.1,0-31-2-41.6-5.9-10.6-3.9-18.3-11.2-23.1-21.8-4.8-10.6-7.2-26-7.2-46.2v-126.8c0-23.6,5.4-39.9,16.2-48.8,10.8-8.9,28.7-13.3,53.6-13.3s41.8,4.4,52.6,13.3c10.8,8.9,16.2,25.2,16.2,48.8v65.7h-106.8v71.9c0,16.4,2.6,27.8,7.7,34.1,5.1,6.3,15.6,9.5,31.3,9.5s24-3.1,28.7-9.2,7.2-17.6,7.2-34.4v-32.8h31.8v21.6c0,19.8-2.4,35.2-7.2,45.9-4.8,10.8-12.1,18.2-21.8,22.3-9.8,4.1-22.3,6.1-37.7,6.1Zm-40-151.4h74.9v-51.8c0-14.4-2.4-24.8-7.2-31.3-4.8-6.5-14.7-9.8-29.8-9.8s-25.2,3.3-30.3,9.8c-5.1,6.5-7.7,16.9-7.7,31.3v51.8h0Z"/>
    <path class="cls-2" d="m385.4,325.4V71.4h26.7l3.6,28.7c3.8-9.9,10-17.8,18.7-23.6,8.7-5.8,19.4-8.7,32.1-8.7,19.8,0,33.8,4.1,41.8,12.3,8,8.2,12.2,20.2,12.6,35.9h-5.7c3.4-14.4,10-26,19.8-34.9,9.8-8.9,22.3-13.3,37.7-13.3s35.7,5,43.4,14.9c7.7,9.9,11.6,25,11.6,45.2v197.6h-31.8v-192c0-16.1-2.5-27.1-7.4-33.1-5-6-13.4-9-25.4-9s-20.7,3.3-28.2,9.8c-7.5,6.5-11.6,14.7-12.3,24.6v199.7h-31.8v-195.6c0-14-2.5-23.9-7.4-29.8-5-5.8-13.8-8.7-26.4-8.7s-20.5,2.7-26.4,8.2c-6,5.5-10.3,12-13.1,19.5v206.3h-31.8Z"/>
    <path class="cls-2" d="m741.6,329c-19.2,0-33.8-2.9-43.9-8.7-10.1-5.8-16.9-14.3-20.5-25.4-3.6-11.1-5.4-24.6-5.4-40.3v-118.5c0-13.3,1.7-25.2,5.1-35.4s10.3-18.4,20.5-24.4c10.3-6,25-9,44.1-9s34.2,3,44.1,9c9.9,6,16.7,14.1,20.3,24.4s5.4,22.1,5.4,35.4v118.6c0,15.7-1.9,29.2-5.7,40.3-3.8,11.1-10.7,19.6-20.8,25.4-10.1,5.8-24.5,8.7-43.4,8.7Zm0-19.5c12,0,20.5-2.4,25.7-7.2,5.1-4.8,8.5-10.9,10-18.2,1.5-7.3,2.3-15,2.3-22.8v-126.8c0-7.9-.8-15.4-2.3-22.6-1.5-7.2-4.9-13.1-10-17.7s-13.7-6.9-25.7-6.9-20.2,2.3-25.7,6.9c-5.5,4.6-8.9,10.5-10.3,17.7-1.4,7.2-2.1,14.7-2.1,22.6v126.8c0,7.9.7,15.5,2.1,22.8,1.4,7.4,4.8,13.4,10.3,18.2,5.5,4.8,14,7.2,25.7,7.2Z"/>
    <path class="cls-2" d="m859.2,325.4V71.4h26.2l4.1,27.7c3.4-11.3,9.9-19.4,19.5-24.4s19.7-7.4,30.3-7.4c18.1,0,31.4,3.2,39.8,9.5,8.4,6.3,13.8,14.6,16.2,24.6,2.4,10.1,3.6,21.1,3.6,33.1v190.9h-31.8v-186.8c0-5.8-.2-11.6-.5-17.4-.3-5.8-1.6-11-3.8-15.7-2.2-4.6-5.9-8.3-11-11-5.1-2.7-12.7-4.1-22.6-4.1s-15.5,1.6-20.8,4.9c-5.3,3.3-9.2,7-11.8,11.3-2.6,4.3-4.4,8.3-5.4,12.1v206.8h-31.8Z"/>
    <path class="cls-2" d="m1104,325.9c-7.5,0-14.4-.8-20.5-2.6-6.2-1.7-11.5-4.5-15.9-8.5-4.4-3.9-7.9-9.1-10.3-15.4-2.4-6.3-3.6-14.3-3.6-23.9V91.4h-22.6v-16.4l24.6-3.6,5.7-47.7h24.1v47.7h54.9v20h-54.9v178.6c0,9.6,1.7,17.6,5.1,24.1,3.4,6.5,10.9,9.8,22.6,9.8s9.9-.3,15.4-.8c5.5-.5,9.4-.8,11.8-.8v20.5c-2.7,0-7.5.5-14.4,1.5-6.9,1-14.2,1.5-22.1,1.5Z"/>
  </g>
  <g>
    <path class="cls-1" d="m1587.9,325.4V22.1h93.9c17.4,0,31.5,4,42.1,12.1,10.6,8,15.9,20.8,15.9,38.2v55.9c0,11.6-1.7,22.5-5.1,32.6-3.4,10.1-9.8,18.2-19,24.4s-22.6,9.2-40,9.2h-54.4v130.9h-33.4Zm33.4-149.9h44.7c13.7,0,24-4.2,31.1-12.6,7-8.4,10.5-21.3,10.5-38.8v-39.5c0-15.1-3.3-26.1-9.8-33.1-6.5-7-14.4-10.5-23.6-10.5h-52.9v134.5h0Z"/>
    <path class="cls-1" d="m1779.8,325.4V0h31.3v325.4h-31.3Z"/>
    <path class="cls-1" d="m1911.7,329c-7.9,0-15.8-1.1-23.9-3.3-8-2.2-14.9-7.3-20.5-15.4-5.6-8-8.5-20.6-8.5-37.7v-24.6c0-17.1,5.2-30.9,15.6-41.3,10.4-10.4,24.7-19.8,42.9-28,11.6-5.8,21.1-10.9,28.5-15.4,7.4-4.4,12.9-9.4,16.7-14.9,3.8-5.5,5.6-12.8,5.6-22.1v-10.8c0-8.2-1.7-14.5-5.1-19-3.4-4.4-8-7.5-13.6-9.2-5.6-1.7-11.6-2.6-17.7-2.6-15.4,0-25.5,4.2-30.3,12.6-4.8,8.4-7.2,20.8-7.2,37.2v21.6h-29.3v-24.6c0-12.7,1.7-23.9,5.1-33.6s9.9-17.4,19.5-23.1,23.6-8.5,42.1-8.5,34.1,2.2,43.9,6.7c9.8,4.4,16.2,10.8,19.5,19s4.9,18,4.9,29.3v204.3h-31.3l-.5-31.8c-4.1,11.6-11.5,20.4-22.1,26.4-10.6,6-22.1,9-34.4,9Zm11.8-21.5c15.4,0,26.6-5.5,33.6-16.4,7-10.9,10.5-25.5,10.5-43.6v-81.1c-3.4,5.5-9.1,10.4-16.9,14.9-7.9,4.4-15.9,8.9-24.1,13.3-11.6,6.8-20.6,13.9-26.9,21.3-6.3,7.4-9.5,17.5-9.5,30.5v20c0,12.3,1.7,21.4,5.1,27.2,3.4,5.8,7.7,9.6,12.8,11.3,5.1,1.7,10.3,2.6,15.4,2.6Z"/>
    <path class="cls-1" d="m2058,385.5c-7.2,0-13.6-.5-19.2-1.5s-10-1.9-13.1-2.6v-19c1,.7,3.3,1.4,6.9,2.1,3.6.7,7.8,1,12.6,1s10.9-.9,17.2-2.6c6.3-1.7,11.6-6.5,15.6-14.4,2.1-3.4,4.4-7.4,6.9-11.8,2.6-4.4,3.2-9.6,1.8-15.4l-58.5-250h32.9l46.7,221.7h-.5l45.2-221.7h30.3l-55.4,244.3c-5.1,23.6-13.2,41.1-24.1,52.6-11,11.5-26,17.2-45.2,17.2Z"/>
  </g>
</svg>