<?xml version="1.0" encoding="utf-8"?>
<!-- Generator: Adobe Illustrator 26.3.1, SVG Export Plug-In . SVG Version: 6.00 Build 0)  -->
<svg version="1.1" id="Layer_1" xmlns="http://www.w3.org/2000/svg" xmlns:xlink="http://www.w3.org/1999/xlink" x="0px" y="0px"
	 viewBox="0 0 3000 3000" style="enable-background:new 0 0 3000 3000;" xml:space="preserve">
<style type="text/css">
	.st0{fill:#010202;stroke:#010202;stroke-miterlimit:10;}
	.st1{fill:#7A3C5F;}
	.st2{fill:#E6E6E6;}
</style>
<circle class="st0" cx="1500.48" cy="1499.97" r="1450"/>
<g>
	<path class="st1" d="M1899.59,1519.55l-187.95-108.51c-17.42-10.06-39.19,2.51-39.19,22.63v217.03c0,20.11,21.77,32.69,39.19,22.63
		l187.95-108.51C1917.01,1554.75,1917.01,1529.61,1899.59,1519.55z"/>
	<g>
		<path class="st2" d="M408.65,1669.89v-303.34h95.47c17.11,0,30.96,4.03,41.57,12.06c10.6,8.04,15.91,20.79,15.91,38.24v49.27
			c0,17.45-5.22,30.97-15.65,40.55c-10.44,9.58-24.56,14.72-42.34,15.4v-0.51c10.95,0.69,19.16,4.54,24.64,11.55
			c5.47,7.02,10.27,17.88,14.37,32.59l31.31,104.19h-34.9l-27.72-102.14c-1.72-6.5-3.94-12.57-6.67-18.22
			c-2.74-5.65-6.08-10.34-10.01-14.11c-3.94-3.76-9.16-5.65-15.65-5.65h-36.95v140.12H408.65z M442.01,1507.7h45.17
			c14.03,0,24.64-3.34,31.82-10.01c7.19-6.67,10.78-18.04,10.78-34.13v-41.06c0-13-3.42-22.41-10.27-28.23
			c-6.85-5.81-14.88-8.73-24.12-8.73h-53.38V1507.7z"/>
		<path class="st2" d="M681.69,1674.51c-17.11,0-30.97-1.97-41.57-5.9c-10.61-3.93-18.31-11.2-23.1-21.81
			c-4.8-10.6-7.19-26-7.19-46.19v-126.77c0-23.61,5.39-39.86,16.17-48.76c10.78-8.89,28.65-13.34,53.64-13.34
			c24.29,0,41.83,4.45,52.61,13.34c10.78,8.9,16.17,25.15,16.17,48.76v65.7H641.66v71.86c0,16.42,2.57,27.8,7.7,34.13
			c5.13,6.34,15.57,9.5,31.31,9.5c14.37,0,23.95-3.08,28.74-9.24c4.79-6.16,7.19-17.62,7.19-34.39v-32.85h31.82v21.56
			c0,19.85-2.4,35.16-7.19,45.94c-4.8,10.78-12.06,18.22-21.81,22.33C709.66,1672.46,697.09,1674.51,681.69,1674.51z M641.66,1523.1
			h74.94v-51.84c0-14.37-2.4-24.8-7.19-31.31c-4.8-6.5-14.72-9.75-29.77-9.75c-15.06,0-25.15,3.26-30.28,9.75
			c-5.13,6.5-7.7,16.94-7.7,31.31V1523.1z"/>
		<path class="st2" d="M794.09,1669.89v-254.06h26.69l3.59,28.74c3.76-9.92,10.01-17.79,18.73-23.61
			c8.73-5.81,19.42-8.73,32.08-8.73c19.84,0,33.79,4.11,41.83,12.32c8.04,8.21,12.23,20.19,12.58,35.93h-5.65
			c3.42-14.37,10.01-26,19.76-34.9c9.75-8.89,22.33-13.34,37.72-13.34c21.21,0,35.67,4.96,43.37,14.88
			c7.7,9.93,11.55,24.98,11.55,45.17v197.6h-31.82v-191.96c0-16.08-2.49-27.11-7.44-33.11c-4.96-5.98-13.43-8.98-25.41-8.98
			c-11.29,0-20.71,3.26-28.23,9.75c-7.53,6.5-11.64,14.72-12.32,24.64v199.66H899.3v-195.55c0-14.03-2.49-23.95-7.44-29.77
			c-4.96-5.81-13.78-8.73-26.43-8.73c-11.64,0-20.45,2.74-26.43,8.21c-5.99,5.48-10.35,11.98-13.09,19.5v206.33H794.09z"/>
		<path class="st2" d="M1150.28,1673.48c-19.17,0-33.79-2.91-43.88-8.73c-10.1-5.81-16.94-14.28-20.53-25.41
			c-3.59-11.12-5.39-24.55-5.39-40.29V1480.5c0-13.34,1.71-25.15,5.13-35.42c3.42-10.27,10.27-18.39,20.53-24.38
			c10.27-5.98,24.97-8.98,44.14-8.98c19.5,0,34.21,3,44.14,8.98c9.92,5.99,16.68,14.11,20.27,24.38s5.39,22.07,5.39,35.42v118.56
			c0,15.74-1.88,29.18-5.65,40.29c-3.77,11.12-10.7,19.59-20.79,25.41C1183.56,1670.57,1169.1,1673.48,1150.28,1673.48z
			 M1150.28,1653.98c11.97,0,20.53-2.39,25.66-7.19c5.13-4.79,8.47-10.86,10.01-18.22c1.54-7.35,2.31-14.96,2.31-22.84v-126.78
			c0-7.87-0.77-15.4-2.31-22.58c-1.54-7.19-4.88-13.09-10.01-17.71c-5.13-4.62-13.69-6.93-25.66-6.93
			c-11.64,0-20.19,2.31-25.66,6.93c-5.48,4.62-8.9,10.52-10.26,17.71c-1.37,7.19-2.05,14.72-2.05,22.58v126.78
			c0,7.88,0.68,15.49,2.05,22.84c1.36,7.36,4.79,13.43,10.26,18.22C1130.09,1651.59,1138.65,1653.98,1150.28,1653.98z"/>
		<path class="st2" d="M1267.82,1669.89v-254.06H1294l4.11,27.72c3.42-11.29,9.92-19.42,19.5-24.38c9.58-4.96,19.67-7.44,30.28-7.44
			c18.13,0,31.39,3.17,39.78,9.5c8.38,6.34,13.77,14.55,16.17,24.64c2.39,10.1,3.59,21.13,3.59,33.1v190.93h-31.82v-186.83
			c0-5.81-0.18-11.63-0.51-17.45c-0.34-5.81-1.63-11.04-3.85-15.65c-2.23-4.62-5.9-8.29-11.04-11.04
			c-5.13-2.73-12.66-4.11-22.58-4.11c-8.56,0-15.49,1.63-20.79,4.88c-5.31,3.26-9.24,7.02-11.8,11.29
			c-2.57,4.28-4.36,8.3-5.39,12.06v206.84H1267.82z"/>
		<path class="st2" d="M1512.64,1670.41c-7.53,0-14.37-0.85-20.53-2.57c-6.16-1.71-11.47-4.53-15.91-8.47
			c-4.45-3.93-7.88-9.06-10.26-15.4c-2.4-6.33-3.59-14.28-3.59-23.87v-184.26h-22.58v-16.42l24.64-3.59l5.65-47.73h24.12v47.73
			h54.92v20.02h-54.92v178.61c0,9.58,1.71,17.63,5.13,24.12c3.42,6.5,10.95,9.75,22.58,9.75c4.79,0,9.92-0.26,15.4-0.77
			c5.47-0.51,9.41-0.77,11.8-0.77v20.53c-2.74,0-7.53,0.51-14.37,1.54C1527.86,1669.89,1520.51,1670.41,1512.64,1670.41z"/>
	</g>
	<g>
		<path class="st1" d="M1996.5,1669.89v-303.34h93.93c17.45,0,31.48,4.03,42.09,12.06c10.6,8.04,15.91,20.79,15.91,38.24v55.94
			c0,11.64-1.72,22.5-5.13,32.59c-3.42,10.1-9.75,18.22-18.99,24.38c-9.24,6.16-22.58,9.24-40.03,9.24h-54.41v130.88H1996.5z
			 M2029.86,1520.02h44.65c13.68,0,24.04-4.19,31.05-12.58c7.01-8.38,10.52-21.3,10.52-38.75v-39.52c0-15.05-3.26-26.09-9.75-33.1
			c-6.5-7.01-14.37-10.52-23.61-10.52h-52.87V1520.02z"/>
		<path class="st1" d="M2188.45,1669.89v-325.41h31.31v325.41H2188.45z"/>
		<path class="st1" d="M2320.36,1673.48c-7.88,0-15.83-1.11-23.87-3.34c-8.04-2.22-14.88-7.35-20.53-15.4
			c-5.65-8.04-8.47-20.61-8.47-37.72v-24.64c0-17.11,5.21-30.88,15.65-41.32c10.43-10.43,24.72-19.76,42.86-27.97
			c11.63-5.81,21.12-10.95,28.49-15.4c7.35-4.44,12.91-9.41,16.68-14.89c3.76-5.47,5.65-12.83,5.65-22.07v-10.78
			c0-8.21-1.72-14.54-5.13-18.99c-3.42-4.44-7.96-7.52-13.6-9.24c-5.65-1.71-11.55-2.57-17.71-2.57c-15.4,0-25.49,4.19-30.28,12.57
			c-4.8,8.39-7.19,20.79-7.19,37.21v21.56h-29.26v-24.64c0-12.65,1.71-23.87,5.13-33.62c3.42-9.75,9.92-17.45,19.5-23.1
			c9.58-5.65,23.61-8.47,42.09-8.47c19.5,0,34.13,2.23,43.88,6.67c9.75,4.45,16.25,10.78,19.5,18.99
			c3.25,8.21,4.88,17.96,4.88,29.26v204.28h-31.31l-0.51-31.82c-4.11,11.64-11.47,20.45-22.07,26.43
			C2344.14,1670.49,2332.68,1673.48,2320.36,1673.48z M2332.16,1651.93c15.4,0,26.6-5.47,33.62-16.42
			c7.01-10.95,10.52-25.49,10.52-43.63v-81.09c-3.42,5.48-9.07,10.44-16.94,14.88c-7.88,4.45-15.91,8.9-24.12,13.34
			c-11.64,6.85-20.62,13.95-26.95,21.3c-6.33,7.36-9.5,17.54-9.5,30.54v20.02c0,12.32,1.71,21.39,5.13,27.2
			c3.42,5.82,7.7,9.58,12.83,11.29C2321.9,1651.08,2327.03,1651.93,2332.16,1651.93z"/>
		<path class="st1" d="M2466.63,1729.94c-7.19,0-13.6-0.51-19.25-1.54c-5.65-1.03-10.01-1.88-13.09-2.57v-18.99
			c1.03,0.68,3.34,1.36,6.93,2.05c3.59,0.68,7.78,1.03,12.57,1.03c5.13,0,10.86-0.86,17.19-2.57c6.33-1.72,11.55-6.5,15.65-14.37
			c2.05-3.42,4.36-7.36,6.93-11.8c2.57-4.45,3.16-9.58,1.8-15.4l-58.51-249.96h32.85l46.71,221.73h-0.51l45.17-221.73h30.28
			l-55.43,244.31c-5.13,23.61-13.18,41.14-24.12,52.61C2500.84,1724.21,2485.79,1729.94,2466.63,1729.94z"/>
	</g>
</g>
</svg>
