<svg width="926" height="920" viewBox="0 0 926 920" fill="none" xmlns="http://www.w3.org/2000/svg">
<path d="M443.069 843.8V799H453.373V835.352H473.597V799H483.901V843.8H443.069Z" fill="white"/>
<path d="M401.152 792.726C404.717 793.393 407.788 794.726 410.366 796.727C412.894 798.763 414.707 801.25 415.807 804.19C416.907 807.131 417.143 810.278 416.516 813.633C415.889 816.989 414.531 819.838 412.444 822.183C410.356 824.527 407.77 826.171 404.686 827.113C401.552 828.09 398.202 828.245 394.637 827.579C391.072 826.912 388.026 825.561 385.498 823.526C382.963 821.533 381.145 819.067 380.045 816.126C378.945 813.186 378.709 810.039 379.336 806.683C379.963 803.328 381.321 800.478 383.408 798.134C385.496 795.79 388.086 794.125 391.178 793.141C394.263 792.198 397.587 792.06 401.152 792.726ZM399.647 800.779C397.13 800.308 394.919 800.763 393.011 802.143C391.054 803.557 389.809 805.689 389.276 808.541C388.743 811.393 389.137 813.811 390.459 815.794C391.732 817.812 393.626 819.056 396.142 819.526C398.659 819.997 400.896 819.525 402.853 818.111C404.802 816.739 406.043 814.627 406.576 811.775C407.109 808.923 406.719 806.485 405.405 804.46C404.083 802.476 402.163 801.249 399.647 800.779Z" fill="white"/>
<path d="M334.907 787.796L339.741 789.669L344.457 777.495L353.767 781.101L341.329 813.208L332.019 809.602L336.851 797.129L331.838 795.187L318.293 804.284L308.387 800.446L325.571 789.396L320.049 768.039L331.03 772.293L334.907 787.796Z" fill="white"/>
<path d="M248.421 766.151L280.881 743.268C284.312 740.725 287.452 739.383 290.301 739.239C293.113 739.074 295.916 739.856 298.709 741.585C300.233 742.529 301.592 743.697 302.788 745.089C303.983 746.482 304.794 747.887 305.22 749.305L298.379 753.425C298.085 752.44 297.623 751.526 296.99 750.683C296.322 749.818 295.57 749.127 294.736 748.61C293.575 747.891 292.452 747.597 291.368 747.729C290.305 747.824 289.079 748.344 287.69 749.291L287.413 749.495L281.831 786.838L273.07 781.414L277.151 756.465L256.583 771.205L248.421 766.151Z" fill="white"/>
<path d="M199.076 724.413L222.272 698.968L229.651 705.694L211.973 725.086L222.567 734.744L240.245 715.352L247.576 722.035L224.379 747.481L199.076 724.413Z" fill="white"/>
<path d="M164.436 684.72C161.222 680.464 159.775 676.424 160.095 672.6C160.381 668.802 162.567 665.36 166.653 662.274L182.333 650.434L187.964 657.89L184.542 660.475C188.227 660.044 191.612 661.872 194.698 665.958C196.292 668.069 197.323 670.178 197.79 672.284C198.232 674.356 198.132 676.276 197.489 678.045C196.847 679.813 195.725 681.302 194.125 682.51C191.571 684.439 188.842 685.002 185.938 684.201C183.009 683.366 180.027 680.94 176.993 676.922L172.21 670.589C170.474 671.9 169.544 673.431 169.422 675.18C169.266 676.956 169.985 678.899 171.579 681.01C172.685 682.474 174.016 683.741 175.572 684.811C177.069 685.873 178.582 686.602 180.111 686.998L176.704 694.062C174.517 693.361 172.35 692.191 170.202 690.551C168.029 688.877 166.107 686.933 164.436 684.72ZM187.831 668.016C186.802 666.654 185.583 665.676 184.173 665.084C182.729 664.517 181.227 664.475 179.667 664.958L176.858 667.079L180.985 672.544C183.453 675.813 185.76 676.637 187.905 675.017C188.926 674.246 189.448 673.237 189.469 671.991C189.431 670.737 188.885 669.412 187.831 668.016Z" fill="white"/>
<path d="M136.653 602.84C136.768 602.783 137.598 602.441 139.145 601.814L150.755 625.131C152.456 623.76 153.47 622.016 153.798 619.898C154.126 617.781 153.71 615.557 152.55 613.227C151.751 611.623 150.818 610.324 149.751 609.33C148.627 608.317 147.283 607.532 145.719 606.977L148.508 599.654C153.276 600.902 157.048 604.314 159.825 609.891C161.556 613.366 162.418 616.774 162.413 620.113C162.369 623.471 161.505 626.475 159.822 629.124C158.138 631.774 155.769 633.859 152.713 635.381C149.696 636.883 146.633 637.527 143.523 637.312C140.356 637.078 137.486 636.052 134.913 634.235C132.282 632.399 130.197 629.934 128.657 626.84C127.154 623.823 126.444 620.769 126.525 617.678C126.607 614.587 127.527 611.745 129.287 609.153C130.989 606.542 133.445 604.438 136.653 602.84ZM135.388 623.417C136.396 625.441 137.816 626.856 139.646 627.66C141.476 628.464 143.461 628.525 145.599 627.842L138.039 612.66C136.244 613.935 135.115 615.546 134.654 617.491C134.155 619.456 134.399 621.431 135.388 623.417Z" fill="white"/>
<path d="M106.938 542.117L110.126 553.32L135.364 546.139L138.079 555.68L112.841 562.861L116.028 574.065L108.149 576.306L99.0591 544.358L106.938 542.117Z" fill="white"/>
<path d="M101.764 458.579L107.669 394.852L113.85 395.425L107.945 459.152L101.764 458.579Z" fill="white"/>
<path d="M143.412 301.329L140.217 307.745L156.373 315.79L151.78 325.014L111.677 305.044L116.27 295.821L132.483 303.894L135.792 297.248L124.828 278.634L129.706 268.837L142.538 291.599L170.009 288.405L164.76 298.946L143.412 301.329Z" fill="white"/>
<path d="M193.188 255.939C191.002 258.833 188.439 260.988 185.499 262.403C182.551 263.759 179.516 264.274 176.393 263.948C173.271 263.622 170.348 262.43 167.624 260.373C164.9 258.316 162.954 255.831 161.786 252.917C160.618 250.003 160.3 246.956 160.831 243.775C161.354 240.534 162.708 237.466 164.893 234.572C167.079 231.678 169.646 229.553 172.594 228.197C175.509 226.816 178.527 226.288 181.649 226.614C184.771 226.94 187.694 228.132 190.418 230.189C193.142 232.246 195.088 234.731 196.256 237.645C197.424 240.559 197.76 243.619 197.263 246.826C196.732 250.007 195.373 253.045 193.188 255.939ZM186.651 251.002C188.193 248.959 188.772 246.777 188.387 244.454C187.994 242.072 186.64 240.007 184.325 238.258C182.009 236.51 179.669 235.786 177.304 236.085C174.931 236.325 172.973 237.466 171.431 239.509C169.888 241.552 169.313 243.764 169.706 246.146C170.066 248.503 171.403 250.555 173.718 252.304C176.033 254.052 178.391 254.789 180.789 254.516C183.154 254.216 185.108 253.045 186.651 251.002Z" fill="white"/>
<path d="M224.397 172.397L247.594 197.842L240.216 204.569L222.538 185.177L211.944 194.835L229.621 214.227L222.29 220.91L199.094 195.464L224.397 172.397Z" fill="white"/>
<path d="M251.503 151.839L259.937 146.617L270.718 164.03L274.194 137.79L281.975 132.972L300.101 162.247L291.667 167.469L280.885 150.056L277.465 176.262L269.629 181.114L251.503 151.839Z" fill="white"/>
<path d="M348.645 112.638L337.784 116.846L347.263 141.314L338.013 144.897L328.534 120.429L317.672 124.637L314.713 116.998L345.686 104.999L348.645 112.638Z" fill="white"/>
<path d="M431 99.88L495 99.88V106.088L431 106.088V99.88Z" fill="white"/>
<path d="M606.174 126.621C608.427 128.363 609.899 130.351 610.589 132.586C611.279 134.821 611.138 137.192 610.167 139.698C608.734 143.398 606.204 145.736 602.578 146.71C598.991 147.7 594.592 147.185 589.38 145.166L568.791 137.19L584.975 95.4154L604.43 102.952C609.284 104.833 612.701 107.232 614.682 110.15C616.663 113.068 616.983 116.258 615.642 119.719C614.841 121.788 613.615 123.418 611.964 124.608C610.328 125.759 608.398 126.43 606.174 126.621ZM587.879 116.444L596.89 119.935C598.999 120.752 600.752 120.951 602.15 120.532C603.563 120.073 604.593 119.007 605.241 117.336C605.873 115.705 605.801 114.236 605.026 112.929C604.291 111.638 602.889 110.592 600.82 109.79L591.809 106.299L587.879 116.444ZM591.797 137.866C596.332 139.623 599.293 138.712 600.681 135.131C602.022 131.67 600.424 129.06 595.889 127.303L585.266 123.188L581.174 133.751L591.797 137.866Z" fill="white"/>
<path d="M641.561 172.11C638.477 170.201 636.095 167.848 634.415 165.051C632.793 162.24 632 159.265 632.037 156.126C632.073 152.987 632.99 149.967 634.787 147.065C636.584 144.163 638.879 141.996 641.673 140.564C644.466 139.132 647.471 138.534 650.688 138.769C653.963 138.99 657.143 140.056 660.226 141.965C663.309 143.874 665.662 146.234 667.284 149.045C668.928 151.82 669.732 154.776 669.696 157.915C669.659 161.054 668.742 164.075 666.946 166.977C665.149 169.879 662.853 172.046 660.06 173.478C657.266 174.909 654.25 175.526 651.011 175.327C647.794 175.092 644.644 174.019 641.561 172.11ZM645.873 165.145C648.05 166.493 650.277 166.868 652.554 166.27C654.889 165.659 656.821 164.12 658.348 161.653C659.875 159.187 660.381 156.79 659.865 154.463C659.407 152.122 658.09 150.278 655.913 148.93C653.737 147.582 651.481 147.214 649.145 147.825C646.832 148.4 644.912 149.921 643.384 152.388C641.857 154.855 641.34 157.27 641.834 159.633C642.35 161.96 643.697 163.798 645.873 165.145Z" fill="white"/>
<path d="M711.971 203.558C713.053 205.411 713.558 207.2 713.487 208.924C713.447 210.678 712.81 212.233 711.573 213.588C710.108 215.197 708.262 216.112 706.038 216.336C703.842 216.528 701.48 216.079 698.953 214.987C696.426 213.896 693.949 212.244 691.521 210.031C689.534 208.22 687.766 206.233 686.217 204.069C684.667 201.906 683.446 199.667 682.554 197.352L689.24 194.008C690.741 197.744 693.116 201.092 696.364 204.053C698.098 205.634 699.684 206.618 701.121 207.004C702.619 207.388 703.799 207.107 704.661 206.161C705.409 205.341 705.622 204.41 705.302 203.368C705.011 202.294 704.203 201.154 702.879 199.946L697.676 195.204L701.858 190.616L706.399 194.755C707.692 195.934 708.872 196.634 709.939 196.857C711.007 197.079 711.9 196.796 712.618 196.008C713.365 195.188 713.499 194.155 713.018 192.909C712.57 191.691 711.541 190.349 709.933 188.883C707.474 186.641 704.262 184.781 700.297 183.304L703.157 176.557C708.097 178.232 712.238 180.592 715.58 183.639C717.882 185.737 719.673 187.89 720.952 190.096C722.264 192.33 722.937 194.474 722.971 196.526C723.034 198.546 722.405 200.282 721.083 201.732C719.99 202.931 718.636 203.688 717.02 204.004C715.432 204.289 713.749 204.14 711.971 203.558Z" fill="white"/>
<path d="M756.168 255.24C757.521 259.297 756.563 262.56 753.294 265.028C750.809 266.905 748.178 267.422 745.402 266.578C742.626 265.733 739.836 263.456 737.034 259.744L725.964 245.086L753.442 224.337L764.048 238.382C766.645 241.821 768.047 244.986 768.252 247.878C768.492 250.745 767.488 253.026 765.241 254.723C763.879 255.752 762.401 256.307 760.805 256.389C759.269 256.48 757.724 256.096 756.168 255.24ZM747.67 240.164L752.221 246.19C754.329 248.982 756.371 249.633 758.346 248.141C760.287 246.676 760.203 244.547 758.094 241.755L753.543 235.728L747.67 240.164ZM741.946 254.992C744.157 257.92 746.267 258.626 748.276 257.109C749.332 256.312 749.841 255.393 749.803 254.352C749.8 253.285 749.245 252.02 748.139 250.556L742.971 243.712L736.894 248.302L741.946 254.992Z" fill="white"/>
<path d="M800.269 297.514C801.695 300.379 802.32 303.309 802.143 306.304C802.024 309.319 801.094 312.094 799.353 314.629C797.651 317.145 795.214 319.192 792.044 320.77C788.874 322.349 785.753 323.069 782.682 322.93C779.648 322.772 776.873 321.842 774.357 320.14C771.899 318.457 769.956 316.183 768.53 313.319C766.571 309.385 766.272 305.673 767.632 302.183L753.252 309.344L748.802 300.406L790.739 279.524L794.989 288.061L791.437 289.829C795.214 290.713 798.158 293.275 800.269 297.514ZM775.093 308.12C776.234 310.412 777.929 311.903 780.18 312.594C782.488 313.303 784.94 313.012 787.537 311.718C790.134 310.425 791.826 308.653 792.612 306.403C793.455 304.172 793.306 301.911 792.165 299.619C791.024 297.327 789.3 295.827 786.992 295.117C784.742 294.426 782.318 294.728 779.721 296.021C777.123 297.314 775.403 299.076 774.56 301.307C773.774 303.558 773.952 305.829 775.093 308.12Z" fill="white"/>
<path d="M823.276 358.335C824.735 363.465 824.625 367.755 822.945 371.205C821.306 374.644 818.025 377.063 813.1 378.465L794.202 383.842L791.645 374.854L795.769 373.681C792.178 372.751 789.681 369.824 788.28 364.899C787.556 362.355 787.357 360.016 787.681 357.883C788.018 355.791 788.805 354.037 790.043 352.62C791.281 351.203 792.865 350.22 794.794 349.671C797.871 348.796 800.62 349.256 803.038 351.052C805.468 352.889 807.372 356.229 808.75 361.071L810.922 368.704C813.015 368.109 814.434 367.017 815.18 365.43C815.967 363.831 815.999 361.759 815.275 359.215C814.773 357.45 813.99 355.787 812.925 354.227C811.912 352.697 810.765 351.47 809.483 350.549L815.211 345.193C816.997 346.636 818.595 348.511 820.005 350.815C821.427 353.161 822.517 355.668 823.276 358.335ZM795.427 365.461C795.894 367.102 796.678 368.454 797.778 369.516C798.92 370.566 800.305 371.148 801.935 371.261L805.32 370.298L803.446 363.711C802.325 359.772 800.472 358.17 797.887 358.905C796.656 359.256 795.805 360.008 795.335 361.162C794.917 362.345 794.948 363.778 795.427 365.461Z" fill="white"/>
<path d="M837.668 451.657L803.383 454.834L798.534 402.514L832.819 399.337L833.735 409.215L807.607 411.636L808.664 423.043L834.792 420.622L835.707 430.5L809.579 432.921L810.624 444.201L836.752 441.78L837.668 451.657ZM811.982 458.858L797.007 460.246L796.15 451.005L802.969 450.373L802.444 444.702L810.601 443.946L811.982 458.858Z" fill="white"/>
<path d="M835.682 495.218C835.19 500.528 833.538 504.489 830.725 507.099C827.954 509.713 824.02 510.784 818.922 510.312L799.358 508.499L800.22 499.195L804.49 499.59C801.476 497.426 800.206 493.794 800.679 488.696C800.923 486.062 801.581 483.809 802.655 481.938C803.724 480.109 805.092 478.757 806.758 477.883C808.425 477.009 810.256 476.665 812.253 476.85C815.439 477.145 817.836 478.567 819.442 481.115C821.044 483.706 821.613 487.508 821.149 492.521L820.417 500.423C822.583 500.624 824.301 500.119 825.57 498.909C826.882 497.702 827.66 495.781 827.904 493.147C828.073 491.32 827.943 489.487 827.514 487.648C827.123 485.855 826.496 484.297 825.633 482.974L832.91 480.049C834.054 482.041 834.867 484.366 835.349 487.024C835.827 489.725 835.938 492.456 835.682 495.218ZM807.14 491.802C806.982 493.501 807.225 495.045 807.867 496.433C808.553 497.824 809.634 498.867 811.113 499.561L814.618 499.886L815.249 493.067C815.627 488.989 814.478 486.826 811.801 486.578C810.527 486.459 809.462 486.854 808.607 487.76C807.79 488.712 807.301 490.06 807.14 491.802Z" fill="white"/>
<path d="M801.047 574.445C800.924 574.41 800.08 574.103 798.514 573.525L805.643 548.471C803.462 548.339 801.538 548.944 799.869 550.288C798.2 551.632 797.009 553.556 796.297 556.059C795.807 557.783 795.621 559.371 795.74 560.824C795.888 562.331 796.353 563.816 797.134 565.28L790.14 568.813C787.457 564.678 786.968 559.615 788.673 553.624C789.735 549.889 791.393 546.79 793.647 544.326C795.942 541.874 798.604 540.236 801.633 539.412C804.662 538.588 807.818 538.643 811.101 539.577C814.343 540.5 817.041 542.088 819.194 544.342C821.377 546.649 822.807 549.34 823.484 552.416C824.191 555.545 824.071 558.771 823.125 562.095C822.203 565.337 820.671 568.073 818.528 570.303C816.385 572.532 813.791 574.012 810.744 574.742C807.727 575.525 804.494 575.426 801.047 574.445ZM815.844 560.09C816.463 557.915 816.367 555.914 815.556 554.086C814.746 552.259 813.32 550.877 811.279 549.942L806.638 566.254C808.824 566.521 810.743 566.091 812.395 564.964C814.087 563.849 815.237 562.224 815.844 560.09Z" fill="white"/>
<path d="M782.097 639.337L787.289 628.91L763.8 617.214L768.222 608.334L791.711 620.03L796.903 609.603L804.236 613.254L789.43 642.988L782.097 639.337Z" fill="white"/>
<path d="M731.016 667.274C733.227 664.346 735.816 662.157 738.782 660.708C741.756 659.318 744.817 658.769 747.965 659.061C751.087 659.387 754.01 660.579 756.734 662.636C759.458 664.693 761.404 667.178 762.572 670.092C763.714 673.039 764.007 676.121 763.45 679.336C762.902 682.611 761.522 685.713 759.311 688.641C757.125 691.535 754.61 693.592 751.764 694.811C748.927 696.09 746.012 696.375 743.019 695.666L744.366 686.979C747.965 687.452 750.781 686.343 752.812 683.653C754.38 681.576 754.998 679.342 754.664 676.952C754.331 674.562 752.99 672.479 750.64 670.705C748.291 668.931 745.921 668.211 743.53 668.544C741.14 668.877 739.161 670.083 737.592 672.16C735.535 674.884 735.239 677.895 736.705 681.194L728.667 684.828C727.234 682.195 726.727 679.326 727.147 676.221C727.541 673.151 728.831 670.168 731.016 667.274Z" fill="white"/>
<path d="M702.255 747.542L679.058 722.097L685.632 716.103L692.272 723.387L697.711 718.429L695.895 706.747L703.747 699.59L705.518 713.217C707.916 712.301 710.177 712.058 712.302 712.489C714.423 712.98 716.332 714.155 718.028 716.016C720.759 719.011 721.785 722.29 721.107 725.853C720.426 729.476 718.194 733.012 714.41 736.461L702.255 747.542ZM708.792 730.584C710.369 729.147 711.308 727.771 711.611 726.456C711.881 725.169 711.442 723.896 710.292 722.635C709.142 721.373 707.916 720.788 706.613 720.879C705.308 721.03 703.866 721.824 702.29 723.261L696.756 728.306L703.353 735.542L708.792 730.584Z" fill="white"/>
<path d="M623.297 784.239L563.619 807.359L561.376 801.57L621.054 778.45L623.297 784.239Z" fill="white"/>
</svg>
